<?xml version="1.0" encoding="utf-8"?>
<!-- Generator: Adobe Illustrator 27.3.1, SVG Export Plug-In . SVG Version: 6.00 Build 0)  -->
<svg version="1.1" id="Layer_1" xmlns="http://www.w3.org/2000/svg" xmlns:xlink="http://www.w3.org/1999/xlink" x="0px" y="0px"
	 viewBox="0 0 32 32" style="enable-background:new 0 0 32 32;" xml:space="preserve">
<style type="text/css">
	.st0{fill:#08090A;}
</style>
<path class="st0" d="M23.3,30.8C23.3,30.7,23.3,30.7,23.3,30.8C23.4,30.7,23.4,30.7,23.3,30.8c0.3-0.3,0.4-0.5,0.4-0.8
	c0,0,0-0.1,0-0.1c0-0.2,0-0.5-0.5-0.9l-3-3L10.3,16l0.8-0.8c0.2-0.2,0.4-0.3,0.5-0.5c0.1-0.1,0.2-0.2,0.3-0.3
	c0.1-0.1,0.2-0.2,0.3-0.3c0.1-0.1,0.2-0.2,0.4-0.4c0.1-0.1,0.3-0.3,0.4-0.4c0.2-0.2,0.3-0.3,0.5-0.5c0.2-0.2,0.3-0.3,0.5-0.5
	c0.2-0.2,0.4-0.4,0.5-0.5c0.2-0.2,0.4-0.4,0.6-0.6c0.2-0.2,0.4-0.4,0.6-0.6c0.2-0.2,0.4-0.4,0.6-0.6c0.1-0.1,0.2-0.2,0.3-0.3L23.3,3
	c0.4-0.4,0.4-1,0.2-1.5c0-0.1-0.1-0.1-0.1-0.2c0,0,0,0,0,0c0,0,0,0,0,0c-0.1-0.1-0.2-0.2-0.3-0.2c0,0-0.1,0-0.1-0.1c0,0,0,0-0.1,0
	l-0.2-0.1l-0.3,0C22.1,1,22.1,1,22,1c-0.2,0.1-0.3,0.1-0.4,0.3L7.7,15.1c-0.4,0.4-0.4,1-0.1,1.5c0,0.1,0.1,0.1,0.1,0.2c0,0,0,0,0,0
	c0,0,0,0,0,0c0,0.1,0.1,0.1,0.1,0.2c1,1,1.9,1.9,2.9,2.9l10.9,10.9C22.1,31.2,22.8,31.2,23.3,30.8C23.3,30.8,23.3,30.8,23.3,30.8z"
	/>
</svg>
