<?xml version="1.0" encoding="utf-8"?>
<!-- Generator: Adobe Illustrator 27.3.1, SVG Export Plug-In . SVG Version: 6.00 Build 0)  -->
<svg version="1.1" id="Layer_1" xmlns="http://www.w3.org/2000/svg" xmlns:xlink="http://www.w3.org/1999/xlink" x="0px" y="0px"
	 viewBox="0 0 32 32" style="enable-background:new 0 0 32 32;" xml:space="preserve">
<style type="text/css">
	.st0{fill:#08090A;}
</style>
<path class="st0" d="M7.8,30.8C7.8,30.7,7.8,30.7,7.8,30.8C7.8,30.7,7.8,30.7,7.8,30.8c-0.3-0.3-0.4-0.5-0.4-0.8c0,0,0-0.1,0-0.1
	c0-0.2,0-0.5,0.5-0.9l3-3l9.9-9.9L20,15.1c-0.2-0.2-0.4-0.3-0.5-0.5c-0.1-0.1-0.2-0.2-0.3-0.3c-0.1-0.1-0.2-0.2-0.3-0.3
	c-0.1-0.1-0.2-0.2-0.4-0.4c-0.1-0.1-0.3-0.3-0.4-0.4c-0.2-0.2-0.3-0.3-0.5-0.5c-0.2-0.2-0.3-0.3-0.5-0.5c-0.2-0.2-0.4-0.4-0.5-0.5
	c-0.2-0.2-0.4-0.4-0.6-0.6c-0.2-0.2-0.4-0.4-0.6-0.6c-0.2-0.2-0.4-0.4-0.6-0.6c-0.1-0.1-0.2-0.2-0.3-0.3L7.9,3
	C7.5,2.6,7.4,2,7.7,1.6c0-0.1,0.1-0.1,0.1-0.2c0,0,0,0,0,0c0,0,0,0,0,0C8,1.2,8.1,1.1,8.2,1.1c0,0,0.1,0,0.1-0.1c0,0,0,0,0.1,0
	l0.2-0.1l0.3,0C9,1,9.1,1,9.1,1c0.2,0.1,0.3,0.1,0.4,0.3l13.8,13.8c0.4,0.4,0.4,1,0.1,1.5c0,0.1-0.1,0.1-0.1,0.2c0,0,0,0,0,0
	c0,0,0,0,0,0c0,0.1-0.1,0.1-0.1,0.2c-1,1-1.9,1.9-2.9,2.9L9.5,30.7C9,31.2,8.4,31.2,7.8,30.8C7.9,30.8,7.9,30.8,7.8,30.8z"/>
</svg>
