<?xml version="1.0" encoding="utf-8"?>
<!-- Generator: Adobe Illustrator 27.3.1, SVG Export Plug-In . SVG Version: 6.00 Build 0)  -->
<svg version="1.1" id="Layer_1" xmlns="http://www.w3.org/2000/svg" xmlns:xlink="http://www.w3.org/1999/xlink" x="0px" y="0px"
	 viewBox="0 0 32 32" style="enable-background:new 0 0 32 32;" xml:space="preserve">
<g>
	<path d="M26.7,22.5c0.6,0,0.8-0.2,0.8-0.8c0-5.4,0-10.9,0-16.3c0-0.6-0.2-0.8-0.8-0.8c-1,0.1-2,0.2-3,0.4c-2.4,0.5-4.7,1.5-6.7,3
		c-0.3,0.2-0.4,0.4-0.4,0.7c0,5.7,0,11.3,0,17c0,0.1,0,0.2,0,0.4c0.1-0.1,0.2-0.1,0.2-0.2c1.1-0.8,2.3-1.5,3.5-2.1
		C22.4,23.1,24.5,22.6,26.7,22.5z"/>
	<path d="M5.4,4.6c-0.7,0-0.9,0.1-0.9,0.8c0,5.4,0,10.8,0,16.2c0,0.1,0,0.2,0,0.3c0,0.3,0.2,0.5,0.5,0.5c0.1,0,0.3,0,0.4,0
		c2.7,0.1,5.3,0.9,7.7,2.2c0.8,0.4,1.5,0.9,2.3,1.4c0-0.1,0-0.2,0-0.3c0-5.7,0-11.4,0-17.1c0-0.3-0.1-0.4-0.3-0.6
		C12.3,5.9,9,4.9,5.4,4.6z"/>
	<path d="M31,7.7c0-0.1,0-0.2,0-0.3c0-0.3-0.2-0.5-0.6-0.5c-0.6,0-1.2,0-1.8,0.1c0,5.6,0,11.2,0,16.8c-4.3-0.2-8.2,0.9-11.5,3.7
		c0.1,0,0.1,0,0.2,0c4.1-1.7,8.4-2.5,12.9-2.5c0.7,0,0.8-0.2,0.8-0.8C31,18.6,31,13.1,31,7.7z"/>
	<path d="M3.4,23.7c0-5.6,0-11.2,0-16.8c-0.6,0-1.1-0.1-1.6-0.1C1.2,6.9,1,7.1,1,7.6c0,5.5,0,11,0,16.5c0,0.5,0.2,0.7,0.7,0.7
		c1,0,2,0.1,3,0.2c3,0.2,5.9,0.8,8.7,1.8c0.5,0.2,1.1,0.4,1.6,0.6C11.6,24.6,7.7,23.5,3.4,23.7z"/>
</g>
</svg>
