<?xml version="1.0" encoding="utf-8"?>
<!-- Generator: Adobe Illustrator 27.3.1, SVG Export Plug-In . SVG Version: 6.00 Build 0)  -->
<svg version="1.1" id="Layer_1" xmlns="http://www.w3.org/2000/svg" xmlns:xlink="http://www.w3.org/1999/xlink" x="0px" y="0px"
	 viewBox="0 0 32 32" style="enable-background:new 0 0 32 32;" xml:space="preserve">
<g>
	<path d="M30.9,10.6c-0.2-1.4-1.8-2.1-3.1-1.3c-1.5,0.9-3.1,1.8-4.7,2.7c-0.2,0.1-0.3,0.2-0.3,0.4c0,2.3,0,4.7,0,7
		c0,0.2,0.1,0.3,0.3,0.4c1,0.6,2.1,1.2,3.1,1.8c0.7,0.4,1.3,0.8,2,1.1c0.6,0.3,1.2,0.2,1.8-0.1c0.5-0.3,0.8-0.8,0.9-1.4
		C31,17.8,31,14.2,30.9,10.6C31,10.7,30.9,10.6,30.9,10.6z"/>
	<path d="M21.2,9.8c-0.3-1.6-1.6-2.6-3.3-2.6c-2.2,0-4.5,0-6.7,0s-4.5,0-6.7,0c-2,0-3.4,1.4-3.4,3.4c0,3.6,0,7.2,0,10.8
		c0,0.3,0,0.6,0.1,0.9c0.4,1.5,1.6,2.5,3.3,2.5c4.5,0,9,0,13.5,0c0.2,0,0.4,0,0.6,0c1.6-0.3,2.7-1.6,2.7-3.4c0-3.6,0-7.2,0-10.7
		C21.2,10.4,21.2,10.1,21.2,9.8z"/>
</g>
</svg>
