<?xml version="1.0" encoding="utf-8"?>
<!-- Generator: Adobe Illustrator 27.3.1, SVG Export Plug-In . SVG Version: 6.00 Build 0)  -->
<svg version="1.1" id="Layer_1" xmlns="http://www.w3.org/2000/svg" xmlns:xlink="http://www.w3.org/1999/xlink" x="0px" y="0px"
	 viewBox="0 0 32 32" style="enable-background:new 0 0 32 32;" xml:space="preserve">
<g>
	<path d="M28.1,6.7c-2.4-3.2-5.7-5.1-9.6-5.8c-0.5-0.1-1-0.1-1.6-0.2c-0.6,0-1.3,0-1.9,0c-0.6,0.1-1.1,0.1-1.7,0.2
		c-3.2,0.6-6,2-8.3,4.4c-2.4,2.4-3.8,5.3-4.2,8.6c-0.1,0.4-0.1,0.7-0.1,1.1c0,0.6,0,1.3,0,1.9c0.1,0.6,0.1,1.1,0.2,1.7
		c0.6,3.5,2.3,6.5,5,8.8c2.3,2,5,3.2,8,3.7c0.4,0.1,0.7,0.1,1.1,0.1c0.6,0,1.3,0,1.9,0c0.6-0.1,1.1-0.1,1.7-0.2
		c3.5-0.6,6.4-2.3,8.8-4.9c2.1-2.3,3.3-5,3.7-8.1C31.7,13.9,30.7,10.1,28.1,6.7z M16,29.4c-7.4,0-13.4-6-13.4-13.4
		c0-7.4,6-13.4,13.4-13.4c7.4,0,13.4,6,13.4,13.4C29.4,23.4,23.4,29.4,16,29.4z"/>
	<path d="M17.2,15.9c-0.2-0.2-0.3-0.4-0.3-0.7c0-2.8,0-5.6,0-8.4c0-0.1,0-0.2,0-0.3c-0.7,0-1.3,0-1.9,0c0,0.1,0,0.2,0,0.3
		c0,3.1,0,6.2,0,9.4c0,0.2,0.1,0.3,0.2,0.5c1.9,1.9,3.7,3.7,5.6,5.6c0.1,0.1,0.1,0.1,0.2,0.2c0.4-0.4,0.9-0.9,1.4-1.4
		c-0.1-0.1-0.2-0.1-0.2-0.2C20.5,19.2,18.9,17.5,17.2,15.9z"/>
</g>
</svg>
