<?xml version="1.0" encoding="utf-8"?>
<!-- Generator: Adobe Illustrator 27.3.1, SVG Export Plug-In . SVG Version: 6.00 Build 0)  -->
<svg version="1.1" id="Layer_1" xmlns="http://www.w3.org/2000/svg" xmlns:xlink="http://www.w3.org/1999/xlink" x="0px" y="0px"
	 viewBox="0 0 32 32" style="enable-background:new 0 0 32 32;" xml:space="preserve">
<g>
	<path d="M30.8,8.5c-0.4-2.9-1.9-5.4-4.7-6.6c-1.1-0.5-2.3-0.7-3.5-0.8C18.5,0.9,14.4,1,10.2,1.1C8.7,1.1,7.1,1.3,5.7,2
		C3.3,3.1,1.9,5.1,1.3,7.6C1,9.1,1,10.6,1,12c0,3.2,0,6.5,0,9.7c0,1.6,0.2,3.1,0.9,4.6C3,28.6,4.9,30,7.4,30.6
		c1.2,0.3,2.4,0.3,3.6,0.4c0.2,0,0.4,0,0.6,0c3,0,6,0,9,0c0.7,0,1.4-0.1,2.1-0.1c2-0.1,3.9-0.7,5.5-2.1c1.4-1.3,2.3-2.9,2.6-4.8
		c0.2-1.2,0.2-2.4,0.2-3.7c0-2,0-4,0-6C31,12.4,31.1,10.4,30.8,8.5z M28.3,21.3c0,0.9-0.1,1.9-0.3,2.8c-0.6,2.3-2.1,3.6-4.4,3.9
		c-2.2,0.3-4.5,0.3-6.8,0.3c-2.4,0-4.8,0-7.2-0.1c-1.1,0-2.2-0.3-3.2-0.9c-1.4-0.9-2.2-2.3-2.4-3.9c-0.2-1.7-0.2-3.4-0.2-5
		c0-2.4,0-4.9,0-7.3C3.8,10,3.8,9,4.1,8c0.5-2.3,2-3.5,4.3-4c1.5-0.3,3-0.2,4.5-0.3c2.6,0,5.3,0,7.9,0c1.1,0,2.1,0.1,3.1,0.3
		c2.4,0.5,3.9,2.1,4.2,4.5c0.1,1.2,0.2,2.4,0.2,3.6C28.3,15.2,28.3,18.3,28.3,21.3z"/>
	<path d="M16,8.3c-4.2,0-7.7,3.4-7.7,7.7c0,4.2,3.4,7.7,7.7,7.7c4.2,0,7.7-3.4,7.7-7.7C23.8,11.8,20.3,8.3,16,8.3z M16,21
		c-2.8,0-5-2.2-5-5c0-2.8,2.3-5,5-5c2.8,0,5,2.3,5,5C21,18.8,18.8,21,16,21z"/>
	<path d="M24,6.2c-1,0-1.8,0.8-1.8,1.8c0,1,0.8,1.8,1.8,1.8c1,0,1.8-0.8,1.8-1.8C25.8,7,25.1,6.2,24,6.2z"/>
</g>
</svg>
