<?xml version="1.0" encoding="utf-8"?>
<!-- Generator: Adobe Illustrator 27.3.1, SVG Export Plug-In . SVG Version: 6.00 Build 0)  -->
<svg version="1.1" id="Layer_1" xmlns="http://www.w3.org/2000/svg" xmlns:xlink="http://www.w3.org/1999/xlink" x="0px" y="0px"
	 viewBox="0 0 32 32" style="enable-background:new 0 0 32 32;" xml:space="preserve">
<g>
	<path d="M4.1,6.9c2.4-3.1,5.6-5,9.4-5.7C14.3,1.1,15.1,1,15.9,1c0.3,0,0.6,0,0.9,0c0.6,0,1.2,0.1,1.8,0.2c3.2,0.6,5.9,2,8.1,4.3
		c2.3,2.4,3.7,5.2,4.2,8.5c0.2,1.5,0.2,3.1-0.1,4.6c-0.6,3.4-2.3,6.3-4.9,8.6c-2.2,2-4.9,3.2-7.8,3.6c-1.2,0.2-2.5,0.2-3.8,0
		c-1.1-0.1-2.2-0.4-3.3-0.8c-1-0.3-1.9-0.8-2.8-1.3c-0.9-0.5-1.7-1.2-2.5-1.9c-0.3-0.3-0.7-0.6-1-1c-2-2.3-3.2-4.9-3.6-7.9
		C0.6,13.9,1.6,10.2,4.1,6.9z M16,29.1c7.2,0,13.1-5.9,13.1-13.1c0-7.2-5.9-13.1-13.1-13.1C8.7,2.9,2.9,8.8,2.9,16
		C2.9,23.2,8.8,29.1,16,29.1z"/>
	<path d="M14.4,10.7c0.1-0.1,0.4-0.2,0.6-0.3c0.4-0.1,0.8,0.2,0.9,0.5c0.2,0.4,0.1,0.8-0.2,1.1c-0.9,0.9-1.9,1.9-2.8,2.8
		c-0.1,0.1-0.1,0.1-0.2,0.2c0.2,0,0.3,0,0.4,0c2.6,0,5.2,0,7.8,0c0.6,0,1.4-0.1,1.6,0.6c0.3,0.6-0.2,1.3-1,1.3c-1.3,0-2.6,0-3.9,0
		c-1.5,0-3,0-4.6,0c-0.1,0-0.2,0-0.4,0c0.1,0.1,0.2,0.2,0.2,0.2c0.9,0.9,1.9,1.9,2.8,2.8c0.4,0.4,0.4,1,0,1.3
		c-0.4,0.4-0.9,0.4-1.3,0c-1.6-1.5-3.1-3.1-4.7-4.7c-0.4-0.4-0.4-1,0-1.4C11.3,13.8,12.8,12.2,14.4,10.7z"/>
</g>
</svg>
