<?xml version="1.0" encoding="utf-8"?>
<!-- Generator: Adobe Illustrator 27.3.1, SVG Export Plug-In . SVG Version: 6.00 Build 0)  -->
<svg version="1.1" id="Layer_1" xmlns="http://www.w3.org/2000/svg" xmlns:xlink="http://www.w3.org/1999/xlink" x="0px" y="0px"
	 viewBox="0 0 32 32" style="enable-background:new 0 0 32 32;" xml:space="preserve">
<g>
	<path d="M30.8,14c-0.5-3.3-1.9-6.1-4.2-8.5c-2.2-2.3-5-3.7-8.1-4.3C18,1.1,17.4,1,16.8,1c-0.2,0-0.5,0-0.7,0l-0.2,0
		c-0.8,0-1.6,0.1-2.4,0.2C9.6,1.9,6.5,3.8,4.1,6.9c-2.5,3.3-3.5,7-2.9,11.1c0.4,3,1.6,5.6,3.6,7.9c0.3,0.3,0.6,0.7,1,1
		c0.8,0.7,1.6,1.4,2.5,1.9c0.9,0.5,1.8,1,2.8,1.3c1.1,0.4,2.2,0.6,3.3,0.8C14.8,31,15.4,31,16,31c0.7,0,1.4,0,2-0.1
		c3-0.4,5.6-1.6,7.8-3.6c2.6-2.3,4.2-5.2,4.9-8.6C31,17,31,15.5,30.8,14z M16,30.1c-7.7,0-14-6.3-14-14.1c0-7.7,6.3-14.1,14-14.1h0
		c7.7,0,14,6.3,14,14.1C30.1,23.7,23.7,30.1,16,30.1z"/>
	<path d="M21.4,15.5l-10.2,0l4-4.1c0.2-0.2,0.2-0.3,0.1-0.5c-0.1-0.2-0.2-0.3-0.4-0.3c0,0,0,0,0,0c-0.2,0-0.3,0.1-0.3,0.1
		c-1.6,1.6-3.2,3.2-4.8,4.8c-0.2,0.2-0.2,0.5,0,0.7c1.6,1.6,3.2,3.2,4.8,4.8c0.1,0.1,0.2,0.1,0.3,0.1c0.1,0,0.2,0,0.3-0.1
		c0.2-0.2,0.2-0.4,0-0.7c-0.5-0.5-4-4.1-4-4.1l10.4,0c0.2,0,0.4-0.1,0.5-0.2c0.1-0.1,0.1-0.2,0-0.4C22.2,15.7,22.1,15.5,21.4,15.5z"
		/>
</g>
<g>
	<path d="M-6.2,14c-0.5-3.3-1.8-6.1-4.2-8.5c-2.2-2.3-4.9-3.7-8.1-4.3C-19,1.1-19.6,1-20.2,1c-0.3,0-0.6,0-0.9,0
		c-0.8,0-1.6,0.1-2.4,0.2c-3.9,0.7-7,2.6-9.4,5.7c-2.5,3.3-3.5,7-2.9,11.1c0.4,3,1.6,5.6,3.6,7.9c0.3,0.3,0.6,0.7,1,1
		c0.8,0.7,1.6,1.4,2.5,1.9c0.9,0.5,1.8,1,2.8,1.3c1.1,0.4,2.2,0.6,3.3,0.8c1.3,0.2,2.5,0.1,3.8,0c3-0.4,5.6-1.6,7.8-3.6
		c2.6-2.3,4.2-5.2,4.9-8.6C-6,17.1-5.9,15.5-6.2,14z M-21,29.1c-7.2,0-13.1-5.9-13.1-13.1c0-7.2,5.9-13.1,13.1-13.1
		c7.2,0,13.1,5.9,13.1,13.1C-7.9,23.2-13.8,29.1-21,29.1z"/>
	<path d="M-16.2,15.1c-2.6,0-5.2,0-7.8,0c-0.1,0-0.2,0-0.4,0c0.1-0.1,0.2-0.2,0.2-0.2c0.9-0.9,1.9-1.9,2.8-2.8
		c0.3-0.3,0.4-0.7,0.2-1.1c-0.2-0.4-0.5-0.6-0.9-0.5c-0.2,0-0.4,0.1-0.6,0.3c-1.6,1.5-3.1,3.1-4.7,4.7c-0.4,0.4-0.4,1,0,1.4
		c1.5,1.6,3.1,3.1,4.7,4.7c0.4,0.4,1,0.4,1.3,0c0.4-0.4,0.4-0.9,0-1.3c-0.9-0.9-1.9-1.9-2.8-2.8c-0.1-0.1-0.1-0.1-0.2-0.2
		c0.2,0,0.3,0,0.4,0c1.5,0,3,0,4.6,0c1.3,0,2.6,0,3.9,0c0.7,0,1.2-0.6,1-1.3C-14.8,15-15.5,15.1-16.2,15.1z"/>
</g>
</svg>
