<?xml version="1.0" encoding="utf-8"?>
<!-- Generator: Adobe Illustrator 27.3.1, SVG Export Plug-In . SVG Version: 6.00 Build 0)  -->
<svg version="1.1" id="Layer_1" xmlns="http://www.w3.org/2000/svg" xmlns:xlink="http://www.w3.org/1999/xlink" x="0px" y="0px"
	 viewBox="0 0 32 32" style="enable-background:new 0 0 32 32;" xml:space="preserve">
<g>
	<path d="M30.7,19.1c0-1.4-0.1-2.7-0.5-4.1c-0.5-1.6-1.4-3-3-3.7c-1.2-0.6-2.5-0.7-3.8-0.7c-2.4,0-4.3,1-5.7,3c0,0-0.1,0-0.1,0.1
		c0-0.9,0-1.8,0-2.6c-2,0-3.9,0-5.8,0c0,6.5,0,13,0,19.5c2,0,4,0,6.1,0c0-0.2,0-0.3,0-0.5c0-3.1,0-6.1,0-9.2c0-0.7,0-1.4,0.1-2
		c0.3-1.8,1.2-2.8,2.9-3c1.9-0.2,3.2,0.5,3.5,2.5c0.1,0.7,0.2,1.3,0.2,2c0,3.2,0,6.5,0,9.7c0,0.1,0,0.3,0,0.4c2,0,4,0,6.1,0
		c0-0.1,0-0.2,0-0.2C30.7,26.6,30.7,22.9,30.7,19.1z"/>
	<path d="M1.8,30.7c2,0,4,0,6,0c0-6.5,0-13,0-19.5c-2,0-4,0-6,0C1.8,17.6,1.8,24.1,1.8,30.7z"/>
	<path d="M4.9,1.3C3,1.3,1.4,2.9,1.3,4.8c0,1.9,1.5,3.6,3.5,3.6c2,0,3.5-1.5,3.6-3.5C8.4,3,6.9,1.4,4.9,1.3z"/>
</g>
</svg>
