<?xml version="1.0" encoding="utf-8"?>
<!-- Generator: Adobe Illustrator 27.3.1, SVG Export Plug-In . SVG Version: 6.00 Build 0)  -->
<svg version="1.1" id="Layer_1" xmlns="http://www.w3.org/2000/svg" xmlns:xlink="http://www.w3.org/1999/xlink" x="0px" y="0px"
	 viewBox="0 0 32 32" style="enable-background:new 0 0 32 32;" xml:space="preserve">
<style type="text/css">
	.st0{fill:none;stroke:#000000;stroke-miterlimit:10;}
</style>
<path class="st0" d="M15.2,20.2c-0.2-1.8-1.6-3.2-3.4-3.4c0,0,0,0,0,0c-2.4-0.2-4.8-0.4-7.2-0.6c-0.7-0.1-1.3-0.1-2-0.2
	c-0.6,0-1.1-0.4-1.2-0.9c-0.1-0.5,0.2-1,0.8-1.3c6.7-3.1,13.4-6.1,20-9.2c2.2-1,4.5-2.1,6.7-3.1c0.7-0.3,1.5,0,1.6,0.7
	c0,0.3,0,0.6-0.1,0.9c-1.2,2.7-2.5,5.4-3.7,8.2c-2.8,6.1-5.6,12.3-8.4,18.4c-0.3,0.6-0.7,0.9-1.2,0.9c-0.6,0-1-0.5-1.1-1
	c-0.1-1.7-0.3-3.4-0.4-5.1C15.5,23.3,15.4,21.7,15.2,20.2z"/>
</svg>
