<?xml version="1.0" encoding="utf-8"?>
<!-- Generator: Adobe Illustrator 27.3.1, SVG Export Plug-In . SVG Version: 6.00 Build 0)  -->
<svg version="1.1" id="Layer_1" xmlns="http://www.w3.org/2000/svg" xmlns:xlink="http://www.w3.org/1999/xlink" x="0px" y="0px"
	 viewBox="0 0 32 32" style="enable-background:new 0 0 32 32;" xml:space="preserve">
<path d="M31,24.2c-0.1,0.3-0.2,0.6-0.3,0.8c-0.5,0.9-1.2,1.4-2.3,1.5c-0.1,0-0.1,0-0.2,0c-8.2,0-16.3,0-24.5,0
	c-1.4,0-2.5-0.9-2.7-2.3c0-0.2,0-0.3,0-0.5c0-5.1,0-10.3,0-15.4c0-1.7,1.1-2.8,2.8-2.8c8.1,0,16.2,0,24.4,0c1.4,0,2.4,0.8,2.7,2.2
	c0,0,0,0.1,0,0.1C31,13.3,31,18.7,31,24.2z M27.9,7.3C27.9,7.3,27.9,7.3,27.9,7.3C20,7.3,12,7.3,4.1,7.3c0,0.1,0.1,0.2,0.2,0.2
	c3.6,3.6,7.2,7.3,10.9,10.9c0.6,0.6,1.1,0.6,1.7,0c2.6-2.6,5.2-5.2,7.8-7.8C25.7,9.5,26.8,8.4,27.9,7.3z M27.9,24.8
	c-2.5-2.5-5-5-7.5-7.5c-0.8,0.8-1.6,1.5-2.4,2.3c-1.2,1.2-2.9,1.2-4.1,0c-0.7-0.7-1.4-1.5-2.2-2.2c-0.1-0.1-0.2-0.1-0.2-0.2
	c0,0,0,0.1,0.1,0.1c-2.5,2.5-5,4.9-7.5,7.4C12,24.8,20,24.8,27.9,24.8z M2.8,8.6c0,4.9,0,9.9,0,14.9c2.5-2.5,5-4.9,7.5-7.4
	C7.8,13.5,5.3,11,2.8,8.6z M29.2,23.4c0-4.9,0-9.9,0-14.9c-2.5,2.5-5,4.9-7.5,7.4C24.2,18.5,26.7,21,29.2,23.4z"/>
</svg>
