<?xml version="1.0" encoding="utf-8"?>
<!-- Generator: Adobe Illustrator 27.3.1, SVG Export Plug-In . SVG Version: 6.00 Build 0)  -->
<svg version="1.1" id="Layer_1" xmlns="http://www.w3.org/2000/svg" xmlns:xlink="http://www.w3.org/1999/xlink" x="0px" y="0px"
	 viewBox="0 0 32 32" style="enable-background:new 0 0 32 32;" xml:space="preserve">
<g>
	<path d="M17.5,16.3c-0.5-0.2-1-0.4-1.5-0.5c4.4-2.7,3.9-7.8,1.8-10.2C15.2,2.6,11,2.4,8.3,4.7C6.8,6,6,7.6,5.9,9.5
		c-0.1,2.7,1.1,4.8,3.4,6.3c-0.1,0-0.2,0.1-0.3,0.1c-1.7,0.5-3.2,1.3-4.5,2.4c-1.8,1.5-3.1,3.4-3.6,5.7c-0.2,0.7-0.3,1.3-0.3,2
		c0,0.7,0,1.4,0,2.1c0,0.3,0.2,0.6,0.5,0.8c0.4,0.2,0.8-0.2,0.9-0.7c0-0.9,0-1.7,0.1-2.6c0.3-2.4,1.3-4.4,3.1-6
		c2.8-2.5,6.1-3.3,9.8-2.7c2.7,0.5,5,1.8,6.7,4c0.9,1.1,1.5,2.4,1.8,3.8c0.2,1.1,0.2,2.1,0.2,3.2c0,0.2,0,0.4,0.1,0.6
		c0.1,0.3,0.4,0.4,0.7,0.4c0.3-0.1,0.5-0.3,0.5-0.7c0-0.5,0-1,0-1.5c0-1-0.1-2-0.4-3C23.3,20.1,20.9,17.7,17.5,16.3z M12.6,15.3
		c-3,0-5.4-2.4-5.4-5.4c0-3,2.4-5.4,5.4-5.4c3,0,5.4,2.4,5.4,5.4C18,12.9,15.6,15.3,12.6,15.3z"/>
	<path d="M31.4,22.6c-0.5-2.8-2.2-4.8-4.6-6.2c-0.5-0.3-1.1-0.5-1.6-0.7c0.1-0.1,0.2-0.1,0.2-0.2c1.8-1.4,2.5-3.3,2-5.5
		c-0.5-2.3-2.1-3.6-4.3-4.1c-0.3-0.1-0.6-0.1-0.9-0.1c-0.4,0-0.7,0.3-0.7,0.6c0,0.3,0.3,0.6,0.6,0.7c0.1,0,0.3,0,0.4,0
		c1.8,0.2,3.3,1.5,3.6,3.3c0.3,1.8-0.6,3.6-2.2,4.4c-0.6,0.3-1.1,0.4-1.8,0.4c-0.4,0-0.7,0.3-0.7,0.7c0,0.4,0.3,0.6,0.7,0.7
		c0.1,0,0.2,0,0.2,0c1.5,0.1,2.9,0.4,4.1,1.2c2.2,1.3,3.5,3.3,3.7,5.9c0,0.6,0,1.1,0,1.7c0,0.4,0.3,0.7,0.7,0.7
		c0.3,0,0.7-0.3,0.7-0.6C31.5,24.5,31.6,23.6,31.4,22.6z"/>
</g>
</svg>
