<?xml version="1.0" encoding="utf-8"?>
<!-- Generator: Adobe Illustrator 27.3.1, SVG Export Plug-In . SVG Version: 6.00 Build 0)  -->
<svg version="1.1" id="Layer_1" xmlns="http://www.w3.org/2000/svg" xmlns:xlink="http://www.w3.org/1999/xlink" x="0px" y="0px"
	 viewBox="0 0 32 32" style="enable-background:new 0 0 32 32;" xml:space="preserve">
<g>
	<path d="M9.6,17c-4.8,0.8-8.5,5.1-8.6,10c0,0.9,0.3,1.3,1.3,1.3c3.1,0,6.1,0,9.2,0c3.1,0,6.2,0,9.3,0c0.8,0,1.2-0.4,1.2-1.2
		c0-0.6-0.1-1.2-0.2-1.8C20.5,19.6,15.3,16,9.6,17z"/>
	<path d="M11.3,15.2c3.2,0,5.8-2.5,5.8-5.6c0-3.2-2.5-5.8-5.6-5.8c-3.2,0-5.8,2.5-5.8,5.7C5.7,12.6,8.2,15.2,11.3,15.2z"/>
	<path d="M30.8,22.9c-0.7-3.3-3.3-5.6-6.6-5.9c-1.6-0.2-3.1,0.2-4.5,1c0.1,0.1,0.1,0.1,0.2,0.2c1.9,1.7,3.1,3.9,3.7,6.3
		c0.1,0.3,0,0.8,0.2,0.9c0.2,0.2,0.6,0.1,1,0.1c1.7,0,3.4,0,5.1,0c0.7,0,1.1-0.4,1.1-1.1C31,23.8,30.9,23.3,30.8,22.9z"/>
	<path d="M23.5,15.7c2.3,0,4.3-1.9,4.3-4.2c0-2.3-1.9-4.3-4.2-4.3c-2.3,0-4.3,1.9-4.3,4.2C19.3,13.8,21.2,15.7,23.5,15.7z"/>
</g>
</svg>
