<?xml version="1.0" encoding="utf-8"?>
<!-- Generator: Adobe Illustrator 27.3.1, SVG Export Plug-In . SVG Version: 6.00 Build 0)  -->
<svg version="1.1" id="Layer_1" xmlns="http://www.w3.org/2000/svg" xmlns:xlink="http://www.w3.org/1999/xlink" x="0px" y="0px"
	 viewBox="0 0 32 32" style="enable-background:new 0 0 32 32;" xml:space="preserve">
<path d="M4.9,1c0.2,0,0.5,0,0.7,0c0.7,0.1,1.3,0.4,1.9,0.7c6.6,3.8,13.2,7.6,19.8,11.4c0.5,0.3,0.9,0.6,1.3,1
	c1.1,1.1,1.1,2.4,0.2,3.6c-0.4,0.5-0.9,0.9-1.5,1.2c-6.6,3.8-13.2,7.6-19.8,11.4c-0.5,0.3-1,0.5-1.5,0.6c-1.4,0.4-2.7-0.3-3.2-1.6
	c-0.2-0.6-0.3-1.3-0.3-2c0-7.5,0-15,0-22.5c0-0.3,0-0.6,0-0.9c0.1-0.8,0.3-1.6,1-2.2C3.9,1.3,4.4,1.1,4.9,1z"/>
</svg>
