<?xml version="1.0" encoding="utf-8"?>
<!-- Generator: Adobe Illustrator 27.3.1, SVG Export Plug-In . SVG Version: 6.00 Build 0)  -->
<svg version="1.1" id="Layer_1" xmlns="http://www.w3.org/2000/svg" xmlns:xlink="http://www.w3.org/1999/xlink" x="0px" y="0px"
	 viewBox="0 0 32 32" style="enable-background:new 0 0 32 32;" xml:space="preserve">
<g>
	<path d="M27.9,6.9c-2.4-3.1-5.6-5-9.4-5.7C17.7,1.1,16.9,1,16.1,1c-0.3,0-0.6,0-0.9,0c-0.6,0-1.2,0.1-1.8,0.2
		c-3.2,0.6-5.9,2-8.1,4.3C3,7.9,1.6,10.7,1.2,14c-0.2,1.6-0.2,3.1,0.1,4.6c0.6,3.4,2.3,6.3,4.9,8.6c2.2,2,4.9,3.2,7.8,3.6
		c1.2,0.2,2.5,0.2,3.8,0c1.1-0.1,2.2-0.4,3.3-0.8c1-0.3,1.9-0.8,2.8-1.3c0.9-0.5,1.7-1.2,2.5-1.9c0.3-0.3,0.7-0.6,1-1
		c2-2.3,3.2-4.9,3.6-7.9C31.4,13.9,30.4,10.2,27.9,6.9z M16,29.1C8.8,29.1,2.9,23.2,2.9,16C2.9,8.8,8.8,2.9,16,2.9
		c7.2,0,13.1,5.9,13.1,13.1C29.1,23.2,23.2,29.1,16,29.1z"/>
	<path d="M17.6,10.7c-0.1-0.1-0.4-0.2-0.6-0.3c-0.4-0.1-0.8,0.2-0.9,0.5c-0.2,0.4-0.1,0.8,0.2,1.1c0.9,0.9,1.9,1.9,2.8,2.8
		c0.1,0.1,0.1,0.1,0.2,0.2c-0.2,0-0.3,0-0.4,0c-2.6,0-5.2,0-7.8,0c-0.6,0-1.4-0.1-1.6,0.6c-0.3,0.6,0.2,1.3,1,1.3c1.3,0,2.6,0,3.9,0
		c1.5,0,3,0,4.6,0c0.1,0,0.2,0,0.4,0c-0.1,0.1-0.2,0.2-0.2,0.2c-0.9,0.9-1.9,1.9-2.8,2.8c-0.4,0.4-0.4,1,0,1.3
		c0.4,0.4,0.9,0.4,1.3,0c1.6-1.5,3.1-3.1,4.7-4.7c0.4-0.4,0.4-1,0-1.4C20.7,13.8,19.2,12.2,17.6,10.7z"/>
</g>
</svg>
