<?xml version="1.0" encoding="utf-8"?>
<!-- Generator: Adobe Illustrator 27.3.1, SVG Export Plug-In . SVG Version: 6.00 Build 0)  -->
<svg version="1.1" id="Layer_1" xmlns="http://www.w3.org/2000/svg" xmlns:xlink="http://www.w3.org/1999/xlink" x="0px" y="0px"
	 viewBox="0 0 32 32" style="enable-background:new 0 0 32 32;" xml:space="preserve">
<path d="M15.8,1.3c0.7,0,1,0.3,1.2,0.7c1.3,2.7,2.6,5.3,3.9,8c0.1,0.2,0.2,0.3,0.5,0.4c2.9,0.4,5.8,0.8,8.7,1.3c0.1,0,0.2,0,0.4,0.1
	c0.8,0.2,1.2,1.1,0.6,1.8c-0.3,0.3-0.6,0.6-0.9,0.9c-1.9,1.9-3.8,3.7-5.7,5.6c-0.2,0.2-0.2,0.3-0.2,0.5c0.5,3,1,6,1.5,9
	c0.1,0.5,0,0.8-0.4,1.1c-0.4,0.3-0.8,0.3-1.2,0.1c-2.7-1.4-5.3-2.8-8-4.2c-0.2-0.1-0.4-0.1-0.6,0c-2.6,1.4-5.3,2.8-7.9,4.2
	c-0.4,0.2-0.8,0.3-1.2,0.1c-0.4-0.2-0.6-0.7-0.6-1.1c0.4-2.4,0.8-4.7,1.2-7.1c0.1-0.6,0.2-1.3,0.3-1.9c0-0.2,0-0.4-0.2-0.5
	c-2-1.9-4-3.9-6-5.8c-0.2-0.2-0.4-0.3-0.5-0.5c-0.3-0.3-0.4-0.7-0.3-1.1c0.1-0.4,0.4-0.7,0.9-0.7c1.7-0.2,3.3-0.5,5-0.7
	c1.4-0.2,2.7-0.4,4.1-0.6c0.2,0,0.3-0.1,0.4-0.3c1.3-2.7,2.7-5.4,4-8.1C15.2,1.5,15.5,1.3,15.8,1.3z"/>
</svg>
