<?xml version="1.0" encoding="utf-8"?>
<!-- Generator: Adobe Illustrator 27.3.1, SVG Export Plug-In . SVG Version: 6.00 Build 0)  -->
<svg version="1.1" id="Layer_1" xmlns="http://www.w3.org/2000/svg" xmlns:xlink="http://www.w3.org/1999/xlink" x="0px" y="0px"
	 viewBox="0 0 32 32" style="enable-background:new 0 0 32 32;" xml:space="preserve">
<path d="M10,22.9c-2.8-0.3-4.7-1.7-5.8-4.3c0.9,0.1,1.8,0.1,2.7-0.1c-1.8-0.5-3.1-1.4-4-3c-0.6-0.9-0.9-2.3-0.8-3.2
	c0.8,0.4,1.7,0.7,2.7,0.7c-1.4-1-2.2-2.2-2.6-3.8C2,7.8,2.2,6.3,3,4.9c3.3,3.9,7.6,6.1,12.7,6.5c0-0.6-0.1-1.2-0.1-1.8
	c0.1-2.3,1.7-4.6,3.9-5.4c2.5-0.9,4.7-0.5,6.6,1.3c0.1,0.1,0.2,0.2,0.4,0.1c1.2-0.3,2.3-0.7,3.4-1.3c0.1,0,0.1-0.1,0.3-0.1
	c-0.5,1.4-1.3,2.5-2.5,3.3c1.2-0.1,2.2-0.4,3.3-0.8c-0.2,0.3-0.4,0.6-0.7,0.9c-0.7,0.7-1.4,1.4-2.2,2.1C28.1,9.8,28,10,28,10.1
	c0.1,3.8-1,7.3-3,10.5c-1.9,2.9-4.4,5-7.6,6.4c-1.7,0.7-3.5,1.1-5.3,1.3c-2.2,0.2-4.4,0-6.5-0.6c-1.6-0.4-3-1.1-4.4-2
	c0,0,0,0-0.1-0.1C4.3,25.8,7.3,25,10,22.9z"/>
</svg>
