<?xml version="1.0" encoding="utf-8"?>
<!-- Generator: Adobe Illustrator 27.3.1, SVG Export Plug-In . SVG Version: 6.00 Build 0)  -->
<svg version="1.1" id="Layer_1" xmlns="http://www.w3.org/2000/svg" xmlns:xlink="http://www.w3.org/1999/xlink" x="0px" y="0px"
	 viewBox="0 0 32 32" style="enable-background:new 0 0 32 32;" xml:space="preserve">
<g>
	<path d="M30.9,9.5c-0.4-2.6-2.6-4.8-5.2-5c-2-0.2-4.1-0.3-6.2-0.4c-4.4-0.2-8.7,0-13.1,0.4C3.9,4.7,1.7,6.6,1.2,9.2
		c-0.3,1.7-0.4,3.5-0.5,5.2c-0.1,2.7,0.1,5.4,0.4,8.1c0.3,2.6,2.6,4.8,5.2,5c2.1,0.2,4.1,0.3,6.2,0.4c4.3,0.2,8.7,0,13-0.4
		c2.5-0.2,4.7-2,5.2-4.4c0.3-1.2,0.4-2.5,0.5-3.7C31.5,16.1,31.3,12.8,30.9,9.5z M28.9,16.7c-0.1,1.8-0.2,3.6-0.4,5.4
		c-0.2,1.8-1.6,3-3.4,3.1c-3,0.3-6,0.4-9.6,0.4c-2.6,0-5.8-0.1-8.9-0.5C5,24.9,3.7,23.6,3.4,22c-0.4-2.8-0.5-5.5-0.4-8.3
		c0.1-1.2,0.2-2.5,0.4-3.7C3.7,8.2,5.1,7,7,6.8c3.4-0.3,6.8-0.5,10.2-0.4c2.7,0,5.5,0.2,8.2,0.5c1.7,0.2,3,1.5,3.2,3.1
		C28.8,12.2,29,14.4,28.9,16.7z"/>
	<path d="M21,14.9c-2.5-1.4-5.1-2.9-7.6-4.3c-1-0.5-1.9,0-1.9,1.1c0,1.4,0,2.9,0,4.3c0,1.4,0,2.9,0,4.3c0,1.1,1,1.6,1.9,1.1
		c2.5-1.4,5.1-2.9,7.6-4.3C22,16.5,22,15.4,21,14.9z"/>
</g>
</svg>
