<svg width="64" height="37" viewBox="0 0 64 37" fill="none" xmlns="http://www.w3.org/2000/svg">
<mask id="mask0_13462_16595" style="mask-type:luminance" maskUnits="userSpaceOnUse" x="0" y="0" width="64" height="37">
<path d="M0 0.399902H63.2812V36.3999H0V0.399902Z" fill="white"/>
</mask>
<g mask="url(#mask0_13462_16595)">
<path d="M60.9888 19.6379C60.9771 19.6467 60.9653 19.6496 60.9478 19.654L59.5122 20.0012C59.105 20.0993 58.7974 20.4289 58.7241 20.8376C58.3784 22.7389 57.6401 24.5158 56.54 26.1169C56.3027 26.4626 56.2896 26.9167 56.5078 27.2756L57.2798 28.5251C57.2871 28.5412 57.3003 28.5661 57.3076 28.5866C57.0161 28.9411 56.729 29.2546 56.4302 29.5519C56.1504 29.8405 55.8384 30.1247 55.481 30.4089C55.4692 30.4059 55.4575 30.3971 55.4443 30.3884L54.1846 29.6091C53.8271 29.3908 53.376 29.4025 53.0317 29.6428C51.438 30.7472 49.6699 31.4899 47.7773 31.8356C47.3716 31.9103 47.0435 32.2194 46.9438 32.6281L46.5996 34.0637C46.5952 34.0842 46.5908 34.1003 46.5835 34.1164C45.6108 34.2072 44.8711 34.2028 44.0142 34.112C44.0054 34.1003 44.001 34.0886 43.998 34.071L43.6523 32.6281C43.5542 32.2194 43.2261 31.9103 42.8188 31.8356C40.4224 31.3947 38.1768 30.3019 36.3135 28.6613L37.8032 27.1804C40.1924 29.2297 43.2305 30.1994 46.3813 29.9108C51.6768 29.4201 56.0391 25.2292 56.7495 19.947C57.312 15.7648 55.6655 11.7321 52.3535 9.15838C49.0298 6.57293 44.6206 6.02947 40.5659 7.695C36.4702 9.3781 33.7939 13.6086 33.7412 18.4704C33.7368 18.8542 33.7119 19.2453 33.6709 19.6379C33.6592 19.6467 33.646 19.6496 33.6299 19.654L32.1929 20.0012C31.7915 20.0993 31.4795 20.426 31.4048 20.8332C31.2451 21.696 31.0034 22.5412 30.6621 23.4025C30.2842 24.3561 29.8008 25.2673 29.2178 26.1213C28.979 26.467 28.9717 26.9167 29.1885 27.2756L29.9604 28.5251C29.9692 28.5412 29.981 28.5661 29.9897 28.5866C29.6982 28.9411 29.4111 29.2546 29.1108 29.5519C28.8311 29.8405 28.5205 30.1247 28.1631 30.4089C28.1499 30.4059 28.1382 30.3971 28.1265 30.3884L26.8652 29.6091C26.5049 29.3908 26.0566 29.4025 25.7124 29.6428C24.1362 30.7355 22.3667 31.4738 20.4551 31.8356C20.0479 31.9103 19.7241 32.2238 19.626 32.6281L19.2803 34.0637C19.2773 34.0842 19.2729 34.1003 19.2642 34.1164C18.2915 34.2072 17.5532 34.2028 16.6948 34.112C16.6875 34.1003 16.6831 34.0886 16.6787 34.071L16.3345 32.6281C16.2349 32.2238 15.9111 31.9103 15.5054 31.8356C13.5923 31.4738 11.8228 30.7355 10.2466 29.6428C9.90234 29.3996 9.45117 29.3908 9.09375 29.6091L7.8501 30.384C7.83398 30.3928 7.80908 30.4059 7.78857 30.4133C7.43555 30.1203 7.12354 29.8317 6.82764 29.5314C6.54053 29.2502 6.25781 28.9367 5.9751 28.5778C5.97803 28.5661 5.98242 28.5544 5.99561 28.5412L6.77051 27.2756C6.98877 26.9167 6.97559 26.4626 6.73828 26.1169C5.63379 24.5158 4.89844 22.7389 4.5542 20.8376C4.48096 20.4289 4.17334 20.0993 3.77051 20.0012L2.33789 19.654C2.31738 19.6496 2.30127 19.6467 2.28516 19.6379C2.23975 19.1633 2.21924 18.7472 2.21924 18.3473C2.21924 17.9269 2.24414 17.4977 2.28809 17.0568C2.30127 17.048 2.31299 17.0436 2.3291 17.0392L3.77051 16.6935C4.17334 16.5939 4.48096 16.2643 4.5542 15.8556C4.89844 13.9557 5.63379 12.1774 6.73828 10.5778C6.97559 10.2306 6.98877 9.77801 6.77051 9.41912L6.00293 8.16961C5.99121 8.15203 5.97803 8.12859 5.9707 8.10808C6.26221 7.75213 6.54932 7.43865 6.84814 7.14275C7.13232 6.85418 7.43994 6.56853 7.79736 6.28435C7.80908 6.28875 7.8208 6.29754 7.83398 6.30486L9.09375 7.08416C9.45557 7.30389 9.90234 7.2951 10.2466 7.05193C11.8403 5.94597 13.6084 5.20476 15.501 4.8576C15.9067 4.78289 16.2349 4.47381 16.3345 4.06658L16.6787 2.63103C16.6831 2.61053 16.6875 2.59441 16.6948 2.57683C17.6675 2.48601 18.4072 2.49041 19.2642 2.58123C19.2729 2.59441 19.2773 2.60613 19.2803 2.62224L19.626 4.06658C19.7241 4.47381 20.0522 4.78289 20.4595 4.8576C22.856 5.29851 25.1016 6.39129 26.9648 8.03338L25.4751 9.51433C23.0859 7.46355 20.0479 6.50262 16.8955 6.78387C11.5972 7.27459 7.23926 11.464 6.52881 16.7463C5.9707 20.9284 7.61279 24.9611 10.9248 27.5348C14.2485 30.1203 18.6533 30.6652 22.7124 28.9997C26.8037 27.3166 29.4844 23.0846 29.5371 18.2228C29.5415 17.839 29.5664 17.4479 29.6074 17.0568C29.6191 17.048 29.6323 17.0436 29.6484 17.0392L31.0854 16.6935C31.4868 16.5939 31.7988 16.2687 31.8735 15.86C32.0332 14.9987 32.2749 14.1535 32.6162 13.2907C32.9941 12.3386 33.4775 11.4274 34.0605 10.5734C34.2993 10.2277 34.3066 9.77801 34.0898 9.41912L33.3179 8.16961C33.3091 8.15203 33.2974 8.12859 33.2886 8.10808C33.5801 7.75213 33.8672 7.43865 34.1675 7.14275C34.4458 6.85418 34.7578 6.56853 35.1152 6.28435C35.1284 6.28875 35.1401 6.29754 35.1519 6.30486L36.4131 7.08416C36.7734 7.30389 37.2217 7.2951 37.5659 7.05193C39.1421 5.95916 40.9116 5.22088 42.8232 4.8576C43.2305 4.78289 43.5542 4.46941 43.6523 4.06658L43.998 2.63103C44.001 2.61053 44.0054 2.59441 44.0142 2.57683C44.9868 2.48601 45.7251 2.49041 46.5835 2.58123C46.5908 2.59441 46.5952 2.60613 46.5996 2.62224L46.9438 4.06658C47.0435 4.46941 47.3672 4.78289 47.7729 4.8576C49.686 5.22088 51.4556 5.95916 53.0317 7.05193C53.376 7.2907 53.8228 7.30389 54.1846 7.08416L55.4282 6.30926C55.4443 6.30047 55.4692 6.28875 55.4897 6.27996C55.8428 6.57293 56.1548 6.8615 56.4507 7.16326C56.7378 7.44305 57.0205 7.75652 57.3032 8.11541C57.3003 8.12859 57.2915 8.14031 57.2827 8.15203L56.5078 9.41912C56.2896 9.77801 56.3027 10.2306 56.54 10.5778C57.6401 12.1774 58.3784 13.9557 58.7241 15.8556C58.7974 16.2643 59.105 16.5939 59.5122 16.6935L60.9404 17.0392C60.9609 17.0436 60.9771 17.048 60.9932 17.0568C61.0386 17.53 61.0591 17.9474 61.0591 18.3473C61.0591 18.7678 61.0342 19.197 60.9888 19.6379ZM62.9385 16.1281C62.647 15.5671 62.1064 15.1554 61.4414 14.9855L60.6489 14.7966C60.2593 13.0812 59.5898 11.4553 58.6494 9.95525L59.0889 9.23748C59.4258 8.66033 59.5122 7.99236 59.332 7.40203C59.2939 7.28191 59.2368 7.17058 59.1636 7.07244C58.749 6.53191 58.3374 6.06609 57.936 5.67058C57.5581 5.2824 57.1392 4.89861 56.6514 4.5075C56.5239 4.37566 56.3599 4.27605 56.1709 4.22625C55.5674 4.06219 54.9185 4.15594 54.3398 4.5075L53.6514 4.9323C52.1689 4.00066 50.5562 3.3283 48.832 2.924L48.6357 2.10222C48.4673 1.46355 48.0645 0.931814 47.5312 0.64324C47.417 0.581717 47.2969 0.543631 47.1694 0.523123C45.9551 0.366385 44.9165 0.354666 43.5088 0.50701C43.3608 0.515799 43.2217 0.556814 43.0898 0.622732C42.5317 0.915701 42.1216 1.45916 41.9531 2.12713L41.7642 2.924C40.0415 3.3283 38.4272 4.00066 36.9463 4.9323L36.2314 4.49138C35.6572 4.15301 34.9922 4.06658 34.4048 4.24676C34.2861 4.28484 34.1763 4.34197 34.0767 4.41668C33.5391 4.83269 33.0762 5.24578 32.6821 5.65008C32.2954 6.02947 31.9146 6.44988 31.5249 6.9406C31.3931 7.06805 31.2949 7.23357 31.2451 7.42254C31.0811 8.03338 31.1748 8.68084 31.5249 9.26238L31.9512 9.95965C31.4458 10.7712 31.0107 11.6252 30.6621 12.5114C30.3662 13.2702 30.1245 14.0334 29.9487 14.7966L29.1313 14.9943C28.4956 15.1628 27.9653 15.5671 27.6782 16.1032C27.6167 16.2189 27.5801 16.339 27.5596 16.4665C27.4849 17.048 27.4438 17.6296 27.4365 18.1979C27.3955 22.2116 25.2275 25.6833 21.9155 27.0441C18.5098 28.446 14.9707 28.0138 12.2095 25.8649C9.49658 23.757 8.15039 20.4538 8.61328 17.0319C9.19189 12.7092 12.7588 9.28728 17.0889 8.88738C19.6626 8.64715 22.1543 9.44402 24.1069 11.1183C24.9243 11.8229 26.1357 11.7819 26.915 11.0187L28.4253 9.55096C28.8486 9.14226 29.0786 8.56951 29.0654 7.97918C29.0493 7.39031 28.7871 6.82488 28.3389 6.43377C26.373 4.70525 24.0249 3.50115 21.5142 2.924L21.3164 2.10222C21.1479 1.46355 20.7466 0.931814 20.2119 0.64324C20.0977 0.581717 19.979 0.543631 19.8516 0.523123C18.6372 0.366385 17.5986 0.354666 16.1909 0.50701C16.043 0.515799 15.9023 0.556814 15.772 0.622732C15.2139 0.915701 14.8037 1.45916 14.6353 2.12713L14.4463 2.924C12.7383 3.31512 11.1211 3.98748 9.62695 4.9323L8.91797 4.49138C8.33936 4.15301 7.67432 4.06658 7.08691 4.24676C6.96826 4.28484 6.85693 4.34197 6.75879 4.41668C6.22119 4.83269 5.75684 5.24578 5.36279 5.65008C4.97754 6.02947 4.59521 6.44988 4.20557 6.9406C4.07373 7.06805 3.97559 7.23357 3.92578 7.42254C3.76172 8.03338 3.86133 8.68084 4.20117 9.26238L4.62891 9.95525C3.68848 11.4553 3.01904 13.0812 2.625 14.7966L1.81201 14.9943C1.17627 15.1628 0.647461 15.5671 0.360352 16.1032C0.298828 16.2189 0.260742 16.339 0.244629 16.4665C0.158203 17.1052 0.117188 17.7365 0.117188 18.3473C0.117188 18.8996 0.150879 19.4723 0.224121 20.1447C0.23291 20.2941 0.273925 20.4333 0.339844 20.5651C0.631348 21.1262 1.17188 21.5392 1.83691 21.7077L2.625 21.8981C3.01904 23.6135 3.68848 25.238 4.62891 26.7394L4.18945 27.4572C3.85254 28.0344 3.76611 28.7023 3.94629 29.2912C3.98438 29.4113 4.0415 29.5226 4.11475 29.6222C4.5293 30.1613 4.93652 30.6286 5.34229 31.0241C5.72021 31.4108 6.13916 31.7946 6.62695 32.1872C6.75439 32.319 6.91846 32.4172 7.10742 32.467C7.71094 32.6325 8.35986 32.5373 8.93848 32.1872L9.62695 31.7624C11.1094 32.694 12.7222 33.3664 14.4463 33.7707L14.6426 34.591C14.811 35.2297 15.2139 35.7629 15.7471 36.0514C15.8613 36.113 15.9814 36.1496 16.1089 36.1701C17.3188 36.3268 18.3618 36.34 19.7695 36.1877C19.9175 36.1789 20.0566 36.1379 20.1885 36.072C20.7466 35.779 21.1567 35.2341 21.3252 34.5661L21.5142 33.7707C23.2368 33.3664 24.8511 32.694 26.332 31.7624L27.0469 32.2033C27.6211 32.5417 28.2905 32.6281 28.8721 32.4465C28.9922 32.4098 29.1021 32.3512 29.2017 32.278C29.7393 31.8605 30.2021 31.4489 30.5962 31.0446C30.9829 30.6652 31.3638 30.2448 31.7534 29.7541C31.8853 29.6252 31.9834 29.4611 32.0332 29.2707C32.1973 28.6613 32.1035 28.0138 31.7534 27.4323L31.3271 26.735C31.8325 25.9221 32.2676 25.0695 32.6162 24.1818C32.9121 23.423 33.1538 22.6613 33.3296 21.8981L34.147 21.7004C34.7827 21.5304 35.313 21.1262 35.6001 20.59C35.6616 20.4743 35.6982 20.3556 35.7188 20.2282C35.7935 19.6467 35.8345 19.0651 35.8418 18.4953C35.8828 14.4831 38.0508 11.0099 41.3628 9.6491C44.7656 8.24724 48.3032 8.68084 51.0688 10.8298C53.7817 12.9362 55.125 16.2394 54.665 19.6628C54.0864 23.9841 50.5195 27.4074 46.1895 27.8073C43.6113 28.0461 41.124 27.2507 39.1714 25.5763C38.3496 24.8674 37.1426 24.9128 36.3633 25.6745L34.853 27.1437C34.4297 27.551 34.1997 28.1252 34.2129 28.714C34.229 29.3044 34.4912 29.8698 34.9395 30.2609C36.9053 31.9894 39.2534 33.1935 41.7642 33.7707L41.9619 34.591C42.1304 35.2297 42.5317 35.7629 43.0664 36.0514C43.1807 36.113 43.2993 36.1496 43.4268 36.1701C44.0625 36.2536 44.6909 36.2946 45.2988 36.2946C45.8481 36.2946 46.4194 36.2609 47.0874 36.1877C47.2354 36.1789 47.376 36.1379 47.5063 36.072C48.0645 35.779 48.4746 35.2341 48.6431 34.5661L48.832 33.7707C50.54 33.3781 52.1572 32.7057 53.6514 31.7624L54.3647 32.2033C54.939 32.5417 55.604 32.6281 56.1914 32.4465C56.3101 32.4098 56.4214 32.3512 56.5195 32.278C57.0571 31.8605 57.5215 31.4489 57.9155 31.0446C58.3008 30.6652 58.6831 30.2448 59.0728 29.7541C59.2046 29.6252 59.3027 29.4611 59.3525 29.2707C59.5166 28.6613 59.4214 28.0138 59.0728 27.4323L58.6494 26.7394C59.5898 25.238 60.2593 23.6135 60.6489 21.8981L61.4663 21.7004C62.1021 21.5304 62.6309 21.1262 62.918 20.59C62.9795 20.4743 63.0176 20.3556 63.0381 20.2282C63.1201 19.5881 63.1611 18.9567 63.1611 18.3473C63.1611 17.7951 63.1274 17.2209 63.0542 16.5485C63.0454 16.4006 63.0044 16.2599 62.9385 16.1281Z" fill="#2777DC"/>
</g>
<path d="M22.3069 14.061V21.4247H20.75V14.061H22.3069Z" fill="#2777DC"/>
<path d="M14.4496 21.4247H12.7812L15.3233 14.061H17.3296L19.868 21.4247H18.1997L16.3552 15.7437H16.2977L14.4496 21.4247ZM14.3453 18.5303H18.286V19.7456H14.3453V18.5303Z" fill="#2777DC"/>
<path d="M48.0391 21.4247V14.061H49.5959V20.1411H52.7528V21.4247H48.0391Z" fill="#2777DC"/>
<path d="M38.7734 14.061H40.6934L42.7213 19.0085H42.8076L44.8355 14.061H46.7555V21.4247H45.2454V16.6318H45.1843L43.2786 21.3887H42.2503L40.3447 16.6139H40.2836V21.4247H38.7734V14.061Z" fill="#2777DC"/>
</svg>
