<svg width="229" height="150" viewBox="0 0 229 150" fill="none" xmlns="http://www.w3.org/2000/svg">
<path d="M142.975 117.187L130.248 124.18L154.077 141.638L104.155 134.14L45.375 149.206L70.7754 126.406L47.9171 118.302L88.4658 116.602L102.452 110.977L115.966 116.388L142.975 117.187Z" fill="url(#paint0_linear_7326_44289)"/>
<g opacity="0.3">
<path d="M37 120L112.5 3L123 10L152.5 140.5L105.5 136L63.5 148.5L37 120Z" fill="url(#paint1_linear_7326_44289)"/>
</g>
<path d="M123.23 10.6448L118.688 11.3347L116.682 15.4656L114.621 11.3615L110.07 10.7306L113.339 7.50351L112.533 2.98314L116.614 5.09351L120.667 2.92969L119.92 7.46059L123.23 10.6448Z" fill="#4568F2"/>
<path d="M38.5574 91.0519C38.269 91.5135 37.9036 92.5541 37.6241 93.0214C37.5025 93.2239 37.1411 93.9333 37.3243 94.0831C37.4831 94.2126 38.034 93.7883 38.2731 93.5543C38.3703 95.1164 39.2024 97.3531 39.2324 94.0653C39.234 94.0653 39.2356 94.0653 39.238 94.0653C39.2656 94.3981 39.4171 96.2493 39.8401 96.0396C40.2136 95.8541 40.1593 94.5244 40.1204 93.9762C40.1253 93.9754 40.1301 93.9746 40.135 93.9737C40.2225 94.5277 40.4672 95.8582 40.7654 95.565C41.1405 95.1974 41.1154 93.7381 41.1154 93.7381C41.1154 93.7381 41.1875 95.6015 41.672 95.2314C41.9451 95.0224 41.7935 93.96 41.6898 93.2992C41.668 93.1607 41.6485 93.0392 41.6347 92.9485C41.6234 92.8724 41.6056 92.8068 41.5829 92.7477C41.3406 91.6553 41.0036 90.992 41.0036 90.992C41.0036 90.992 40.7459 90.1441 39.7825 90.2195C39.1684 90.2672 38.6822 90.8519 38.5574 91.0519Z" fill="#F7B686"/>
<path d="M37.827 91.2753C34.3397 88.9852 38.0855 81.8961 36.636 77.0032C36.3005 75.8695 36.1555 75.4419 35.8654 74.811C35.6321 74.3033 36.2616 73.3145 37.1261 72.9056C37.9372 72.5217 39.8842 72.7744 40.0381 73.0311C42.3862 76.9473 43.1446 83.3756 41.9754 91.5823C41.9754 91.5823 39.3243 92.2576 37.8278 91.2745L37.827 91.2753Z" fill="#81B3CC"/>
<path d="M32.6467 120.973C32.6467 120.973 32.6767 122.153 33.4756 122.487C34.2753 122.82 36.5918 123.121 35.7265 123.88C35.2298 124.315 32.889 124.034 32.2278 124.034C31.5667 124.034 30.946 124.322 30.455 123.88C29.9146 123.393 30.455 120.973 30.455 120.973C30.455 120.973 31.0254 121.27 31.5383 121.256C32.2773 121.237 32.6467 120.973 32.6467 120.973Z" fill="#2F1A31"/>
<path d="M39.5436 85.3319C39.5436 85.3319 39.7033 90.6613 38.0017 100.886C36.7734 108.267 35.3231 115.705 34.6109 119.271C34.3565 120.547 33.2829 121.48 32.0108 121.531L31.327 121.558C29.9512 121.613 28.8355 120.432 28.936 119.028L30.6618 94.9039L31.0872 86.9637L39.5428 85.3319H39.5436Z" fill="#436E8E"/>
<path d="M25.0725 120.973C25.0725 120.973 25.1025 122.153 25.9014 122.487C26.7003 122.821 29.0176 123.121 28.1522 123.88C27.6556 124.315 25.3148 124.034 24.6536 124.034C23.9925 124.034 23.3718 124.322 22.8808 123.88C22.3404 123.393 22.8808 120.973 22.8808 120.973C22.8808 120.973 23.4512 121.27 23.9641 121.256C24.703 121.237 25.0725 120.973 25.0725 120.973Z" fill="#2F1A31"/>
<path d="M31.9733 85.3319C31.9733 85.3319 32.1329 90.6613 30.4314 100.886C29.2031 108.267 27.7528 115.705 27.0406 119.271C26.7862 120.547 25.7126 121.48 24.4405 121.531L23.7567 121.558C22.3809 121.613 21.2652 120.432 21.3657 119.028L23.0915 94.9039L23.5169 86.9637L31.9725 85.3319H31.9733Z" fill="#436E8E"/>
<path d="M22.6797 91.1719C22.6959 91.8149 26.5867 92.07 31.3979 91.9202C36.2099 91.7704 40.0545 91.1055 40.0383 90.4617C40.0221 89.8188 36.15 89.4414 31.3388 89.5912C26.5268 89.741 22.6635 90.5281 22.6797 91.1711V91.1719Z" fill="#2F1A31"/>
<path d="M23.8558 72.9671C23.8558 72.9671 24.7066 69.5966 30.9843 69.5626C40.0371 69.5132 39.1993 77.8276 40.0371 90.4622C40.0371 90.4622 31.1196 89.2022 22.6737 91.0137C22.6737 91.0137 21.8902 78.1175 23.8558 72.9671Z" fill="#81B3CC"/>
<path d="M21.5399 72.4854L25.6397 74.7529C25.6397 74.7529 34.6171 75.5675 37.0009 75.1756C39.3838 74.7828 40.0376 73.0345 40.0376 73.0345C40.0376 73.0345 37.4992 70.4099 33.1846 69.7086C32.7795 69.6421 32.359 69.5936 31.9231 69.5652C31.1914 69.5182 30.4582 69.528 29.7419 69.6089C24.2736 70.2252 21.5391 72.487 21.5391 72.487L21.5399 72.4854Z" fill="#81B3CC"/>
<path d="M39.2821 90.9824C39.2821 90.9824 34.0682 89.4494 23.271 91.5533L23.1875 93.1057L39.0155 93.6645L39.2813 90.9816L39.2821 90.9824Z" fill="#436E8E"/>
<path d="M20.757 91.0143C21.1345 86.8608 24.207 75.9898 24.5651 75.3946C24.8535 74.916 24.3374 73.8633 23.5231 73.362C22.7591 72.8915 21.7714 72.2914 21.5421 72.4841C18.3149 75.2035 15.5382 85.1399 16.4133 90.6458L20.7561 91.0135L20.757 91.0143Z" fill="#81B3CC"/>
<path d="M28.918 69.4787C29.4608 70.3541 30.6324 70.3905 31.5885 70.1063C32.3574 69.8779 32.2521 69.8706 32.167 69.741C31.9572 69.4203 31.7627 69.3248 31.7919 68.9895L31.83 68.5506L31.8348 68.4963L31.8843 67.9246L31.9693 66.9383L32.1938 64.3436L31.057 66.8354L30.8634 67.2598L30.1998 68.7166C29.9859 69.1871 28.9228 69.4787 28.918 69.4787Z" fill="#F7B686"/>
<path d="M30.7196 67.6366C30.7196 67.6366 31.025 68.3274 31.832 68.5525L31.8369 68.4982L31.8863 67.9265C31.4472 67.8269 30.7188 67.6374 30.7188 67.6374L30.7196 67.6366Z" fill="#2F1A31"/>
<path d="M35.815 85.1073C35.815 85.1073 35.5533 87.51 33.8445 88.8098C33.8445 88.8098 32.7815 88.1149 32.0126 86.9788C31.6366 86.4475 31.3336 85.8183 31.2355 85.1073C31.195 84.7882 31.1869 84.2003 31.2031 83.4399C31.2274 82.8269 31.2688 82.0997 31.3093 81.3068C31.383 79.9172 31.4892 78.3397 31.5629 76.8521C31.6034 76.035 31.6366 75.2422 31.6528 74.5311C31.6852 73.0192 31.6447 71.8337 31.4567 71.4174L32.2743 71.1639C32.2743 71.1639 32.6259 72.0709 33.108 73.4525C33.2879 73.9837 33.4921 74.5805 33.7052 75.2179C34.0325 76.2398 34.3841 77.3752 34.7026 78.5195C34.8743 79.1487 35.0461 79.786 35.1855 80.4071C35.4877 81.6907 35.717 82.9167 35.7907 83.946C35.832 84.3712 35.8401 84.755 35.815 85.1065V85.1073Z" fill="#593860"/>
<path d="M20.7791 90.8775C20.8127 90.2764 19.8623 89.7347 18.6564 89.6675C17.4505 89.6004 16.4458 90.0332 16.4123 90.6342C16.3787 91.2353 17.3291 91.777 18.535 91.8442C19.7409 91.9113 20.7456 91.4785 20.7791 90.8775Z" fill="#2F1A31"/>
<path d="M40.0926 90.4658L39.9873 90.4561C39.9954 90.367 40.7198 81.4518 38.1367 75.9378L38.2323 75.8925C40.8275 81.4324 40.0999 90.376 40.0918 90.4658H40.0926Z" fill="#2F1A31"/>
<path d="M22.5717 82.4452L22.4688 82.4217C23.1575 79.6125 24.5851 77.6139 24.5997 77.5936L24.6856 77.656C24.671 77.6754 23.2547 79.6595 22.5717 82.446V82.4452Z" fill="#2F1A31"/>
<path d="M34.1274 63.3319C34.1274 63.3319 34.3138 63.9595 34.1761 64.7588C34.0375 65.5581 33.1641 63.6348 33.1641 63.6348L34.1274 63.3327V63.3319Z" fill="#2F1A31"/>
<path d="M32.4435 68.1313C33.7109 67.9212 34.5328 66.5125 34.2792 64.9851C34.0257 63.4576 32.7927 62.3897 31.5253 62.5998C30.2579 62.81 29.436 64.2186 29.6896 65.7461C29.9431 67.2736 31.1761 68.3415 32.4435 68.1313Z" fill="#F7B686"/>
<path d="M29.6061 64.9452L30.7275 64.7906C30.9738 64.7566 31.1958 64.6156 31.323 64.4019C31.541 64.0334 31.8124 63.839 32.8641 63.8423C34.1953 63.8471 35.0461 63.0252 35.166 62.3247C35.2884 61.6104 34.5915 61.1521 33.9353 61.5133C33.279 61.8744 33.5374 61.0347 32.8925 60.9683C31.6868 60.8443 31.4932 61.7764 30.5104 61.7797C29.2213 61.7837 26.9469 62.8405 28.1177 65.07L29.6061 64.9452Z" fill="#2F1A31"/>
<path d="M32.2881 65.135C32.3002 65.1269 32.3084 65.1139 32.3084 65.0985C32.31 65.0726 32.2897 65.0508 32.2638 65.0491C32.2484 65.0491 31.8951 64.9973 31.7306 65.3763C31.7201 65.4006 31.7306 65.4281 31.7541 65.4387C31.7776 65.4492 31.8011 65.4362 31.8165 65.4152C31.9737 65.2071 32.246 65.1423 32.2589 65.1431C32.2695 65.1431 32.2792 65.1407 32.2873 65.135H32.2881Z" fill="#060633"/>
<path d="M32.106 65.7468C32.1393 65.8545 32.2292 65.9218 32.3078 65.8975C32.3856 65.8732 32.422 65.7663 32.3888 65.6594C32.3556 65.5517 32.2657 65.4845 32.1871 65.5087C32.1093 65.533 32.0728 65.6399 32.106 65.7468Z" fill="#060633"/>
<path d="M33.921 64.8411C33.9315 64.8378 33.9396 64.8281 33.942 64.8136C33.9469 64.7901 33.9339 64.7633 33.9137 64.7536C33.9015 64.748 33.6301 64.5868 33.4478 64.884C33.4365 64.9026 33.4405 64.9318 33.4575 64.9496C33.4745 64.9674 33.4948 64.9626 33.5102 64.948C33.6633 64.8063 33.887 64.8346 33.8967 64.8387C33.9048 64.8427 33.9129 64.8427 33.9202 64.8403L33.921 64.8411Z" fill="#060633"/>
<path d="M33.5744 65.3866C33.5785 65.4992 33.6481 65.5874 33.7292 65.585C33.811 65.5818 33.8734 65.4886 33.8693 65.3761C33.8653 65.2635 33.7956 65.1752 33.7146 65.1777C33.6327 65.1809 33.5704 65.274 33.5744 65.3866Z" fill="#060633"/>
<path d="M28.1172 65.0707C28.1172 65.0707 28.9509 66.7211 30.0577 66.8061C30.0577 66.8061 29.1235 65.559 30.9749 64.7168C30.9749 64.7168 29.241 64.5038 28.1172 65.0707Z" fill="#2F1A31"/>
<path d="M29.7012 65.9439C29.9419 66.0856 30.24 66.0265 30.3672 65.8111C30.4945 65.5957 30.4021 65.3066 30.1606 65.1649C29.92 65.0231 29.6218 65.0823 29.4946 65.2977C29.3674 65.5131 29.4598 65.8022 29.7012 65.9439Z" fill="#F7B686"/>
<path d="M33.2285 63.4573L33.2188 63.4265C33.2325 63.4217 34.6326 62.9552 34.6667 62.2256C34.6772 62.0191 34.6375 61.8846 34.5475 61.8118C34.4025 61.696 34.1505 61.7632 33.9269 61.8247C33.8921 61.8328 33.8588 61.8425 33.8264 61.8506L33.8183 61.8199C33.8507 61.8118 33.8848 61.8028 33.9188 61.7939C34.1489 61.7316 34.4114 61.6603 34.5678 61.7867C34.6666 61.8668 34.7096 62.0094 34.6991 62.228C34.6642 62.9795 33.2876 63.4387 33.2285 63.4581V63.4573Z" fill="white"/>
<path d="M30.2873 62.0774C30.1844 62.0774 30.0775 62.0726 29.9648 62.0604L29.9681 62.0296C30.0791 62.0402 30.186 62.045 30.2873 62.045C31.4533 62.045 31.9945 61.3696 32.0002 61.3632L32.0253 61.3826C32.0196 61.3907 31.4695 62.0782 30.2873 62.0782V62.0774Z" fill="white"/>
<path d="M30.1328 102.838L30.0664 102.823C30.0818 102.748 31.6123 95.3137 31.9421 94.1468C32.2767 92.9612 33.4921 92.6859 33.5043 92.6835L33.5188 92.7499C33.5067 92.7523 32.3318 93.0195 32.0077 94.1654C31.6788 95.3283 30.1491 102.762 30.1337 102.837L30.1328 102.838Z" fill="#2F1A31"/>
<path d="M31.0006 70.124C31.0006 70.124 32.1034 69.7831 32.3967 70.0479C32.69 70.3127 32.4745 71.5234 31.9664 71.6311C31.4584 71.7388 30.4983 70.4164 31.0006 70.124Z" fill="#593860"/>
<path d="M31.6493 69.8381C31.6493 69.8381 30.2095 69.3295 29.9292 68.821C29.6488 68.3124 28.158 69.4874 28.1839 69.8381C28.2099 70.1887 30.8942 72.1355 31.07 71.8901C31.2458 71.6448 32.0018 70.1717 31.6501 69.8381H31.6493Z" fill="#93CEE5"/>
<path d="M31.6496 69.837C31.6496 69.837 31.8644 69.3033 31.7615 69.0134C31.7615 69.0134 31.6934 68.7583 31.9122 68.7762C32.1317 68.794 33.3244 69.6265 33.4297 69.8807C33.5351 70.135 33.5529 71.3279 33.1664 71.4153C32.7807 71.5028 31.8498 70.2217 31.7404 70.0953C31.631 69.969 31.6496 69.837 31.6496 69.837Z" fill="#93CEE5"/>
<path d="M31.9586 71.6554C31.6361 71.6554 31.3598 71.3704 31.3477 71.3574L31.3857 71.3218C31.3857 71.3218 31.6588 71.6036 31.9586 71.6036H31.9659C32.2616 71.5979 32.4382 70.9622 32.4399 70.955L32.4909 70.9695C32.4828 70.9971 32.3013 71.6506 31.9667 71.6563H31.9586V71.6554Z" fill="#2F1A31"/>
<path d="M33.4141 66.7801C33.4052 66.7801 33.3955 66.7777 33.3874 66.772C33.3817 66.7696 32.7384 66.3687 32.2571 66.7517C32.236 66.7696 32.2044 66.7663 32.1866 66.7436C32.1696 66.7218 32.1728 66.691 32.1947 66.6732C32.7287 66.2464 33.4328 66.6829 33.4409 66.6886C33.4644 66.7032 33.4717 66.7339 33.4563 66.7566C33.4465 66.772 33.4303 66.7801 33.4141 66.7801Z" fill="#2F1A31"/>
<path d="M20.2238 96.2685L20.8048 96.1608L20.3656 93.788C20.2416 93.1823 19.7044 92.745 19.0879 92.7442L17.1352 92.7401C16.5729 92.7393 16.0738 93.0932 15.8923 93.622L15.889 93.6325L15.082 96.3041L15.6476 96.475L16.453 93.8091C16.5542 93.5216 16.8273 93.3297 17.1344 93.3305L19.087 93.3345C19.4249 93.3345 19.7198 93.5734 19.7863 93.9014L20.2246 96.2685H20.2238Z" fill="#2F1A31"/>
<path d="M14.3423 103.499L23.3773 104.332C24.0141 104.39 24.5781 103.929 24.6405 103.298L25.2733 96.905C25.3397 96.2353 24.8171 95.6506 24.1389 95.6344L13.1885 95.381C12.4358 95.3631 11.8662 96.0499 12.0275 96.7803L13.3093 102.593C13.4178 103.086 13.8359 103.452 14.3415 103.499L14.3423 103.499Z" fill="#593860"/>
<path d="M18.4271 99.9911L12.2109 97.7779L12.2571 97.6483L18.4336 99.8478L25.131 98.105L25.1659 98.237L18.4271 99.9911Z" fill="#2F1A31"/>
<path d="M18.323 100.5C18.5313 100.5 18.7006 100.331 18.6998 100.124L18.6982 99.7615C18.6974 99.555 18.5264 99.3866 18.3182 99.3866C18.1099 99.3866 17.9406 99.5558 17.9414 99.7624L17.943 100.125C17.9438 100.332 18.1148 100.5 18.323 100.5Z" fill="#2F1A31"/>
<path d="M20.6687 92.737C20.5359 92.4811 20.3884 92.0559 20.2409 91.6494C20.1226 91.3222 19.8755 90.6582 19.7856 90.4436C19.5725 89.9334 18.2396 89.8759 17.7786 90.1602C17.3249 90.4395 17.162 91.1854 16.8566 92.2066C16.8306 92.2608 16.8088 92.3224 16.7934 92.3936C16.6856 92.8892 16.4409 93.5719 16.7439 93.8343C17.0745 94.1201 17.2803 93.6278 17.3638 93.3573C17.3071 93.6051 17.2406 94.0813 17.4837 94.3509C17.7397 94.6344 18.0338 93.8594 18.161 93.465C18.1619 93.465 18.1635 93.465 18.1643 93.4658C18.0735 93.8197 17.9479 94.5056 18.2712 94.6919C18.6537 94.9121 18.9486 93.8578 19.0272 93.6164C19.0361 93.6164 19.0458 93.6181 19.0555 93.6181C19.2792 95.1187 19.8779 94.3607 20.0132 93.2051C20.232 93.4456 20.7295 93.8764 20.8899 93.7646C21.0763 93.6351 20.7724 92.937 20.6679 92.7362L20.6687 92.737Z" fill="#F7B686"/>
<path d="M71.9832 87.8312C71.6948 88.2928 71.3294 89.3334 71.0498 89.8007C70.9283 90.0032 70.5669 90.7126 70.75 90.8624C70.9089 90.9919 71.4598 90.5676 71.6988 90.3336C71.7961 91.8957 72.6282 94.1324 72.6582 90.8446C72.6598 90.8446 72.6614 90.8446 72.6638 90.8446C72.6914 91.1774 72.8429 93.0286 73.2658 92.8189C73.6394 92.6334 73.5851 91.3037 73.5462 90.7555C73.551 90.7547 73.5559 90.7539 73.5608 90.753C73.6483 91.307 73.893 92.6375 74.1911 92.3443C74.5663 91.9767 74.5412 90.5174 74.5412 90.5174C74.5412 90.5174 74.6133 92.3808 75.0978 92.0107C75.3708 91.8017 75.2193 90.7393 75.1156 90.0785C75.0937 89.94 75.0743 89.8185 75.0605 89.7278C75.0492 89.6517 75.0314 89.5861 75.0087 89.527C74.7664 88.4346 74.4293 87.7713 74.4293 87.7713C74.4293 87.7713 74.1717 86.9234 73.2083 86.9988C72.5942 87.0465 72.108 87.6312 71.9832 87.8312Z" fill="#F7B686"/>
<path d="M71.2528 88.0546C67.7655 85.7645 71.5113 78.6754 70.0617 73.7825C69.7263 72.6488 69.5813 72.2212 69.2912 71.5903C69.0578 71.0826 69.6874 70.0938 70.5519 69.6849C71.363 69.301 73.31 69.5537 73.4639 69.8104C75.812 73.7266 76.5704 80.1549 75.4012 88.3616C75.4012 88.3616 72.7501 89.0369 71.2536 88.0538L71.2528 88.0546Z" fill="#81B3CC"/>
<path d="M66.0725 117.752C66.0725 117.752 66.1025 118.933 66.9014 119.266C67.7011 119.599 70.0176 119.9 69.1522 120.659C68.6556 121.095 66.3148 120.813 65.6536 120.813C64.9925 120.813 64.3718 121.1 63.8808 120.659C63.3404 120.172 63.8808 117.752 63.8808 117.752C63.8808 117.752 64.4512 118.049 64.9641 118.035C65.703 118.016 66.0725 117.752 66.0725 117.752Z" fill="#2F1A31"/>
<path d="M72.9733 82.1112C72.9733 82.1112 73.1329 87.4406 71.4314 97.6653C70.2031 105.047 68.7528 112.484 68.0406 116.05C67.7862 117.326 66.7126 118.259 65.4405 118.31L64.7567 118.337C63.3809 118.392 62.2652 117.212 62.3657 115.808L64.0915 91.6832L64.5169 83.743L72.9725 82.1112H72.9733Z" fill="#593860"/>
<path d="M58.5022 117.752C58.5022 117.752 58.5322 118.933 59.3311 119.266C60.1308 119.599 62.4473 119.9 61.5819 120.659C61.0852 121.095 58.7445 120.813 58.0833 120.813C57.4222 120.813 56.8015 121.1 56.3105 120.659C55.7701 120.172 56.3105 117.752 56.3105 117.752C56.3105 117.752 56.8809 118.049 57.3938 118.035C58.1327 118.016 58.5022 117.752 58.5022 117.752Z" fill="#2F1A31"/>
<path d="M65.3991 82.1112C65.3991 82.1112 65.5587 87.4406 63.8572 97.6653C62.6289 105.047 61.1786 112.484 60.4664 116.05C60.212 117.326 59.1384 118.259 57.8663 118.31L57.1825 118.337C55.8067 118.392 54.691 117.212 54.7915 115.808L56.5173 91.6832L56.9426 83.743L65.3983 82.1112H65.3991Z" fill="#593860"/>
<path d="M56.1055 87.9512C56.1217 88.5942 60.0125 88.8493 64.8237 88.6995C69.6357 88.5497 73.4803 87.8848 73.4641 87.241C73.4479 86.598 69.5758 86.2207 64.7645 86.3705C59.9525 86.5203 56.0893 87.3074 56.1055 87.9504V87.9512Z" fill="#2F1A31"/>
<path d="M57.2855 69.7463C57.2855 69.7463 58.1363 66.3759 64.414 66.3419C73.4668 66.2925 72.629 74.6068 73.4668 87.2415C73.4668 87.2415 64.5493 85.9815 56.1034 87.793C56.1034 87.793 55.3199 74.8968 57.2855 69.7463Z" fill="#81B3CC"/>
<path d="M54.9657 69.2647L59.0655 71.5322C59.0655 71.5322 68.0429 72.3468 70.4266 71.9549C72.8096 71.5621 73.4634 69.8137 73.4634 69.8137C73.4634 69.8137 70.9249 67.1891 66.6104 66.4878C66.2053 66.4214 65.7848 66.3729 65.3489 66.3445C64.6172 66.2975 63.884 66.3073 63.1677 66.3882C57.6994 67.0045 54.9648 69.2655 54.9648 69.2655L54.9657 69.2647Z" fill="#81B3CC"/>
<path d="M72.7079 87.7617C72.7079 87.7617 67.494 86.2287 56.6967 88.3326L56.6133 89.885L72.4413 90.4438L72.7071 87.7609L72.7079 87.7617Z" fill="#593860"/>
<path d="M54.1827 87.7936C54.5603 83.64 57.6327 72.7691 57.9909 72.1739C58.2793 71.6953 57.7632 70.6426 56.9489 70.1413C56.1848 69.6708 55.1972 69.0707 54.9679 69.2634C51.7407 71.9828 48.964 81.9192 49.839 87.4251L54.1819 87.7928L54.1827 87.7936Z" fill="#81B3CC"/>
<path d="M62.3438 66.2579C62.8866 67.1334 64.0582 67.1698 65.0143 66.8855C65.7832 66.6572 65.6779 66.6499 65.5928 66.5203C65.383 66.1996 65.1885 66.1041 65.2177 65.7688L65.2558 65.3299L65.2606 65.2756L65.31 64.7039L65.3951 63.7176L65.6195 61.1229L64.4828 63.6147L64.2891 64.0391L63.6255 65.4959C63.4116 65.9664 62.3486 66.2579 62.3438 66.2579Z" fill="#F7B686"/>
<path d="M64.1453 64.4159C64.1453 64.4159 64.4508 65.1067 65.2578 65.3318L65.2627 65.2775L65.3121 64.7058C64.8729 64.6062 64.1445 64.4167 64.1445 64.4167L64.1453 64.4159Z" fill="#2F1A31"/>
<path d="M69.2408 81.8885C69.2408 81.8885 68.9791 84.2913 67.2703 85.591C67.2703 85.591 66.2073 84.8962 65.4383 83.76C65.0624 83.2288 64.7594 82.5996 64.6613 81.8885C64.6208 81.5695 64.6127 80.9816 64.6289 80.2211C64.6532 79.6081 64.6945 78.8809 64.7351 78.0881C64.8088 76.6985 64.9149 75.1209 64.9887 73.6333C65.0292 72.8162 65.0624 72.0234 65.0786 71.3124C65.111 69.8005 65.0705 68.6149 64.8825 68.1987L65.7001 67.9452C65.7001 67.9452 66.0517 68.8522 66.5338 70.2337C66.7137 70.765 66.9178 71.3618 67.1309 71.9991C67.4583 73.0211 67.8099 74.1565 68.1283 75.3007C68.3001 75.9299 68.4719 76.5673 68.6112 77.1884C68.9135 78.4719 69.1428 79.698 69.2165 80.7273C69.2578 81.1524 69.2659 81.5363 69.2408 81.8877V81.8885Z" fill="#436E8E"/>
<path d="M49.8404 87.4255C49.8144 88.0272 50.7713 88.5657 51.9778 88.6289C53.1834 88.692 54.1824 88.2563 54.2075 87.6547C54.2335 87.053 53.2766 86.5144 52.0701 86.4513C50.8645 86.3881 49.8655 86.8238 49.8404 87.4255Z" fill="#2F1A31"/>
<path d="M73.5184 87.2471L73.4131 87.2374C73.4212 87.1483 74.1455 78.2331 71.5625 72.7191L71.6581 72.6737C74.2533 78.2136 73.5257 87.1572 73.5176 87.2471H73.5184Z" fill="#2F1A31"/>
<path d="M55.9974 79.2245L55.8945 79.201C56.5832 76.391 58.0109 74.3932 58.0255 74.3729L58.1113 74.4353C58.0968 74.4547 56.6805 76.4379 55.9974 79.2253V79.2245Z" fill="#2F1A31"/>
<path d="M67.5532 60.1112C67.5532 60.1112 67.7396 60.7388 67.6018 61.5381C67.4633 62.3374 66.5898 60.4141 66.5898 60.4141L67.5532 60.112V60.1112Z" fill="#2F1A31"/>
<path d="M65.8693 64.9106C67.1367 64.7005 67.9586 63.2918 67.705 61.7644C67.4515 60.2369 66.2185 59.169 64.9511 59.3791C63.6837 59.5893 62.8618 60.9979 63.1154 62.5254C63.3689 64.0529 64.6019 65.1208 65.8693 64.9106Z" fill="#F7B686"/>
<path d="M65.7139 61.9162C65.726 61.9081 65.7341 61.8952 65.7341 61.8798C65.7358 61.8539 65.7155 61.832 65.6896 61.8304C65.6742 61.8304 65.3209 61.7786 65.1564 62.1576C65.1459 62.1819 65.1564 62.2094 65.1799 62.2199C65.2034 62.2304 65.2269 62.2175 65.2423 62.1964C65.3995 61.9883 65.6717 61.9235 65.6847 61.9243C65.6952 61.9243 65.705 61.9219 65.7131 61.9162H65.7139Z" fill="#060633"/>
<path d="M65.5318 62.5261C65.565 62.6338 65.655 62.701 65.7336 62.6768C65.8114 62.6525 65.8478 62.5456 65.8146 62.4387C65.7814 62.331 65.6914 62.2638 65.6128 62.288C65.5351 62.3123 65.4986 62.4192 65.5318 62.5261Z" fill="#060633"/>
<path d="M67.3507 61.6204C67.3612 61.6171 67.3693 61.6074 67.3717 61.5928C67.3766 61.5694 67.3636 61.5426 67.3434 61.5329C67.3312 61.5273 67.0598 61.3661 66.8775 61.6633C66.8661 61.6819 66.8702 61.7111 66.8872 61.7289C66.9042 61.7467 66.9245 61.7419 66.9399 61.7273C67.093 61.5856 67.3166 61.6139 67.3264 61.618C67.3345 61.622 67.3426 61.622 67.3499 61.6196L67.3507 61.6204Z" fill="#060633"/>
<path d="M67.0002 62.1659C67.0042 62.2785 67.0739 62.3667 67.1549 62.3643C67.2368 62.3611 67.2992 62.2679 67.2951 62.1554C67.2911 62.0428 67.2214 61.9545 67.1404 61.957C67.0585 61.9602 66.9961 62.0533 67.0002 62.1659Z" fill="#060633"/>
<path d="M61.543 61.8505C61.543 61.8505 62.3767 63.5009 63.4835 63.5859C63.4835 63.5859 62.7397 61.8845 63.9364 61.0682C63.9364 61.0682 62.6676 61.2836 61.543 61.8505Z" fill="#2F1A31"/>
<path d="M63.127 62.7212C63.3676 62.863 63.6658 62.8038 63.793 62.5884C63.9202 62.373 63.8279 62.0839 63.5864 61.9422C63.3458 61.8005 63.0476 61.8596 62.9204 62.075C62.7932 62.2904 62.8856 62.5795 63.127 62.7212Z" fill="#F7B686"/>
<path d="M63.5625 99.619L63.4961 99.6044C63.5115 99.5291 65.042 92.095 65.3718 90.9272C65.7064 89.7425 66.9218 89.4672 66.9339 89.4647L66.9485 89.5311C66.9364 89.5336 65.7607 89.8008 65.4374 90.9459C65.1085 92.1104 63.5787 99.5428 63.5633 99.6182L63.5625 99.619Z" fill="#2F1A31"/>
<path d="M64.4264 66.9033C64.4264 66.9033 65.5291 66.5624 65.8225 66.8272C66.1158 67.092 65.9002 68.3027 65.3922 68.4104C64.8842 68.5181 63.9241 67.1957 64.4264 66.9033Z" fill="#436E8E"/>
<path d="M65.0751 66.6174C65.0751 66.6174 63.6353 66.1088 63.355 65.6003C63.0746 65.0917 61.5838 66.2667 61.6097 66.6174C61.6356 66.968 64.32 68.9148 64.4958 68.6694C64.6716 68.4241 65.4276 66.951 65.0759 66.6174H65.0751Z" fill="#93CEE5"/>
<path d="M65.0754 66.6166C65.0754 66.6166 65.2901 66.0829 65.1872 65.793C65.1872 65.793 65.1192 65.5379 65.3379 65.5557C65.5575 65.5735 66.7502 66.406 66.8555 66.6603C66.9609 66.9146 66.9787 68.1074 66.5922 68.1949C66.2065 68.2823 65.2756 67.0012 65.1662 66.8749C65.0568 66.7486 65.0754 66.6166 65.0754 66.6166Z" fill="#93CEE5"/>
<path d="M65.3844 68.4344C65.0619 68.4344 64.7856 68.1494 64.7734 68.1364L64.8115 68.1008C64.8115 68.1008 65.0846 68.3826 65.3844 68.3826H65.3917C65.6874 68.3769 65.864 67.7396 65.8656 67.7323L65.9167 67.7469C65.9086 67.7744 65.7263 68.4287 65.3925 68.4352H65.3844V68.4344Z" fill="#2F1A31"/>
<path d="M66.8399 63.5586C66.831 63.5586 66.8213 63.5562 66.8132 63.5505C66.8067 63.5473 66.165 63.1488 65.6829 63.5311C65.6618 63.5505 65.6302 63.5465 65.6124 63.523C65.5954 63.5011 65.5986 63.4703 65.6205 63.4525C66.1536 63.0266 66.8594 63.4606 66.8667 63.4671C66.8902 63.4817 66.8974 63.5124 66.8821 63.5351C66.8723 63.5505 66.8561 63.5586 66.8399 63.5586Z" fill="#2F1A31"/>
<path d="M53.6496 93.0497L54.2305 92.942L53.7914 90.5693C53.6674 89.9635 53.1302 89.5262 52.5136 89.5254L50.561 89.5214C49.9987 89.5206 49.4995 89.8744 49.3181 90.4033L49.3148 90.4138L48.5078 93.0853L49.0734 93.2562L49.8787 90.5903C49.98 90.3028 50.2531 90.1109 50.5602 90.1117L52.5128 90.1158C52.8507 90.1158 53.1456 90.3547 53.2121 90.6826L53.6504 93.0497H53.6496Z" fill="#2F1A31"/>
<path d="M47.7681 100.281L56.8031 101.113C57.4399 101.171 58.0039 100.71 58.0662 100.079L58.699 93.6864C58.7655 93.0167 58.2429 92.432 57.5647 92.4158L46.6143 92.1623C45.8616 92.1445 45.292 92.8312 45.4532 93.5617L46.735 99.3745C46.8436 99.8669 47.2617 100.234 47.7673 100.28L47.7681 100.281Z" fill="#436E8E"/>
<path d="M51.8529 96.7715L45.6367 94.5583L45.6829 94.4296L51.8594 96.629L58.5568 94.8855L58.5908 95.0183L51.8529 96.7715Z" fill="#2F1A31"/>
<path d="M51.7488 97.2813C51.957 97.2813 52.1264 97.1121 52.1256 96.9056L52.124 96.5428C52.1231 96.3363 51.9522 96.1678 51.744 96.1678C51.5357 96.1678 51.3664 96.3371 51.3672 96.5436L51.3688 96.9064C51.3696 97.1129 51.5406 97.2813 51.7488 97.2813Z" fill="#2F1A31"/>
<path d="M54.0984 89.5163C53.9655 89.2604 53.8181 88.8352 53.6706 88.4287C53.5523 88.1015 53.3052 87.4375 53.2153 87.2229C53.0022 86.7127 51.6693 86.6552 51.2083 86.9395C50.7546 87.2188 50.5917 87.9647 50.2862 88.9859C50.2603 89.0401 50.2384 89.1017 50.223 89.1729C50.1153 89.6685 49.8706 90.3512 50.1736 90.6136C50.5042 90.8994 50.71 90.4071 50.7935 90.1366C50.7367 90.3844 50.6703 90.8606 50.9134 91.1302C51.1694 91.4137 51.4635 90.6387 51.5907 90.2443C51.5915 90.2443 51.5932 90.2443 51.594 90.2451C51.5032 90.599 51.3776 91.2849 51.7009 91.4712C52.0834 91.6914 52.3783 90.6371 52.4569 90.3957C52.4658 90.3957 52.4755 90.3974 52.4852 90.3974C52.7089 91.8979 53.3076 91.14 53.4429 89.9844C53.6617 90.2249 54.1592 90.6557 54.3196 90.5439C54.506 90.4144 54.2021 89.7163 54.0976 89.5155L54.0984 89.5163Z" fill="#F7B686"/>
<path d="M61.5447 61.85C61.5447 61.85 60.8446 60.3405 61.727 59.2529C62.6093 58.1645 63.9551 57.7896 65.1689 58.1645C66.3826 58.5394 67.256 58.2868 67.8937 58.4925C68.5322 58.699 68.1019 59.4027 67.6555 59.4213C67.6555 59.4213 68.6732 59.9655 68.3726 60.547C68.072 61.1284 67.3776 61.1851 66.4952 60.9219C65.6129 60.6595 64.4542 60.3777 64.2168 60.6782C63.9794 60.9786 64.118 61.6507 63.5889 61.9431C63.0598 62.2354 61.5439 61.8491 61.5439 61.8491L61.5447 61.85Z" fill="#2F1A31"/>
<path d="M64.8555 58.1681C64.8555 58.1681 66.036 58.2944 66.4022 58.1681C66.7684 58.0418 67.078 58.3511 66.7117 58.5196C66.3455 58.6888 64.8555 58.1681 64.8555 58.1681Z" fill="#2F1A31"/>
<path d="M182.785 93.4675C183.069 93.9226 183.431 94.9503 183.706 95.411C183.826 95.6111 184.182 96.3107 184.002 96.4589C183.845 96.5869 183.301 96.1682 183.066 95.9366C182.97 97.4777 182.15 99.6844 182.119 96.4411C182.117 96.4411 182.116 96.4411 182.113 96.4411C182.086 96.7699 181.936 98.5968 181.519 98.3895C181.151 98.2065 181.204 96.8946 181.242 96.3537C181.237 96.3528 181.232 96.352 181.228 96.3512C181.142 96.8979 180.9 98.2106 180.605 97.9215C180.235 97.5587 180.26 96.1188 180.26 96.1188C180.26 96.1188 180.189 97.9579 179.711 97.5927C179.442 97.387 179.591 96.3383 179.693 95.6864C179.715 95.5495 179.734 95.4305 179.747 95.3398C179.758 95.2653 179.776 95.1997 179.798 95.1414C180.037 94.0635 180.369 93.4092 180.369 93.4092C180.369 93.4092 180.624 92.5726 181.574 92.6472C182.18 92.6949 182.66 93.2707 182.783 93.4683L182.785 93.4675Z" fill="#F7B686"/>
<path d="M183.502 93.6881C186.943 91.4287 183.247 84.4336 184.677 79.6055C185.008 78.4871 185.151 78.0644 185.438 77.4425C185.668 76.9412 185.047 75.9662 184.194 75.5629C183.393 75.1847 181.472 75.4333 181.321 75.6868C179.004 79.5504 178.256 85.8945 179.41 93.9918C179.41 93.9918 182.026 94.6583 183.502 93.6881Z" fill="#81B3CC"/>
<path d="M188.614 122.99C188.614 122.99 188.585 124.155 187.796 124.484C187.007 124.813 184.721 125.109 185.575 125.858C186.065 126.288 188.375 126.011 189.026 126.011C189.679 126.011 190.291 126.295 190.776 125.858C191.309 125.378 190.776 122.99 190.776 122.99C190.776 122.99 190.213 123.283 189.707 123.27C188.978 123.252 188.614 122.99 188.614 122.99Z" fill="#2F1A31"/>
<path d="M181.809 87.8221C181.809 87.8221 181.651 93.0811 183.33 103.17C184.542 110.453 185.973 117.792 186.676 121.31C186.927 122.569 187.986 123.49 189.241 123.54L189.915 123.566C191.272 123.621 192.373 122.455 192.274 121.071L190.571 97.267L190.152 89.4321L181.808 87.8221H181.809Z" fill="#436E8E"/>
<path d="M196.087 122.99C196.087 122.99 196.058 124.155 195.268 124.484C194.479 124.813 192.193 125.109 193.047 125.858C193.538 126.288 195.848 126.011 196.499 126.011C197.151 126.011 197.764 126.295 198.248 125.858C198.782 125.378 198.248 122.99 198.248 122.99C198.248 122.99 197.685 123.283 197.18 123.27C196.45 123.252 196.087 122.99 196.087 122.99Z" fill="#2F1A31"/>
<path d="M189.281 87.8221C189.281 87.8221 189.124 93.0811 190.803 103.17C192.015 110.453 193.446 117.792 194.148 121.31C194.4 122.569 195.459 123.49 196.714 123.54L197.388 123.566C198.745 123.621 199.846 122.455 199.747 121.071L198.044 97.267L197.624 89.4321L189.28 87.8221H189.281Z" fill="#436E8E"/>
<path d="M198.448 93.5859C198.432 94.2208 194.593 94.4726 189.846 94.3244C185.098 94.1762 181.304 93.5203 181.32 92.8854C181.337 92.2505 185.157 91.8788 189.905 92.0262C194.653 92.1744 198.465 92.951 198.449 93.5851L198.448 93.5859Z" fill="#2F1A31"/>
<path d="M197.286 75.6229C197.286 75.6229 196.447 72.297 190.252 72.2638C181.32 72.2152 182.147 80.4186 181.32 92.8856C181.32 92.8856 190.12 91.6418 198.453 93.4298C198.453 93.4298 199.226 80.7044 197.286 75.6229Z" fill="#81B3CC"/>
<path d="M199.573 75.1472L195.527 77.3847C195.527 77.3847 186.669 78.1888 184.317 77.8017C181.966 77.4146 181.32 75.6889 181.32 75.6889C181.32 75.6889 183.825 73.0992 188.082 72.4076C188.482 72.342 188.897 72.2942 189.326 72.2659C190.048 72.2197 190.772 72.2294 191.478 72.3088C196.874 72.9161 199.572 75.148 199.572 75.148L199.573 75.1472Z" fill="#81B3CC"/>
<path d="M182.067 93.399C182.067 93.399 187.211 91.8863 197.865 93.9627L197.947 95.4948L182.329 96.0463L182.066 93.399H182.067Z" fill="#436E8E"/>
<path d="M200.349 93.4298C199.977 89.3322 196.945 78.6046 196.591 78.0175C196.307 77.5453 196.816 76.5071 197.62 76.0115C198.373 75.5467 199.348 74.9555 199.574 75.1459C202.758 77.8288 205.498 87.634 204.634 93.0662L200.348 93.429L200.349 93.4298Z" fill="#81B3CC"/>
<path d="M192.295 72.1824C191.759 73.0465 190.603 73.0821 189.66 72.8019C188.901 72.5768 189.005 72.5695 189.089 72.4416C189.296 72.1249 189.488 72.0302 189.46 71.7006L189.422 71.2682L189.417 71.2147L189.368 70.6503L189.285 69.6769L189.063 67.1171L190.185 69.5757L190.375 69.9943L191.031 71.4317C191.242 71.8958 192.291 72.1832 192.295 72.1841L192.295 72.1824Z" fill="#F7B686"/>
<path d="M190.519 70.3632C190.519 70.3632 190.218 71.0442 189.421 71.2669L189.417 71.2135L189.367 70.649C189.801 70.551 190.519 70.3632 190.519 70.3632Z" fill="#2F1A31"/>
<path d="M185.49 87.6032C185.49 87.6032 185.749 89.9743 187.435 91.2562C187.435 91.2562 188.484 90.5703 189.242 89.4495C189.614 88.9256 189.913 88.3045 190.009 87.6023C190.049 87.2881 190.058 86.7075 190.041 85.9568C190.017 85.3519 189.977 84.6344 189.937 83.8521C189.864 82.4811 189.759 80.9246 189.686 79.4564C189.646 78.6499 189.614 77.8676 189.598 77.1663C189.566 75.6746 189.606 74.5052 189.792 74.0939L188.985 73.8436C188.985 73.8436 188.638 74.7393 188.162 76.1014C187.984 76.6253 187.782 77.2141 187.573 77.8433C187.25 78.8515 186.902 79.9723 186.588 81.1012C186.419 81.7223 186.249 82.3515 186.112 82.9645C185.814 84.2311 185.587 85.4401 185.515 86.4565C185.474 86.8759 185.466 87.2549 185.49 87.6015V87.6032Z" fill="#436E8E"/>
<path d="M202.532 94.2657C203.722 94.1994 204.659 93.6649 204.626 93.0719C204.593 92.4789 203.602 92.0519 202.412 92.1182C201.222 92.1844 200.285 92.7189 200.318 93.3119C200.351 93.905 201.342 94.332 202.532 94.2657Z" fill="#2F1A31"/>
<path d="M181.27 92.8918C181.263 92.8035 180.544 83.9782 183.105 78.5135L183.199 78.5565C180.65 83.9976 181.367 92.7946 181.374 92.8829L181.27 92.8926V92.8918Z" fill="#2F1A31"/>
<path d="M198.555 84.9742C197.882 82.2241 196.483 80.2675 196.469 80.2473L196.554 80.1874C196.568 80.2068 197.977 82.1779 198.656 84.9499L198.555 84.9734V84.9742Z" fill="#2F1A31"/>
<path d="M187.153 66.1171C187.153 66.1171 186.969 66.7358 187.105 67.5245C187.242 68.3133 188.104 66.4151 188.104 66.4151L187.153 66.1171Z" fill="#2F1A31"/>
<path d="M191.529 68.4965C191.779 66.9893 190.968 65.5993 189.717 65.392C188.467 65.1846 187.25 66.2383 187 67.7455C186.75 69.2527 187.561 70.6426 188.811 70.85C190.062 71.0574 191.279 70.0037 191.529 68.4965Z" fill="#F7B686"/>
<path d="M188.97 67.8958C188.958 67.8877 188.95 67.8748 188.949 67.8594C188.948 67.8335 188.968 67.8116 188.993 67.8108C189.008 67.8108 189.357 67.7598 189.519 68.1339C189.529 68.1574 189.519 68.1849 189.496 68.1955C189.473 68.206 189.45 68.193 189.435 68.1728C189.279 67.9671 189.011 67.9031 188.998 67.9039C188.987 67.9039 188.978 67.9015 188.97 67.8958Z" fill="#060633"/>
<path d="M189.15 68.4992C189.117 68.6053 189.029 68.6717 188.952 68.6482C188.875 68.6247 188.839 68.5195 188.871 68.4134C188.905 68.3073 188.993 68.2409 189.07 68.2644C189.147 68.2878 189.182 68.3931 189.15 68.4992Z" fill="#060633"/>
<path d="M187.358 67.6063C187.347 67.6031 187.339 67.5934 187.337 67.5796C187.332 67.5561 187.345 67.5302 187.365 67.5205C187.377 67.5148 187.644 67.3561 187.824 67.6492C187.835 67.6679 187.831 67.6962 187.814 67.7132C187.797 67.7302 187.778 67.7262 187.762 67.7116C187.611 67.5723 187.39 67.5998 187.381 67.6039C187.373 67.6079 187.365 67.6079 187.357 67.6055L187.358 67.6063Z" fill="#060633"/>
<path d="M187.698 68.1451C187.694 68.256 187.626 68.3435 187.545 68.341C187.465 68.3378 187.402 68.2463 187.406 68.1354C187.41 68.0244 187.479 67.937 187.56 67.9394C187.64 67.9426 187.702 68.0341 187.698 68.1451Z" fill="#060633"/>
<path d="M193.084 67.8302C193.084 67.8302 192.26 69.4588 191.169 69.543C191.169 69.543 191.903 67.8642 190.723 67.0585C190.723 67.0585 191.975 67.2714 193.084 67.8302Z" fill="#2F1A31"/>
<path d="M191.52 68.6851C191.758 68.5451 191.849 68.2596 191.723 68.0473C191.598 67.8351 191.304 67.7764 191.067 67.9164C190.829 68.0563 190.738 68.3419 190.864 68.5541C190.989 68.7664 191.283 68.825 191.52 68.6851Z" fill="#F7B686"/>
<path d="M191.094 105.098C191.078 105.024 189.569 97.69 189.245 96.5417C188.926 95.412 187.765 95.1488 187.754 95.1447L187.768 95.08C187.781 95.0824 188.979 95.3529 189.31 96.5222C189.634 97.673 191.145 105.01 191.16 105.084L191.095 105.098H191.094Z" fill="#2F1A31"/>
<path d="M190.238 72.8169C190.238 72.8169 189.15 72.4808 188.861 72.7416C188.572 73.0024 188.785 74.1976 189.286 74.3037C189.786 74.4098 190.734 73.1052 190.238 72.8169Z" fill="#436E8E"/>
<path d="M189.598 72.5356C189.598 72.5356 191.018 72.0336 191.295 71.5323C191.572 71.0302 193.043 72.1898 193.018 72.5356C192.992 72.8814 190.343 74.8023 190.171 74.5602C189.997 74.318 189.252 72.8644 189.599 72.5356H189.598Z" fill="#93CEE5"/>
<path d="M189.598 72.5341C189.598 72.5341 189.386 72.0069 189.488 71.7211C189.488 71.7211 189.555 71.47 189.339 71.487C189.122 71.504 187.945 72.326 187.841 72.577C187.738 72.8281 187.72 74.0047 188.101 74.0914C188.483 74.178 189.4 72.9139 189.508 72.7892C189.616 72.6645 189.598 72.5341 189.598 72.5341Z" fill="#93CEE5"/>
<path d="M189.295 74.3298H189.286C188.957 74.3249 188.778 73.6787 188.77 73.6512L188.82 73.6366C188.821 73.6439 188.996 74.2739 189.287 74.2772H189.295C189.59 74.2772 189.857 74.0018 189.86 73.9994L189.897 74.035C189.885 74.0472 189.613 74.3298 189.294 74.3298H189.295Z" fill="#2F1A31"/>
<path d="M187.858 69.5169C187.842 69.5169 187.826 69.5097 187.816 69.4943C187.802 69.4716 187.808 69.4408 187.832 69.4262C187.837 69.423 188.531 68.9881 189.062 69.4117C189.083 69.4287 189.086 69.4594 189.07 69.4805C189.053 69.5024 189.024 69.5056 189 69.4878C188.526 69.1137 187.892 69.5056 187.885 69.5097C187.877 69.5145 187.868 69.5169 187.859 69.5169H187.858Z" fill="#2F1A31"/>
<path d="M200.874 98.616L200.301 98.5099L200.734 96.1688C200.857 95.5703 201.387 95.1395 201.995 95.1387L203.922 95.1346C204.477 95.1338 204.969 95.4837 205.148 96.0052L205.152 96.0157L205.948 98.6517L205.391 98.8201L204.596 96.1898C204.496 95.9064 204.226 95.7169 203.923 95.7177L201.997 95.7218C201.663 95.7218 201.373 95.9574 201.306 96.2813L200.874 98.6168L200.874 98.616Z" fill="#2F1A31"/>
<path d="M206.678 105.75L197.763 106.572C197.135 106.631 196.579 106.175 196.517 105.552L195.892 99.2442C195.827 98.5834 196.343 98.006 197.011 97.9907L207.816 97.7404C208.559 97.7234 209.12 98.4004 208.962 99.1212L207.697 104.857C207.59 105.343 207.177 105.705 206.678 105.751V105.75Z" fill="#593860"/>
<path d="M202.649 102.29L208.782 100.106L208.737 99.9784L202.642 102.149L196.034 100.429L196 100.559L202.649 102.29Z" fill="#2F1A31"/>
<path d="M202.747 102.791C202.542 102.791 202.374 102.624 202.375 102.42L202.377 102.063C202.377 101.858 202.546 101.692 202.752 101.693C202.957 101.693 203.124 101.861 203.124 102.064L203.122 102.422C203.121 102.626 202.953 102.792 202.747 102.791Z" fill="#2F1A31"/>
<path d="M200.433 95.13C200.564 94.8773 200.709 94.4578 200.855 94.057C200.972 93.7338 201.215 93.0787 201.304 92.8673C201.514 92.3645 202.83 92.307 203.285 92.5872C203.732 92.8633 203.893 93.5986 204.194 94.606C204.22 94.6595 204.241 94.7202 204.256 94.7906C204.362 95.2798 204.604 95.9535 204.305 96.2127C203.978 96.4953 203.776 96.0086 203.693 95.7422C203.749 95.9867 203.815 96.4572 203.575 96.7229C203.322 97.0022 203.032 96.2378 202.906 95.8491C202.905 95.8491 202.904 95.8491 202.903 95.8499C202.992 96.1997 203.117 96.8759 202.798 97.0597C202.42 97.2776 202.129 96.237 202.051 95.9989C202.043 95.9989 202.033 96.0005 202.024 96.0005C201.804 97.4817 201.213 96.7334 201.079 95.5932C200.863 95.8305 200.373 96.2556 200.215 96.1455C200.031 96.0175 200.331 95.3284 200.433 95.1308L200.433 95.13Z" fill="#F7B686"/>
<path d="M193.085 67.8308C193.085 67.8308 193.775 66.3415 192.905 65.2677C192.035 64.1939 190.707 63.8238 189.509 64.1939C188.312 64.564 187.451 64.3146 186.82 64.5178C186.191 64.7211 186.614 65.4159 187.055 65.4346C187.055 65.4346 186.051 65.9715 186.348 66.5456C186.644 67.1198 187.33 67.1748 188.2 66.9157C189.07 66.6566 190.213 66.3788 190.448 66.6752C190.682 66.9716 190.545 67.6348 191.067 67.9231C191.59 68.2114 193.085 67.8308 193.085 67.8308Z" fill="#2F1A31"/>
<path d="M189.818 64.199C189.818 64.199 188.653 64.3237 188.292 64.199C187.93 64.0743 187.625 64.3796 187.986 64.5464C188.348 64.7132 189.818 64.199 189.818 64.199Z" fill="#2F1A31"/>
<path d="M150.679 88.4753C150.964 88.9304 151.325 89.9581 151.601 90.4189C151.72 90.6189 152.077 91.3186 151.896 91.4667C151.74 91.5947 151.195 91.176 150.96 90.9444C150.864 92.4855 150.044 94.6922 150.013 91.4489C150.012 91.4489 150.01 91.4489 150.008 91.4489C149.981 91.7777 149.831 93.6047 149.414 93.3973C149.045 93.2143 149.099 91.9024 149.137 91.3615C149.132 91.3607 149.127 91.3599 149.122 91.359C149.036 91.9057 148.795 93.2184 148.5 92.9293C148.129 92.5665 148.155 91.1266 148.155 91.1266C148.155 91.1266 148.083 92.9657 147.605 92.6005C147.336 92.3948 147.485 91.3461 147.587 90.6942C147.609 90.5573 147.629 90.4383 147.642 90.3476C147.652 90.2731 147.67 90.2075 147.693 90.1492C147.932 89.0713 148.264 88.417 148.264 88.417C148.264 88.417 148.518 87.5805 149.469 87.655C150.075 87.7027 150.555 88.2785 150.678 88.4761L150.679 88.4753Z" fill="#F7B686"/>
<path d="M151.397 88.696C154.838 86.4367 151.141 79.4415 152.571 74.6134C152.903 73.495 153.045 73.0723 153.332 72.4504C153.562 71.9491 152.942 70.9741 152.089 70.5708C151.288 70.1926 149.367 70.4412 149.215 70.6947C146.899 74.5583 146.15 80.9024 147.304 88.9997C147.304 88.9997 149.92 89.6662 151.397 88.696Z" fill="#81B3CC"/>
<path d="M156.509 117.998C156.509 117.998 156.479 119.163 155.69 119.492C154.901 119.821 152.615 120.117 153.469 120.866C153.96 121.296 156.27 121.019 156.921 121.019C157.573 121.019 158.186 121.303 158.67 120.866C159.203 120.386 158.67 117.998 158.67 117.998C158.67 117.998 158.107 118.291 157.602 118.278C156.872 118.26 156.509 117.998 156.509 117.998Z" fill="#2F1A31"/>
<path d="M149.703 82.83C149.703 82.83 149.546 88.0889 151.225 98.1775C152.437 105.461 153.868 112.8 154.57 116.318C154.821 117.577 155.88 118.497 157.135 118.548L157.81 118.574C159.167 118.629 160.268 117.463 160.169 116.078L158.466 92.2748L158.046 84.4399L149.702 82.83H149.703Z" fill="#593860"/>
<path d="M163.981 117.998C163.981 117.998 163.952 119.163 163.163 119.492C162.374 119.821 160.088 120.117 160.942 120.866C161.432 121.296 163.742 121.019 164.394 121.019C165.046 121.019 165.658 121.303 166.143 120.866C166.676 120.386 166.143 117.998 166.143 117.998C166.143 117.998 165.58 118.291 165.074 118.278C164.345 118.26 163.981 117.998 163.981 117.998Z" fill="#2F1A31"/>
<path d="M157.176 82.83C157.176 82.83 157.019 88.0889 158.697 98.1775C159.91 105.461 161.34 112.8 162.043 116.318C162.294 117.577 163.353 118.497 164.608 118.548L165.282 118.574C166.639 118.629 167.741 117.463 167.642 116.078L165.939 92.2748L165.519 84.4399L157.175 82.83H157.176Z" fill="#593860"/>
<path d="M166.343 88.5937C166.326 89.2286 162.487 89.4804 157.74 89.3322C152.992 89.184 149.199 88.5281 149.215 87.8932C149.231 87.2583 153.051 86.8866 157.799 87.034C162.547 87.1822 166.36 87.9588 166.343 88.5929L166.343 88.5937Z" fill="#2F1A31"/>
<path d="M165.181 70.6307C165.181 70.6307 164.341 67.3048 158.147 67.2716C149.214 67.223 150.041 75.4264 149.215 87.8935C149.215 87.8935 158.014 86.6496 166.347 88.4377C166.347 88.4377 167.12 75.7123 165.181 70.6307Z" fill="#81B3CC"/>
<path d="M167.467 70.153L163.422 72.3905C163.422 72.3905 154.563 73.1947 152.212 72.8076C149.861 72.4205 149.215 70.6948 149.215 70.6948C149.215 70.6948 151.719 68.105 155.976 67.4134C156.377 67.3478 156.791 67.3001 157.221 67.2717C157.943 67.2256 158.666 67.2353 159.373 67.3146C164.768 67.922 167.467 70.1538 167.467 70.1538V70.153Z" fill="#81B3CC"/>
<path d="M149.962 88.4069C149.962 88.4069 155.106 86.8941 165.76 88.9705L165.842 90.5027L150.223 91.0541L149.961 88.4069H149.962Z" fill="#593860"/>
<path d="M168.244 88.4376C167.871 84.34 164.839 73.6124 164.486 73.0253C164.201 72.5531 164.71 71.515 165.514 71.0194C166.268 70.5545 167.242 69.9634 167.468 70.1537C170.653 72.8366 173.393 82.6418 172.528 88.074L168.243 88.4368L168.244 88.4376Z" fill="#81B3CC"/>
<path d="M160.189 67.1883C159.654 68.0524 158.497 68.088 157.554 67.8078C156.796 67.5827 156.9 67.5754 156.984 67.4474C157.19 67.1308 157.383 67.0361 157.354 66.7065L157.317 66.274L157.312 66.2206L157.263 65.6561L157.179 64.6827L156.957 62.1229L158.079 64.5815L158.27 65.0002L158.925 66.4376C159.137 66.9016 160.185 67.1891 160.19 67.1899L160.189 67.1883Z" fill="#F7B686"/>
<path d="M158.41 65.371C158.41 65.371 158.109 66.052 157.312 66.2747L157.307 66.2213L157.258 65.6568C157.691 65.5589 158.41 65.371 158.41 65.371Z" fill="#2F1A31"/>
<path d="M153.385 82.611C153.385 82.611 153.643 84.9821 155.329 86.264C155.329 86.264 156.379 85.5781 157.137 84.4573C157.508 83.9334 157.807 83.3123 157.903 82.6102C157.944 82.296 157.952 81.7153 157.936 80.9646C157.912 80.3597 157.871 79.6422 157.831 78.8599C157.758 77.4889 157.654 75.9324 157.581 74.4643C157.54 73.6577 157.509 72.8754 157.493 72.1741C157.46 70.6824 157.501 69.5131 157.686 69.1017L156.879 68.8514C156.879 68.8514 156.533 69.7471 156.056 71.1092C155.879 71.6331 155.677 72.2219 155.467 72.8511C155.145 73.8593 154.797 74.9801 154.483 76.109C154.313 76.7301 154.144 77.3593 154.006 77.9724C153.708 79.2389 153.482 80.448 153.409 81.4643C153.369 81.8838 153.36 82.2628 153.385 82.6094V82.611Z" fill="#593860"/>
<path d="M172.529 88.0746C172.554 88.6681 171.61 89.1994 170.42 89.2617C169.23 89.3241 168.244 88.8941 168.219 88.3005C168.194 87.7069 169.138 87.1757 170.328 87.1133C171.519 87.051 172.504 87.481 172.529 88.0746Z" fill="#2F1A31"/>
<path d="M149.165 87.8993C149.157 87.811 148.439 78.9856 151 73.5194L151.094 73.5623C148.545 79.0051 149.261 87.8013 149.268 87.8895L149.165 87.8993Z" fill="#2F1A31"/>
<path d="M166.45 79.982C165.776 77.2319 164.378 75.2754 164.363 75.2551L164.448 75.1952C164.462 75.2146 165.872 77.1857 166.551 79.9577L166.45 79.9812V79.982Z" fill="#2F1A31"/>
<path d="M155.047 61.1229C155.047 61.1229 154.863 61.7416 154.999 62.5304C155.136 63.3191 155.998 61.4209 155.998 61.4209L155.047 61.1229Z" fill="#2F1A31"/>
<path d="M159.423 63.5043C159.674 61.9971 158.862 60.6071 157.612 60.3998C156.361 60.1924 155.145 61.2461 154.894 62.7533C154.644 64.2605 155.455 65.6504 156.706 65.8578C157.956 66.0652 159.173 65.0115 159.423 63.5043Z" fill="#F7B686"/>
<path d="M156.864 62.9037C156.853 62.8956 156.845 62.8826 156.844 62.8672C156.842 62.8413 156.862 62.8194 156.888 62.8186C156.903 62.8186 157.251 62.7676 157.413 63.1417C157.424 63.1652 157.413 63.1928 157.391 63.2033C157.367 63.2138 157.345 63.2009 157.329 63.1806C157.174 62.9749 156.905 62.9109 156.892 62.9118C156.882 62.9118 156.872 62.9093 156.864 62.9037Z" fill="#060633"/>
<path d="M157.045 63.507C157.011 63.6131 156.923 63.6795 156.846 63.656C156.769 63.6325 156.733 63.5273 156.766 63.4212C156.799 63.3151 156.887 63.2487 156.964 63.2722C157.041 63.2957 157.077 63.4009 157.045 63.507Z" fill="#060633"/>
<path d="M155.249 62.6122C155.238 62.6089 155.23 62.5992 155.228 62.5855C155.223 62.562 155.236 62.5361 155.255 62.5263C155.267 62.5207 155.535 62.362 155.715 62.6551C155.726 62.6737 155.722 62.7021 155.705 62.7191C155.688 62.7361 155.668 62.732 155.653 62.7175C155.501 62.5782 155.281 62.6057 155.271 62.6098C155.263 62.6138 155.255 62.6138 155.248 62.6114L155.249 62.6122Z" fill="#060633"/>
<path d="M155.593 63.1509C155.589 63.2619 155.521 63.3493 155.44 63.3469C155.359 63.3437 155.297 63.2522 155.301 63.1412C155.305 63.0303 155.373 62.9428 155.454 62.9452C155.534 62.9485 155.597 63.04 155.593 63.1509Z" fill="#060633"/>
<path d="M160.978 62.838C160.978 62.838 160.155 64.4666 159.064 64.5508C159.064 64.5508 159.798 62.872 158.617 62.0663C158.617 62.0663 159.87 62.2793 160.978 62.838Z" fill="#2F1A31"/>
<path d="M159.413 63.7001C159.175 63.8402 158.881 63.7819 158.756 63.5698C158.63 63.3576 158.722 63.0717 158.959 62.9316C159.196 62.7915 159.49 62.8498 159.616 63.062C159.742 63.2742 159.65 63.56 159.413 63.7001Z" fill="#F7B686"/>
<path d="M158.988 100.106C158.973 100.032 157.463 92.6978 157.139 91.5495C156.82 90.4198 155.66 90.1566 155.648 90.1525L155.663 90.0878C155.675 90.0902 156.874 90.3607 157.204 91.53C157.529 92.6808 159.039 100.018 159.055 100.091L158.989 100.106H158.988Z" fill="#2F1A31"/>
<path d="M158.133 67.8247C158.133 67.8247 157.045 67.4887 156.756 67.7494C156.466 68.0102 156.679 69.2055 157.18 69.3115C157.681 69.4176 158.629 68.113 158.133 67.8247Z" fill="#593860"/>
<path d="M157.492 67.5415C157.492 67.5415 158.913 67.0394 159.19 66.5381C159.467 66.0361 160.937 67.1957 160.912 67.5415C160.886 67.8873 158.238 69.8082 158.065 69.566C157.893 69.3239 157.146 67.8703 157.493 67.5415H157.492Z" fill="#93CEE5"/>
<path d="M157.492 67.5419C157.492 67.5419 157.28 67.0147 157.382 66.7289C157.382 66.7289 157.45 66.4778 157.233 66.4948C157.017 66.5119 155.84 67.3338 155.736 67.5849C155.632 67.8359 155.614 69.0126 155.996 69.0992C156.377 69.1859 157.295 67.9217 157.403 67.797C157.51 67.6723 157.492 67.5419 157.492 67.5419Z" fill="#93CEE5"/>
<path d="M157.189 69.3357H157.181C156.851 69.3308 156.671 68.6846 156.664 68.657L156.714 68.6425C156.716 68.6497 156.891 69.2798 157.183 69.283H157.19C157.486 69.283 157.752 69.0077 157.755 69.0053L157.793 69.0409C157.781 69.053 157.508 69.3357 157.19 69.3357H157.189Z" fill="#2F1A31"/>
<path d="M155.749 64.5244C155.733 64.5244 155.717 64.5171 155.707 64.5017C155.692 64.4791 155.699 64.4483 155.722 64.4337C155.729 64.4305 156.424 63.9997 156.952 64.4208C156.973 64.4378 156.977 64.4685 156.96 64.4896C156.943 64.5115 156.913 64.5147 156.891 64.4969C156.418 64.1211 155.782 64.5139 155.776 64.5171C155.768 64.522 155.759 64.5244 155.75 64.5244H155.749Z" fill="#2F1A31"/>
<path d="M168.764 93.6238L168.191 93.5178L168.625 91.1766C168.747 90.5781 169.277 90.1473 169.886 90.1465L171.812 90.1425C172.367 90.1416 172.859 90.4915 173.039 91.013L173.042 91.0235L173.839 93.6595L173.281 93.8279L172.486 91.1976C172.387 90.9142 172.117 90.7247 171.814 90.7255L169.887 90.7296C169.553 90.7296 169.263 90.9652 169.197 91.2892L168.765 93.6247L168.764 93.6238Z" fill="#2F1A31"/>
<path d="M174.569 100.758L165.654 101.58C165.026 101.639 164.469 101.183 164.408 100.56L163.783 94.2523C163.717 93.5915 164.233 93.0141 164.902 92.9987L175.706 92.7485C176.449 92.7315 177.011 93.4085 176.852 94.1292L175.587 99.8651C175.48 100.351 175.068 100.713 174.569 100.759V100.758Z" fill="#436E8E"/>
<path d="M170.539 97.2982L176.673 95.1142L176.628 94.9862L170.533 97.1565L163.925 95.4365L163.891 95.5676L170.539 97.2982Z" fill="#2F1A31"/>
<path d="M170.641 97.7992C170.436 97.7992 170.269 97.6315 170.27 97.4283L170.271 97.0703C170.272 96.8663 170.44 96.7002 170.646 96.7011C170.851 96.7011 171.019 96.8687 171.018 97.072L171.017 97.4299C171.016 97.634 170.847 97.8 170.641 97.7992Z" fill="#2F1A31"/>
<path d="M168.327 90.1378C168.458 89.8851 168.603 89.4656 168.749 89.0648C168.867 88.7417 169.11 88.0865 169.199 87.8752C169.409 87.3723 170.725 87.3148 171.179 87.595C171.626 87.8711 171.788 88.6064 172.088 89.6138C172.114 89.6673 172.135 89.728 172.151 89.7985C172.257 90.2876 172.498 90.9614 172.199 91.2205C171.873 91.5031 171.67 91.0164 171.588 90.75C171.643 90.9946 171.709 91.4651 171.469 91.7307C171.216 92.0101 170.926 91.2456 170.801 90.8569C170.8 90.8569 170.798 90.8569 170.798 90.8577C170.887 91.2075 171.011 91.8837 170.692 92.0676C170.315 92.2854 170.024 91.2448 169.946 91.0067C169.937 91.0067 169.927 91.0083 169.918 91.0083C169.698 92.4895 169.107 91.7412 168.974 90.601C168.757 90.8383 168.267 91.2634 168.109 91.1533C167.925 91.0253 168.225 90.3362 168.328 90.1386L168.327 90.1378Z" fill="#F7B686"/>
<path d="M160.978 62.8387C160.978 62.8387 161.414 61.3754 160.413 60.2926C159.412 59.2099 157.265 58.7378 156.686 58.9597C156.106 59.1816 156.162 59.6262 156.162 59.6262C156.162 59.6262 155.078 59.2925 154.828 59.8205C154.578 60.3485 154.947 60.5704 154.947 60.5704C154.947 60.5704 153.936 60.9421 154.467 61.7365C154.997 62.5318 156.029 61.709 157.401 61.709C158.774 61.709 159.186 62.7237 159.186 62.7237L160.977 62.8395L160.978 62.8387Z" fill="#2F1A31"/>
<path d="M125.34 32.4316C125.187 31.6271 125.236 29.9597 125.1 29.152C125.041 28.8013 124.82 27.1911 125.15 27.0746C125.437 26.9736 126.071 28.2788 126.275 28.7357C127.937 23.4057 131.336 29.9992 130.842 30.8819C130.739 31.0671 130.647 31.2284 130.581 31.3513C130.526 31.4533 130.465 31.5376 130.403 31.6083C129.489 33.0311 128.674 33.794 128.674 33.794C128.674 33.794 127.87 34.8609 126.584 34.251C125.764 33.8617 125.405 32.7803 125.34 32.4316Z" fill="#F7B686"/>
<path d="M98.4645 57.8975C98.4645 57.8975 99.2924 53.0306 107.939 52.3218C114.598 51.7764 121.349 55.7014 122.151 61.6683C123.259 69.921 123.457 74.3319 122.563 78.49C122.563 78.49 104.238 75.1698 98.5655 79.1738C98.5655 79.1738 100.515 71.5176 98.3281 60.715C98.1063 59.619 98.2114 58.7666 98.4645 57.8975Z" fill="#DEEBE9"/>
<path d="M89.9238 36.9745C91.7565 43.1371 101.698 52.5576 105.287 52.7085C106.059 52.7407 98.6514 62.2912 98.5275 61.8853C97.9048 59.8526 97.307 58.9638 95.9845 57.4827C91.6566 52.6325 85.7448 46.1274 84.7461 40.1448L89.9238 36.9755V36.9745Z" fill="#DEEBE9"/>
<path d="M109.656 52.3912C109.656 52.3912 122.401 47.2257 124.102 33.6888C124.205 32.8645 124.973 32.3077 125.763 32.4836L128.255 33.0373C128.71 33.1382 129.038 33.5452 129.047 34.024C129.103 36.5708 128.767 44.8183 123.073 55.3773C122.489 56.4608 121.324 58.1376 122.135 61.6597L109.656 52.3933V52.3912Z" fill="#DEEBE9"/>
<path d="M98.5508 79.1618C98.5612 80.3473 103.933 80.9582 110.584 80.8552C117.235 80.7521 122.559 79.6645 122.549 78.479C122.539 77.2935 117.022 75.2795 110.371 75.3826C103.72 75.4856 98.5404 77.9763 98.5508 79.1628V79.1618Z" fill="#2F1A31"/>
<path d="M108.051 51.1341L108.258 48.8349L108.318 48.1657L108.671 44.2303L109.573 47.8722L110.114 50.0589L110.286 50.751C110.403 51.2205 110.704 51.259 111.131 51.5972C111.304 51.7336 112.398 52.5527 111.486 53.2282C110.35 54.0702 107.83 53.7174 106.707 52.7817C106.713 52.7785 107.986 51.8772 108.052 51.1341H108.051Z" fill="#F7B686"/>
<path d="M111.25 42.2206C111.25 42.2206 111.661 43.0657 111.665 44.2356C111.669 45.4055 109.992 42.8919 109.992 42.8919L111.25 42.2206Z" fill="#56335B"/>
<path d="M109.966 49.497C111.695 48.9698 112.568 46.8149 111.918 44.6839C111.267 42.5529 109.338 41.2527 107.61 41.7799C105.882 42.307 105.008 44.4619 105.659 46.5929C106.309 48.7239 108.238 50.0241 109.966 49.497Z" fill="#F7B686"/>
<path d="M105.395 45.6452L106.906 45.1446C107.238 45.0342 107.51 44.7792 107.633 44.4431C107.845 43.8644 108.173 43.5199 109.626 43.2628C111.466 42.936 112.44 41.5558 112.435 40.5306C112.43 39.4846 111.356 39.0079 110.538 39.6855C109.719 40.3631 109.871 39.1058 108.964 39.1724C107.269 39.2983 107.229 40.6711 105.871 40.922C104.092 41.2509 101.207 43.3221 103.369 46.1958L105.395 45.6452Z" fill="#2F1A31"/>
<path d="M108.919 45.445C108.934 45.4304 108.941 45.4096 108.939 45.3878C108.935 45.3503 108.901 45.3243 108.865 45.3284C108.844 45.3316 108.343 45.3472 108.209 45.9269C108.201 45.9633 108.221 46.0008 108.257 46.0102C108.292 46.0195 108.32 45.9946 108.337 45.9613C108.504 45.6261 108.864 45.4658 108.882 45.4638C108.896 45.4617 108.91 45.4554 108.919 45.445Z" fill="#060633"/>
<path d="M108.815 46.3573C108.887 46.502 109.028 46.5748 109.13 46.5207C109.232 46.4666 109.256 46.3063 109.185 46.1616C109.113 46.017 108.971 45.9441 108.869 45.9982C108.767 46.0523 108.743 46.2126 108.815 46.3573Z" fill="#060633"/>
<path d="M111.272 44.7237C111.287 44.7175 111.297 44.7029 111.3 44.6831C111.305 44.6488 111.286 44.6113 111.256 44.5988C111.24 44.5915 110.848 44.3781 110.613 44.8195C110.598 44.8476 110.606 44.8881 110.631 44.9131C110.656 44.9371 110.684 44.9287 110.705 44.9079C110.91 44.6935 111.225 44.7185 111.239 44.7237C111.25 44.7289 111.263 44.7289 111.272 44.7237Z" fill="#060633"/>
<path d="M110.822 45.5343C110.835 45.6957 110.938 45.8195 111.052 45.8091C111.165 45.7987 111.248 45.6603 111.234 45.4979C111.221 45.3366 111.118 45.2127 111.004 45.2231C110.891 45.2336 110.808 45.372 110.822 45.5343Z" fill="#060633"/>
<path d="M103.371 46.1952C103.371 46.1952 104.925 48.331 106.474 48.1759C106.474 48.1759 104.879 46.6376 107.232 44.9764C107.232 44.9764 104.785 45.1086 103.371 46.1952Z" fill="#56335B"/>
<path d="M105.772 47.0372C106.14 47.1787 106.536 47.0195 106.659 46.6822C106.782 46.345 106.584 45.9568 106.217 45.8152C105.849 45.6737 105.452 45.8329 105.329 46.1702C105.207 46.5074 105.404 46.8956 105.772 47.0372Z" fill="#F7B686"/>
<path d="M107.233 44.9775C107.233 44.9775 107.435 47.0092 107.906 47.2995C108.376 47.5899 111.007 47.1861 112.12 46.4409C112.402 47.7127 111.76 49.0294 110.579 49.5071C110.188 49.6653 109.77 49.7569 109.338 49.7725C108.458 49.8048 107.559 49.6226 107.042 48.8899C106.885 48.6672 106.883 47.0841 106.883 47.0841C106.883 47.0841 106.816 46.1692 106.219 45.8164C106.219 45.8164 106.689 45.1534 107.233 44.9764V44.9775Z" fill="#56335B"/>
<path d="M111.625 47.2987C111.625 47.2987 110.687 47.7921 109.578 47.9201C109.578 47.9201 109.951 48.9203 111.009 48.4748C111.624 48.2157 111.626 47.2987 111.626 47.2987H111.625Z" fill="white"/>
<path d="M110.158 39.5875C109.799 39.5875 109.696 39.2596 109.695 39.2544L109.781 39.2284C109.785 39.245 109.893 39.5875 110.312 39.4751L110.334 39.5635C110.269 39.5791 110.211 39.5864 110.158 39.5864V39.5875Z" fill="#2F1A31"/>
<path d="M110.034 42.6227L110.012 42.5832C110.03 42.5738 111.85 41.559 111.72 40.5141C111.682 40.2153 111.593 40.0311 111.449 39.9531C111.223 39.8261 110.891 39.9884 110.598 40.129C110.553 40.1508 110.509 40.1716 110.468 40.1904L110.449 40.1508C110.491 40.131 110.534 40.1092 110.578 40.0884C110.879 39.9427 111.221 39.7782 111.47 39.9135C111.628 39.9989 111.724 40.1945 111.763 40.5078C111.899 41.584 110.11 42.5822 110.033 42.6238L110.034 42.6227Z" fill="white"/>
<path d="M105.191 41.4549L105.188 41.4091C107.137 41.2603 107.825 39.9665 107.832 39.953L107.871 39.9749C107.864 39.9874 107.166 41.304 105.19 41.4559L105.191 41.4549Z" fill="white"/>
<path d="M109.52 52.8812C109.52 52.8812 111.005 52.2817 111.436 52.6262C111.867 52.9707 111.693 54.7088 111.005 54.9149C110.317 55.121 108.858 53.3475 109.52 52.8801V52.8812Z" fill="#E28569"/>
<path d="M88.0925 39.9936C86.3607 41.3685 85.1225 40.8699 84.7434 40.1424C84.3654 39.4159 85.2516 38.1701 86.7231 37.3614C88.1945 36.5526 89.5431 36.2456 89.9211 36.9731C90.2991 37.6996 89.4129 38.9455 88.0925 39.9936Z" fill="#2F1A31"/>
<path d="M114.013 72.3771C113.964 72.6509 113.709 72.8309 113.444 72.781C113.178 72.731 113.002 72.4677 113.051 72.195C113.1 71.9213 113.301 71.6944 113.567 71.7454C113.943 71.8172 114.063 72.1044 114.013 72.3782V72.3771Z" fill="#436E8E"/>
<path d="M113.521 67.8791C113.472 68.1528 113.217 68.3329 112.952 68.2829C112.686 68.2329 112.51 67.9696 112.559 67.6969C112.608 67.4242 112.809 67.1963 113.074 67.2473C113.45 67.3191 113.571 67.6064 113.521 67.8801V67.8791Z" fill="#436E8E"/>
<path d="M112.916 62.7853C112.867 63.0591 112.612 63.2391 112.346 63.1892C112.081 63.1392 111.905 62.8759 111.953 62.6032C112.002 62.3295 112.203 62.1026 112.469 62.1536C112.845 62.2254 112.966 62.5126 112.916 62.7864V62.7853Z" fill="#436E8E"/>
<path d="M110.407 123.047C110.407 123.047 110.36 124.878 111.641 125.466C112.921 126.053 116.683 126.726 115.208 127.824C114.361 128.454 110.557 127.809 109.477 127.75C108.397 127.69 107.359 128.08 106.593 127.352C105.748 126.55 106.826 122.851 106.826 122.851C106.826 122.851 107.734 123.362 108.573 123.387C109.783 123.424 110.407 123.048 110.407 123.048V123.047Z" fill="#2F1A31"/>
<path d="M117.012 77.7186C121.057 78.6824 121.786 79.1352 121.532 81.6238C121.271 84.1717 120.578 89.7869 119.227 95.6643C116.814 106.161 114.062 116.721 112.718 121.783C112.236 123.592 110.54 124.843 108.607 124.81L107.569 124.793C105.48 124.757 103.875 122.969 104.133 120.961L108.547 86.4625L108.866 79.1612L117.012 77.7186Z" fill="#E28569"/>
<path d="M94.5205 123.047C94.5205 123.047 94.4736 124.878 95.7545 125.466C97.0343 126.053 100.797 126.726 99.3211 127.824C98.4745 128.454 94.6704 127.809 93.5905 127.75C92.5106 127.69 91.4724 128.08 90.706 127.352C89.8614 126.55 90.9392 122.851 90.9392 122.851C90.9392 122.851 91.8473 123.362 92.6866 123.387C93.8967 123.424 94.5205 123.048 94.5205 123.048V123.047Z" fill="#2F1A31"/>
<path d="M117.011 77.7201L97.7814 121.927C97.0764 123.745 95.2498 124.917 93.2431 124.839L92.3684 124.806C90.3023 124.725 88.8184 122.832 89.2974 120.887L100.212 79.1637C100.473 78.2281 108.266 75.9965 117.012 77.7212L117.011 77.7201Z" fill="#E28569"/>
<path d="M106.6 101.748C106.59 101.748 106.581 101.747 106.57 101.743C106.517 101.727 106.488 101.672 106.505 101.618L110.476 89.0039C110.596 88.7094 110.711 88.4044 110.829 88.087C111.544 86.1875 112.432 83.8238 114.969 82.1991C115.014 82.17 115.077 82.1824 115.107 82.2293C115.138 82.2751 115.123 82.3365 115.077 82.3677C112.597 83.956 111.721 86.2864 111.017 88.1578C110.897 88.4763 110.782 88.7833 110.664 89.0726L106.694 101.678C106.681 101.72 106.641 101.747 106.599 101.747L106.6 101.748Z" fill="#020202"/>
<path d="M88.531 37.1184C88.6508 36.3034 88.5352 34.6381 88.6404 33.8211C88.6851 33.4672 88.7591 32.264 88.4248 32.1662C88.1343 32.0809 87.6386 33.003 87.4532 33.4714C86.1869 30.8454 83.5721 27.954 85.8589 33.3382C85.8568 33.3382 85.8537 33.3402 85.8516 33.3413C85.6204 32.8958 84.0334 29.56 83.4086 30.1345C82.9514 30.555 84.3385 33.257 84.7113 33.9949C84.7051 33.9991 84.6988 34.0032 84.6926 34.0074C84.251 33.2903 83.0337 31.0515 82.5776 31.4314C81.9777 31.932 83.6377 34.7651 83.6377 34.7651C83.6377 34.7651 82.3172 32.3775 81.8809 33.1831C81.6341 33.6369 82.4599 35.0232 82.9868 35.8778C83.0972 36.0568 83.1951 36.2139 83.2659 36.3326C83.3253 36.4315 83.3877 36.5126 83.4533 36.5803C84.4197 37.9531 85.2622 38.6713 85.2622 38.6713C85.2622 38.6713 86.1057 39.6944 87.3637 39.0106C88.1645 38.5745 88.48 37.4712 88.5321 37.1174L88.531 37.1184Z" fill="#F7B686"/>
<path d="M110.066 54.7052C109.621 56.9295 107.16 65.6171 95.3557 70.1207C94.5976 70.4101 93.9165 70.8795 93.3781 71.5009L91.236 73.9718C90.8497 74.4172 90.9996 75.1219 91.5328 75.3602L94.6777 76.7663C95.7545 77.2482 96.9708 77.3003 98.0778 76.8964C101.907 75.4976 111.75 68.291 111.746 54.0194C111.746 53.4105 111.259 53.883 110.686 54.036C110.371 54.1203 110.131 54.3795 110.065 54.7063L110.066 54.7052Z" fill="#E28569"/>
<path d="M110.387 52.4062C110.387 52.4062 108.351 51.8368 107.913 51.1447C107.474 50.4536 105.54 52.275 105.611 52.7694C105.682 53.2638 109.581 55.7409 109.798 55.3746C110.014 55.0082 110.906 52.8402 110.387 52.4051V52.4062Z" fill="#CCE2DE"/>
<path d="M110.387 52.4059C110.387 52.4059 110.628 51.6264 110.457 51.2267C110.457 51.2267 110.336 50.8728 110.64 50.8749C110.944 50.877 112.674 51.9324 112.845 52.281C113.015 52.6307 113.162 54.3189 112.638 54.4834C112.116 54.6478 110.702 52.9305 110.539 52.7619C110.375 52.5933 110.387 52.4049 110.387 52.4049V52.4059Z" fill="#CCE2DE"/>
<path d="M110.938 54.9539C110.517 54.9539 110.142 54.6105 110.125 54.5948L110.176 54.5397C110.176 54.5397 110.582 54.9123 111.003 54.8769C111.414 54.8405 111.705 54.0151 111.708 54.0057L111.777 54.0307C111.764 54.0661 111.466 54.9092 111.01 54.9508C110.987 54.9518 110.963 54.9539 110.939 54.9539H110.938Z" fill="#2F1A31"/>
<path d="M129.227 26.9422C129.227 26.9422 128.952 25.8056 127.993 26.2761C126.77 26.8745 126.392 27.8935 126.652 28.288C126.871 28.621 128.19 27.7072 128.19 27.7072C128.19 27.7072 126.387 29.1966 126.944 29.6317C127.501 30.0678 129.024 28.6158 129.024 28.6158C129.024 28.6158 127.46 30.1937 127.904 30.6777C128.338 31.1502 129.832 29.6452 129.832 29.6452C129.832 29.6452 128.169 31.0035 128.763 31.4801C129.025 31.6914 130.287 30.9785 130.754 30.5413C131.194 30.1281 130.986 29.6941 130.559 29.1758C130.559 29.1758 130.604 28.5346 130.015 28.2193C129.871 28.1423 129.925 27.7457 129.861 27.6385C129.6 27.1982 129.226 26.9412 129.226 26.9412L129.227 26.9422Z" fill="#F7B686"/>
<defs>
<linearGradient id="paint0_linear_7326_44289" x1="57.5" y1="130" x2="142.5" y2="130" gradientUnits="userSpaceOnUse">
<stop stop-color="#BBC7F7" stop-opacity="0"/>
<stop offset="1" stop-color="#4568F2"/>
</linearGradient>
<linearGradient id="paint1_linear_7326_44289" x1="115" y1="9.5" x2="94.5" y2="136" gradientUnits="userSpaceOnUse">
<stop stop-color="#4568F2"/>
<stop offset="0.265" stop-color="#4568F2"/>
<stop offset="1" stop-color="white" stop-opacity="0"/>
</linearGradient>
</defs>
</svg>
