<?xml version="1.0" encoding="utf-8"?>
<!-- Generator: Adobe Illustrator 27.3.1, SVG Export Plug-In . SVG Version: 6.00 Build 0)  -->
<svg version="1.1" id="Layer_1" xmlns="http://www.w3.org/2000/svg" xmlns:xlink="http://www.w3.org/1999/xlink" x="0px" y="0px"
	 viewBox="0 0 80 80" style="enable-background:new 0 0 80 80;" xml:space="preserve">
<style type="text/css">
	.st0{fill:#231F20;}
</style>
<g>
	<path class="st0" d="M53.4,33.2c1.3-2.5,1.5-5.5,1-8.3c-0.5-2.7-2-5.2-4.4-6.8c0,0,0,0,0,0c-3.6-2.3-8.6-2.6-12.4-0.7
		c-4.3,2.1-6.7,7.7-6.1,12.3c0.3,2.3,1.3,4.5,3,6.1c1.8,1.8,4.2,2.8,6.7,3.1C45.7,39.4,51.2,37.6,53.4,33.2z M42.9,37.5
		c-2.3,0-4.7-0.5-6.6-1.9c-1.6-1.2-2.7-2.9-3.3-4.9c-0.6-2.2-0.3-4.5,0.5-6.6c0.7-1.9,1.9-3.8,3.7-5c3.5-2.4,8.6-2.1,12.1,0.1
		c1.9,1.3,3.1,3.1,3.6,5.3c0.5,2.2,0.5,4.6-0.2,6.7C51.4,35.4,47,37.5,42.9,37.5z"/>
	<path class="st0" d="M42.5,33C42.5,33,42.5,33.1,42.5,33C42.5,33.1,42.5,33.1,42.5,33C42.5,33.1,42.5,33.1,42.5,33z"/>
	<path class="st0" d="M44.4,32.2c-0.6-0.5-1.3-0.6-2-0.5c-0.7,0.1-1.3,0.6-1.5,1.2c-0.4,1,0.2,2.2,1.1,2.6c0.6,0.3,1.4,0.4,2,0
		c0.5-0.3,0.9-0.8,1-1.3c0,0,0,0,0-0.1l0,0C45.2,33.4,45,32.6,44.4,32.2z M42.5,33.1C42.5,33,42.5,33,42.5,33.1
		C42.6,33,42.5,33,42.5,33.1c0.1,0,0.1,0,0.1,0c0,0,0,0,0,0c-0.1,0.1-0.2,0.2-0.3,0.3c0,0,0,0,0,0c0,0,0,0,0,0c0,0,0,0,0,0
		c0,0,0-0.1,0.1-0.1c0,0,0,0,0,0C42.3,33.1,42.3,33.1,42.5,33.1C42.4,33.1,42.4,33.1,42.5,33.1C42.4,33.1,42.4,33.1,42.5,33.1
		C42.4,33.1,42.5,33.1,42.5,33.1C42.5,33.1,42.4,33.1,42.5,33.1C42.4,33.1,42.5,33.1,42.5,33.1z M42.4,33.1
		C42.3,33.1,42.3,33.2,42.4,33.1C42.3,33.1,42.3,33.1,42.4,33.1z M43.4,34.2C43.4,34.3,43.4,34.3,43.4,34.2c-0.1,0-0.1,0.1-0.2,0.1
		c0,0,0,0,0,0c0,0-0.1,0-0.1,0c0,0,0,0,0,0c0,0-0.1,0-0.1,0c0.2-0.2,0.4-0.4,0.7-0.6c0,0.1,0,0.1,0,0.2c0,0,0,0,0,0
		c0,0,0,0.1-0.1,0.1c0,0,0,0,0,0C43.6,34.1,43.5,34.2,43.4,34.2C43.5,34.2,43.5,34.2,43.4,34.2z"/>
	<path class="st0" d="M45.2,21.1c-0.2-0.9-0.7-1.7-1.6-2c-0.9-0.3-1.7,0.1-2.3,0.8c-0.7,0.9-0.5,2.2-0.5,3.3c0,1.3,0,2.6,0,3.9
		c0,0,0,0,0,0s0,0,0,0l0,0c0,0.9,0.4,1.7,1.1,2.2c0.7,0.5,1.6,0.4,2.3-0.1c1.3-0.9,1.4-2.5,1.4-3.9c0-0.7,0-1.4-0.1-2.1
		C45.3,22.5,45.3,21.8,45.2,21.1z M44,26.1l-0.2,0c-0.1,0-0.2,0.1-0.3,0.2c-0.5,0.4-0.9,0.8-1.4,1.2c0-0.1-0.1-0.3-0.1-0.4
		c0,0,0,0,0,0s0,0,0,0c0-0.3,0-0.5,0-0.8c0.1,0,0.3-0.1,0.4-0.2c0.5-0.5,1-1,1.5-1.5C44,25.1,44.1,25.6,44,26.1z M43.9,21.9
		c0,0.3,0,0.6,0,0.9c-0.6,0.6-1.2,1.2-1.8,1.8c0-0.3,0-0.6,0-0.8c0.1-0.1,0.2-0.1,0.2-0.2c0-0.1,0.1-0.1,0.1-0.2c0,0,0,0,0-0.1
		c0.1-0.1,0.2-0.2,0.3-0.3c0.2-0.2,0.4-0.4,0.6-0.6C43.5,22.2,43.7,22,43.9,21.9z M42.4,22.9c0,0,0-0.1-0.1-0.1l0,0L42.4,22.9
		L42.4,22.9z M42.8,20.5c0.2-0.1,0.3,0,0.5,0c-0.4,0.3-0.8,0.6-1.1,1C42.2,21.1,42.4,20.7,42.8,20.5z"/>
	<path class="st0" d="M16.7,23c0.2,0.3,0.6,0.4,0.9,0.3c0.3-0.2,0.5-0.6,0.2-1c-1.4-2.2-3.1-4.1-5-5.9c-0.3-0.3-0.7-0.3-1,0
		c-0.3,0.3-0.3,0.7,0,1C13.7,19.1,15.4,21,16.7,23z"/>
	<path class="st0" d="M14,28.2c0.3,0,0.6,0,0.8,0.1c0.2,0,0.3,0,0.5,0c0,0,0.1,0,0.1,0c0.1,0.1,0.2,0.2,0.3,0.2
		c0.3,0.1,0.8-0.1,0.9-0.5c0.1-0.4,0-0.8-0.4-1c-0.3-0.2-0.6-0.2-0.9-0.2c-0.7-0.1-1.4-0.1-2.2-0.2c-1.4-0.1-2.8-0.1-4.2-0.1
		c-0.9,0-0.9,1.4,0,1.4l0,0c1.2,0,2.3,0,3.5,0C12.9,28.1,13.4,28.1,14,28.2z"/>
	<polygon class="st0" points="12.7,38.1 12.7,38.1 12.7,38.1 	"/>
	<path class="st0" d="M17.7,33.1c0.3-0.2,0.5-0.6,0.2-1c-0.2-0.3-0.7-0.5-0.9-0.3c-2,1.5-3.7,3.2-5.3,5.2c-0.2,0.3-0.3,0.7,0,1
		c0.2,0.2,0.7,0.3,1,0C14.2,36.2,15.9,34.5,17.7,33.1z"/>
	<path class="st0" d="M56.2,39.1c-1.6-1-3.5-2-5.4-1.3c-1.9,0.7-2.9,2.3-3.8,3.9c-0.4,0.8,0.8,1.5,1.2,0.7h0c0.7-1.3,1.5-2.7,3-3.3
		c1.5-0.6,3,0.3,4.3,1.1C56.3,40.8,57,39.6,56.2,39.1z"/>
	<path class="st0" d="M52.8,12.2L52.8,12.2c0.5-0.1,1-0.1,1.6-0.1c0.1,0,0.1,0,0,0c0,0,0.1,0,0.1,0c0.1,0,0.1,0,0.2,0
		c0.1,0,0.1,0,0.2,0.1c0,0,0,0,0,0c0.1,0,0.2,0.1,0.3,0.1c0,0,0.1,0.1,0.1,0.1c0,0,0.1,0.1,0.1,0.1c0,0,0,0.1,0.1,0.1
		c0,0.1,0.1,0.1,0.1,0.2c0,0,0,0,0,0c0,0,0,0,0,0c0,0.1,0,0.1,0.1,0.2c0,0.1,0,0.2,0.1,0.3c0,0,0,0.1,0,0.1c0,0.1,0,0.2,0,0.2
		c0,0.6,0,1.2,0.2,1.7c0.1,0.4,0.5,0.6,0.9,0.5c0.4-0.1,0.6-0.5,0.5-0.9c0-0.1,0-0.1,0-0.2c0,0,0,0,0,0c0,0,0,0,0-0.1
		c0-0.2,0-0.3,0-0.5c0-0.3,0-0.6-0.1-0.9c-0.1-0.7-0.3-1.3-0.7-1.9c-0.9-1-2.3-0.9-3.5-0.8c-0.4,0-0.7,0.3-0.7,0.7
		C52.1,11.9,52.4,12.3,52.8,12.2z M54.9,12.3C54.9,12.3,54.9,12.3,54.9,12.3L54.9,12.3z"/>
	<path class="st0" d="M56.5,16.6c-0.4,0-0.7,0.3-0.7,0.7c0,0.8,0,1.6,0,2.4c0,0.4,0.3,0.7,0.7,0.7c0.4,0,0.7-0.3,0.7-0.7
		c0-0.8,0-1.6,0-2.4C57.2,17,56.9,16.6,56.5,16.6z"/>
	<path class="st0" d="M36.5,39.5c-3-1.5-5.3-4.2-6.3-7.5c-0.3-0.9-1.6-0.5-1.3,0.4c1.1,3.6,3.6,6.6,6.9,8.3
		C36.6,41.1,37.3,39.9,36.5,39.5z"/>
	<path class="st0" d="M40.1,40.5c-0.1-0.1-0.2-0.1-0.4-0.1l-1.3-0.1c-0.2,0-0.4,0.1-0.5,0.2c-0.1,0.1-0.2,0.3-0.2,0.5
		c0,0.2,0.1,0.4,0.2,0.5l0.1,0.1c0.1,0.1,0.2,0.1,0.4,0.1l1.3,0.1c0.2,0,0.4-0.1,0.5-0.2c0.1-0.1,0.2-0.3,0.2-0.5
		c0-0.2-0.1-0.4-0.2-0.5L40.1,40.5z"/>
	<path class="st0" d="M71.8,45.9c-0.1-3.1-1-6.2-2.3-8.9c-0.8-1.5-1.7-3-2.9-4.2c-0.8-0.8-1.7-1.5-2.9-1.7c0-2.8,0.1-5.6,0.2-8.3
		c0-1.8,0.1-3.7,0.1-5.5c0-0.9,0-1.8,0-2.7c0.1-1.4,0.1-2.8-0.4-4.1c-0.8-2.3-2.4-4.4-4.5-5.7c-1.9-1.2-4.1-1.6-6.4-1.7
		C50.1,2.9,47.4,3,44.7,3c-3,0-6,0-9.1,0.1c-2.6,0-5.3-0.2-7.8,0.9C25.7,5,23.9,6.7,23,8.8c-1.2,2.6-1,5.4-0.9,8.1
		c0.1,3.1,0.2,6.2,0.2,9.2c0,3.9,0,7.8-0.2,11.7c-2.5-0.2-4.7,1.3-5.6,3.6c-0.7,2-0.4,4.5,1.3,5.9c1.1,1,2.6,1.1,4,1.2
		c0,0.1,0,0.1,0,0.2c-1.4-0.1-2.8,0.2-3.9,1.2c-1.2,1-2.3,2.7-2.2,4.4c0.2,3.3,2.9,5.9,6.1,6.1c0.1,0.5,0.1,1,0.2,1.5
		c0.4,2.6,1.4,5.3,3.5,7c1.6,1.3,3.6,1.8,5.6,1.9c0.3,1.1,0.7,2.2,1.3,3.2c0.6,1,1.3,2.2,2.4,2.6c0.6,0.2,1.2,0.2,1.8,0.2
		c0.8,0,1.5,0,2.3,0c1.5,0,2.9,0,4.4,0C49.1,76.9,55,77,60.9,77c1.6,0,3.2,0,4.8-0.1c1.6-0.1,3.3-0.2,4.9-0.2c0.3,0,0.6-0.2,0.7-0.5
		c0.4-1.3,0.3-2.8,0.2-4.1c-0.1-1.6,0-3.2,0-4.9c0.1-3.7,0.1-7.4,0.2-11.1c0-1.7,0-3.5,0.1-5.2C71.8,49.1,71.9,47.5,71.8,45.9z
		 M18.5,46.1c-0.7-0.8-1-1.8-0.9-2.8c0.1-2.4,2.1-4.2,4.5-4c-0.1,1.7-0.1,3.4-0.2,5.1c0,0.9,0,1.9-0.1,2.8
		C20.6,47.1,19.3,47,18.5,46.1z M17,54.4c-0.1-1.3,0.7-2.5,1.6-3.4c0.8-0.8,2-1.1,3.2-1c0,1.1,0,2.1-0.1,3.2
		c-0.1,1.9-0.2,3.8-0.1,5.6C19.3,58.7,17.3,56.9,17,54.4z M24.2,64.7c-1-2.5-1.2-5.2-1.2-7.9c0-2.7,0.1-5.6,0.2-8.4
		c0.1-5.8,0.4-11.5,0.5-17.3c0-2.9,0-5.8-0.1-8.8c-0.1-2.9-0.3-5.7-0.3-8.6c0.1-2.5,0.7-4.8,2.5-6.6c1.8-1.8,4-2.5,6.4-2.6
		c2.7-0.1,5.4,0,8.1-0.1c2.9,0,5.8,0,8.7,0c2.2,0,4.5-0.1,6.7,0.5c2.2,0.5,4.1,1.8,5.4,3.7c0.7,1,1.3,2.2,1.5,3.5
		c0.2,1.2,0,2.6,0,3.9c0,1.6,0,3.1,0,4.7c-0.1,3.7-0.2,7.4-0.2,11.1c0,0,0,0,0,0v16.8c0,0.4,0,0.9,0,1.3c-1.1-0.7-2.1-1.7-2.9-2.7
		c0-0.1,0-0.2,0-0.2c-0.4-6.6-0.2-13.2,0-19.7c0.1-3.3,0.2-6.6,0.2-9.9c0-2.5,0.3-5.5-1.4-7.6c-1.9-2.4-5-1.8-7.7-1.6
		c-0.4,0-0.7,0.3-0.7,0.7c0,0.9,0.2,1.8-0.2,2.7c-0.4,0.8-1,1-1.8,1.1c-1.9,0.1-3.8,0.2-5.7,0.2c-0.9,0-1.9,0-2.8,0
		c-0.8,0-1.9,0.1-2.6-0.3c-1.2-0.6-1.1-2.4-1-3.6c0-0.5-0.5-0.7-0.9-0.7c-2.5,0.4-5.5-0.5-7.3,1.9c-1.6,2.1-1,5.1-1.1,7.6
		c0,6.1,0.1,12.2,0.1,18.3c0,6.1,0,12.3-0.2,18.5c-0.1,2.7-0.6,5.8,0.5,8.3c0.4,1,1.2,2,2.1,2.5c1.2,0.7,2.6,0.7,3.9,0.7
		c6.8,0.3,13.6,0.5,20.4,0.4c0.5,1,1.1,2,1.9,2.9c-2.1,0.2-4.1,0.2-6.2,0.2c-0.1,0-0.2,0-0.3,0c-3.3-0.1-6.5-0.2-9.8-0.2
		c-0.8,0-1.6,0-2.4-0.1c0,0,0,0-0.1,0l0,0c0,0,0,0,0,0c0,0,0,0,0,0c-1.4,0-2.9,0-4.3,0.3c-0.1,0-0.3,0-0.5,0.1
		c-0.8,0-1.7-0.1-2.5-0.3C26.9,68.6,25.1,67,24.2,64.7z M46.4,51.7c0.3,1.9,1.1,3.6,2.3,5.1c0.5,0.6,1.1,1.1,1.8,1.6
		c0.5,0.4,1.1,0.8,1.2,1.5c0.2,0.9,0.3,1.9,0.5,2.8c0.2,0.8,0.4,1.4,0.6,2.1c-5.5,0.1-11.1,0-16.6-0.2c-1.4-0.1-2.9-0.1-4.3-0.2
		c-1.2-0.1-2.3-0.4-3.1-1.4c-1.6-2-1.1-4.9-1.1-7.3C28.2,44.2,28,32.6,27.9,21c0-1.6,0-3.1,0-4.7c0-1.4-0.2-2.9,0.2-4.2
		c0.4-1.4,1.3-2.2,2.7-2.4c1.2-0.2,2.4-0.1,3.6-0.2c0,1.4,0.2,3,1.4,3.9c0.9,0.6,1.9,0.7,2.9,0.7c1.2,0,2.3,0,3.5,0
		c1.2,0,2.3,0,3.5-0.1c1.1-0.1,2.4,0,3.4-0.3c0.9-0.3,1.5-1,1.9-1.8c0.4-0.8,0.4-1.7,0.3-2.6c2-0.2,4.3-0.6,5.8,1
		c0.7,0.8,1,2,1.1,3.1c0.1,1.4,0.1,2.8,0.1,4.3c0,6.2-0.4,12.4-0.5,18.6c0,3,0,6,0.2,8.9c-0.4-0.6-0.9-1.2-1.3-1.7
		c-0.9-1.1-1.8-2.2-3.1-2.8c-1.4-0.7-2.8-0.5-4,0.5c-1.4,1.2-2.3,3.1-2.8,4.8C46.3,47.9,46.1,49.8,46.4,51.7z M62.4,75.6
		c-2.7,0-5.5,0-8.3-0.1c-5.6-0.1-11.1-0.1-16.7-0.2c-0.7,0-1.5,0.1-2.1-0.1c-0.6-0.2-1-0.8-1.3-1.3c-0.6-1-1.1-2-1.5-3.1
		c1,0,1.9,0,2.9-0.1c1.3,0,2.6,0,3.9,0c2.7,0,5.5,0,8.2,0c1.2,0,2.3,0,3.5,0c0.3,0,0.5,0,0.8,0c0.1,0,0.1,0,0.2,0c0.3,0,0.7,0,1,0
		c1.3-0.1,2.6-0.2,3.9-0.3c0.5-0.1,1-0.8,0.5-1.2c-2.5-2.2-3.5-5.1-4.1-8.3c-0.1-0.8-0.1-1.6-0.5-2.2c-0.3-0.6-0.9-1-1.4-1.4
		c-1.3-1-2.3-2.2-3-3.7c-1.4-3.3-0.8-7.3,1.2-10.2c0.7-1.1,1.8-2,3.2-1.5c1.2,0.5,2.1,1.6,2.8,2.5c2.1,2.7,3.9,5.7,7.1,7.2
		c0.5,0.2,1,0,1-0.6c0-5.6,0-11.2,0-16.8v-0.3c0,0,0,0,0,0v0c0-0.4,0-0.9,0-1.3c0.8,0.2,1.5,0.8,2.1,1.5c1,1.1,1.8,2.3,2.4,3.6
		c1.3,2.6,2.1,5.5,2.2,8.4c0,1.6-0.1,3.2-0.1,4.8c-0.1,1.6-0.1,3.1-0.1,4.7c0,3.5-0.1,7-0.2,10.5c0,1.8-0.1,3.5,0,5.3
		c0.1,1.3,0.3,2.6,0.1,3.9C67.5,75.3,64.9,75.6,62.4,75.6z"/>
</g>
</svg>
