<?xml version="1.0" encoding="utf-8"?>
<!-- Generator: Adobe Illustrator 27.3.1, SVG Export Plug-In . SVG Version: 6.00 Build 0)  -->
<svg version="1.1" id="Layer_1" xmlns="http://www.w3.org/2000/svg" xmlns:xlink="http://www.w3.org/1999/xlink" x="0px" y="0px"
	 viewBox="0 0 1920 742" style="enable-background:new 0 0 1920 742;" xml:space="preserve">
<style type="text/css">
	.st0{fill:#EAEAEA;stroke:#000000;stroke-miterlimit:10;}
	.st1{opacity:0.25;clip-path:url(#SVGID_00000172415389656282186160000008118258233628687805_);}
	.st2{fill:none;stroke:#4068FF;stroke-width:0.66;stroke-miterlimit:10;}
	.st3{fill:none;stroke:#94AAFF;stroke-width:0.66;stroke-miterlimit:10;}
	.st4{fill:none;stroke:#6685FA;stroke-width:3.6;stroke-miterlimit:10;}
	.st5{fill:#98AEFF;}
	.st6{fill:#FFFFFF;}
</style>
<rect class="st0" width="1920" height="742"/>
<g>
	<g>
		<defs>
			<rect id="SVGID_1_" y="-230.8" width="1920" height="1203.6"/>
		</defs>
		<clipPath id="SVGID_00000172404735559513499620000002598854116635863464_">
			<use xlink:href="#SVGID_1_"  style="overflow:visible;"/>
		</clipPath>
		<g style="opacity:0.25;clip-path:url(#SVGID_00000172404735559513499620000002598854116635863464_);">
			<path class="st2" d="M109.1,521.8v53.8l46.6,26.9l46.6-26.9v-53.8l-46.6-26.9L109.1,521.8z"/>
			<path class="st2" d="M62.6,602.5l46.6-26.9v-53.8l-46.6-26.9L16,521.8"/>
			<path class="st2" d="M1087.2,279.9v53.8l-46.6,26.9l-46.6-26.9v-53.8l46.6-26.9L1087.2,279.9z"/>
			<path class="st2" d="M947.5,306.8l46.6,26.9v53.8l-46.6,26.9L901,387.4"/>
			<path class="st2" d="M901,333.6v53.8l-46.6,26.9l-46.6-26.9"/>
			<path class="st2" d="M807.8,279.9v53.8l46.6,26.9l46.6-26.9"/>
			<path class="st2" d="M901,279.9v53.8l46.6,26.9l46.6-26.9v-53.8L947.5,253L901,279.9z"/>
			<path class="st2" d="M342,494.9l-46.6-26.9v-53.8l46.6-26.9l46.6,26.9"/>
			<path class="st2" d="M388.6,468.1v53.8L342,548.7l-46.6-26.9"/>
			<path class="st2" d="M295.4,414.3v53.8l46.6,26.9l46.6-26.9"/>
			<path class="st2" d="M109.1,521.8v-53.8l46.6-26.9l46.6,26.9v53.8"/>
			<path class="st2" d="M202.3,521.8v-53.8l46.6-26.9"/>
			<path class="st2" d="M202.3,360.5v53.8l46.6,26.9l46.6-26.9v-53.8l-46.6-26.9L202.3,360.5z"/>
			<path class="st2" d="M109.1,414.3v53.8l46.6,26.9l46.6-26.9"/>
			<path class="st2" d="M668.1,521.8v53.8l-46.6,26.9l-46.6-26.9v-53.8l46.6-26.9L668.1,521.8z"/>
			<path class="st2" d="M714.6,602.5l-46.6-26.9v-53.8l46.6-26.9l46.6,26.9"/>
			<path class="st2" d="M668.1,521.8v-53.8l-46.6-26.9l-46.6,26.9v53.8"/>
			<path class="st2" d="M668.1,414.3v53.8l-46.6,26.9l-46.6-26.9"/>
			<path class="st2" d="M388.6,468.1v-53.8L342,387.4l-46.6,26.9v53.8"/>
			<path class="st2" d="M295.4,468.1v-53.8l-46.6-26.9"/>
			<path class="st2" d="M295.4,521.8v53.8l-46.6,26.9l-46.6-26.9v-53.8l46.6-26.9L295.4,521.8z"/>
			<path class="st2" d="M295.4,575.6v-53.8l46.6-26.9l46.6,26.9v53.8"/>
			<path class="st2" d="M248.8,441.2l-46.6,26.9v53.8l46.6,26.9l46.6-26.9"/>
			<path class="st2" d="M295.4,468.1v53.8l46.6,26.9l46.6-26.9"/>
			<path class="st2" d="M388.6,414.3v53.8L342,494.9l-46.6-26.9"/>
			<path class="st2" d="M901,333.6v-53.8L854.4,253l-46.6,26.9v53.8"/>
			<path class="st2" d="M528.3,279.9v53.8l-46.6,26.9l-46.6-26.9v-53.8l46.6-26.9L528.3,279.9z"/>
			<path class="st2" d="M295.4,360.5l-46.6-26.9v-53.8l46.6-26.9l46.6,26.9"/>
			<path class="st2" d="M248.8,279.9v53.8l46.6,26.9l46.6-26.9"/>
			<path class="st2" d="M155.7,387.4v-53.8l46.6-26.9"/>
			<path class="st2" d="M342,279.9v53.8l46.6,26.9l46.6-26.9v-53.8L388.6,253L342,279.9z"/>
			<path class="st2" d="M155.7,226.1v53.8l46.6,26.9l46.6-26.9v-53.8l-46.6-26.9L155.7,226.1z"/>
			<path class="st2" d="M342,333.6v-53.8L295.4,253l-46.6,26.9v53.8"/>
			<path class="st2" d="M248.8,333.6v-53.8L202.3,253"/>
			<path class="st2" d="M295.4,199.2V253l46.6,26.9l46.6-26.9v-53.8L342,172.3L295.4,199.2z"/>
			<path class="st2" d="M248.9,279.9l46.6-26.9v-53.8l-46.6-26.9l-46.6,26.9"/>
			<path class="st2" d="M202.3,253v53.8l46.6,26.9l46.6-26.9"/>
			<path class="st2" d="M388.6,306.8V253L342,226.1"/>
			<path class="st2" d="M481.7,414.3l-46.6-26.9v-53.8l46.6-26.9l46.6,26.9"/>
			<path class="st2" d="M342,279.9v53.8l46.6,26.9l46.6-26.9v-53.8L388.6,253L342,279.9z"/>
			<path class="st2" d="M202.3,306.8l-46.6,26.9v53.8l46.6,26.9l46.6-26.9"/>
			<path class="st2" d="M295.4,360.5l46.6-26.9v-53.8L295.4,253l-46.6,26.9"/>
			<path class="st2" d="M342,279.9v53.8l-46.6,26.9l-46.6-26.9"/>
			<path class="st2" d="M295.4,199.2v-53.8l46.6-26.9l46.6,26.9v53.8"/>
			<path class="st2" d="M388.6,199.2v-53.8l46.6-26.9"/>
			<path class="st2" d="M388.6,37.9v53.8l46.6,26.9l46.6-26.9V37.9L435.1,11L388.6,37.9z"/>
			<path class="st2" d="M295.4,91.7v53.8l46.6,26.9l46.6-26.9"/>
			<path class="st2" d="M481.7,199.2V253l-46.6,26.9L388.6,253v-53.8l46.6-26.9L481.7,199.2z"/>
			<path class="st2" d="M435.1,118.6l-46.6,26.9v53.8l46.6,26.9l46.6-26.9"/>
			<path class="st2" d="M528.3,387.4v-53.8l-46.6-26.9l-46.6,26.9v53.8"/>
			<path class="st2" d="M574.9,468.1v53.8l-46.6,26.9l-46.6-26.9v-53.8l46.6-26.9L574.9,468.1z"/>
			<path class="st2" d="M435.2,494.9l46.6,26.9v53.8l-46.6,26.9l-46.6-26.9"/>
			<path class="st2" d="M388.6,468.1v53.8l46.6,26.9l46.6-26.9v-53.8l-46.6-26.9L388.6,468.1z"/>
			<path class="st2" d="M528.3,602.5l-46.6-26.9v-53.8l46.6-26.9l46.6,26.9"/>
			<path class="st2" d="M388.6,468.1v53.8l46.6,26.9l46.6-26.9v-53.8l-46.6-26.9L388.6,468.1z"/>
			<path class="st2" d="M528.3,387.4v53.8l-46.6,26.9l-46.6-26.9v-53.8l46.6-26.9L528.3,387.4z"/>
			<path class="st2" d="M528.3,441.2v-53.8l46.6-26.9l46.6,26.9v53.8"/>
			<path class="st2" d="M574.9,575.6v-53.8l-46.6-26.9l-46.6,26.9v53.8"/>
			<path class="st2" d="M155.7,387.4v53.8l-46.6,26.9l-46.6-26.9v-53.8l46.6-26.9L155.7,387.4z"/>
			<path class="st2" d="M202.3,468.1l-46.6-26.9v-53.8l46.6-26.9l46.6,26.9"/>
			<path class="st2" d="M16,360.5v53.8l-46.6,26.9l-46.6-26.9v-53.8l46.6-26.9L16,360.5z"/>
			<path class="st2" d="M62.6,441.2L16,414.3v-53.8l46.6-26.9l46.6,26.9"/>
			<path class="st2" d="M16,360.5v53.8l46.6,26.9l46.6-26.9"/>
			<path class="st2" d="M807.7,279.9v53.8l-46.6,26.9l-46.6-26.9v-53.8l46.6-26.9L807.7,279.9z"/>
			<path class="st2" d="M668,306.8l46.6,26.9v53.8L668,414.3l-46.6-26.9"/>
			<path class="st2" d="M574.9,360.5l-46.6-26.9v-53.8l46.6-26.9l46.6,26.9"/>
			<path class="st2" d="M621.4,333.6v-53.8L574.9,253l-46.6,26.9v53.8"/>
			<path class="st2" d="M481.7,253v53.8l46.6,26.9l46.6-26.9"/>
			<path class="st2" d="M668,306.8V253l-46.6-26.9"/>
			<path class="st2" d="M761.2,414.3l-46.6-26.9v-53.8l46.6-26.9l46.6,26.9"/>
			<path class="st2" d="M574.9,360.5l46.6-26.9v-53.8L574.9,253l-46.6,26.9"/>
			<path class="st2" d="M621.5,279.9v53.8l-46.6,26.9l-46.6-26.9"/>
			<path class="st2" d="M854.3,145.5v53.8l-46.6,26.9l-46.6-26.9"/>
			<path class="st2" d="M668,199.2v-53.8l46.6-26.9"/>
			<path class="st2" d="M761.2,253v-53.8l46.6-26.9l46.6,26.9V253"/>
			<path class="st2" d="M714.6,118.6L668,145.5v53.8l46.6,26.9l46.6-26.9"/>
			<path class="st2" d="M761.2,145.5v53.8l46.6,26.9l46.6-26.9"/>
			<path class="st2" d="M854.3,91.7v53.8l-46.6,26.9l-46.6-26.9"/>
			<path class="st2" d="M807.8,387.4v-53.8l-46.6-26.9l-46.6,26.9v53.8"/>
			<path class="st2" d="M714.6,387.4v-53.8L668,306.8"/>
			<path class="st2" d="M854.3-15.8L900.9,11v53.8l-46.6,26.9l-46.6-26.9"/>
			<path class="st2" d="M761.2,37.9L714.6,11v-53.8l46.6-26.9l46.6,26.9"/>
			<path class="st2" d="M714.6-42.7V11l46.6,26.9L807.8,11"/>
			<path class="st2" d="M621.4,64.8V11L668-15.8"/>
			<path class="st2" d="M807.8-42.7V11l46.6,26.9L900.9,11v-53.8l-46.6-26.9L807.8-42.7z"/>
			<path class="st2" d="M621.4-96.5v53.8L668-15.8l46.6-26.9v-53.8L668-123.4L621.4-96.5z"/>
			<path class="st2" d="M807.8,11v-53.8l-46.6-26.9l-46.6,26.9V11"/>
			<path class="st2" d="M714.6,11v-53.8L668-69.6"/>
			<path class="st2" d="M761.2-123.4v53.8l46.6,26.9l46.6-26.9v-53.8l-46.6-26.9L761.2-123.4z"/>
			<path class="st2" d="M714.6-42.7l46.6-26.9v-53.8l-46.6-26.9L668-123.4"/>
			<path class="st2" d="M668-69.6v53.8L714.6,11l46.6-26.9"/>
			<path class="st2" d="M761.2-123.4v53.8l-46.6,26.9L668-69.6"/>
			<path class="st2" d="M854.3-15.8v-53.8l-46.6-26.9"/>
			<path class="st2" d="M807.8-42.7V11l46.6,26.9L900.9,11v-53.8l-46.6-26.9L807.8-42.7z"/>
			<path class="st2" d="M668-15.8L621.5,11v53.8L668,91.7l46.6-26.9"/>
			<path class="st2" d="M761.2,37.9L807.8,11v-53.8l-46.6-26.9l-46.6,26.9"/>
			<path class="st2" d="M807.8-42.7V11l-46.6,26.9L714.6,11"/>
			<path class="st2" d="M761.2-123.4v-53.8l46.6-26.9l46.6,26.9v53.8"/>
			<path class="st2" d="M761.2-177.1l46.6,26.9l46.6-26.9"/>
			<path class="st2" d="M668.1,145.5l-46.6-26.9V64.8l46.6-26.9l46.6,26.9"/>
			<path class="st2" d="M1692.7,145.5v53.8l-46.6,26.9l-46.6-26.9v-53.8l46.6-26.9L1692.7,145.5z"/>
			<path class="st2" d="M1459.8,226.1l-46.6-26.9v-53.8l46.6-26.9l46.6,26.9"/>
			<path class="st2" d="M1413.2,145.5v53.8l46.6,26.9l46.6-26.9"/>
			<path class="st2" d="M1320.1,253v-53.8l46.6-26.9"/>
			<path class="st2" d="M1506.4,145.5v53.8l46.6,26.9l46.6-26.9v-53.8l-46.6-26.9L1506.4,145.5z"/>
			<path class="st2" d="M1320.1,91.7v53.8l46.6,26.9l46.6-26.9V91.7l-46.6-26.9L1320.1,91.7z"/>
			<path class="st2" d="M1506.4,199.2v-53.8l-46.6-26.9l-46.6,26.9v53.8"/>
			<path class="st2" d="M1413.2,199.2v-53.8l-46.6-26.9"/>
			<path class="st2" d="M1459.8,64.8v53.8l46.6,26.9l46.6-26.9V64.8l-46.6-26.9L1459.8,64.8z"/>
			<path class="st2" d="M1413.3,145.5l46.6-26.9V64.8l-46.6-26.9l-46.6,26.9"/>
			<path class="st2" d="M1366.7,118.6v53.8l46.6,26.9l46.6-26.9"/>
			<path class="st2" d="M1459.8,64.8v53.8l-46.6,26.9l-46.6-26.9"/>
			<path class="st2" d="M1646.1,279.9l-46.6-26.9v-53.8l46.6-26.9l46.6,26.9"/>
			<path class="st2" d="M1506.4,145.5v53.8l46.6,26.9l46.6-26.9v-53.8l-46.6-26.9L1506.4,145.5z"/>
			<path class="st2" d="M1366.7,172.3l-46.6,26.9V253l46.6,26.9l46.6-26.9"/>
			<path class="st2" d="M1459.8,226.1l46.6-26.9v-53.8l-46.6-26.9l-46.6,26.9"/>
			<path class="st2" d="M1506.4,145.5v53.8l-46.6,26.9l-46.6-26.9"/>
			<path class="st2" d="M1459.8,64.8V11l46.6-26.9L1553,11v53.8"/>
			<path class="st2" d="M1553,64.8V11"/>
			<path class="st2" d="M1459.8,11l46.6,26.9L1553,11"/>
			<path class="st2" d="M1646.1,64.8v53.8l-46.6,26.9l-46.6-26.9V64.8l46.6-26.9L1646.1,64.8z"/>
			<path class="st2" d="M1553,11v53.8l46.6,26.9l46.6-26.9"/>
			<path class="st2" d="M1692.7,253v-53.8l-46.6-26.9l-46.6,26.9V253"/>
			<path class="st2" d="M1692.7,145.5l46.6-26.9V64.8l-46.6-26.9l-46.6,26.9"/>
			<path class="st2" d="M1646.1,118.6v53.8l46.6,26.9l46.6-26.9"/>
			<path class="st2" d="M1739.3,64.8v53.8l-46.6,26.9l-46.6-26.9"/>
			<path class="st2" d="M1040.7,521.8v53.8l46.6,26.9l46.6-26.9v-53.8l-46.6-26.9L1040.7,521.8z"/>
			<path class="st2" d="M994.1,602.5l46.6-26.9v-53.8l-46.6-26.9l-46.6,26.9"/>
			<path class="st2" d="M1273.5,494.9l-46.6-26.9v-53.8l46.6-26.9l46.6,26.9"/>
			<path class="st2" d="M1320.1,468.1v53.8l-46.6,26.9l-46.6-26.9"/>
			<path class="st2" d="M1226.9,414.3v53.8l46.6,26.9l46.6-26.9"/>
			<path class="st2" d="M1040.7,521.8v-53.8l46.6-26.9l46.6,26.9v53.8"/>
			<path class="st2" d="M1133.8,521.8v-53.8l46.6-26.9"/>
			<path class="st2" d="M1133.8,360.5v53.8l46.6,26.9l46.6-26.9v-53.8l-46.6-26.9L1133.8,360.5z"/>
			<path class="st2" d="M1040.7,414.3v53.8l46.6,26.9l46.6-26.9"/>
			<path class="st2" d="M1320.1,468.1v-53.8l-46.6-26.9l-46.6,26.9v53.8"/>
			<path class="st2" d="M1226.9,468.1v-53.8l-46.6-26.9"/>
			<path class="st2" d="M1227,521.8v53.8l-46.6,26.9l-46.6-26.9v-53.8l46.6-26.9L1227,521.8z"/>
			<path class="st2" d="M1227,575.6v-53.8l46.6-26.9l46.6,26.9v53.8"/>
			<path class="st2" d="M1180.4,441.2l-46.6,26.9v53.8l46.6,26.9l46.6-26.9"/>
			<path class="st2" d="M1227,468.1v53.8l46.6,26.9l46.6-26.9"/>
			<path class="st2" d="M1320.1,414.3v53.8l-46.6,26.9l-46.6-26.9"/>
			<path class="st2" d="M1320.1,306.8l46.6,26.9v53.8l-46.6,26.9l-46.6-26.9"/>
			<path class="st2" d="M1227,360.5l-46.6-26.9v-53.8L1227,253l46.6,26.9"/>
			<path class="st2" d="M1180.4,279.9v53.8l46.6,26.9l46.6-26.9"/>
			<path class="st2" d="M1087.2,387.4v-53.8l46.6-26.9"/>
			<path class="st2" d="M1273.5,279.9v53.8l46.6,26.9l46.6-26.9v-53.8l-46.6-26.9L1273.5,279.9z"/>
			<path class="st2" d="M1087.2,226.1v53.8l46.6,26.9l46.6-26.9v-53.8l-46.6-26.9L1087.2,226.1z"/>
			<path class="st2" d="M1273.5,333.6v-53.8L1227,253l-46.6,26.9v53.8"/>
			<path class="st2" d="M1180.4,333.6v-53.8l-46.6-26.9"/>
			<path class="st2" d="M1227,199.2V253l46.6,26.9l46.6-26.9v-53.8l-46.6-26.9L1227,199.2z"/>
			<path class="st2" d="M1180.4,279.9L1227,253v-53.8l-46.6-26.9l-46.6,26.9"/>
			<path class="st2" d="M1133.8,253v53.8l46.6,26.9l46.6-26.9"/>
			<path class="st2" d="M1227,199.2V253l-46.6,26.9l-46.6-26.9"/>
			<path class="st2" d="M1320.1,306.8V253l-46.6-26.9"/>
			<path class="st2" d="M1273.6,279.9v53.8l46.6,26.9l46.6-26.9v-53.8l-46.6-26.9L1273.6,279.9z"/>
			<path class="st2" d="M1133.8,306.8l-46.6,26.9v53.8l46.6,26.9l46.6-26.9"/>
			<path class="st2" d="M1227,360.5l46.6-26.9v-53.8L1227,253l-46.6,26.9"/>
			<path class="st2" d="M1273.6,279.9v53.8l-46.6,26.9l-46.6-26.9"/>
			<path class="st2" d="M1227,199.2v-53.8l46.6-26.9l46.6,26.9v53.8"/>
			<path class="st2" d="M1227,91.7v53.8l46.6,26.9l46.6-26.9"/>
			<path class="st2" d="M1087.3,387.4v53.8l-46.6,26.9l-46.6-26.9v-53.8l46.6-26.9L1087.3,387.4z"/>
			<path class="st2" d="M1133.8,468.1l-46.6-26.9v-53.8l46.6-26.9l46.6,26.9"/>
			<path class="st2" d="M994.1,441.2l-46.6-26.9v-53.8l46.6-26.9l46.6,26.9"/>
			<path class="st2" d="M947.5,360.5v53.8l46.6,26.9l46.6-26.9"/>
			<path class="st2" d="M1133.8,199.2V253l-46.6,26.9l-46.6-26.9v-53.8l46.6-26.9L1133.8,199.2z"/>
			<path class="st2" d="M900.9,279.9L854.4,253v-53.8l46.6-26.9l46.6,26.9"/>
			<path class="st2" d="M947.5,199.2V253l46.6,26.9l46.6-26.9v-53.8l-46.6-26.9L947.5,199.2z"/>
			<path class="st2" d="M947.5,253v-53.8l-46.6-26.9l-46.6,26.9V253"/>
			<path class="st2" d="M900.9,118.6v53.8l46.6,26.9l46.6-26.9v-53.8l-46.6-26.9L900.9,118.6z"/>
			<path class="st2" d="M994.1,226.1v-53.8l-46.6-26.9"/>
			<path class="st2" d="M947.5,199.2V253l46.6,26.9l46.6-26.9v-53.8l-46.6-26.9L947.5,199.2z"/>
			<path class="st2" d="M900.9,279.9l46.6-26.9v-53.8l-46.6-26.9l-46.6,26.9"/>
			<path class="st2" d="M947.5,199.2V253l-46.6,26.9L854.4,253"/>
			<path class="st2" d="M900.9,118.6V64.8l46.6-26.9l46.6,26.9v53.8"/>
			<path class="st2" d="M994.1,118.6V64.8l46.6-26.9"/>
			<path class="st2" d="M994.1-42.7V11l46.6,26.9l46.6-26.9v-53.8l-46.6-26.9L994.1-42.7z"/>
			<path class="st2" d="M900.9,11v53.8l46.6,26.9l46.6-26.9"/>
			<path class="st2" d="M1087.2,64.8V11l-46.6-26.9"/>
			<path class="st2" d="M1087.2,118.6v53.8l-46.6,26.9l-46.6-26.9v-53.8l46.6-26.9L1087.2,118.6z"/>
			<path class="st2" d="M1040.7,37.9l-46.6,26.9v53.8l46.6,26.9l46.6-26.9"/>
			<path class="st2" d="M1180.4,279.9l-46.6-26.9v-53.8l46.6-26.9l46.6,26.9"/>
			<path class="st2" d="M1227,253v-53.8l-46.6-26.9l-46.6,26.9V253"/>
			<path class="st2" d="M1180.4,118.6v53.8l46.6,26.9l46.6-26.9v-53.8L1227,91.7L1180.4,118.6z"/>
			<path class="st2" d="M1133.8,199.2l46.6-26.9v-53.8l-46.6-26.9l-46.6,26.9"/>
			<path class="st2" d="M1087.2,172.3v53.8l46.6,26.9l46.6-26.9"/>
			<path class="st2" d="M1180.4,118.6v53.8l-46.6,26.9l-46.6-26.9"/>
			<path class="st2" d="M1180.4,279.9L1227,253v-53.8l-46.6-26.9l-46.6,26.9"/>
			<path class="st2" d="M1180.4,118.6V64.8l46.6-26.9l46.6,26.9v53.8"/>
			<path class="st2" d="M1040.5,253v-53.8L994,172.3"/>
			<path class="st2" d="M947.4,37.9v53.8l46.6,26.9l46.6-26.9"/>
			<path class="st2" d="M1180.4,11v53.8l46.6,26.9l46.6-26.9"/>
			<path class="st2" d="M1227-15.8v53.8l-46.6,26.9l-46.6-26.9v-53.8l46.6-26.9L1227-15.8z"/>
			<path class="st2" d="M1133.8,37.9L1087.3,11v-53.8l46.6-26.9l46.6,26.9"/>
			<path class="st2" d="M1087.3-42.7V11l46.6,26.9l46.6-26.9"/>
			<path class="st2" d="M1413.3,521.8v53.8l46.6,26.9l46.6-26.9v-53.8l-46.6-26.9L1413.3,521.8z"/>
			<path class="st2" d="M1413.3,521.8v-53.8l46.6-26.9l46.6,26.9v53.8"/>
			<path class="st2" d="M248.8,118.6v53.8l46.6,26.9l46.6-26.9v-53.8l-46.6-26.9L248.8,118.6z"/>
			<path class="st2" d="M155.6,118.6v53.8l46.6,26.9l46.6-26.9"/>
			<path class="st2" d="M-77.3-15.8v53.8l46.6,26.9l46.6-26.9v-53.8l-46.6-26.9L-77.3-15.8z"/>
			<path class="st2" d="M15.9,91.7V37.9L-30.7,11"/>
			<path class="st2" d="M-30.7,64.8l-46.6,26.9v53.8l46.6,26.9l46.6-26.9"/>
			<path class="st2" d="M109.1,145.5v53.8l46.6,26.9l46.6-26.9v-53.8l-46.6-26.9L109.1,145.5z"/>
			<path class="st2" d="M62.5,226.1l46.6-26.9v-53.8l-46.6-26.9l-46.6,26.9"/>
			<path class="st2" d="M109,145.5V91.7l46.6-26.9l46.6,26.9v53.8"/>
			<path class="st2" d="M109,37.9v53.8l46.6,26.9l46.6-26.9"/>
			<path class="st2" d="M155.7,11v53.8l-46.6,26.9L62.5,64.8V11l46.6-26.9L155.7,11z"/>
			<path class="st2" d="M62.5,64.8L15.9,37.9v-53.8l46.6-26.9l46.6,26.9"/>
			<path class="st2" d="M15.9-15.8v53.8l46.6,26.9l46.6-26.9"/>
			<path class="st2" d="M16,360.5v-53.8l-46.6-26.9l-46.6,26.9v53.8"/>
			<path class="st2" d="M1413.3,521.8v53.8l-46.6,26.9l-46.6-26.9v-53.8l46.6-26.9L1413.3,521.8z"/>
			<path class="st2" d="M1459.8,548.7v-53.8l-46.6-26.9"/>
			<path class="st2" d="M1459.8,387.4v53.8l-46.6,26.9l-46.6-26.9v-53.8l46.6-26.9L1459.8,387.4z"/>
			<path class="st2" d="M1366.7,494.9v-53.8l46.6-26.9"/>
			<path class="st2" d="M1366.7,441.2l-46.6-26.9v-53.8l46.6-26.9l46.6,26.9"/>
			<path class="st2" d="M1413.2,414.3v53.8l-46.6,26.9l-46.6-26.9"/>
			<path class="st2" d="M1320.1,360.5v53.8l46.6,26.9l46.6-26.9"/>
			<path class="st2" d="M1413.2,468.1l46.6,26.9v53.8l-46.6,26.9l-46.6-26.9"/>
			<path class="st2" d="M1599.5,521.8v53.8l46.6,26.9l46.6-26.9v-53.8l-46.6-26.9L1599.5,521.8z"/>
			<path class="st2" d="M1553,602.5l46.6-26.9v-53.8l-46.6-26.9l-46.6,26.9"/>
			<path class="st2" d="M1599.5,521.8v-53.8l46.6-26.9l46.6,26.9v53.8"/>
			<path class="st2" d="M1599.5,414.3v53.8l46.6,26.9l46.6-26.9"/>
			<path class="st2" d="M1739.3,279.9v53.8l46.6,26.9l46.6-26.9v-53.8l-46.6-26.9L1739.3,279.9z"/>
			<path class="st2" d="M1785.9,414.3l46.6-26.9v-53.8l-46.6-26.9l-46.6,26.9"/>
			<path class="st2" d="M1739.3,387.4v-53.8l46.6-26.9l46.6,26.9v53.8"/>
			<path class="st2" d="M1692.8,468.1v53.8l46.6,26.9l46.6-26.9v-53.8l-46.6-26.9L1692.8,468.1z"/>
			<path class="st2" d="M1739.3,602.5l46.6-26.9v-53.8l-46.6-26.9l-46.6,26.9"/>
			<path class="st2" d="M1739.3,387.4v53.8l46.6,26.9l46.6-26.9v-53.8l-46.6-26.9L1739.3,387.4z"/>
			<path class="st2" d="M1739.3,441.2v-53.8l-46.6-26.9l-46.6,26.9v53.8"/>
			<path class="st2" d="M1692.7,575.6v-53.8l46.6-26.9l46.6,26.9v53.8"/>
			<path class="st2" d="M481.7,575.6v-53.8l-46.6-26.9"/>
			<path class="st3" d="M341.9,494.9v53.8l46.6,26.9l46.6-26.9v-53.8l-46.6-26.9L341.9,494.9z"/>
			<path class="st3" d="M481.6,468.1v53.8l46.6,26.9l46.6-26.9v-53.8l-46.6-26.9L481.6,468.1z"/>
			<path class="st3" d="M435.1,548.7l46.6-26.9v-53.8l-46.6-26.9l-46.6,26.9"/>
			<path class="st3" d="M481.6,468.1v53.8l-46.6,26.9l-46.6-26.9"/>
			<path class="st3" d="M574.8,575.6v-53.8l-46.6-26.9"/>
			<path class="st3" d="M481.6,468.1v-53.8l46.6-26.9l46.6,26.9v53.8"/>
			<path class="st3" d="M574.8,468.1v-53.8l46.6-26.9"/>
			<path class="st3" d="M574.8,306.8v53.8l46.6,26.9l46.6-26.9v-53.8l-46.6-26.9L574.8,306.8z"/>
			<path class="st3" d="M481.6,360.5v53.8l46.6,26.9l46.6-26.9"/>
			<path class="st3" d="M667.9,414.3v-53.8l-46.6-26.9"/>
			<path class="st3" d="M667.9,468.1v53.8l-46.6,26.9l-46.6-26.9v-53.8l46.6-26.9L667.9,468.1z"/>
			<path class="st3" d="M621.3,387.4l-46.6,26.9v53.8l46.6,26.9l46.6-26.9"/>
			<path class="st3" d="M761.1,468.1v53.8l46.6,26.9l46.6-26.9v-53.8l-46.6-26.9L761.1,468.1z"/>
			<path class="st3" d="M714.5,548.7l46.6-26.9v-53.8l-46.6-26.9l-46.6,26.9"/>
			<path class="st3" d="M761.1,468.1v53.8l-46.6,26.9l-46.6-26.9"/>
			<path class="st3" d="M854.2,575.6v-53.8l-46.6-26.9"/>
			<path class="st3" d="M993.9,441.2l-46.6-26.9v-53.8l46.6-26.9l46.6,26.9"/>
			<path class="st3" d="M1040.5,414.3v53.8l-46.6,26.9l-46.6-26.9"/>
			<path class="st3" d="M947.4,360.5v53.8l46.6,26.9l46.6-26.9"/>
			<path class="st3" d="M761.1,468.1v-53.8l46.6-26.9l46.6,26.9v53.8"/>
			<path class="st3" d="M854.2,468.1v-53.8l46.6-26.9"/>
			<path class="st3" d="M854.2,306.8v53.8l46.6,26.9l46.6-26.9v-53.8l-46.6-26.9L854.2,306.8z"/>
			<path class="st3" d="M761.1,360.5v53.8l46.6,26.9l46.6-26.9"/>
			<path class="st3" d="M1040.5,414.3v-53.8l-46.6-26.9l-46.6,26.9v53.8"/>
			<path class="st3" d="M947.4,414.3v-53.8l-46.6-26.9"/>
			<path class="st3" d="M947.4,468.1v53.8l-46.6,26.9l-46.6-26.9v-53.8l46.6-26.9L947.4,468.1z"/>
			<path class="st3" d="M947.4,521.8v-53.8l46.6-26.9l46.6,26.9v53.8"/>
			<path class="st3" d="M900.8,387.4l-46.6,26.9v53.8l46.6,26.9l46.6-26.9"/>
			<path class="st3" d="M947.4,414.3v53.8l46.6,26.9l46.6-26.9"/>
			<path class="st3" d="M1040.5,360.5v53.8l-46.6,26.9l-46.6-26.9"/>
			<path class="st3" d="M1040.5,253l46.6,26.9v53.8l-46.6,26.9l-46.6-26.9"/>
			<path class="st3" d="M947.4,306.8l-46.6-26.9v-53.8l46.6-26.9l46.6,26.9"/>
			<path class="st3" d="M900.8,226.1v53.8l46.6,26.9l46.6-26.9"/>
			<path class="st3" d="M807.7,333.6v-53.8l46.6-26.9"/>
			<path class="st3" d="M993.9,226.1v53.8l46.6,26.9l46.6-26.9v-53.8l-46.6-26.9L993.9,226.1z"/>
			<path class="st3" d="M807.7,172.3v53.8l46.6,26.9l46.6-26.9v-53.8l-46.6-26.9L807.7,172.3z"/>
			<path class="st3" d="M993.9,279.9v-53.8l-46.6-26.9l-46.6,26.9v53.8"/>
			<path class="st3" d="M900.8,279.9v-53.8l-46.6-26.9"/>
			<path class="st3" d="M947.4,145.5v53.8l46.6,26.9l46.6-26.9v-53.8L994,118.6L947.4,145.5z"/>
			<path class="st3" d="M900.8,226.1l46.6-26.9v-53.8l-46.6-26.9l-46.6,26.9"/>
			<path class="st3" d="M854.2,199.2V253l46.6,26.9l46.6-26.9"/>
			<path class="st3" d="M947.4,145.5v53.8l-46.6,26.9l-46.6-26.9"/>
			<path class="st3" d="M1040.5,253v-53.8L994,172.3"/>
			<path class="st3" d="M994,226.1v53.8l46.6,26.9l46.6-26.9v-53.8l-46.6-26.9L994,226.1z"/>
			<path class="st3" d="M854.2,253l-46.6,26.9v53.8l46.6,26.9l46.6-26.9"/>
			<path class="st3" d="M947.4,306.8l46.6-26.9v-53.8l-46.6-26.9l-46.6,26.9"/>
			<path class="st3" d="M994,226.1v53.8l-46.6,26.9l-46.6-26.9"/>
			<path class="st3" d="M947.4,145.5V91.7l46.6-26.9l46.6,26.9v53.8"/>
			<path class="st3" d="M947.4,37.9v53.8l46.6,26.9l46.6-26.9"/>
			<path class="st3" d="M807.7,333.6v53.8l-46.6,26.9l-46.6-26.9v-53.8l46.6-26.9L807.7,333.6z"/>
			<path class="st3" d="M854.3,414.3l-46.6-26.9v-53.8l46.6-26.9l46.6,26.9"/>
			<path class="st3" d="M714.5,387.4l-46.6-26.9v-53.8l46.6-26.9l46.6,26.9"/>
			<path class="st3" d="M667.9,306.8v53.8l46.6,26.9l46.6-26.9"/>
			<path class="st3" d="M1878.9,414.3v53.8l-46.6,26.9l-46.6-26.9v-53.8l46.6-26.9L1878.9,414.3z"/>
			<path class="st3" d="M1739.2,441.2l46.6,26.9v53.8l-46.6,26.9l-46.6-26.9"/>
			<path class="st3" d="M1646,494.9l-46.6-26.9v-53.8l46.6-26.9l46.6,26.9"/>
			<path class="st3" d="M1599.4,414.3v53.8l46.6,26.9l46.6-26.9"/>
			<path class="st3" d="M1506.3,521.8v-53.8l46.6-26.9"/>
			<path class="st3" d="M1692.6,414.3v53.8l46.6,26.9l46.6-26.9v-53.8l-46.6-26.9L1692.6,414.3z"/>
			<path class="st3" d="M1506.3,360.5v53.8l46.6,26.9l46.6-26.9v-53.8l-46.6-26.9L1506.3,360.5z"/>
			<path class="st3" d="M1692.6,468.1v-53.8l-46.6-26.9l-46.6,26.9v53.8"/>
			<path class="st3" d="M1599.4,468.1v-53.8l-46.6-26.9"/>
			<path class="st3" d="M1646,333.6v53.8l46.6,26.9l46.6-26.9v-53.8l-46.6-26.9L1646,333.6z"/>
			<path class="st3" d="M1599.5,414.3l46.6-26.9v-53.8l-46.6-26.9l-46.6,26.9"/>
			<path class="st3" d="M1552.9,387.4v53.8l46.6,26.9l46.6-26.9"/>
			<path class="st3" d="M1646,333.6v53.8l-46.6,26.9l-46.6-26.9"/>
			<path class="st3" d="M1739.2,441.2v-53.8l-46.6-26.9"/>
			<path class="st3" d="M1832.3,548.7l-46.6-26.9v-53.8l46.6-26.9l46.6,26.9"/>
			<path class="st3" d="M1692.6,414.3v53.8l46.6,26.9l46.6-26.9v-53.8l-46.6-26.9L1692.6,414.3z"/>
			<path class="st3" d="M1552.9,441.2l-46.6,26.9v53.8l46.6,26.9l46.6-26.9"/>
			<path class="st3" d="M1646,494.9l46.6-26.9v-53.8l-46.6-26.9l-46.6,26.9"/>
			<path class="st3" d="M1692.6,414.3v53.8l-46.6,26.9l-46.6-26.9"/>
			<path class="st3" d="M1646,333.6v-53.8l46.6-26.9l46.6,26.9v53.8"/>
			<path class="st3" d="M1739.2,333.6v-53.8l46.6-26.9"/>
			<path class="st3" d="M1739.2,172.3v53.8l46.6,26.9l46.6-26.9v-53.8l-46.6-26.9L1739.2,172.3z"/>
			<path class="st3" d="M1646,226.1v53.8l46.6,26.9l46.6-26.9"/>
			<path class="st3" d="M1832.3,279.9v-53.8l-46.6-26.9"/>
			<path class="st3" d="M1832.3,333.6v53.8l-46.6,26.9l-46.6-26.9v-53.8l46.6-26.9L1832.3,333.6z"/>
			<path class="st3" d="M1785.8,253l-46.6,26.9v53.8l46.6,26.9l46.6-26.9"/>
			<path class="st3" d="M1878.9,521.8v-53.8l-46.6-26.9l-46.6,26.9v53.8"/>
			<path class="st3" d="M1785.8,521.8v-53.8l-46.6-26.9"/>
			<path class="st3" d="M1878.9,414.3l46.6-26.9v-53.8l-46.6-26.9l-46.6,26.9"/>
			<path class="st3" d="M1832.3,387.4v53.8l46.6,26.9l46.6-26.9"/>
			<path class="st3" d="M1925.5,333.6v53.8l-46.6,26.9l-46.6-26.9"/>
			<path class="st3" d="M1878.9,253l-46.6-26.9v-53.8l46.6-26.9l46.6,26.9"/>
			<path class="st3" d="M1832.3,172.3v53.8l46.6,26.9l46.6-26.9"/>
			<path class="st3" d="M1273.4,494.9v53.8l46.6,26.9l46.6-26.9v-53.8l-46.6-26.9L1273.4,494.9z"/>
			<path class="st3" d="M1413.2,468.1v53.8l46.6,26.9l46.6-26.9v-53.8l-46.6-26.9L1413.2,468.1z"/>
			<path class="st3" d="M1366.6,548.7l46.6-26.9v-53.8l-46.6-26.9l-46.6,26.9"/>
			<path class="st3" d="M1413.2,468.1v53.8l-46.6,26.9l-46.6-26.9"/>
			<path class="st3" d="M1506.3,575.6v-53.8l-46.6-26.9"/>
			<path class="st3" d="M1413.2,468.1v-53.8l46.6-26.9l46.6,26.9v53.8"/>
			<path class="st3" d="M1413.2,360.5v53.8l46.6,26.9l46.6-26.9"/>
			<path class="st3" d="M1320,468.1v53.8l-46.6,26.9l-46.6-26.9v-53.8l46.6-26.9L1320,468.1z"/>
			<path class="st3" d="M1087.1,548.7l-46.6-26.9v-53.8l46.6-26.9l46.6,26.9"/>
			<path class="st3" d="M1133.7,468.1v53.8l46.6,26.9l46.6-26.9v-53.8l-46.6-26.9L1133.7,468.1z"/>
			<path class="st3" d="M1133.7,521.8v-53.8l-46.6-26.9l-46.6,26.9v53.8"/>
			<path class="st3" d="M1087.1,387.4v53.8l46.6,26.9l46.6-26.9v-53.8l-46.6-26.9L1087.1,387.4z"/>
			<path class="st3" d="M1180.3,494.9v-53.8l-46.6-26.9"/>
			<path class="st3" d="M1133.7,468.1v53.8l46.6,26.9l46.6-26.9v-53.8l-46.6-26.9L1133.7,468.1z"/>
			<path class="st3" d="M1087.2,548.7l46.6-26.9v-53.8l-46.6-26.9l-46.6,26.9"/>
			<path class="st3" d="M1133.7,468.1v53.8l-46.6,26.9l-46.6-26.9"/>
			<path class="st3" d="M1087.1,387.4v-53.8l46.6-26.9l46.6,26.9v53.8"/>
			<path class="st3" d="M1180.3,387.4v-53.8l46.6-26.9"/>
			<path class="st3" d="M1180.3,226.1v53.8l46.6,26.9l46.6-26.9v-53.8l-46.6-26.9L1180.3,226.1z"/>
			<path class="st3" d="M1087.1,279.9v53.8l46.6,26.9l46.6-26.9"/>
			<path class="st3" d="M1273.4,333.6v-53.8l-46.6-26.9"/>
			<path class="st3" d="M1273.4,387.4v53.8l-46.6,26.9l-46.6-26.9v-53.8l46.6-26.9L1273.4,387.4z"/>
			<path class="st3" d="M1226.9,306.8l-46.6,26.9v53.8l46.6,26.9l46.6-26.9"/>
			<path class="st3" d="M1366.6,548.7l-46.6-26.9v-53.8l46.6-26.9l46.6,26.9"/>
			<path class="st3" d="M1413.2,521.8v-53.8l-46.6-26.9l-46.6,26.9v53.8"/>
			<path class="st3" d="M1366.6,387.4v53.8l46.6,26.9l46.6-26.9v-53.8l-46.6-26.9L1366.6,387.4z"/>
			<path class="st3" d="M1320,468.1l46.6-26.9v-53.8l-46.6-26.9l-46.6,26.9"/>
			<path class="st3" d="M1273.4,441.2v53.8l46.6,26.9l46.6-26.9"/>
			<path class="st3" d="M1366.6,387.4v53.8l-46.6,26.9l-46.6-26.9"/>
			<path class="st3" d="M1366.6,548.7l46.6-26.9v-53.8l-46.6-26.9l-46.6,26.9"/>
			<path class="st3" d="M1366.6,387.4v-53.8l46.6-26.9l46.6,26.9v53.8"/>
			<path class="st3" d="M1366.6,279.9v53.8l46.6,26.9l46.6-26.9"/>
			<path class="st3" d="M1413.2,253v53.8l-46.6,26.9l-46.6-26.9V253l46.6-26.9L1413.2,253z"/>
			<path class="st3" d="M1320,306.8l-46.6-26.9v-53.8l46.6-26.9l46.6,26.9"/>
			<path class="st3" d="M1273.5,226.1v53.8l46.6,26.9l46.6-26.9"/>
			<path class="st3" d="M435,387.4v53.8l46.6,26.9l46.6-26.9v-53.8l-46.6-26.9L435,387.4z"/>
			<path class="st3" d="M341.8,494.9v-53.8l46.6-26.9l46.6,26.9v53.8"/>
			<path class="st3" d="M341.8,387.4v53.8l46.6,26.9l46.6-26.9"/>
			<path class="st3" d="M108.9,414.3v-53.8l46.6-26.9"/>
			<path class="st3" d="M108.9,253v53.8l46.6,26.9l46.6-26.9V253l-46.6-26.9L108.9,253z"/>
			<path class="st3" d="M202.1,360.5v-53.8l-46.6-26.9"/>
			<path class="st3" d="M155.5,333.6L109,360.5v53.8l46.6,26.9l46.6-26.9"/>
			<path class="st3" d="M295.3,414.3v53.8l46.6,26.9l46.6-26.9v-53.8l-46.6-26.9L295.3,414.3z"/>
			<path class="st3" d="M248.7,494.9l46.6-26.9v-53.8l-46.6-26.9l-46.6,26.9"/>
			<path class="st3" d="M295.2,414.3v-53.8l46.6-26.9l46.6,26.9v53.8"/>
			<path class="st3" d="M295.2,306.8v53.8l46.6,26.9l46.6-26.9"/>
			<path class="st3" d="M341.9,279.9v53.8l-46.6,26.9l-46.6-26.9v-53.8l46.6-26.9L341.9,279.9z"/>
			<path class="st3" d="M248.7,333.6l-46.6-26.9V253l46.6-26.9l46.6,26.9"/>
			<path class="st3" d="M202.1,253v53.8l46.6,26.9l46.6-26.9"/>
			<path class="st3" d="M62.4,387.4v53.8l-46.6,26.9l-46.6-26.9v-53.8l46.6-26.9L62.4,387.4z"/>
			<path class="st3" d="M15.9,521.8l-46.6-26.9v-53.8l46.6-26.9l46.6,26.9"/>
			<path class="st3" d="M62.4,494.9v-53.8l-46.6-26.9l-46.6,26.9v53.8"/>
			<path class="st3" d="M62.4,494.9v53.8l-46.6,26.9l-46.6-26.9v-53.8l46.6-26.9L62.4,494.9z"/>
			<path class="st3" d="M388.6,306.8l46.6,26.9v53.8l-46.6,26.9L342,387.4"/>
			<path class="st3" d="M435.2,387.4v-53.8l-46.6-26.9"/>
			<path class="st3" d="M574.9,199.2V253l46.6,26.9L668,253v-53.8l-46.6-26.9L574.9,199.2z"/>
			<path class="st3" d="M807.7,172.3l-46.6-26.9V91.7l46.6-26.9l46.6,26.9"/>
			<path class="st3" d="M761.2,91.7v53.8l46.6,26.9l46.6-26.9"/>
			<path class="st3" d="M668,37.9v53.8l46.6,26.9l46.6-26.9V37.9L714.6,11L668,37.9z"/>
			<path class="st3" d="M574.9,91.7v53.8l46.6,26.9l46.6-26.9"/>
			<path class="st3" d="M854.3,145.5V91.7l-46.6-26.9l-46.6,26.9v53.8"/>
			<path class="st3" d="M761.2,145.5V91.7l-46.6-26.9"/>
			<path class="st3" d="M621.4,279.9v53.8l46.6,26.9l46.6-26.9v-53.8L668,253L621.4,279.9z"/>
			<path class="st3" d="M621.5,279.9v53.8l46.6,26.9l46.6-26.9v-53.8L668,253L621.5,279.9z"/>
			<path class="st3" d="M528.3,279.9l46.6-26.9v-53.8l-46.6-26.9l-46.6,26.9"/>
			<path class="st3" d="M574.9,199.2V253l-46.6,26.9L481.7,253"/>
			<path class="st3" d="M574.9,199.2v-53.8l46.6-26.9l46.6,26.9v53.8"/>
			<path class="st3" d="M1553,172.3l46.6,26.9V253l-46.6,26.9l-46.6-26.9"/>
			<path class="st3" d="M1553,172.3v-53.8l-46.6-26.9"/>
			<path class="st4" d="M435.1,548.7l46.6-26.9v-53.8l-46.6-26.9l-46.6,26.9"/>
			<path class="st4" d="M202.1,414.3v53.8l-46.6,26.9L109,468.1v-53.8l46.6-26.9L202.1,414.3z"/>
			<path class="st4" d="M295.3,414.3v53.8l-46.6,26.9l-46.6-26.9"/>
			<path class="st4" d="M62.4,548.7v-53.8l46.6-26.9l46.6,26.9v53.8"/>
			<path class="st4" d="M574.8,468.1v-53.8l46.6-26.9"/>
			<path class="st4" d="M574.8,306.8v53.8l46.6,26.9l46.6-26.9v-53.8l-46.6-26.9L574.8,306.8z"/>
			<path class="st4" d="M667.9,414.3v-53.8l-46.6-26.9"/>
			<path class="st4" d="M714.5,548.7l46.6-26.9v-53.8l-46.6-26.9l-46.6,26.9"/>
			<path class="st4" d="M947.4,360.5v53.8l46.6,26.9l46.6-26.9"/>
			<path class="st4" d="M854.2,468.1v-53.8l46.6-26.9"/>
			<path class="st4" d="M854.2,306.8v53.8l46.6,26.9l46.6-26.9v-53.8l-46.6-26.9L854.2,306.8z"/>
			<path class="st4" d="M900.8,387.4l-46.6,26.9v53.8l46.6,26.9l46.6-26.9"/>
			<path class="st4" d="M1040.5,253l46.6,26.9v53.8l-46.6,26.9l-46.6-26.9"/>
			<path class="st4" d="M993.9,279.9v-53.8l-46.6-26.9l-46.6,26.9v53.8"/>
			<path class="st4" d="M900.8,279.9v-53.8l-46.6-26.9"/>
			<path class="st4" d="M900.8,226.1l46.6-26.9v-53.8l-46.6-26.9l-46.6,26.9"/>
			<path class="st4" d="M947.4,145.5v53.8l-46.6,26.9l-46.6-26.9"/>
			<path class="st4" d="M854.3,414.3l-46.6-26.9v-53.8l46.6-26.9l46.6,26.9"/>
			<path class="st4" d="M1878.9,414.3v53.8l-46.6,26.9l-46.6-26.9v-53.8l46.6-26.9L1878.9,414.3z"/>
			<path class="st4" d="M1692.6,414.3v53.8l46.6,26.9l46.6-26.9v-53.8l-46.6-26.9L1692.6,414.3z"/>
			<path class="st4" d="M1646,494.9l46.6-26.9v-53.8l-46.6-26.9l-46.6,26.9"/>
			<path class="st4" d="M1692.6,414.3v53.8l-46.6,26.9l-46.6-26.9"/>
			<path class="st4" d="M1739.2,333.6v-53.8l46.6-26.9"/>
			<path class="st4" d="M1599.6,253v-53.8l-46.6-26.9"/>
			<path class="st4" d="M1878.9,521.8v-53.8l-46.6-26.9l-46.6,26.9v53.8"/>
			<path class="st4" d="M1785.8,521.8v-53.8l-46.6-26.9"/>
			<path class="st4" d="M1878.9,253l-46.6-26.9v-53.8l46.6-26.9l46.6,26.9"/>
			<path class="st4" d="M1832.3,172.3v53.8l46.6,26.9l46.6-26.9"/>
			<path class="st4" d="M1273.4,494.9v53.8l46.6,26.9l46.6-26.9v-53.8l-46.6-26.9L1273.4,494.9z"/>
			<path class="st4" d="M1366.6,548.7l46.6-26.9v-53.8l-46.6-26.9l-46.6,26.9"/>
			<path class="st4" d="M1506.3,575.6v-53.8l-46.6-26.9"/>
			<path class="st4" d="M1320,468.1v53.8l-46.6,26.9l-46.6-26.9v-53.8l46.6-26.9L1320,468.1z"/>
			<path class="st4" d="M1087.1,548.7l-46.6-26.9v-53.8l46.6-26.9l46.6,26.9"/>
			<path class="st4" d="M1133.7,521.8v-53.8l-46.6-26.9l-46.6,26.9v53.8"/>
			<path class="st4" d="M1133.7,468.1v53.8l46.6,26.9l46.6-26.9v-53.8l-46.6-26.9L1133.7,468.1z"/>
			<path class="st4" d="M1273.4,333.6v-53.8l-46.6-26.9"/>
			<path class="st4" d="M1226.9,306.8l-46.6,26.9v53.8l46.6,26.9l46.6-26.9"/>
			<path class="st4" d="M1320,468.1l46.6-26.9v-53.8l-46.6-26.9l-46.6,26.9"/>
			<path class="st4" d="M1413.2,253v53.8l-46.6,26.9l-46.6-26.9V253l46.6-26.9L1413.2,253z"/>
			<path class="st4" d="M1320,306.8l-46.6-26.9v-53.8l46.6-26.9l46.6,26.9"/>
			<path class="st4" d="M435,387.4v53.8l46.6,26.9l46.6-26.9v-53.8l-46.6-26.9L435,387.4z"/>
			<path class="st4" d="M341.8,494.9v-53.8l46.6-26.9l46.6,26.9v53.8"/>
			<path class="st4" d="M341.9,279.9v53.8l-46.6,26.9l-46.6-26.9v-53.8l46.6-26.9L341.9,279.9z"/>
			<path class="st4" d="M62.4,494.9v-53.8l-46.6-26.9l-46.6,26.9v53.8"/>
			<path class="st5" d="M1150.2,297.5V316l-16,9.3l-16.1-9.3v-18.5l16.1-9.3L1150.2,297.5z"/>
			<path class="st5" d="M590.9,82.4V101l-16,9.3l-16-9.3V82.4l16-9.3L590.9,82.4z"/>
			<path class="st5" d="M1475.8,163.3v18.5l-16.1,9.3l-16-9.3v-18.5l16-9.3L1475.8,163.3z"/>
			<path class="st5" d="M1848.3,324.1v18.5l-16,9.3l-16.1-9.3v-18.5l16.1-9.3L1848.3,324.1z"/>
			<path class="st5" d="M218.6,297.5V316l-16,9.3l-16.1-9.3v-18.5l16.1-9.3L218.6,297.5z"/>
			<path class="st5" d="M1335.7,512.6v18.5l-16.1,9.3l-16.1-9.3v-18.5l16.1-9.3L1335.7,512.6z"/>
			<path class="st6" d="M1654.2,382.7v9.4l-8.2,4.7l-8.2-4.7v-9.4l8.2-4.7L1654.2,382.7z"/>
			<path class="st6" d="M1928.3,224.5v9.4l-8.2,4.7l-8.2-4.7v-9.4l8.2-4.7L1928.3,224.5z"/>
			<path class="st6" d="M862.4,301.4v9.4l-8.2,4.7l-8.2-4.7v-9.4l8.2-4.7L862.4,301.4z"/>
			<path class="st6" d="M117.1,463.3v9.4l-8.2,4.7l-8.2-4.7v-9.4l8.2-4.7L117.1,463.3z"/>
			<path class="st6" d="M1048.7,409.6v9.4l-8.2,4.7l-8.2-4.7v-9.4l8.2-4.7L1048.7,409.6z"/>
		</g>
	</g>
</g>
</svg>
