<?xml version="1.0" encoding="utf-8"?>
<!-- Generator: Adobe Illustrator 27.3.1, SVG Export Plug-In . SVG Version: 6.00 Build 0)  -->
<svg version="1.1" id="Layer_1" xmlns="http://www.w3.org/2000/svg" xmlns:xlink="http://www.w3.org/1999/xlink" x="0px" y="0px"
	 viewBox="0 0 80 80" style="enable-background:new 0 0 80 80;" xml:space="preserve">
<style type="text/css">
	.st0{fill:#231F20;}
</style>
<g>
	<path class="st0" d="M26,11.2c0,10.4,0.1,20.7,0,31.1c0,1,0,2,0,3h1.5c0-0.9-1.5-1-1.5,0c0,0.9,1.5,1,1.5,0
		c0.1-7.4,0.1-14.7,0.1-22.1c0-4,0-8,0-11.9C27.5,10.2,26,10.2,26,11.2z"/>
	<path class="st0" d="M78,10.9c-0.3,9.7,0.2,19.3,0.4,29c0.1,2.8,0.1,5.5,0.1,8.3c0,0.9,1.5,0.9,1.5,0c0.1-9.7-0.5-19.3-0.6-29
		c0-2.8,0-5.5,0.1-8.3C79.5,10,78,10,78,10.9L78,10.9z"/>
	<path class="st0" d="M30.2,7.9c1.5-1.2,3.3-2,5.1-2.6C37.1,4.6,39.1,4,41,3.5c3.9-0.9,7.8-1.2,11.7-1.2c3.9,0,7.8,0.2,11.6,0.9
		c3.5,0.6,7,1.5,10,3.6c1.4,1,2.8,2.3,3.3,3.9c0.5,1.7-0.1,3.1-1.2,4.2c-1.1,1.1-2.8,1.9-4.3,2.5c-1.8,0.7-3.6,1.2-5.5,1.6
		c-3.9,0.8-7.9,1.2-11.9,1.4c-4,0.2-8.2,0.2-12.2-0.3c-2-0.3-3.9-0.6-5.9-1.2c-1.8-0.5-3.6-1.1-5.3-2.1c-1.4-0.8-2.7-2-3.5-3.4
		c-0.3-0.6-0.6-1.3-0.4-2c0.2-0.7,0.7-1.4,1.2-2C29.2,8.8,29.7,8.3,30.2,7.9c0.7-0.6-0.3-1.7-1-1c-1.2,1.1-2.4,2.4-3,4
		c-0.6,1.7,0.3,3.3,1.3,4.6c2.5,3.1,6.5,4.4,10.3,5.3c4.3,1,8.7,1.4,13.1,1.3c4.3,0,8.7-0.3,13-1c4-0.6,8.2-1.5,11.7-3.6
		c1.4-0.9,2.8-2,3.4-3.6c0.7-1.7,0.4-3.6-0.6-5.1c-2.1-3.2-6-5-9.5-6c-3.9-1.1-8-1.5-12.1-1.7c-4.3-0.2-8.5-0.1-12.8,0.6
		c-4.2,0.6-8.5,1.7-12.2,3.6c-0.9,0.5-1.8,1-2.6,1.7C28.4,7.4,29.5,8.4,30.2,7.9L30.2,7.9z"/>
	<path class="st0" d="M26.6,31.6c2.5,2.5,6.1,3.9,9.4,5c3.7,1.2,7.5,1.9,11.3,2.3c7.2,0.7,14.7,0.9,21.7-1.6
		c3.8-1.3,7.2-3.3,10.3-5.7c0.6-0.5-0.2-1.7-0.9-1.2c-0.3,0.2-0.6,0.4-0.9,0.7c-0.7,0.6,0,1.8,0.7,1.3c0.3-0.2,0.6-0.4,0.9-0.7
		l-0.9-1.2c-5.3,4.2-11.8,6.7-18.5,7.2c-3.6,0.3-7.3,0.1-10.9-0.2c-3.6-0.3-7.2-0.9-10.7-1.8c-3.5-1-7.8-2.4-10.5-5.1
		C27,29.9,25.9,31,26.6,31.6L26.6,31.6z"/>
	<path class="st0" d="M54.2,56.9C58,57,61.8,56.9,65.6,56c1.7-0.4,3.5-0.9,5.1-1.5c1.7-0.6,3.4-1.2,5-2.1c1.7-1,3.2-2.3,4.1-4.1
		c0.4-0.8-0.8-1.6-1.3-0.7c-1.6,3-4.9,4.5-8,5.5c-3.1,1-6.4,1.9-9.6,2.2c-2.2,0.2-4.4,0.2-6.7,0.2C53.2,55.4,53.2,56.9,54.2,56.9
		L54.2,56.9z"/>
	<path class="st0" d="M8.1,61.2c-1.4,0-3,0-4.3-0.7c-0.9-0.5-1.5-1.4-1.7-2.4c-0.2-1-0.2-2.1-0.3-3.1c0-1.5-0.1-3.1,0-4.6
		c0.3-4.3,5.1-4.8,8.5-4.8c1.9,0,3.8,0.2,5.7,0.4c2.4,0.2,4.8,0.3,7.2,0.3c3.2,0,6.5-0.2,9.7-0.3c3.2-0.1,6.4,0,9.7-0.1
		c1.4-0.1,2.9-0.3,4.3-0.4c1.4-0.1,2.8-0.1,4.1,0.5c1.1,0.6,2,1.5,2.2,2.8c0.2,1,0.1,2,0.1,3.1c0.1,1.9,0.3,3.9,0,5.7
		c-0.1,0.8-0.3,1.6-0.8,2.3c-0.6,0.8-1.7,1-2.7,1.1c-1.5,0.1-2.9,0.1-4.4,0.1c-3.3,0-6.6,0-9.9,0.1c-8.3,0.1-16.6,0.1-24.9,0.1
		C9.8,61.2,8.9,61.2,8.1,61.2c-1,0-1,1.5,0,1.5c8.6,0.1,17.2,0,25.8-0.1c3.7,0,7.3,0,11-0.1c1.6,0,3.2,0.1,4.8-0.1
		c1.2-0.1,2.4-0.3,3.3-1c0.7-0.6,1.1-1.4,1.4-2.2c0.6-2,0.5-4.2,0.4-6.2c-0.1-0.9-0.1-1.7-0.1-2.6c0-1.5-0.1-2.8-1.1-4
		c-1.9-2.4-5-2.5-7.8-2.2c-1.5,0.2-3.1,0.3-4.6,0.3c-1.7,0-3.4,0-5,0c-3.4,0-6.9,0.3-10.3,0.3c-2.9,0.1-5.9,0.1-8.8-0.1
		c-1.9-0.2-3.9-0.4-5.8-0.5c-3.5-0.1-8.3,0.1-10.2,3.7c-0.7,1.3-0.7,2.8-0.7,4.3c0,1.5,0,2.9,0.1,4.3c0.1,2.4,0.9,4.6,3.2,5.6
		c1.4,0.6,3,0.6,4.5,0.6C9.1,62.6,9.1,61.2,8.1,61.2z"/>
	<path class="st0" d="M19.9,52.4C20,52.6,19.8,52.3,19.9,52.4c0.1,0.1,0.1,0.2,0.2,0.2c0,0.1,0.1,0.1,0.1,0.2c0,0,0.1,0.2,0,0.1
		c0,0.1,0.1,0.2,0.1,0.3c0,0.1,0,0.1,0,0.2c0,0.1,0,0,0,0c0,0,0,0.1,0,0.1c0,0.1,0,0.2,0,0.4c0,0,0,0.2,0,0.1c0,0,0,0.1,0,0.1
		c0,0.1,0,0.1-0.1,0.2c0,0-0.1,0.2,0,0.1c0-0.1-0.1,0.1-0.1,0.1c0,0.1-0.1,0.1-0.1,0.2c0,0-0.1,0.1,0,0.1c0,0.1-0.1,0.1-0.1,0.2
		c0,0-0.1,0.1-0.1,0.1c0,0-0.2,0.1-0.1,0.1c-0.1,0.1-0.2,0.1-0.3,0.2c0,0-0.2,0.1-0.1,0c-0.1,0-0.1,0.1-0.2,0.1
		c-0.5,0.2-1,0.1-1.6-0.1c-0.2-0.1-0.4-0.2-0.6-0.4c0.1,0.1-0.1-0.1-0.1-0.1c0,0-0.1-0.1-0.1-0.1c-0.1-0.1,0,0.1-0.1-0.1
		c0-0.1-0.1-0.1-0.1-0.2c0,0-0.1-0.2,0-0.1c0-0.1,0-0.1-0.1-0.2c0-0.1,0-0.1,0-0.2c0,0,0-0.2,0-0.1c0-0.1,0-0.2,0-0.4
		c0-0.1,0-0.1,0-0.2c0,0,0-0.1,0-0.1c0,0.1,0,0.1,0,0c0-0.1,0.1-0.2,0.1-0.3c0,0,0.1-0.2,0-0.1c0,0,0-0.1,0.1-0.1
		c0.1-0.1,0.1-0.2,0.2-0.3c0,0,0.1-0.1,0,0c0-0.1,0.1-0.1,0.1-0.2c0.1-0.1,0.2-0.2,0.2-0.2c0,0,0.1-0.1,0.1-0.1c-0.1,0.1,0,0,0,0
		c0.1-0.1,0.2-0.1,0.3-0.2c0.1,0,0.1-0.1,0.2-0.1c-0.1,0.1,0,0,0,0c0.1,0,0.2-0.1,0.3-0.1c0,0,0.2,0,0,0c0.1,0,0.1,0,0.2,0
		c0.1,0,0.2,0,0.3,0c0.2,0-0.2,0,0,0c0.1,0,0.1,0,0.2,0c0.1,0,0.1,0,0.2,0c0.1,0,0.2,0.1,0,0c0.1,0.1,0.2,0.1,0.3,0.2
		c0.1,0,0.1,0.1,0.2,0.1c-0.1-0.1,0.1,0,0.1,0.1C19.7,52.2,19.8,52.3,19.9,52.4c0.3,0.3,0.8,0.3,1,0c0.3-0.3,0.3-0.7,0-1
		c-0.8-1-2.1-1.4-3.4-1.1c-1.3,0.3-2.3,1.4-2.6,2.6c-0.2,0.7-0.2,1.4,0.1,2.1c0.3,0.8,0.9,1.3,1.6,1.7c1.4,0.7,3.2,0.5,4.4-0.7
		c1.2-1.3,1.1-3.2,0-4.6c-0.3-0.3-0.8-0.3-1,0C19.6,51.7,19.6,52.1,19.9,52.4L19.9,52.4z"/>
	<path class="st0" d="M11.3,55.4c-0.1,0-0.1,0.1-0.2,0.1c-0.1,0.1,0,0,0,0c-0.1,0-0.2,0.1-0.4,0.1c-0.1,0-0.1,0-0.2,0
		c0,0-0.2,0-0.1,0c0.1,0-0.1,0-0.1,0c-0.1,0-0.1,0-0.2,0c-0.1,0-0.2,0-0.3,0c-0.2,0,0.1,0-0.1,0c-0.1,0-0.1,0-0.2,0
		c-0.1,0-0.2-0.1-0.3-0.1c0,0-0.1,0-0.1-0.1c0.1,0.1,0,0-0.1,0c-0.1,0-0.2-0.1-0.3-0.2c0,0-0.2-0.1-0.1,0c0,0-0.1-0.1-0.1-0.1
		c-0.1-0.1-0.1-0.1-0.2-0.2c-0.1-0.1,0.1,0.1,0,0c0-0.1-0.1-0.1-0.1-0.2c0,0-0.2-0.3-0.1-0.2c0-0.1-0.1-0.2-0.1-0.4
		c0-0.1,0-0.1,0-0.2c0,0.1,0,0,0-0.1c0-0.1,0-0.3,0-0.4c0-0.1,0-0.3,0-0.4c0-0.1,0,0.2,0,0c0,0,0-0.1,0-0.2c0,0,0-0.1,0-0.1
		c0,0,0.1-0.2,0-0.1c0,0.1,0-0.1,0-0.1c0,0,0.1-0.1,0.1-0.1c0.1-0.2-0.1,0.1,0,0c0,0,0.1-0.1,0.1-0.1c0,0,0.1-0.1,0.1-0.1
		c0,0,0.2-0.1,0.1-0.1c0.1-0.1,0.4-0.3,0.7-0.4c0.4-0.2,1-0.3,1.4-0.2c0.4,0.1,0.8,0.3,1.1,0.7c0.3,0.5,0.5,1.2,0.4,1.8
		C12.2,54.7,11.8,55.2,11.3,55.4c-0.8,0.5-0.1,1.7,0.8,1.3c1.5-0.9,2.1-2.7,1.5-4.3c-0.3-0.8-0.8-1.5-1.6-1.9
		c-0.7-0.3-1.6-0.4-2.4-0.2c-1.3,0.3-2.6,1.2-2.8,2.6c-0.2,1.4,0.1,2.8,1.3,3.7s2.8,0.9,4.1,0.2c0.3-0.2,0.5-0.7,0.3-1
		C12.1,55.3,11.7,55.2,11.3,55.4L11.3,55.4z"/>
	<path class="st0" d="M5.3,61.1c-1.2,0.2-2.3,0.9-3,1.9c-0.9,1.1-1.1,2.4-1.1,3.8c0,1.7,0,3.3,0,5c0,1.5-0.1,3.2,0.5,4.5
		c1.2,2.7,4.3,2.8,6.8,2.8c3.3,0,6.6,0,9.8,0h20.4c3.4,0,6.8,0,10.2,0c1.4,0,2.9-0.1,4.2-0.9c1.3-0.8,1.8-1.9,1.9-3.3
		c0.1-1.8,0-3.7-0.1-5.5c0-1.5,0-3-0.2-4.4c-0.2-1.3-0.9-2.6-2.1-3.2c-1.3-0.7-2.8-0.7-4.2-0.8c-0.9-0.1-0.9,1.4,0,1.5
		c1.1,0.1,2.3,0.1,3.3,0.5c1,0.4,1.5,1.4,1.6,2.4c0.2,1.1,0.1,2.3,0.1,3.4c0,1.5,0.1,2.9,0.1,4.4c0,1.2,0.2,2.7-0.9,3.6
		c-1.1,0.9-2.5,0.9-3.7,0.9c-3,0-6,0-9,0c-6.1,0-12.2,0-18.3,0c-3,0-6,0-9,0c-1.4,0-2.8,0-4.3,0c-1.2,0-2.4,0-3.5-0.3
		c-1.4-0.5-2-1.6-2.1-3.1c-0.1-1.6-0.1-3.3-0.1-4.9c0-1.5-0.2-3.3,0.4-4.6c0.5-1.1,1.5-2,2.7-2.2C6.7,62.4,6.3,61,5.3,61.1L5.3,61.1
		z"/>
	<path class="st0" d="M13.1,68.6c-0.6-1.1-1.7-1.8-2.9-1.9c-1.3,0-2.5,0.7-3.1,1.7c-0.8,1.3-0.7,3,0.3,4.2c1.1,1.2,2.9,1.3,4.4,0.5
		C13.2,72.2,13.8,70.3,13.1,68.6c-0.2-0.4-0.7-0.5-1-0.3c-0.4,0.2-0.4,0.6-0.3,1c0.2,0.3,0.2,0.8,0.1,1.2c0,0.1,0,0.1-0.1,0.2
		c0,0,0,0.1,0,0c0,0.1-0.1,0.2-0.2,0.3c0,0-0.1,0.2-0.1,0.1c0,0-0.1,0.1-0.1,0.1c-0.1,0.1-0.2,0.2-0.3,0.3c-0.5,0.3-1,0.5-1.5,0.5
		c-0.1,0-0.1,0-0.2,0c-0.3,0,0.1,0-0.1,0c-0.1,0-0.2-0.1-0.4-0.1c0.1,0,0,0,0,0c-0.1,0-0.1-0.1-0.2-0.1c-0.2-0.1-0.1-0.1-0.3-0.2
		c-0.3-0.3-0.5-0.7-0.6-1.1c-0.1-0.4,0-0.9,0.2-1.3c0.1-0.2,0.2-0.3,0.4-0.5c0.1-0.1,0.2-0.1,0.2-0.2c-0.1,0.1,0,0,0.1,0
		c0,0,0.1-0.1,0.2-0.1c0.1-0.1,0.2-0.1,0.3-0.1c0.2-0.1-0.1,0,0,0c0,0,0.1,0,0.1,0c0.1,0,0.2-0.1,0.3-0.1c0,0,0.2,0,0.1,0
		c-0.1,0,0.1,0,0.1,0c0.1,0,0.2,0,0.3,0c0,0,0.1,0,0.1,0c-0.2,0,0,0,0.1,0c0.1,0,0.2,0.1,0.3,0.1c0.2,0.1-0.1-0.1,0,0
		c0.1,0,0.1,0.1,0.2,0.1s0.1,0.1,0.2,0.1c0,0,0.2,0.1,0,0c0.1,0.1,0.2,0.2,0.3,0.3c0,0,0.1,0.1,0.1,0.1c0.1,0.1,0.1,0.1,0,0
		c0,0,0,0.1,0.1,0.1c0.1,0.1,0.1,0.2,0.2,0.4c0.2,0.4,0.7,0.5,1,0.3C13.2,69.4,13.2,69,13.1,68.6L13.1,68.6z"/>
	<path class="st0" d="M21,68.1c-0.7-0.9-1.9-1.4-3.1-1.3c-1.3,0.2-2.3,1-2.7,2.2c-0.5,1.3-0.1,2.9,1,3.9c1.1,0.9,2.8,1.1,4,0.3
		c0.7-0.5,1.2-1.2,1.4-2.1c0.1-0.5,0.2-1,0.1-1.5C21.6,69,21.3,68.6,21,68.1c-0.3-0.3-0.8-0.3-1,0c-0.3,0.3-0.3,0.7,0,1
		c0.3,0.4,0.3,0.9,0.2,1.5c-0.1,0.3-0.1,0.5-0.3,0.8c0,0,0,0.1-0.1,0.1c0.1-0.1,0,0.1-0.1,0.1c-0.1,0.1-0.2,0.2-0.3,0.3
		c0.1-0.1-0.1,0-0.1,0c0,0-0.1,0-0.1,0.1c-0.1,0-0.1,0.1-0.2,0.1c-0.2,0.1,0.1,0-0.1,0c-0.1,0-0.2,0.1-0.3,0.1c0,0-0.2,0-0.1,0
		c0.1,0-0.2,0-0.2,0c-0.1,0-0.2,0-0.3,0c0.2,0-0.1,0-0.1,0c-0.1,0-0.1,0-0.2,0c-0.1,0-0.1,0-0.2-0.1c0.1,0-0.1,0-0.1,0
		c0,0-0.1,0-0.1-0.1c0,0-0.2-0.2-0.1-0.1c-0.4-0.3-0.6-0.7-0.8-1.1c0-0.1-0.1-0.2-0.1-0.3c0,0.2,0-0.1,0-0.1c0,0,0-0.1,0-0.1
		c0-0.1,0-0.1,0-0.2c0-0.2,0,0.1,0-0.1c0-0.1,0.1-0.3,0.1-0.4c0,0,0-0.1,0-0.1c0.1-0.2-0.1,0.1,0-0.1c0-0.1,0.1-0.2,0.1-0.3
		c0,0,0.1-0.1,0.1-0.1c-0.1,0.1,0,0,0,0c0.1-0.1,0.2-0.2,0.3-0.3c0,0,0.1,0,0.1-0.1c-0.1,0.1,0,0,0,0c0.1,0,0.2-0.1,0.2-0.1
		c0,0,0.1,0,0.1-0.1c-0.2,0.1-0.1,0,0,0c0.1,0,0.2-0.1,0.3-0.1c0,0,0.1,0,0.1,0c-0.2,0,0,0,0.1,0c0.1,0,0.2,0,0.3,0c0,0,0.1,0,0.1,0
		c-0.2,0,0,0,0.1,0c0.1,0,0.2,0.1,0.3,0.1c0,0,0.2,0.1,0,0c0.1,0,0.1,0,0.2,0.1c0.1,0.1,0.2,0.1,0.3,0.2c0,0,0.2,0.1,0,0
		c0,0,0.1,0.1,0.1,0.1c0.1,0.1,0.2,0.2,0.3,0.3c0.3,0.3,0.8,0.3,1,0C21.3,68.9,21.2,68.4,21,68.1L21,68.1z"/>
	<path class="st0" d="M42.2,76.2c0.1,0,0.2,0,0.3,0L42.2,76.2c0.7-0.1,1.3-0.1,1.9-0.1c0.2,0,0.4-0.1,0.5-0.2
		c0.1-0.1,0.2-0.3,0.2-0.5c0-0.2-0.1-0.4-0.2-0.5c-0.1-0.1-0.3-0.2-0.5-0.2c-0.8-0.1-1.5,0-2.2,0.1c-0.2,0-0.4,0.2-0.4,0.3
		c-0.1,0.2-0.1,0.4-0.1,0.6c0.1,0.2,0.2,0.3,0.3,0.4C41.8,76.3,42,76.3,42.2,76.2L42.2,76.2z"/>
	<path class="st0" d="M50.4,72.2c0,0.1,0.1,0.3,0.1,0.4c0,0.1,0,0,0,0l0,0.1c0,0.1,0,0.2,0,0.2c0,0.2,0,0.5,0,0.7c0,0,0,0.2,0,0.1
		c0,0.1,0,0.1,0,0.2c0,0.1,0,0.1-0.1,0.2c0.1-0.1-0.1,0.1-0.1,0.1l0,0.1c0,0,0,0,0,0c0,0-0.1,0.1-0.1,0.1c0,0-0.2,0.1-0.1,0.1
		c0,0-0.1,0.1-0.1,0.1c-0.1,0.1-0.2,0.1-0.3,0.2c-0.1,0,0.1,0-0.1,0c-0.1,0-0.1,0-0.2,0.1c-0.1,0-0.2,0.1-0.3,0.1
		c-0.1,0-0.1,0-0.2,0c0.1,0,0,0-0.1,0c-0.6,0.1-1.2,0-1.8,0c-0.4,0-0.8,0.4-0.7,0.7c0,0.4,0.3,0.7,0.7,0.7c1.3,0.1,2.8,0.1,3.9-0.7
		c0.3-0.2,0.6-0.5,0.8-0.8c0.2-0.3,0.3-0.7,0.3-1.1c0.1-0.6,0-1.4-0.2-2c-0.1-0.4-0.5-0.6-0.9-0.5C50.5,71.4,50.2,71.8,50.4,72.2
		L50.4,72.2z"/>
	<path class="st0" d="M28.7,11.8c0.4,1.9,1.8,3.7,3.6,4.5c0.3,0.2,0.8,0.1,1-0.3c0.2-0.3,0.1-0.8-0.3-1c-0.2-0.1-0.4-0.2-0.6-0.3
		c-0.1-0.1-0.2-0.1-0.3-0.2c0,0-0.1-0.1-0.1-0.1c-0.1-0.1,0,0,0,0c-0.3-0.3-0.6-0.6-0.9-0.9c-0.1-0.1,0,0.1,0,0c0,0-0.1-0.1-0.1-0.1
		c-0.1-0.1-0.1-0.2-0.2-0.3c-0.1-0.2-0.2-0.4-0.3-0.6c0-0.1,0-0.1-0.1-0.2c-0.1-0.1,0,0.1,0,0c0-0.1-0.1-0.2-0.1-0.3
		c-0.1-0.2-0.1-0.4-0.2-0.6c-0.1-0.4-0.5-0.6-0.9-0.5C28.8,11,28.6,11.4,28.7,11.8L28.7,11.8z"/>
	<path class="st0" d="M34,17.2c0.7,0.2,1.4,0.4,2,0.7c0.2,0.1,0.4,0,0.6-0.1c0.1-0.1,0.3-0.3,0.3-0.4c0-0.2,0-0.4-0.1-0.6l-0.1-0.1
		c-0.1-0.1-0.2-0.2-0.3-0.2c-0.7-0.3-1.3-0.5-2-0.7c-0.4-0.1-0.8,0.1-0.9,0.5C33.4,16.6,33.6,17,34,17.2L34,17.2z"/>
	<path class="st0" d="M66.3,5.6l2.3,0.6c0.4,0.1,0.8-0.1,0.9-0.5C69.6,5.4,69.4,5,69,4.9l-2.3-0.6c-0.4-0.1-0.8,0.1-0.9,0.5
		C65.7,5.1,65.9,5.5,66.3,5.6z"/>
	<path class="st0" d="M70.1,7.3c1.6,0.6,3.2,1.5,4.5,2.6c0.3,0.3,0.8,0.3,1,0c0.3-0.3,0.3-0.8,0-1c-1.5-1.4-3.2-2.4-5.1-3
		c-0.4-0.1-0.8,0.1-0.9,0.5C69.5,6.8,69.8,7.2,70.1,7.3L70.1,7.3z"/>
	<path class="st0" d="M75.5,11c0.1,0.2,0.1,0.4,0.2,0.7c0,0.1,0,0.2,0.1,0.3c0,0.1,0-0.1,0-0.1c0,0,0,0.1,0,0.1c0,0.1,0,0.1,0,0.2
		c0,0.1,0,0.2,0,0.3c0,0,0,0.1,0,0.1c0,0.1,0-0.2,0-0.1c0,0.1,0,0.1,0,0.2c0,0,0,0.1,0,0.1c0,0.1,0-0.1,0-0.1c0,0,0,0.1,0,0.1
		c0,0-0.1,0.1-0.1,0.1c-0.1,0.1,0,0,0,0c0.1-0.1,0,0,0,0c-0.3,0.3-0.3,0.8,0,1c0.3,0.3,0.8,0.3,1,0c0.4-0.5,0.6-1.1,0.6-1.8
		c0-0.6-0.1-1.1-0.3-1.7c-0.1-0.4-0.5-0.6-0.9-0.5C75.6,10.2,75.4,10.6,75.5,11L75.5,11z"/>
	<path class="st0" d="M75.5,43.3l0.2,2.4c0,0.4,0.1,0.7,0.1,1.1c0,0.3,0,0.5-0.2,0.8c-0.7,0.9-1.9,1.5-3,1.5c-0.9,0-0.9,1.5,0,1.5
		c1.6,0,3.1-0.8,4.1-2c0.3-0.4,0.5-0.7,0.5-1.2c0.1-0.4,0-0.8,0-1.3L77,43.3c0-0.4-0.3-0.7-0.7-0.7C75.9,42.6,75.5,42.9,75.5,43.3z"
		/>
	<path class="st0" d="M49.1,42.5c1.8,0.3,3.7,0.7,5.1,2c0.6,0.6,1,1.3,1.2,2.2c0.2,1,0.3,2.1,0.5,3.2c0,0.4,0.3,0.7,0.7,0.7
		c0.4,0,0.8-0.3,0.7-0.7c-0.1-1.2-0.3-2.4-0.5-3.5c-0.2-1-0.7-2-1.5-2.8c-1.5-1.6-3.7-2.2-5.8-2.5c-0.4-0.1-0.8,0.1-0.9,0.5
		C48.5,41.9,48.7,42.4,49.1,42.5L49.1,42.5z"/>
	<path class="st0" d="M47.3,59.7c0.7,0,1.5,0,2.2-0.3c0.7-0.2,1.4-0.5,1.9-1.1c0.4-0.6,0.6-1.4,0.7-2.2c0.1-0.7,0-1.5-0.1-2.2
		c-0.1-0.4-0.5-0.6-0.9-0.5c-0.4,0.1-0.6,0.5-0.5,0.9c0.1,0.3,0.1,0.5,0.1,0.8c0,0.3,0,0.6,0,0.9c0,0.1,0,0,0,0.1c0,0.1,0,0.1,0,0.2
		c0,0.1-0.1,0.3-0.1,0.4c-0.1,0.3-0.1,0.5-0.3,0.7c0,0-0.2,0.2-0.1,0.1c-0.1,0.1-0.2,0.1-0.3,0.2c0,0-0.2,0.1-0.1,0.1
		c0.1,0-0.1,0-0.1,0.1C49.3,58,49.1,58,49,58c-0.6,0.2-1.1,0.2-1.7,0.2c-0.4,0-0.8,0.4-0.7,0.7C46.6,59.4,46.9,59.7,47.3,59.7
		L47.3,59.7z"/>
	<path class="st0" d="M51.9,52l0.1-1.3c0-0.2-0.1-0.4-0.2-0.5c-0.1-0.1-0.3-0.2-0.5-0.2c-0.2,0-0.4,0.1-0.5,0.2l-0.1,0.1
		c-0.1,0.1-0.1,0.2-0.1,0.4L50.4,52c0,0.2,0.1,0.4,0.2,0.5c0.1,0.1,0.3,0.2,0.5,0.2c0.2,0,0.4-0.1,0.5-0.2l0.1-0.1
		C51.9,52.3,51.9,52.1,51.9,52z"/>
</g>
</svg>
