<?xml version="1.0" encoding="utf-8"?>
<!-- Generator: Adobe Illustrator 27.3.1, SVG Export Plug-In . SVG Version: 6.00 Build 0)  -->
<svg version="1.1" id="Layer_1" xmlns="http://www.w3.org/2000/svg" xmlns:xlink="http://www.w3.org/1999/xlink" x="0px" y="0px"
	 viewBox="0 0 80 81" style="enable-background:new 0 0 80 81;" xml:space="preserve">
<style type="text/css">
	.st0{fill:#231F20;}
</style>
<g>
	<path class="st0" d="M53.8,65.4c-5.8,0.1-11.7,0-17.5-0.2c-1.4-0.1-2.9-0.1-4.3-0.2c-1.2-0.1-2.3-0.4-3.1-1.4
		c-1.6-2-1.1-4.9-1.1-7.3c0.4-11.6,0.2-23.2,0.1-34.8c0-1.6,0-3.1,0-4.7c0-1.4-0.2-2.9,0.2-4.2c0.4-1.4,1.3-2.2,2.7-2.4
		c1.5-0.3,3,0,4.5-0.2l-0.9-0.7c-0.1,1.6,0,3.6,1.4,4.6c0.9,0.6,1.9,0.7,2.9,0.7c1.2,0,2.3,0,3.5,0c1.2,0,2.3,0,3.5-0.1
		c1.1-0.1,2.4,0,3.4-0.3c0.9-0.3,1.5-1,1.9-1.8c0.4-1,0.4-2.1,0.3-3.2l-0.7,0.7c2.1-0.2,4.9-0.9,6.5,0.9c0.7,0.8,1,2,1.1,3.1
		c0.1,1.4,0.1,2.8,0.1,4.3c0,6.2-0.4,12.4-0.5,18.6c0,3.5,0,7,0.2,10.6c0.1,0.9,1.4,0.9,1.4,0c-0.4-6.6-0.2-13.2,0-19.7
		c0.1-3.3,0.2-6.6,0.2-9.9c0-2.5,0.3-5.5-1.4-7.6c-1.9-2.4-5-1.8-7.7-1.6c-0.4,0-0.7,0.3-0.7,0.7c0,0.9,0.2,1.8-0.2,2.7
		c-0.4,0.8-1,1-1.8,1.1c-1.9,0.1-3.8,0.2-5.7,0.2c-0.9,0-1.9,0-2.8,0c-0.8,0-1.9,0.1-2.6-0.3c-1.2-0.6-1.1-2.4-1-3.6
		c0-0.5-0.5-0.7-0.9-0.7c-2.5,0.4-5.5-0.5-7.3,1.9c-1.6,2.1-1,5.1-1.1,7.6c0,6.1,0.1,12.2,0.1,18.3c0,6.1,0,12.3-0.2,18.5
		c-0.1,2.7-0.6,5.8,0.5,8.3c0.4,1,1.2,2,2.1,2.5c1.2,0.7,2.6,0.7,3.9,0.7c6.9,0.3,13.8,0.5,20.7,0.4C54.7,66.8,54.7,65.4,53.8,65.4
		L53.8,65.4z"/>
	<path class="st0" d="M32.3,60.2c6.7,0.4,13.4,0.5,20.1,0.3c0.9,0,0.9-1.4,0-1.4c-6.7,0.2-13.4,0.1-20.1-0.3
		C31.4,58.8,31.4,60.2,32.3,60.2z"/>
	<path class="st0" d="M50,18.6c-3.6-2.3-8.6-2.7-12.5-0.7c-4.3,2.1-6.7,7.7-6.1,12.3c0.3,2.3,1.3,4.5,3,6.1c1.8,1.8,4.2,2.8,6.7,3.1
		c4.6,0.5,10.1-1.3,12.3-5.7c1.3-2.5,1.5-5.5,1-8.3C53.9,22.7,52.4,20.2,50,18.6c-0.8-0.5-1.4,0.7-0.7,1.2c1.9,1.3,3.1,3.1,3.6,5.3
		c0.5,2.2,0.5,4.6-0.2,6.7C51.4,35.9,47,38,42.9,38c-2.3,0-4.7-0.5-6.6-1.9c-1.6-1.2-2.7-2.9-3.3-4.9c-0.6-2.2-0.3-4.5,0.5-6.6
		c0.7-1.9,1.9-3.8,3.7-5c3.5-2.4,8.6-2.1,12.1,0.1C50,20.3,50.7,19,50,18.6L50,18.6z"/>
	<path class="st0" d="M45.1,34.6c0.1-0.7-0.1-1.5-0.7-2c-0.6-0.5-1.3-0.6-2-0.5c-0.7,0.1-1.3,0.6-1.5,1.2c-0.4,1,0.2,2.2,1.1,2.6
		c0.6,0.3,1.4,0.4,2,0C44.5,35.8,45,35.2,45.1,34.6c0.1-0.4-0.1-0.8-0.5-0.9c-0.3-0.1-0.8,0.1-0.9,0.5c0,0.1-0.1,0.2-0.1,0.2
		c0,0,0.1-0.1,0-0.1c0,0,0,0,0,0.1c0,0-0.1,0.1-0.1,0.1c0,0.1,0-0.1,0-0.1c0,0,0,0,0,0c0,0-0.1,0.1-0.1,0.1c0,0-0.1,0.1,0,0
		c0.1-0.1,0,0-0.1,0c0,0-0.1,0-0.1,0.1c-0.1,0,0.1,0,0.1,0c0,0,0,0-0.1,0c0,0-0.1,0-0.1,0c0,0,0,0-0.1,0c-0.1,0,0,0,0.1,0
		c0,0-0.1,0-0.1,0c0,0-0.1,0-0.1,0c0,0,0.1,0,0.1,0c0,0-0.1,0-0.1,0c-0.1,0-0.1,0-0.2-0.1c-0.1,0,0.1,0,0.1,0c0,0-0.1,0-0.1,0
		c0,0-0.1,0-0.1-0.1c0,0-0.1-0.1-0.1,0c0.1,0.1,0,0-0.1-0.1c0,0-0.1-0.1-0.1-0.1c0,0,0,0,0,0c-0.1-0.1,0,0.1,0,0.1
		c0-0.1-0.1-0.2-0.1-0.2c-0.1-0.1,0,0.1,0,0c0,0,0-0.1,0-0.1c0,0,0-0.1,0-0.1c0-0.1,0,0.2,0,0c0,0,0-0.1,0-0.1c0,0,0,0,0-0.1
		c0,0,0,0.2,0,0.1c0-0.1,0-0.1,0.1-0.2c0-0.1,0,0.1,0,0.1c0,0,0-0.1,0-0.1c0,0,0.1-0.1,0.1-0.1c0,0-0.1,0.1,0,0.1c0,0,0,0,0.1-0.1
		c0,0,0,0,0.1-0.1c0,0,0,0,0,0c0.1-0.1-0.1,0.1-0.1,0.1c0,0,0.1-0.1,0.1-0.1c0,0,0,0,0.1,0c0.1-0.1,0,0-0.1,0c0,0,0.1,0,0.1,0
		c0.1,0,0.1,0,0.2,0c0,0,0.1,0,0,0c-0.1,0,0,0,0,0c0.1,0,0.1,0,0.2,0c0.1,0,0.1,0,0.1,0c0.1,0-0.1,0-0.1,0c0,0,0.1,0,0.1,0
		c0.1,0,0.2,0.1,0.3,0.1c0,0-0.2-0.1-0.1,0c0,0,0,0,0.1,0c0,0,0.1,0.1,0.1,0.1c0,0,0,0,0.1,0.1c0,0-0.1-0.1-0.1,0
		c0,0,0.1,0.1,0.1,0.1c0,0,0,0,0.1,0.1c0,0-0.1-0.2,0-0.1c0,0.1,0.1,0.1,0.1,0.1c0.1,0.1-0.1-0.1,0-0.1c0,0,0,0.1,0,0.1
		c0,0,0,0.1,0,0.1c0,0,0,0.2,0,0c0-0.1,0,0,0,0c0,0,0,0.1,0,0.1c0,0,0,0.1,0,0.1c0,0.1,0-0.2,0,0c0,0.2,0,0.4,0.1,0.5
		c0.1,0.1,0.2,0.3,0.4,0.3C44.6,35.2,45,35,45.1,34.6L45.1,34.6z"/>
	<path class="st0" d="M40.7,27.6c0,0.9,0.4,1.7,1.1,2.2c0.7,0.5,1.6,0.4,2.3-0.1c1.3-0.9,1.4-2.5,1.4-3.9c0-0.7,0-1.4-0.1-2.1
		s0-1.4-0.1-2.1c-0.2-0.9-0.7-1.7-1.6-2c-0.9-0.3-1.7,0.1-2.3,0.8c-0.7,0.9-0.5,2.2-0.5,3.3C40.7,25.1,40.7,26.3,40.7,27.6
		c0,0.9,1.4,0.9,1.4,0c0-1.8,0-3.6,0.1-5.3c0-0.5,0.1-1.1,0.7-1.3c0.5-0.2,0.9,0.3,1,0.7c0.1,0.5,0.1,1,0.1,1.5c0,0.5,0.1,1,0.1,1.6
		c0,1,0.1,2.2-0.3,3.2c-0.1,0.2-0.2,0.3-0.3,0.4c-0.2,0.2-0.4,0.3-0.7,0.3c-0.5-0.1-0.7-0.7-0.7-1.1C42.1,26.8,40.7,26.8,40.7,27.6
		L40.7,27.6z"/>
	<path class="st0" d="M42.1,23.1L42.1,23.1l0.2,0.2l0.1,0.1v0.4c0-0.1-0.1,0.1-0.1,0.1c-0.1,0.1,0,0,0,0c0-0.1,0.1-0.1,0.1-0.1
		c0.1-0.1,0.2-0.2,0.3-0.3c0.2-0.2,0.4-0.4,0.6-0.6c0.4-0.4,0.8-0.8,1.3-1.1c0.1-0.1,0.2-0.3,0.2-0.5c0-0.2-0.1-0.4-0.2-0.5
		c-0.1-0.1-0.3-0.2-0.5-0.2c-0.2,0-0.3,0.1-0.5,0.2c-0.5,0.4-1,0.8-1.4,1.3c-0.2,0.2-0.4,0.5-0.7,0.7c-0.1,0.1-0.3,0.3-0.4,0.4
		c-0.2,0.4-0.1,0.9,0.3,1.1c0.3,0.2,0.8,0.1,0.9-0.3C42.5,23.7,42.5,23.3,42.1,23.1L42.1,23.1z"/>
	<path class="st0" d="M42.5,26.7c0.8-0.9,1.7-1.8,2.6-2.7c0.3-0.3,0.3-0.7,0-1c-0.3-0.3-0.7-0.3-1,0c-0.9,0.9-1.8,1.7-2.6,2.7
		c-0.2,0.3-0.3,0.7,0,1C41.8,26.9,42.3,27,42.5,26.7z"/>
	<path class="st0" d="M42.8,29.3c0.6-0.5,1.1-1,1.7-1.5c0.1-0.1,0.2-0.3,0.2-0.5c0-0.2-0.1-0.4-0.2-0.5c-0.1-0.1-0.3-0.2-0.5-0.2
		l-0.2,0c-0.1,0-0.2,0.1-0.3,0.2c-0.6,0.5-1.2,1-1.7,1.5c-0.3,0.3-0.3,0.7,0,1C42.1,29.6,42.5,29.6,42.8,29.3z"/>
	<path class="st0" d="M42.4,35.4c0.7-0.4,1.3-1,1.9-1.6c0.1-0.1,0.2-0.3,0.2-0.5c0-0.2-0.1-0.4-0.2-0.5c-0.1-0.1-0.3-0.2-0.5-0.2
		c-0.2,0-0.4,0.1-0.5,0.2c-0.3,0.4-0.7,0.8-1.1,1.1l0.1-0.1c-0.2,0.1-0.4,0.3-0.6,0.4c-0.2,0.1-0.3,0.2-0.3,0.4s0,0.4,0.1,0.5
		C41.7,35.4,42.1,35.6,42.4,35.4L42.4,35.4z"/>
	<path class="st0" d="M63.7,34.4c0-3.7,0.1-7.4,0.2-11.1c0-1.8,0.1-3.7,0.1-5.5c0-0.9,0-1.8,0-2.7c0.1-1.4,0.1-2.8-0.4-4.1
		c-0.8-2.3-2.4-4.4-4.5-5.7c-1.9-1.2-4.1-1.6-6.4-1.7c-2.7-0.1-5.5-0.1-8.2-0.1c-3,0-6,0-9.1,0.1c-2.6,0-5.3-0.2-7.8,0.9
		c-2.1,0.9-3.9,2.7-4.9,4.8c-1.2,2.6-1,5.4-0.9,8.1c0.1,3.1,0.2,6.1,0.2,9.2c0.1,6.1-0.2,12.1-0.4,18.2c-0.1,3-0.1,6-0.2,8.9
		c-0.1,3-0.3,5.7,0.2,8.5c0.4,2.6,1.4,5.3,3.5,7c1.8,1.5,4.1,1.9,6.4,2c1.2,0,2.4-0.1,3.5-0.1c1.3,0,2.6,0,3.9,0c2.8,0,5.6,0,8.4,0
		c1.3,0,2.7,0,4,0c0.9,0,0.9-1.4,0-1.4c-5.3-0.1-10.6-0.1-15.8-0.1c-2.2,0-4.5,0.3-6.6-0.2c-2.4-0.5-4.2-2.1-5.1-4.4
		c-1-2.5-1.2-5.2-1.2-7.9c0-2.7,0.1-5.6,0.2-8.4c0.1-5.8,0.4-11.5,0.5-17.3c0-2.9,0-5.8-0.1-8.8c-0.1-2.9-0.3-5.7-0.3-8.6
		c0.1-2.5,0.7-4.8,2.5-6.6c1.8-1.8,4-2.5,6.4-2.6C35,4.9,37.7,5,40.4,5c2.9,0,5.8,0,8.7,0c2.2,0,4.5-0.1,6.7,0.5
		c2.2,0.5,4.1,1.8,5.4,3.7c0.7,1,1.3,2.2,1.5,3.5c0.2,1.2,0,2.6,0,3.9c0,1.6,0,3.1,0,4.7c-0.1,3.8-0.2,7.5-0.2,11.3c0,0.7,0,1.3,0,2
		C62.4,35.3,63.7,35.3,63.7,34.4L63.7,34.4z"/>
	<path class="st0" d="M22,59.4c-2.5,0-4.7-1.9-5-4.5c-0.1-1.3,0.7-2.5,1.6-3.4c0.9-0.8,2.1-1.1,3.2-1c0.4,0.1,0.7-0.1,0.9-0.5
		c0.1-0.3-0.1-0.8-0.5-0.9c-1.5-0.2-3.1,0.1-4.3,1.1c-1.2,1-2.3,2.7-2.2,4.4c0.2,3.4,3,6,6.4,6.1C22.9,60.8,22.9,59.4,22,59.4z"/>
	<path class="st0" d="M21.9,47.7c-1.2-0.1-2.6-0.1-3.5-1.1c-0.7-0.8-1-1.8-0.9-2.8c0.1-2.5,2.2-4.3,4.7-4c0.4,0,0.7-0.3,0.7-0.7
		c0-0.4-0.3-0.7-0.7-0.7c-2.5-0.3-4.9,1.3-5.7,3.6c-0.7,2-0.4,4.5,1.3,5.9c1.2,1,2.7,1.1,4.1,1.2C22.8,49.1,22.8,47.7,21.9,47.7
		L21.9,47.7z"/>
	<path class="st0" d="M11.9,18c1.8,1.7,3.5,3.5,4.8,5.6c0.2,0.3,0.6,0.4,0.9,0.3c0.3-0.2,0.5-0.6,0.2-1c-1.4-2.2-3.1-4.1-5-5.9
		c-0.3-0.3-0.7-0.3-1,0C11.6,17.2,11.6,17.7,11.9,18z"/>
	<path class="st0" d="M8.8,28.5c1.2,0,2.3,0,3.5,0c0.6,0,1.1,0.1,1.7,0.1c0.3,0,0.6,0,0.8,0.1c0.2,0,0.3,0,0.5,0c0.1,0,0.1,0,0.2,0
		c-0.1,0-0.1,0,0,0l-0.2-0.3l0,0.1l-0.1-0.5l0,0.1c-0.1,0.4,0.1,0.8,0.5,0.9c0.3,0.1,0.8-0.1,0.9-0.5c0.1-0.4,0-0.8-0.4-1
		c-0.3-0.2-0.6-0.2-0.9-0.2c-0.7-0.1-1.4-0.1-2.2-0.2c-1.4-0.1-2.8-0.1-4.2-0.1C7.9,27.2,7.9,28.5,8.8,28.5L8.8,28.5z"/>
	<path class="st0" d="M12.7,38.6c1.5-1.8,3.1-3.5,5-5c0.3-0.2,0.5-0.6,0.2-1c-0.2-0.3-0.7-0.5-0.9-0.3c-2,1.5-3.7,3.2-5.3,5.2
		c-0.2,0.3-0.3,0.7,0,1C12,38.8,12.5,38.9,12.7,38.6L12.7,38.6z"/>
	<path class="st0" d="M48.3,43c0.7-1.3,1.5-2.7,3-3.3c1.5-0.6,3,0.3,4.3,1.1c0.8,0.5,1.5-0.7,0.7-1.2c-1.6-1-3.5-2-5.4-1.3
		c-1.9,0.7-2.9,2.3-3.8,3.9C46.6,43.1,47.8,43.8,48.3,43L48.3,43z"/>
	<path class="st0" d="M52.8,12.7c0.5-0.1,1-0.1,1.6-0.1c0.1,0,0.1,0,0,0c0,0,0.1,0,0.1,0c0.1,0,0.1,0,0.2,0c0.1,0,0.1,0,0.2,0.1
		c0,0,0.2,0.1,0,0c0.1,0.1,0.2,0.1,0.3,0.2c-0.1-0.1,0,0,0,0c0,0,0.1,0.1,0.1,0.1c-0.1-0.1,0,0,0,0c0,0.1,0.1,0.1,0.1,0.2
		c0.1,0.1,0-0.1,0,0c0,0.1,0,0.1,0.1,0.2c0,0.1,0.1,0.3,0.1,0.4c0-0.2,0,0,0,0c0,0.1,0,0.2,0,0.2c0,0.6,0,1.2,0.2,1.7
		c0.1,0.4,0.5,0.6,0.9,0.5c0.4-0.1,0.6-0.5,0.5-0.9c0-0.1,0-0.1,0-0.2c0-0.1,0-0.1,0,0c0,0,0-0.1,0-0.1c0-0.2,0-0.3,0-0.5
		c0-0.3,0-0.6-0.1-0.9c-0.1-0.7-0.3-1.3-0.7-1.9c-0.9-1-2.3-0.9-3.5-0.8c-0.4,0-0.7,0.3-0.7,0.7C52.1,12.4,52.4,12.8,52.8,12.7
		L52.8,12.7z"/>
	<path class="st0" d="M55.8,17.8c0,0.8,0,1.6,0,2.4c0,0.4,0.3,0.7,0.7,0.7c0.4,0,0.7-0.3,0.7-0.7c0-0.8,0-1.6,0-2.4
		c0-0.4-0.3-0.7-0.7-0.7C56.2,17.2,55.8,17.4,55.8,17.8z"/>
	<path class="st0" d="M28.9,32.9c1.1,3.6,3.6,6.6,6.9,8.3c0.8,0.4,1.5-0.8,0.7-1.2c-3-1.5-5.3-4.2-6.3-7.5
		C30,31.7,28.6,32.1,28.9,32.9z"/>
	<path class="st0" d="M38.4,42.2l1.3,0.1c0.2,0,0.4-0.1,0.5-0.2c0.1-0.1,0.2-0.3,0.2-0.5c0-0.2-0.1-0.4-0.2-0.5L40.1,41
		c-0.1-0.1-0.2-0.1-0.4-0.1l-1.3-0.1c-0.2,0-0.4,0.1-0.5,0.2c-0.1,0.1-0.2,0.3-0.2,0.5c0,0.2,0.1,0.4,0.2,0.5l0.1,0.1
		C38.1,42.2,38.2,42.2,38.4,42.2z"/>
	<path class="st0" d="M36.7,69.5c-1.5,0-2.9,0-4.4,0.3c-0.3,0.1-0.8,0.1-1,0.3c-0.3,0.2-0.4,0.5-0.3,0.8c0.3,1.2,0.8,2.4,1.4,3.5
		c0.6,1,1.3,2.2,2.4,2.6c0.6,0.2,1.2,0.2,1.8,0.2c0.8,0,1.5,0,2.3,0c1.5,0,2.9,0,4.4,0c5.9,0.1,11.8,0.2,17.6,0.2
		c1.6,0,3.2,0,4.8-0.1c1.6-0.1,3.3-0.2,4.9-0.2c0.3,0,0.6-0.2,0.7-0.5c0.4-1.3,0.3-2.8,0.2-4.1c-0.1-1.6,0-3.2,0-4.9
		c0.1-3.7,0.1-7.4,0.2-11.1c0-1.7,0-3.5,0.1-5.2c0.1-1.7,0.2-3.3,0.1-5c-0.1-3.1-1-6.2-2.3-8.9c-0.8-1.5-1.7-3-2.9-4.2
		c-1-1-2.1-1.7-3.6-1.7c-0.4,0-0.7,0.3-0.7,0.7v16.8c0,0.8,0,1.6,0,2.5l1-0.6c-3-1.4-4.7-4.4-6.7-6.9c-0.9-1.1-1.8-2.2-3.1-2.8
		c-1.4-0.7-2.8-0.5-4,0.5c-1.4,1.2-2.3,3.1-2.8,4.8c-0.6,1.8-0.7,3.8-0.4,5.7c0.3,1.9,1.1,3.6,2.3,5.1c0.5,0.6,1.1,1.1,1.8,1.6
		c0.5,0.4,1.1,0.8,1.2,1.5c0.2,0.9,0.3,1.9,0.5,2.8c0.2,0.9,0.5,1.8,0.8,2.6c0.7,1.8,1.9,3.5,3.3,4.8l0.5-1.2
		c-2.6,0.2-5.2,0.4-7.9,0.3c-3.3-0.1-6.7-0.2-10-0.2C38.2,69.6,37.4,69.5,36.7,69.5c-0.9,0-0.9,1.4,0,1.4c2.1,0.1,4.3,0.1,6.4,0.2
		c3.3,0.1,6.6,0.3,9.9,0.1c1.3-0.1,2.6-0.2,3.9-0.3c0.5-0.1,1-0.8,0.5-1.2c-2.5-2.2-3.5-5.1-4.1-8.3c-0.1-0.8-0.1-1.6-0.5-2.2
		c-0.3-0.6-0.9-1-1.4-1.4c-1.3-1-2.3-2.2-3-3.7c-1.4-3.3-0.8-7.3,1.2-10.2c0.7-1.1,1.8-2,3.2-1.5c1.2,0.5,2.1,1.6,2.8,2.5
		c2.1,2.7,3.9,5.7,7.1,7.2c0.5,0.2,1,0,1-0.6c0-5.6,0-11.2,0-16.8v-2.5L63,32.9c1.2,0,2.1,0.8,2.8,1.6c1,1.1,1.8,2.3,2.4,3.6
		c1.3,2.6,2.1,5.5,2.2,8.4c0,1.6-0.1,3.2-0.1,4.8c-0.1,1.6-0.1,3.1-0.1,4.7c0,3.5-0.1,7-0.2,10.5c0,1.8-0.1,3.5,0,5.3
		c0.1,1.4,0.4,3-0.1,4.4l0.7-0.5c-2.7,0-5.5,0.3-8.2,0.3c-2.7,0-5.5,0-8.3-0.1c-5.6-0.1-11.1-0.1-16.7-0.2c-0.7,0-1.5,0.1-2.1-0.1
		c-0.6-0.2-1-0.8-1.3-1.3c-0.8-1.2-1.3-2.5-1.7-3.9l-0.3,0.8c0.1-0.1-0.2,0,0,0c0.2-0.1,0.5-0.1,0.7-0.2c1.3-0.2,2.7-0.2,4-0.2
		C37.5,70.9,37.5,69.5,36.7,69.5L36.7,69.5z"/>
</g>
</svg>
