<?xml version="1.0" encoding="utf-8"?>
<!-- Generator: Adobe Illustrator 27.3.1, SVG Export Plug-In . SVG Version: 6.00 Build 0)  -->
<svg version="1.1" id="Layer_1" xmlns="http://www.w3.org/2000/svg" xmlns:xlink="http://www.w3.org/1999/xlink" x="0px" y="0px"
	 viewBox="0 0 80 80" style="enable-background:new 0 0 80 80;" xml:space="preserve">
<style type="text/css">
	.st0{fill:#231F20;}
</style>
<path class="st0" d="M14.5,10.5c-2.7-0.4-5.3,0.8-6.9,2.9c-1.8,2.2-2.3,5.1-2.5,7.9C4.9,24.6,5,28,5.2,31.3c0.1,3.3,0.2,6.5,0.2,9.8
	l0.2,10c0,2.7-0.1,5.7,1.1,8.2c1.1,2.2,3.2,3.4,5.5,4c2.6,0.6,5.3,0.6,8,0.7c3.3,0.1,6.5,0.1,9.8,0c3.3,0,6.6,0.1,9.9,0
	c1.6-0.1,3.2-0.2,4.8-0.3c1.6-0.1,3.3,0,5,0c3,0.1,6.1,0.3,9.1,0.4c5.1,0.3,11.1,0.1,14.1-4.7c1.6-2.5,1.4-5.6,1.4-8.5
	c-0.1-3.3-0.2-6.6-0.2-10c-0.2-6.7-0.3-13.4-0.5-20.2c-0.1-2.4-0.2-4.9-1.6-7c-1.4-2.1-3.7-3.3-6.2-3.3c-1.4,0-2.8,0.2-4.2,0.2
	c-1,0-1,1.5,0,1.5c2.6,0.1,5.2-0.8,7.6,0.8c1.8,1.2,2.6,3.3,2.8,5.3c0.2,1.3,0.1,2.7,0.2,4.1c0,1.6,0.1,3.2,0.1,4.7
	c0.1,3.2,0.1,6.3,0.2,9.5s0.1,6.3,0.2,9.5c0.1,3,0.3,6,0.1,9c-0.1,1.3-0.4,2.7-1.2,3.8c-0.7,1.1-1.7,2-2.8,2.6
	c-2.1,1.2-4.6,1.4-6.9,1.4c-5.7,0-11.4-0.7-17.1-0.5c-1.5,0.1-3.1,0.2-4.6,0.3c-1.5,0.1-3,0.1-4.6,0.1c-3.1,0-6.1,0-9.2,0
	c-3.1,0-6.2,0-9.3-0.2c-2.1-0.1-4.4-0.2-6.4-1.1c-2.3-1.1-3.2-3.3-3.4-5.6C6.9,52.6,7,49.7,7,46.8c-0.1-3.1-0.1-6.3-0.1-9.4
	c0-3.1-0.2-6.2-0.3-9.3c-0.1-3.1-0.2-6.1,0.3-9c0.4-2.5,1.5-5.1,3.8-6.4c1-0.6,2.2-0.9,3.4-0.7C15,12.1,15.4,10.7,14.5,10.5
	L14.5,10.5z"/>
<path class="st0" d="M31.9,63.4c0,1.1-0.5,2.2-0.8,3.2c-0.3,1-0.5,2-0.7,3c-0.4,2.1-0.7,4.2-0.9,6.3c-0.1,1,1.4,0.9,1.5,0
	c0.3-2.1,0.5-4.2,1-6.3c0.2-1,0.4-2,0.7-3c0.3-1,0.7-2.1,0.7-3.2C33.4,62.5,31.9,62.5,31.9,63.4z"/>
<path class="st0" d="M45.7,63.2c0.6,2.1,1.5,4.3,1.7,6.5c0.2,2.1,0.1,4.2,0.8,6.2c0.3,0.9,1.8,0.5,1.4-0.4c-0.7-2-0.5-4.2-0.8-6.3
	c-0.3-2.2-1.1-4.3-1.7-6.5C46.8,61.9,45.4,62.3,45.7,63.2L45.7,63.2z"/>
<path class="st0" d="M26.3,76.7c8.9,0.1,17.9,0.2,26.8,0.3c1,0,1-1.5,0-1.5c-8.9-0.1-17.9-0.2-26.8-0.3
	C25.4,75.2,25.4,76.7,26.3,76.7z"/>
<path class="st0" d="M38.9,58.1c-0.4,0-0.8,0-1.1-0.2c0,0-0.2-0.1-0.1-0.1c0,0-0.1-0.1-0.1-0.1c0,0,0,0.1,0,0c0,0-0.1-0.2-0.1-0.1
	c0,0,0-0.1,0-0.1c0-0.1,0,0.1,0,0c0-0.1,0,0.1,0,0c0-0.1,0,0,0,0c0,0,0.1-0.1,0,0c0,0.1,0.1-0.1,0,0c-0.1,0,0.2-0.1,0.1-0.1
	c-0.1,0,0.1,0,0.1,0c0,0,0.1,0,0.2,0c0.1,0,0,0,0,0c0,0,0.1,0,0.2,0c0.1,0,0.2,0,0.2,0c0.2,0,0.5,0,0.7,0c0.5,0,1,0,1.5,0.1
	c0.3,0,0.5,0,0.8,0c0.1,0,0.2,0,0.2,0c0,0,0.1,0,0.1,0c-0.1,0,0.1,0,0.1,0c0.1,0,0.2,0,0.2,0.1c-0.1,0,0.1,0.1,0.1,0s0,0,0,0
	c0-0.1,0,0,0,0c0,0,0-0.1,0,0c0,0.1,0-0.1,0,0.1c0,0.1,0,0,0,0.1c0,0,0,0.1,0,0.1c0-0.1,0,0.1,0,0.1c0,0.1,0,0,0,0
	c0,0-0.1,0.1-0.1,0.1c-0.1,0.1,0,0.1-0.2,0.1c-0.4,0.2-0.8,0.2-1.3,0.2c-0.6,0-1.2-0.1-1.7-0.1c-0.4,0-0.8,0.4-0.8,0.8
	c0,0.4,0.3,0.7,0.8,0.8c0.7,0,1.4,0.1,2,0.1c0.6,0,1.3-0.1,1.8-0.4c1.1-0.7,1.4-2.4,0.1-3.1c-0.5-0.3-1.2-0.3-1.8-0.4
	c-0.7,0-1.3-0.1-2-0.1c-0.6,0-1.1-0.1-1.7,0.1c-0.6,0.2-1.1,0.7-1.2,1.3c-0.1,0.8,0.3,1.5,0.9,1.9c0.6,0.4,1.4,0.5,2.1,0.6
	c0.4,0,0.8-0.4,0.8-0.8C39.6,58.4,39.3,58.1,38.9,58.1L38.9,58.1z"/>
<path class="st0" d="M6.6,52.7c8-0.1,15.9,0,23.9,0.1C40.7,52.8,50.9,52.9,61,53c3.9,0,7.8,0.1,11.7,0.1c1,0,1-1.5,0-1.5
	c-8.2,0-16.4-0.1-24.5-0.2c-10.1-0.1-20.2-0.2-30.3-0.3c-3.7,0-7.5,0-11.2,0C5.7,51.2,5.7,52.7,6.6,52.7L6.6,52.7z"/>
<path class="st0" d="M15.1,51.2c-0.1-9.5-0.1-18.9-0.2-28.4c0-4.6-0.3-9.3,0-13.9c0-0.9-0.1-2.2,0.5-2.9C16,5.3,17,5,17.8,4.8
	c1.8-0.4,3.7-0.1,5.5-0.1c4.6,0.1,9.2-0.1,13.7-0.1c2.4,0,4.7,0,7.1,0.1c1.6,0,3.2-0.1,4.8-0.2c1.5-0.1,3.2-0.1,4.6,0.5
	c0.8,0.3,1.4,1.1,2,1.6C56.3,7.4,57.2,8.2,58,9c1.6,1.6,3.3,3.1,4.9,4.7c0.7,0.8,1.4,1.5,1.4,2.6c0,1.1-0.1,2.3-0.1,3.4
	c-0.2,9.5,0.1,19,0,28.5c0,1.2,0,2.3,0,3.5c0,1,1.5,1,1.5,0c0.1-9.9-0.2-19.7-0.1-29.6c0-1.2,0-2.5,0.1-3.7c0-1.1,0.2-2.3-0.2-3.3
	c-0.3-1-1.1-1.8-1.7-2.5c-0.8-0.8-1.6-1.6-2.4-2.4c-1.8-1.7-3.6-3.4-5.3-5.1c-0.7-0.6-1.2-1.2-2.1-1.5c-0.7-0.3-1.5-0.4-2.3-0.5
	c-1.7-0.2-3.3,0-5,0.1c-2,0.1-4.1,0-6.1,0c-4.9,0-9.7,0-14.6,0c-2,0-4-0.1-6.1,0c-1.8,0-4,0.2-5.4,1.5c-0.8,0.7-1,1.7-1.1,2.7
	c-0.1,1.2-0.2,2.4-0.2,3.6c0,2.4,0,4.8,0.1,7.2c0.1,9.8,0.1,19.6,0.2,29.4l0,3.7C13.6,52.2,15.1,52.2,15.1,51.2L15.1,51.2z"/>
<path class="st0" d="M53.1,4.3l-0.1,6.3c0,1.6-0.3,3.5,1.2,4.6c1.2,0.9,2.9,0.9,4.4,1c2.1,0.1,4.2,0.2,6.3,0.3c1,0,1-1.5,0-1.5
	c-1.8-0.1-3.7-0.2-5.5-0.3c-1.3-0.1-3,0.1-4.2-0.6c-0.6-0.4-0.7-0.9-0.8-1.5c0-0.9,0-1.7,0-2.6l0.1-5.6C54.6,3.3,53.1,3.3,53.1,4.3
	L53.1,4.3z"/>
<path class="st0" d="M19.9,11.8c3.1,0.2,6.2,0.2,9.3,0c1-0.1,1-1.6,0-1.5c-3.1,0.2-6.2,0.2-9.3,0C19,10.2,19,11.7,19.9,11.8z"/>
<path class="st0" d="M19.9,17.4c3.2-0.2,6.3-0.4,9.5-0.5c1,0,1-1.5,0-1.5c-3.2,0.1-6.4,0.2-9.5,0.5C19,15.9,19,17.4,19.9,17.4z"/>
<path class="st0" d="M41.9,23.7c0.5-0.5,0.9-1.2,1.6-1.4c0.6-0.2,1,0.1,1.1,0.7c0.1,0.6,0.1,1.3,0.1,1.9c0,0.9,0,1.7,0,2.6
	c0,1.6-0.1,3.2-0.1,4.8c0,0.8-0.1,1.6-0.1,2.3c0,0.4-0.1,0.8-0.1,1.2c0,0.3,0,0.8-0.1,1c-0.6,0.9-2.1-0.7-2.5-1.1
	c-0.8-0.8-1.5-1.7-2.6-2.1c-0.7-0.3-1.5-0.5-2.3-0.6c-0.9-0.2-1.8-0.4-2.7-0.3c-0.8,0.1-1.5,0.5-1.5,1.4c0,0.9,0.5,1.9,0.9,2.6
	c0.4,0.7,1.3,2,0.8,2.9c-0.5,0.9-1.3-0.6-1.5-1c-0.4-0.8-0.6-1.7-0.7-2.5c-0.1-0.5-0.2-1.1-0.4-1.6c-0.3-0.7-0.8-1.1-1.4-1.5
	c-1-0.7-2-1.4-2.5-2.5c-0.5-1.1-0.4-2.4,0.3-3.3c0.9-1.1,2.5-1.1,3.8-1.1c1.1,0,2.3,0,3.4,0C37.7,26,40.4,25.7,41.9,23.7
	c0.6-0.8-0.5-1.8-1.1-1.1c-1.5,1.9-4.2,1.9-6.3,1.9c-2.4,0-5.7-0.5-7.4,1.6c-1.9,2.2-1,5.4,1.1,7.2c0.5,0.4,1,0.7,1.5,1.1
	c0.7,0.5,0.7,1.2,0.9,2c0.2,1,0.5,1.9,0.9,2.8s1,1.8,2,2.1c1.4,0.4,2.5-1,2.4-2.4c-0.1-1.2-0.8-2.2-1.3-3.2
	c-0.2-0.4-0.4-0.9-0.5-1.4c0,0-0.1-0.3-0.1-0.2c0,0.1-0.2,0,0.1,0c1.9,0,4.1,0.2,5.5,1.6c0.9,0.8,1.6,1.9,2.7,2.4
	c1.2,0.6,2.8,0.5,3.3-0.9c0.3-0.8,0.2-1.8,0.3-2.6c0.1-1,0.1-2,0.2-2.9c0.1-2,0.1-4.1,0.1-6.1c0-1.4,0.3-3.5-1.1-4.4
	c-1.7-1.1-3.2,0.5-4.2,1.6C40.2,23.4,41.2,24.4,41.9,23.7L41.9,23.7z"/>
<path class="st0" d="M50.2,26.4C50.2,26.3,50.4,26.1,50.2,26.4c0.1-0.1,0.1-0.2,0.2-0.2c0.1-0.1,0.2-0.2,0.3-0.3
	c0.1-0.1,0.2-0.2,0.3-0.3c0,0,0.1-0.1,0.1-0.1c0,0,0.1,0,0.1-0.1c0.1-0.1-0.1,0.1,0,0c0.2-0.2,0.4-0.3,0.7-0.4
	c0.1-0.1,0.2-0.1,0.4-0.2c0,0,0.1,0,0.1,0c0.1,0-0.2,0.1,0,0c0.1,0,0.1-0.1,0.2-0.1c0.2-0.1,0.3-0.2,0.5-0.3
	c0.1-0.2,0.1-0.4,0.1-0.6c-0.1-0.4-0.5-0.7-0.9-0.5c-1.3,0.5-2.3,1.3-3.1,2.3c-0.1,0.2-0.1,0.4-0.1,0.6c0.1,0.2,0.2,0.4,0.3,0.5
	C49.5,26.9,49.9,26.7,50.2,26.4L50.2,26.4z"/>
<path class="st0" d="M50.9,29.9c1,0.1,2.1,0.1,3.1,0.1c0.4,0,0.8-0.3,0.8-0.8c0-0.4-0.3-0.8-0.8-0.8c-1,0.1-2.1,0-3.1-0.1
	c-0.4,0-0.8,0.4-0.8,0.8C50.2,29.6,50.5,29.9,50.9,29.9z"/>
<path class="st0" d="M49.2,33c0.9,0.7,1.8,1.4,2.6,2.1c0.2,0.1,0.3,0.2,0.5,0.2c0.2,0,0.4-0.1,0.5-0.2c0.3-0.3,0.3-0.8,0-1.1
	c-0.9-0.7-1.8-1.4-2.6-2.1c-0.2-0.1-0.3-0.2-0.5-0.2c-0.2,0-0.4,0.1-0.5,0.2C49,32.2,48.9,32.7,49.2,33z"/>
<path class="st0" d="M9.1,54.4c-0.4,1.8,0,3.7,1.3,5c0.6,0.6,1.4,1.1,2.2,1.3c0.4,0.1,0.8,0.2,1.2,0.2c0.2,0,0.4,0,0.5,0
	c0,0,0.1,0,0.1,0c0.1,0,0,0,0,0c0.1,0,0.1,0,0,0c-0.1-0.2-0.2-0.2-0.1-0.1c0.2,0.4,0.7,0.5,1,0.3c0.4-0.2,0.5-0.7,0.3-1
	c-0.4-0.8-1.4-0.6-2.1-0.6c-0.3,0-0.6-0.1-1-0.2c-0.2-0.1-0.6-0.3-0.8-0.5c-1.2-0.9-1.6-2.5-1.3-3.8c0.1-0.4-0.1-0.8-0.5-0.9
	C9.7,53.8,9.2,54,9.1,54.4L9.1,54.4z"/>
<path class="st0" d="M67.1,50.8c1.2,0.2,2.4,0.2,3.6-0.1c0.2,0,0.5-0.3,0.5-0.5c0.3-1.9,0.4-3.9,0.2-5.8c0-0.4-0.3-0.8-0.8-0.8
	c-0.4,0-0.8,0.3-0.8,0.8c0.2,1.8,0.1,3.6-0.2,5.4l0.5-0.5c-0.9,0.2-1.9,0.2-2.8,0.1c-0.4-0.1-0.8,0.1-0.9,0.5
	C66.5,50.3,66.7,50.8,67.1,50.8z"/>
<path class="st0" d="M71.3,42.6v-2.5c0-0.4-0.3-0.8-0.8-0.8c-0.4,0-0.8,0.3-0.8,0.8v2.5c0,0.4,0.3,0.8,0.8,0.8
	C71,43.3,71.3,43,71.3,42.6z"/>
<path class="st0" d="M12.1,15.1c-1.5,0.3-2.5,1.6-3,3c-0.5,1.5-0.6,3.3-0.5,4.9c0,1,1.5,1,1.5,0c0-1.4,0-2.8,0.4-4.2
	c0.3-1.1,1-2.1,2.1-2.3C13.4,16.3,13,14.9,12.1,15.1L12.1,15.1z"/>
<path class="st0" d="M27.9,31.7c2-1.9,4.1-3.7,6.3-5.4l-1.1-1.1c0,0-0.1,0.1-0.1,0.1c-0.3,0.3-0.3,0.8,0,1.1c0.3,0.3,0.8,0.3,1.1,0
	c0,0,0.1-0.1,0.1-0.1c0.3-0.3,0.3-0.8,0-1.1c-0.3-0.3-0.7-0.3-1.1,0c-2.2,1.7-4.3,3.5-6.3,5.4C26.1,31.3,27.2,32.4,27.9,31.7z"/>
<path class="st0" d="M30.3,34c3.7-2.4,7-5.3,9.9-8.7c0.6-0.7-0.4-1.8-1.1-1.1c-2.8,3.2-6,6.1-9.6,8.4C28.8,33.3,29.5,34.6,30.3,34
	L30.3,34z"/>
<path class="st0" d="M32.5,37.8c0.5-0.6,1-1.2,1.5-1.7c0.1-0.2,0.2-0.3,0.2-0.5c0-0.2-0.1-0.4-0.2-0.5c-0.1-0.1-0.3-0.2-0.5-0.2
	c-0.2,0-0.4,0.1-0.5,0.2c-0.5,0.6-1,1.2-1.5,1.7c-0.1,0.2-0.2,0.3-0.2,0.5c0,0.2,0.1,0.4,0.2,0.5c0.1,0.1,0.3,0.2,0.5,0.2
	S32.3,37.9,32.5,37.8z"/>
<path class="st0" d="M36.5,33.7c0.6-0.8,1.3-1.4,2-2c0.8-0.7,1.6-1.4,2.4-2.1c1.6-1.4,3.2-2.8,4.8-4.2c0.7-0.6-0.3-1.7-1.1-1.1
	c-1.6,1.4-3.2,2.8-4.8,4.2c-0.8,0.7-1.6,1.4-2.4,2c-0.8,0.7-1.5,1.3-2.1,2.1c-0.3,0.3-0.3,0.8,0,1.1C35.7,33.9,36.2,34,36.5,33.7
	L36.5,33.7z"/>
<path class="st0" d="M33.8,39.7c0.4-0.4,0.8-0.8,1.2-1.2c0.1-0.1,0.2-0.3,0.2-0.5c0-0.2-0.1-0.4-0.2-0.5c-0.1-0.1-0.3-0.2-0.5-0.2
	c-0.2,0-0.4,0.1-0.5,0.2l-1.2,1.2c-0.1,0.1-0.2,0.3-0.2,0.5s0.1,0.4,0.2,0.5c0.1,0.1,0.3,0.2,0.5,0.2C33.4,39.9,33.6,39.9,33.8,39.7
	z"/>
<path class="st0" d="M40.9,35c1.6-1.3,3.1-2.6,4.7-3.9c0.3-0.3,0.3-0.8,0-1.1c-0.3-0.3-0.7-0.3-1.1,0c-1.6,1.3-3.1,2.6-4.7,3.9
	c-0.3,0.3-0.3,0.8,0,1.1C40.2,35.3,40.6,35.2,40.9,35z"/>
<path class="st0" d="M42.7,36.8l1.3-1l0.6-0.5l0.3-0.3l0.2-0.1l0.1-0.1C45,35,44.9,35,44.7,35l-0.3-0.2l0,0l-0.2-0.3v0
	c0-0.1,0-0.3,0-0.4l0.5-0.5H45h0c0.2,0.1,0.3,0.2,0.5,0.3l0,0c-0.2-0.3-0.7-0.5-1-0.3c-0.3,0.2-0.5,0.7-0.3,1
	c0.3,0.4,0.9,0.5,1.2,0.1c0.4-0.4,0.3-1-0.2-1.3c-0.2-0.1-0.5-0.1-0.7-0.1c-0.2,0.1-0.3,0.2-0.5,0.3l-0.5,0.4l-2,1.5
	c-0.1,0.1-0.2,0.4-0.2,0.5c0,0.2,0.1,0.4,0.2,0.5c0.1,0.1,0.3,0.2,0.5,0.2C42.3,37,42.5,36.9,42.7,36.8L42.7,36.8z"/>
</svg>
