<?xml version="1.0" encoding="utf-8"?>
<!-- Generator: Adobe Illustrator 27.3.1, SVG Export Plug-In . SVG Version: 6.00 Build 0)  -->
<svg version="1.1" id="Layer_1" xmlns="http://www.w3.org/2000/svg" xmlns:xlink="http://www.w3.org/1999/xlink" x="0px" y="0px"
	 viewBox="0 0 80 80" style="enable-background:new 0 0 80 80;" xml:space="preserve">
<style type="text/css">
	.st0{fill:#231F20;}
</style>
<path class="st0" d="M28.6,32.2c-1.2,0.4-2.3,0.8-3.4,1.3c-1,0.4-2,0.9-2.8,1.6c-1.4,1.2-1.6,3.1-1.5,4.8c0.1,0.9,0.2,1.8,0.2,2.7
	c0.1,1.1,0,2.3,0,3.4c0,2.5,0,4.9,0.3,7.4c0.5,4.2,1.6,8.5,4.3,12s6.2,5.7,9.8,7.9c1.9,1.1,3.8,2.3,6.1,1.6c2-0.6,4-1.8,5.7-3
	c3.5-2.4,6.5-5.6,8.5-9.4c1.1-2,1.8-4.1,2-6.3c0.3-2.4,0.3-4.9,0.3-7.3c0-2.4-0.1-5-0.1-7.5c0-1.2,0-2.4-0.1-3.6
	c-0.1-0.8-0.2-1.5-0.5-2.2c-0.8-1.5-2.4-2-3.9-2.4c-2.4-0.7-4.8-1.4-7.2-2.2c-1.2-0.4-2.4-0.7-3.6-1.1c-1.1-0.3-2.3-0.6-3.5-0.5
	c-1.2,0.1-2.3,0.4-3.4,0.7c-1.2,0.3-2.4,0.7-3.6,1C30.8,31.5,29.7,31.8,28.6,32.2c-0.8,0.3-0.4,1.5,0.3,1.2c2.2-0.8,4.4-1.4,6.6-2
	c1.1-0.3,2.2-0.7,3.3-0.8c1.1-0.1,2.2,0.1,3.3,0.4c2.2,0.6,4.4,1.3,6.7,2c1.2,0.3,2.3,0.7,3.5,1c0.9,0.3,1.8,0.5,2.6,0.9
	c1.2,0.7,1.5,1.8,1.6,3.1c0.1,2.3,0.2,4.6,0.2,7s0.1,4.7,0,7.1c-0.1,2.4-0.2,4.5-0.9,6.6c-1.2,3.8-3.7,7.2-6.7,9.8
	c-1.5,1.3-3.1,2.5-4.8,3.5c-0.9,0.5-1.8,1-2.7,1.3c-1,0.4-2,0.4-3.1,0.1c-1-0.4-1.8-0.9-2.7-1.4c-0.9-0.5-1.7-1-2.5-1.5
	c-1.7-1.1-3.3-2.2-4.7-3.6c-3-2.8-4.7-6.4-5.5-10.4c-0.9-4.4-0.7-8.9-0.7-13.4c0-1.6-0.4-3.2-0.2-4.8c0.1-0.8,0.4-1.5,1-2.1
	c0.7-0.7,1.7-1.1,2.7-1.5c1-0.4,2.1-0.8,3.1-1.2C29.7,33.2,29.3,32,28.6,32.2L28.6,32.2z"/>
<path class="st0" d="M39.2,30.3C39.2,30.1,39.2,30.3,39.2,30.3c0,0.2,0,0.3,0,0.5c0,0.4,0,0.7,0,1.1c0,1.1,0,2.2,0,3.3
	c0,3.4,0,6.7,0,10.1c0,4,0,8-0.1,11.9c0,3.6-0.1,7.1-0.1,10.7c0,2.1,0,4.2-0.1,6.2c0,0.1,0,0.2,0,0.3c0,0.8,1.3,0.8,1.3,0
	c0-1.8,0-3.7,0-5.5c0-3.5,0.1-6.9,0.1-10.4c0-4,0.1-8,0.1-12c0-3.5,0-7,0-10.5c0-1.9,0.1-3.8-0.1-5.8c0-0.1,0-0.3,0-0.4
	C40.4,29.1,39.1,29.5,39.2,30.3L39.2,30.3z"/>
<path class="st0" d="M22.2,52.3c4.1,0,8.2,0,12.3,0c5.9,0,11.8,0,17.8,0c1.7,0,3.4,0,5.1,0c0.8,0,0.8-1.3,0-1.3c-4.1,0-8.2,0-12.3,0
	c-5.9,0-11.8,0-17.8,0c-1.7,0-3.4,0-5.1,0C21.4,51,21.4,52.3,22.2,52.3z"/>
<path class="st0" d="M57.5,44.9c2.8-0.1,5.6,0,8.4-0.2c2.4-0.2,4.8-0.7,6.6-2.3c1.6-1.4,2.4-3.5,2.6-5.6c0.1-2.1-0.6-4.3-1.9-6
	c-1.5-1.9-3.8-3.2-6.1-3.7l0.4,0.4c-0.9-3.4-1.9-6.9-4.7-9.3c-2.8-2.4-6.6-3.2-10.4-3.2c-0.9,0-1.8,0.1-2.8,0.1
	c-0.3,0-1,0.2-1.2,0.1c-0.2-0.1-0.3-0.5-0.4-0.6c-0.2-0.2-0.3-0.5-0.5-0.7c-1.2-1.7-2.5-3.3-4.1-4.6c-3.1-2.6-7-4.1-11-4.3
	c-4.1-0.2-7.8,1-11.1,3.2c-3.1,2.1-6,4.9-7.5,8.4c-0.7,1.7-1,3.5-1.6,5.2c-0.2,0.5-0.4,0.7-0.9,1c-0.7,0.4-1.5,0.6-2.2,1.1
	c-2.8,1.7-4.5,5.1-4.9,8.3c-0.6,3.7,0.5,7.5,3.4,10c3,2.6,7,3.3,10.9,3.1c1-0.1,2.1-0.2,3.1-0.4c0.8-0.1,0.5-1.4-0.3-1.2
	c-3.8,0.6-7.9,0.6-11.3-1.4c-1.4-0.8-2.6-1.9-3.5-3.3c-0.9-1.5-1.3-3.4-1.2-5.2c0.1-1.8,0.6-3.7,1.4-5.3c0.6-1.2,1.4-2.3,2.5-3.1
	c0.6-0.4,1.3-0.8,2-1.1c0.6-0.3,1.2-0.5,1.7-1c0.4-0.4,0.5-0.9,0.7-1.4c0.2-0.8,0.4-1.6,0.6-2.4c0.5-1.8,1.3-3.5,2.4-5.1
	c1.1-1.5,2.3-2.8,3.7-3.9c2.8-2.3,6.2-3.9,9.9-4.2C34.1,6,37.9,7,41.1,9.2c1.6,1.1,3,2.5,4.2,4c0.6,0.8,1.2,1.6,1.8,2.5
	c0.2,0.3,0.4,0.7,0.8,0.8c0.4,0.2,0.9,0,1.3,0c3.4-0.3,7.1-0.4,10.3,1.1c1.6,0.8,3,2,4,3.4c0.9,1.3,1.5,2.8,2,4.4
	c0.2,0.8,0.5,1.6,0.7,2.5c0.1,0.2,0.2,0.4,0.4,0.4c3.8,0.7,7.1,3.8,7.1,7.8c0,1.9-0.7,3.8-2,5.1c-1.5,1.5-3.7,2-5.8,2.2
	c-2.8,0.2-5.6,0.2-8.5,0.2C56.7,43.6,56.7,44.9,57.5,44.9L57.5,44.9z"/>
<path class="st0" d="M7.7,33.4c-0.1,1.1,0.2,2.3,0.5,3.4c0.3,1,0.7,1.8,1.4,2.5c0.6,0.6,1.4,1.2,2.2,1.5c0.4,0.2,0.9,0.4,1.3,0.5
	c0.2,0.1,0.4,0.1,0.7,0.2c0.1,0,0.2,0,0.3,0.1c0.1,0,0.2,0.1,0.1,0l-0.1-0.3v0.1c0.1,0.8,1.3,0.8,1.3,0c-0.1-1.1-1.4-1-2.2-1.3
	c-0.8-0.3-1.6-0.6-2.3-1.2c-0.7-0.5-1.2-1.3-1.5-2.1C9.3,35.8,9,34.6,9,33.4C9.1,32.6,7.8,32.6,7.7,33.4L7.7,33.4z"/>
<path class="st0" d="M53,30.7c1,0.4,2,0.9,2.9,1.4c0.9,0.4,1.9,0.7,2.6,1.4c1.4,1.4,1.1,3.6,0.8,5.3c0,0.3,0.1,0.7,0.4,0.8
	c0.3,0.1,0.7-0.1,0.8-0.4c0.3-2.1,0.5-4.5-0.9-6.2c-0.7-0.9-1.7-1.3-2.6-1.7c-1.1-0.5-2.3-1.1-3.4-1.6c-0.3-0.1-0.7-0.1-0.9,0.2
	C52.6,30.1,52.7,30.6,53,30.7L53,30.7z"/>
<path class="st0" d="M41.3,42.1c0.1,1,0.2,2.1,0.4,3.1c0,0.3,0.3,0.7,0.6,0.6c0.3,0,0.7-0.3,0.6-0.6c-0.1-1-0.2-2.1-0.4-3.1
	c0-0.3-0.3-0.7-0.6-0.6C41.6,41.4,41.3,41.7,41.3,42.1z"/>
<path class="st0" d="M41.6,46.8v1.4c0,0.4,0,0.9,0,1.3c0.1,1,1.5,0.8,2.3,0.8c1.9,0.1,3.8,0.1,5.7,0.1c0.8,0,0.8-1.3,0-1.3
	c-1.2,0-2.4-0.1-3.6-0.1c-0.6,0-1.2,0-1.8,0c-0.3,0-0.6,0-0.9,0c-0.1,0-0.3,0-0.4,0c-0.1,0-0.1,0-0.2,0c-0.2,0-0.2,0-0.1,0l0.2,0.2
	c0.1,0.1,0-0.1,0-0.1v-0.3c0-0.2,0-0.5,0-0.7v-1.4C42.9,46,41.6,46,41.6,46.8L41.6,46.8z"/>
<path class="st0" d="M33.6,54.3l3.4-0.2c0.1,0,0.1,0,0.2,0c0.2,0-0.4-0.2-0.4-0.4c0,0.1,0,0.3,0,0.4c0,0.3,0,0.5,0,0.8
	c0,0.6,0.1,1.2,0.1,1.7c0,0.3,0.3,0.7,0.6,0.6c0.3,0,0.7-0.3,0.6-0.6c0-0.6-0.1-1.3-0.1-1.9c0-0.3,0-0.7-0.1-1
	c0-0.4-0.2-0.8-0.6-0.9c-0.3-0.1-0.7,0-1,0l-0.9,0l-2,0.1c-0.3,0-0.7,0.3-0.6,0.6C33,54,33.3,54.3,33.6,54.3L33.6,54.3z"/>
<path class="st0" d="M36.7,58.4c0,0.6,0,1.1,0,1.7c0,0.3,0.3,0.7,0.6,0.6c0.3,0,0.6-0.3,0.6-0.6c0-0.6,0-1.1,0-1.7
	c0-0.3-0.3-0.7-0.6-0.6C37,57.7,36.7,58,36.7,58.4z"/>
<path class="st0" d="M36.8,61.8v1.4c0,0.2,0.1,0.3,0.2,0.5c0.1,0.1,0.3,0.2,0.5,0.2c0.2,0,0.3-0.1,0.5-0.2c0.1-0.1,0.2-0.3,0.2-0.5
	v-1.4c0-0.2-0.1-0.3-0.2-0.5c-0.1-0.1-0.3-0.2-0.5-0.2c-0.2,0-0.3,0.1-0.5,0.2C36.9,61.5,36.8,61.7,36.8,61.8z"/>
<path class="st0" d="M32.3,53.2c-0.9-0.2-1.7-0.2-2.6-0.1c-0.2,0-0.3,0.1-0.5,0.2c-0.1,0.1-0.2,0.3-0.2,0.5c0,0.2,0.1,0.3,0.2,0.5
	c0.1,0.1,0.3,0.2,0.5,0.2c0.4-0.1,0.8-0.1,1.2-0.1c0.2,0,0.4,0,0.6,0c0.1,0-0.1,0,0,0c0,0,0.1,0,0.1,0c0.1,0,0.2,0,0.3,0.1
	c0.3,0.1,0.7-0.1,0.8-0.4C32.8,53.6,32.6,53.2,32.3,53.2L32.3,53.2z"/>
<path class="st0" d="M48,68.4c3.1-2.1,5.4-5.2,6.3-8.7c0.2-0.8-1-1.1-1.2-0.3c-0.9,3.2-2.9,6.1-5.7,8C46.6,67.8,47.3,68.9,48,68.4
	L48,68.4z"/>
<path class="st0" d="M29.5,35.5c-0.9,0.1-1.9,0.3-2.7,0.6c-0.9,0.3-1.8,0.6-2.3,1.4c-0.5,0.7-0.6,1.5-0.6,2.3c0,0.9,0,1.9,0,2.8
	c0,0.8,1.3,0.8,1.3,0c0-0.8,0-1.7,0-2.5c0-0.6,0-1.3,0.3-1.8c0.3-0.5,1.1-0.8,1.7-1c0.8-0.3,1.5-0.4,2.3-0.5c0.3,0,0.6-0.3,0.6-0.6
	C30.2,35.8,29.9,35.5,29.5,35.5z"/>
</svg>
