<?xml version="1.0" encoding="utf-8"?>
<!-- Generator: Adobe Illustrator 27.3.1, SVG Export Plug-In . SVG Version: 6.00 Build 0)  -->
<svg version="1.1" id="Layer_1" xmlns="http://www.w3.org/2000/svg" xmlns:xlink="http://www.w3.org/1999/xlink" x="0px" y="0px"
	 viewBox="0 0 80 80" style="enable-background:new 0 0 80 80;" xml:space="preserve">
<style type="text/css">
	.st0{fill:#231F20;}
</style>
<path class="st0" d="M10.4,67.4c0,1.6-0.1,3.2-0.1,4.8c0,1.3,0.2,2.6,1.1,3.5c1.8,1.6,4.6,1.3,6.8,1.2c3.1-0.2,6.3-0.4,9.4-0.6
	s6.3-0.2,9.5-0.1c3.2,0.1,6.3,0.4,9.5,0.4c1.5,0,3.1-0.1,4.6,0c1.1,0.1,2.2,0.2,3.3,0.4c1.5,0.1,3.2,0.2,4.4-1
	c0.6-0.6,0.9-1.5,1.1-2.3c0.3-1.4,0.3-2.8,0.4-4.2C61.3,56.7,60.3,44,60,31.3c-0.1-3.1-0.1-6.1-0.1-9.2c0-2.7-0.1-5.4,0.2-8.1
	c0.2-2.4,0.8-4.9,2.2-6.8c1.2-1.6,3-2.4,5-2.3c2.3,0.1,4.8,1.2,6,3.3c0.7,1.2,0.9,2.6,1,4c0,0.6,0.1,1.2,0.1,1.8
	c0,0.5,0,1.2-0.4,1.6c-0.6,0.5-1.8,0.5-2.6,0.6c-1,0.1-2,0.1-3,0.1c-2.2,0-4.4-0.1-6.5-0.2c-0.8,0-1.7-0.1-2.5-0.1
	c-0.9,0-0.9,1.3,0,1.4c4.1,0.2,8.2,0.5,12.3,0.2c0.9-0.1,2-0.2,2.8-0.6c1.1-0.6,1.3-1.9,1.3-3c0-2.6-0.3-5.5-2.1-7.5
	C70.7,3.1,65,2.5,61.8,5.7c-1.7,1.7-2.5,4.2-2.9,6.5c-0.5,2.7-0.5,5.4-0.5,8.2c0.1,6.2,0.1,12.4,0.4,18.6c0.2,6.2,0.5,12.8,0.5,19.2
	c0,3.2,0,6.5-0.2,9.7c-0.1,1.6-0.2,3.2-0.3,4.8c-0.1,0.8-0.3,1.7-0.9,2.4c-1,1.1-3,0.6-4.3,0.5c-1.3-0.2-2.6-0.3-3.9-0.3
	c-1.6,0-3.2,0.1-4.8,0c-3.2-0.1-6.4-0.3-9.6-0.4c-3.2-0.1-6.4,0-9.6,0.2c-3.2,0.2-6.4,0.5-9.7,0.6c-1.1,0-2.2,0-3.2-0.4
	c-1.2-0.6-1.4-1.8-1.4-3c0-1.6,0.1-3.1,0.1-4.7C11.8,66.5,10.4,66.5,10.4,67.4L10.4,67.4z"/>
<path class="st0" d="M12.2,40.4c-0.1-5.9-0.2-11.8-0.3-17.7c-0.1-2.9-0.2-5.7-0.1-8.6c0.1-2.5,0.1-5.5,2.1-7.4
	c1.8-1.7,4.3-2.2,6.7-2.3c2.7-0.1,5.3,0,8,0c5.9-0.1,11.7,0,17.6,0c6.6,0,13.1,0.1,19.7,0.4l-0.2-1.3c-0.3,0.1-0.6,0.2-1,0.4
	c-0.8,0.3-0.5,1.6,0.4,1.3c0.3-0.1,0.6-0.2,1-0.4c0.7-0.3,0.6-1.3-0.2-1.3c-6-0.3-12.1-0.4-18.1-0.4c-6,0-12.1-0.1-18.1,0
	c-1.4,0-2.9,0.1-4.3,0.1c-1.4,0-2.7-0.1-4.1,0c-2.5,0.1-5,0.4-7.1,1.8c-1,0.6-1.8,1.5-2.4,2.5c-0.6,1.1-0.9,2.4-1,3.6
	c-0.4,3-0.2,6-0.2,9c0.1,6.8,0.3,13.6,0.4,20.4C10.9,41.3,12.3,41.3,12.2,40.4z"/>
<path class="st0" d="M34.9,28.5c-4.7-2.7-9.5-5.1-14.4-7.4v1.2c2.1-1.2,4.4-1.8,6.5-2.9c2.3-1.2,4.5-2.4,6.8-3.7
	c0.8-0.4,1.3-0.7,2.2-0.6c0.8,0.1,1.6,0.4,2.4,0.8c1.5,0.7,3,1.6,4.5,2.4c2.3,1.3,4.6,2.7,6.7,4.4l0.1-1.1c-2.3,1.6-4.7,3.1-7.2,4.5
	c-1.2,0.7-2.5,1.3-3.7,1.9c-0.6,0.3-1.3,0.6-1.9,0.9C36.1,29.1,35.6,28.9,34.9,28.5c-0.8-0.4-1.5,0.7-0.7,1.2c0.6,0.3,1.2,0.7,2,0.6
	c0.7,0,1.4-0.4,2.1-0.7c1.4-0.6,2.8-1.3,4.2-2.1c2.7-1.5,5.4-3.1,7.9-4.9c0.3-0.2,0.5-0.8,0.1-1.1c-1.9-1.5-4-2.9-6.1-4.1
	c-1.6-0.9-3.3-1.9-5.1-2.7c-1.4-0.7-3.3-1.5-4.9-1c-0.5,0.2-0.9,0.4-1.3,0.7c-0.6,0.3-1.3,0.7-1.9,1c-1.2,0.6-2.4,1.3-3.6,1.9
	c-1.3,0.7-2.6,1.3-3.9,1.9c-1.4,0.5-2.6,1.1-3.9,1.7c-0.4,0.2-0.5,1,0,1.2c4.9,2.4,9.7,4.8,14.4,7.4C35,30.1,35.7,29,34.9,28.5
	L34.9,28.5z"/>
<path class="st0" d="M19.6,21.8c-0.3,3.3-0.4,6.6-0.4,9.9c0,1.6,0,3.2,0.1,4.8c0,0.8,0,1.6,0.1,2.4c0,0.4,0,0.7,0,1.1
	c0,0.3,0,0.6,0.1,0.8c0.2,0.4,0.8,0.6,1.2,0.8c0.7,0.4,1.4,0.7,2.1,1c1.3,0.6,2.7,1.1,4,1.8c2.9,1.4,5.6,2.9,8.6,3.9
	c0.4,0.1,0.9-0.2,0.9-0.7c-0.4-6-0.4-12-0.1-17.9c0-0.9-1.3-0.8-1.4,0c0,0.3-0.1,0.6-0.1,0.9c-0.1,0.4,0.4,0.7,0.7,0.7
	c0.4,0,0.6-0.3,0.7-0.7c0-0.3,0.1-0.6,0.1-0.9h-1.4c-0.3,6-0.2,12,0.1,17.9l0.9-0.7c-2.8-0.9-5.4-2.3-8.1-3.7
	c-1.1-0.5-2.2-1-3.4-1.5c-1.3-0.6-2.5-1.2-3.7-1.8c-0.1,0,0.1,0.1,0.1,0.1c0.1,0,0,0.4,0.1-0.1c0-0.2,0-0.5,0-0.7
	c0-0.7-0.1-1.5-0.1-2.2c0-1.6-0.1-3.1-0.1-4.7c0-3.5,0.1-7,0.4-10.5C21,20.9,19.7,20.9,19.6,21.8L19.6,21.8z"/>
<path class="st0" d="M36,48c4.8-2.4,9.6-4.6,14.6-6.6c0.3-0.1,0.5-0.3,0.5-0.7c-0.3-6.2,0-12.4-0.4-18.6c-0.1-0.9-1.4-0.9-1.4,0
	c0.4,6.2,0.1,12.4,0.4,18.6l0.5-0.7c-5.1,2.1-10,4.3-14.9,6.8C34.5,47.2,35.2,48.4,36,48L36,48z"/>
<path class="st0" d="M11.1,59.7c3.9-0.1,7.7,0.3,11.6-0.4c0.5-0.1,0.6-0.8,0.3-1.1c-2.1-2-4.6-3.3-6.9-5c-0.9-0.6-1.8-1.3-2.6-2
	c-0.4-0.3-0.8-0.6-1.1-0.9c-0.1-0.1-0.3-0.2-0.4-0.4c-0.1-0.1-0.1-0.1-0.1-0.1c0,0,0,0,0-0.1c0,0.1,0.1,0.2,0.1,0.2
	c-0.1-0.9-1.4-0.9-1.4,0c0,3-0.2,6-0.2,9c0,0.9,1.4,0.9,1.4,0c0-3,0.1-6,0.2-9h-1.4c0.1,0.8,1,1.4,1.5,1.9c0.9,0.8,1.9,1.5,2.9,2.2
	c2.3,1.7,4.9,3.1,7,5.1l0.3-1.1c-3.7,0.6-7.5,0.2-11.2,0.3C10.2,58.4,10.2,59.7,11.1,59.7L11.1,59.7z"/>
<path class="st0" d="M73.5,31.4c0.8,0.8,0.9,2.1,0.8,3.2c0,1.3-0.1,2.5-0.1,3.8c0,3.4,0,6.7,0.1,10.1c0,3.4,0.1,6.7,0.2,10
	c0.1,3.3,0.4,6.5,0,9.7c-0.2,1.4-0.5,2.8-1.1,4.1c-0.3,0.6-0.6,1.2-1,1.8c-0.2,0.3-0.4,0.5-0.6,0.7c-0.1,0.1-0.3,0.3-0.4,0.4
	l-0.1,0.1c0.3,0.1,0.4,0,0.2-0.2c-0.1-0.3-0.4-0.7-0.6-0.9c-0.2-0.3-0.4-0.6-0.6-0.9c-0.4-0.6-0.8-1.3-1.1-2
	c-0.6-1.4-0.6-2.9-0.6-4.5c0-3.3,0-6.7,0-10c0-3.3-0.3-6.7-0.3-10c0-3.6,0.2-7.3,0.4-10.9c0-0.9,0.1-1.8,0.1-2.7
	c0-0.9,0-1.7,0.7-2.4C70.7,29.9,72.4,30.4,73.5,31.4c0.6,0.6,1.6-0.4,1-1c-1.1-1-2.6-1.7-4.2-1.4c-1.4,0.3-2.5,1.4-2.7,2.8
	c-0.1,0.8-0.1,1.7-0.1,2.6c0,0.9-0.1,1.8-0.1,2.7c-0.1,1.9-0.2,3.7-0.3,5.6c-0.1,3.6,0,7.2,0.1,10.7c0.1,3.6,0.1,7.3,0.1,11
	c0,1.7-0.1,3.5,0.1,5.2c0.2,1.7,1,3.2,1.9,4.6c0.4,0.6,0.8,1.2,1.2,1.8c0.5,0.7,1.2,0.9,1.8,0.3c1.1-1,1.9-2.3,2.4-3.7
	c1.3-3.1,1.4-6.6,1.2-9.9c-0.1-3.7-0.3-7.4-0.3-11.1c-0.1-4.1-0.1-8.2-0.1-12.2c0-1.6,0.1-3.2,0.1-4.9c0-1.5-0.2-3-1.2-4.1
	C73.8,29.8,72.9,30.8,73.5,31.4L73.5,31.4z"/>
<path class="st0" d="M68,40.2c2.3-0.3,4.7-0.4,7-0.4c0.9,0,0.9-1.4,0-1.4c-2.3,0-4.7,0.1-7,0.4c-0.4,0-0.7,0.3-0.7,0.7
	C67.3,39.9,67.6,40.3,68,40.2z"/>
<path class="st0" d="M21.3,49.4c3.2,2.5,6.4,4.9,9.6,7.3c1.6,1.2,3.2,2.4,4.8,3.6c1.5,1.1,3,2.3,4.6,3.4c0.8,0.5,1.6,1,2.4,1.4
	c0.7,0.3,1.5,0.7,2,1.3l0.2-0.9c-1.3,0.6-2.8,0.5-4.2,0.5c-1.4,0-2.7-0.2-4.1-0.1c-0.9,0-1.8,0-2.7,0.1c-3.9,0.1-7.7,0.2-11.6,0.3
	c-4.3,0.1-8.6,0.2-12.9,0.2c-1.4,0-2.8,0-4.3,0c-0.4,0-0.8,0-1.2-0.1c-0.2,0,0,0,0,0c0,0-0.1,0-0.1,0c0,0,0.1,0.1,0.2,0.1
	c0.1,0,0.2,0.3,0.3,0.3c0,0,0-0.5,0-0.5c0-0.6,0-1.1,0-1.7c0-8.7,0-17.5,0-26.2c0-1.1,0-2.2,0-3.3l-1.3,0.3c1,1.4,2.4,2.3,3.8,3.2
	c1.6,1.1,3.2,2.3,4.8,3.4C14.9,44.5,18.1,47,21.3,49.4c0.3,0.2,0.7,0.3,1,0c0.2-0.2,0.3-0.7,0-1c-3.1-2.4-6.2-4.8-9.4-7.2
	c-1.5-1.2-3.1-2.3-4.7-3.4c-1.4-0.9-2.9-1.8-3.9-3.2c-0.4-0.5-1.3-0.4-1.3,0.3c0,9,0,18,0,27c0,1.1,0,2.3,0,3.4C3,65.9,3,66.5,3,67
	c0,0.2,0.1,0.4,0.3,0.5c0.3,0.2,0.6,0.2,0.9,0.2c1.2,0.1,2.3,0.1,3.5,0.1c4.2,0,8.4-0.1,12.6-0.2c4.2-0.1,8.4-0.2,12.6-0.3
	c1.1,0,2.3-0.1,3.4-0.1c2.4-0.1,4.9,0.4,7.3,0c0.7-0.1,1.4-0.3,2-0.6c0.3-0.2,0.4-0.6,0.2-0.9c-0.9-1.3-2.3-1.7-3.6-2.4
	c-1.7-0.9-3.2-2.1-4.7-3.3c-3.2-2.5-6.5-4.9-9.7-7.4c-1.9-1.4-3.7-2.8-5.6-4.3c-0.3-0.2-0.7-0.3-1,0C21.1,48.7,21,49.2,21.3,49.4
	L21.3,49.4z"/>
<path class="st0" d="M5.1,41.1c0.3-0.5,0.6-1.1,1-1.6c0.1-0.1,0.2-0.2,0.3-0.4c0,0,0-0.1,0.1-0.1c0.1-0.1-0.1,0.1,0,0
	c0.1-0.1,0.1-0.1,0.2-0.2c0.2-0.2,0.4-0.5,0.6-0.7c0.2-0.3,0.3-0.7,0-1c-0.3-0.2-0.7-0.3-1,0c-0.9,1-1.7,2.1-2.3,3.2
	c-0.2,0.3-0.1,0.8,0.2,0.9C4.5,41.5,4.9,41.4,5.1,41.1L5.1,41.1z"/>
<path class="st0" d="M4.8,46.4c1.7-2,3.4-4.1,5-6.1c0.2-0.3,0.3-0.7,0-1c-0.2-0.2-0.7-0.3-1,0c-1.7,2-3.4,4.1-5,6.1
	c-0.2,0.3-0.3,0.7,0,1C4.1,46.7,4.5,46.7,4.8,46.4z"/>
<path class="st0" d="M4.8,51.7c2.6-3.1,5.3-6.2,8.1-9.1c0.6-0.6-0.4-1.6-1-1c-2.8,2.9-5.5,6-8.1,9.1c-0.2,0.3-0.3,0.7,0,1
	C4,51.9,4.5,52,4.8,51.7z"/>
<path class="st0" d="M4.8,56.7c1.6-2.1,3.7-3.7,5.7-5.4c2-1.8,3.9-3.8,5.6-5.9c0.5-0.7-0.4-1.7-1-1c-1.7,2.2-3.7,4.2-5.8,6
	c-2.1,1.8-4.1,3.4-5.7,5.5C3.1,56.7,4.2,57.4,4.8,56.7L4.8,56.7z"/>
<path class="st0" d="M4.7,61.8c2.1-2.5,4.5-4.9,7.1-7c0.3-0.2,0.2-0.7,0-1c-0.3-0.3-0.7-0.2-1,0c-2.6,2.1-4.9,4.4-7.1,7
	c-0.2,0.3-0.3,0.7,0,1C4,62,4.5,62.1,4.7,61.8z"/>
<path class="st0" d="M14.8,52.3c1.4-1.6,2.9-3.1,4.6-4.5c0.3-0.2,0.2-0.7,0-1c-0.3-0.3-0.7-0.2-1,0c-1.6,1.4-3.2,2.9-4.6,4.5
	c-0.2,0.3-0.3,0.7,0,1C14.1,52.5,14.5,52.5,14.8,52.3z"/>
<path class="st0" d="M4.2,67.5c3.2-2,5.2-5.2,7.9-7.6c0.7-0.6-0.3-1.5-1-1c-2.7,2.3-4.6,5.5-7.6,7.4C2.8,66.8,3.5,68,4.2,67.5z"/>
<path class="st0" d="M17.7,55.3c1.9-1.6,3.8-3.1,5.7-4.7c0.3-0.2,0.2-0.7,0-1c-0.3-0.3-0.7-0.2-1,0c-1.9,1.6-3.8,3.1-5.7,4.7
	c-0.3,0.2-0.2,0.7,0,1C17,55.6,17.4,55.6,17.7,55.3z"/>
<path class="st0" d="M10.2,67.3c2.8-2.7,5.6-5.2,8.6-7.6c0.3-0.2,0.2-0.7,0-1c-0.3-0.3-0.7-0.2-1,0c-3,2.4-5.9,5-8.6,7.6
	C8.6,66.9,9.5,67.9,10.2,67.3z"/>
<path class="st0" d="M21.2,57.2c1.7-1.4,3.3-2.8,5-4.2c0.3-0.2,0.2-0.7,0-1c-0.3-0.3-0.7-0.2-1,0c-1.6,1.4-3.3,2.8-5,4.2
	c-0.3,0.2-0.2,0.7,0,1C20.5,57.5,20.9,57.5,21.2,57.2z"/>
<path class="st0" d="M16.4,66.9c4.1-3.9,8.3-7.7,12.6-11.5c0.7-0.6-0.3-1.6-1-1c-4.2,3.8-8.4,7.6-12.6,11.5
	C14.7,66.6,15.7,67.5,16.4,66.9z"/>
<path class="st0" d="M21.9,67.2c3.4-3,6.9-6.1,10.3-9.1c0.7-0.6-0.3-1.6-1-1c-3.4,3-6.9,6.1-10.3,9.1C20.3,66.8,21.2,67.8,21.9,67.2
	z"/>
<path class="st0" d="M28.3,66.6c2.4-2.2,4.8-4.4,7.1-6.7l-1-1c-0.1,0.1-0.2,0.2-0.3,0.3c-0.2,0.3-0.3,0.7,0,1c0.2,0.2,0.7,0.3,1,0
	c0.1-0.1,0.2-0.2,0.3-0.3c0.6-0.7-0.3-1.6-1-1c-2.3,2.3-4.7,4.5-7.1,6.7C26.7,66.2,27.7,67.2,28.3,66.6z"/>
<path class="st0" d="M33.2,66.7c1.7-1.7,3.4-3.5,5.1-5.2c0.6-0.6-0.4-1.6-1-1c-1.7,1.7-3.4,3.5-5.1,5.2
	C31.6,66.4,32.6,67.4,33.2,66.7z"/>
<path class="st0" d="M37.2,66.6c1.1-1,2.1-1.9,3.2-2.9c0.3-0.2,0.3-0.7,0-1c-0.3-0.3-0.7-0.3-1,0c-1.1,1-2.1,1.9-3.2,2.9
	c-0.3,0.2-0.3,0.7,0,1C36.5,66.9,36.9,66.8,37.2,66.6z"/>
<path class="st0" d="M41,66.6c0.3-0.4,0.7-0.8,1.1-1.1L42,65.6c0.2-0.1,0.3-0.2,0.5-0.4c0.2-0.1,0.3-0.2,0.3-0.4
	c0-0.2,0-0.4-0.1-0.5c-0.1-0.1-0.2-0.3-0.4-0.3c-0.2,0-0.4,0-0.5,0.1c-0.7,0.4-1.3,0.9-1.7,1.5c-0.1,0.1-0.2,0.3-0.2,0.5
	c0,0.2,0.1,0.4,0.2,0.5s0.3,0.2,0.5,0.2C40.7,66.8,40.9,66.7,41,66.6L41,66.6z"/>
<path class="st0" d="M70.7,33.7c0,0,0.1-0.1,0.1-0.1C70.7,33.7,70.7,33.7,70.7,33.7L70.7,33.7C70.9,33.6,71,33.6,70.7,33.7
	c0.1-0.1,0.2-0.1,0.2-0.1c0,0,0.1,0,0.1,0c-0.2,0.1-0.1,0,0,0c0.1,0,0.1,0,0.1,0c0.1,0,0,0,0,0c0.1,0,0.2,0,0.3,0.1c0,0,0.1,0,0.1,0
	c-0.1,0-0.1-0.1-0.1,0c0,0,0.1,0,0.1,0.1c0.1,0,0.2,0.1,0.2,0.1c-0.2-0.1,0,0,0,0c0,0,0.1,0.1,0.1,0.1c0,0,0,0,0,0c0,0.1,0,0,0,0
	c0,0,0.1,0.1,0.1,0.1c0,0.1,0.1,0.1,0.1,0.2c0.1,0.1,0-0.1,0,0c0,0.1,0.1,0.2,0.1,0.3c0,0.1,0,0.1,0,0.2c0,0.1,0-0.1,0,0
	c0.1,0.5,0,1,0,1.5c0,0.4,0.3,0.7,0.7,0.7c0.4,0,0.7-0.3,0.7-0.7c0.1-0.9,0.1-1.9-0.3-2.8c-0.4-0.8-1.2-1.3-2.1-1.3
	c-0.5,0-1,0.2-1.3,0.5c-0.2,0.3-0.3,0.7,0,1C70,34,70.5,34,70.7,33.7L70.7,33.7z"/>
<path class="st0" d="M49.7,73.8l3.5,0c1,0,2.2,0.2,3-0.3c1-0.6,1-1.7,1-2.7c0-1.2,0-2.3,0-3.5c0-0.9-1.4-0.9-1.4,0c0,1,0,2,0,3.1
	c0,0.4,0,0.9-0.1,1.3c0,0.3-0.1,0.5-0.4,0.6c-0.3,0.1-0.7,0.1-1.1,0.1h-1.5c-1,0-2.1,0-3.1,0C48.8,72.4,48.8,73.8,49.7,73.8
	L49.7,73.8z"/>
<path class="st0" d="M57.2,64.5c0.1-1.1,0.1-2.1,0.2-3.2c0-0.4-0.3-0.7-0.7-0.7c-0.4,0-0.7,0.3-0.7,0.7c-0.1,1.1-0.1,2.1-0.2,3.2
	c0,0.4,0.3,0.7,0.7,0.7C56.9,65.2,57.2,64.9,57.2,64.5z"/>
<path class="st0" d="M62.1,13.1c0.4-2,1.2-4.1,2.9-5.3c1.5-1.1,3.7-1.3,5.1,0.1c0.6,0.6,1.6-0.4,1-1c-1.8-1.7-4.5-1.7-6.6-0.4
	c-2.2,1.4-3.3,3.8-3.8,6.3C60.6,13.6,61.9,14,62.1,13.1z"/>
<path class="st0" d="M68,15.5l2.4-0.2c0.4,0,0.8-0.1,1.2-0.1c0.4,0,0.7-0.1,1.1-0.2c0.7-0.4,0.7-1.4,0.6-2.1
	c-0.1-0.8-0.3-1.5-0.7-2.3c-0.2-0.3-0.6-0.4-0.9-0.2c-0.3,0.2-0.4,0.6-0.2,0.9c0.2,0.5,0.4,1.1,0.5,1.6c0,0.3,0,0.6,0,0.9v0.1
	c0-0.1,0-0.1,0,0c0,0,0,0,0,0c0,0,0,0,0.1-0.1c0-0.1-0.1,0,0,0c-0.1,0-0.1,0-0.2,0.1c-0.1,0,0,0,0,0c-0.1,0-0.1,0-0.2,0
	c-0.2,0-0.4,0-0.6,0l-1,0.1L68,14.2c-0.4,0-0.7,0.3-0.7,0.7C67.3,15.2,67.6,15.6,68,15.5L68,15.5z"/>
</svg>
