<?xml version="1.0" encoding="utf-8"?>
<!-- Generator: Adobe Illustrator 27.3.1, SVG Export Plug-In . SVG Version: 6.00 Build 0)  -->
<svg version="1.1" id="Layer_1" xmlns="http://www.w3.org/2000/svg" xmlns:xlink="http://www.w3.org/1999/xlink" x="0px" y="0px"
	 viewBox="0 0 80 81" style="enable-background:new 0 0 80 81;" xml:space="preserve">
<style type="text/css">
	.st0{fill:#231F20;}
</style>
<path class="st0" d="M38.3,56.6c-6.9,0.2-13.8,0.3-20.7,0.3c-3.5,0-7,0-10.5-0.1c-1.3,0-3,0.2-3.9-1c-0.7-1-0.7-2.3-0.8-3.5
	C2,45.4,1.7,38.4,1.7,31.5c0-3.5,0-7,0.1-10.5c0-1.8,0.1-3.6,0.2-5.4C2,14,2.2,12.4,2.2,10.8c0.1-2.6-0.8-5.9,1.6-7.7
	c1.1-0.8,2.5-0.9,3.8-1c1.6,0,3.2,0.1,4.7,0.1c6.9,0.2,13.9,0.4,20.8,0.5c7,0.1,13.8,0.1,20.7,0c3.4,0,6.7,0,10.1-0.2
	c1.5-0.1,3-0.3,4.4,0c1.2,0.2,2.7,1,3.2,2.2c0.3,0.7,0.2,1.4,0.3,2.1c0,0.9,0,1.8,0.1,2.7c0.1,1.7,0.1,3.5,0.1,5.2
	c0,3.5-0.1,6.9-0.3,10.4c-0.3,6.9-0.7,13.8-0.5,20.7c0,1.7,0.1,3.4,0.2,5.2c0.1,1.1,1.7,1.1,1.7,0c-0.5-7.3-0.2-14.5,0.1-21.8
	c0.2-3.7,0.3-7.3,0.4-11c0-1.8,0.1-3.6,0-5.5s-0.1-3.6-0.2-5.3c0-1.5,0.1-3.2-1-4.4c-0.8-1-2.2-1.8-3.4-2.1
	c-1.5-0.4-3.1-0.2-4.6-0.1c-1.7,0.1-3.5,0.1-5.2,0.1c-7.2,0.1-14.5,0.2-21.7,0.2c-7.2,0-14.4-0.2-21.7-0.4c-1.8-0.1-3.7-0.1-5.5-0.2
	c-1.5-0.1-3-0.1-4.5,0.1C4.6,0.8,3.2,1.3,2.2,2.3S0.7,4.7,0.5,6c-0.2,1.5,0.1,3,0,4.5c-0.1,1.7-0.3,3.4-0.3,5.1
	C0.1,19.2,0,22.9,0,26.5c0,7.3,0.1,14.6,0.5,21.8c0.1,1.7,0.1,3.4,0.3,5.1C1,54.7,1.3,56,2.1,57c0.9,1.2,2.3,1.4,3.8,1.4
	c1.8,0,3.7,0.1,5.5,0.1c7.2,0.1,14.3,0,21.5-0.1c1.8,0,3.7-0.1,5.5-0.1C39.4,58.3,39.4,56.6,38.3,56.6L38.3,56.6z"/>
<path class="st0" d="M9.5,50.8l8.9,0.1c2.8,0,5.6,0.2,8.4-0.1c1.1-0.1,1.1-1.8,0-1.7c-2.8,0.3-5.6,0.1-8.4,0.1l-8.9-0.1
	C8.5,49.2,8.5,50.8,9.5,50.8z"/>
<path class="st0" d="M9.5,44.5c4.6,0.2,9.2,0.5,13.8,0.3c4-0.2,7.9-0.1,11.9-0.3c1.1-0.1,1.1-1.7,0-1.7c-4,0.2-7.9,0.1-11.9,0.3
	c-4.6,0.2-9.2,0-13.8-0.3C8.4,42.7,8.4,44.4,9.5,44.5z"/>
<path class="st0" d="M8.3,22.5c0.5,4.9,0.7,9.8,0.5,14.8c0,0.6,0.5,0.9,1.1,0.8c2.6-0.6,5.3,0,7.9,0.1c2.8,0.1,5.6,0,8.4,0
	c2.8-0.1,5.7-0.1,8.5-0.3c0.5,0,1-0.1,1.3-0.6c0.3-0.5,0.3-1.3,0.3-1.8c0.1-1.4,0.2-2.8,0.2-4.2c0-3.2-0.2-6.4-0.3-9.6
	c0-0.4-0.4-0.9-0.8-0.8c-2.1,0.2-4.3,0-6.4-0.1c-2.1,0-4.4,0-6.5,0.1c-4.4,0.2-8.7,0.5-13.1,0.5c-1.1,0-1.1,1.7,0,1.7
	c4.4,0,8.7-0.3,13.1-0.5c2.2-0.1,4.4-0.2,6.5-0.1c2.2,0,4.3,0.3,6.4,0.1l-0.8-0.8c0.1,2.7,0.3,5.4,0.3,8.1c0,1.3,0,2.6,0,3.9
	c0,0.6-0.1,1.3-0.1,1.9c0,0.2,0,0.4-0.1,0.5l0,0.2c-0.1,0.3,0.1,0.3,0.4-0.1c-0.1-0.1-1,0.1-1.1,0.1c-5.3,0.3-10.6,0.5-16,0.3
	c-2.8-0.1-5.7-0.8-8.5-0.1l1.1,0.8c0.2-4.9,0-9.9-0.5-14.8C9.9,21.4,8.2,21.4,8.3,22.5L8.3,22.5z"/>
<path class="st0" d="M10.3,6C9.5,5.6,8.6,5.6,7.8,6C7.1,6.4,6.6,7.2,6.6,8c0,1,0.8,2,1.8,2.2c0.6,0.1,1.2,0,1.8-0.3
	c0.5-0.2,0.9-0.6,1.1-1C11.8,7.9,11.4,6.5,10.3,6C9.9,5.8,9.4,5.9,9.2,6.3C9,6.7,9.1,7.2,9.5,7.4c0,0,0.1,0.1,0.1,0.1
	c0.1,0.1-0.2-0.1,0,0c0,0,0.1,0.1,0.1,0.1c0.1,0.1-0.1-0.2,0,0c0,0,0,0.1,0.1,0.1c0,0,0,0,0,0.1c0,0.1,0,0,0-0.1
	c0,0.1,0.1,0.2,0.1,0.3l0-0.2c0,0.1,0,0.2,0,0.3l0-0.2c0,0.1,0,0.1,0,0.2c0,0.1,0,0,0-0.1c0,0-0.1,0.1-0.1,0.1c0,0,0,0.1-0.1,0.1
	c-0.1,0.1,0.1-0.1,0,0C9.7,8.3,9.6,8.3,9.6,8.4c-0.1,0.1,0.2-0.1,0,0c0,0-0.1,0-0.1,0.1c-0.1,0-0.2,0.1-0.2,0.1c-0.1,0.1,0.1,0,0,0
	c0,0-0.1,0-0.1,0c-0.1,0-0.2,0-0.3,0.1l0.2,0c-0.1,0-0.3,0-0.4,0l0.2,0c-0.1,0-0.1,0-0.2,0c0,0-0.1,0-0.1,0c0,0,0.2,0.1,0.1,0
	c-0.1,0-0.1-0.1-0.2-0.1c-0.1-0.1,0.1,0.1,0,0c0,0-0.1,0-0.1-0.1c-0.1-0.1,0-0.1,0,0c0,0,0-0.1-0.1-0.1c0-0.1-0.1-0.1-0.1-0.2
	c0-0.1,0.1,0.2,0,0.1c0,0,0-0.1,0-0.1c0-0.1,0-0.1,0-0.2l0,0.2c0-0.1,0-0.3,0-0.4l0,0.2c0-0.1,0-0.2,0.1-0.2c0.1-0.2-0.1,0.2,0,0
	c0,0,0-0.1,0-0.1c0,0,0-0.1,0.1-0.1c0.1-0.1,0,0.1,0,0.1c0,0,0.1-0.1,0.2-0.2c0.1,0,0.2-0.1,0,0c0,0,0.1,0,0.1-0.1
	c0.1,0,0.1-0.1,0.2-0.1c0.2-0.1-0.2,0.1-0.1,0c0,0,0.1,0,0.1,0c0.1,0,0.2,0,0.3-0.1l-0.2,0c0.2,0,0.3,0,0.5,0l-0.2,0
	c0.1,0,0.2,0,0.3,0.1c0,0,0.1,0,0.1,0c0.1,0-0.2-0.1,0,0c0.4,0.2,0.9,0.1,1.1-0.3C10.8,6.7,10.7,6.2,10.3,6L10.3,6z"/>
<path class="st0" d="M19.2,8.4c0.2-0.9-0.1-1.9-0.8-2.5C18,5.6,17.5,5.4,17,5.4c-0.5,0-1.1,0.3-1.5,0.6c-0.9,0.6-1.4,1.6-1.2,2.7
	c0.2,1.1,1.3,1.9,2.4,1.8C17.8,10.4,18.9,9.6,19.2,8.4c0.1-0.4-0.1-0.9-0.6-1c-0.4-0.1-0.9,0.1-1,0.6c0,0,0,0.1,0,0.1
	c0,0.1,0,0,0-0.1c0,0-0.1,0.2-0.1,0.2c0,0,0,0.1-0.1,0.1c-0.1,0.1,0.1-0.1,0,0c-0.1,0.1-0.1,0.1-0.2,0.2c0,0-0.1,0.1,0,0
	c0,0-0.1,0-0.1,0.1c-0.1,0-0.1,0.1-0.2,0.1c0,0-0.1,0-0.1,0.1c-0.1,0,0.2-0.1,0,0c-0.1,0-0.2,0.1-0.3,0.1c0,0-0.1,0-0.1,0
	c0.2-0.1,0.1,0,0,0c-0.1,0-0.1,0-0.2,0h0c-0.1,0-0.1,0,0.1,0c0,0-0.1,0-0.1,0c0,0-0.1,0-0.1,0c0,0,0,0-0.1,0c-0.1,0-0.1,0,0.1,0
	c0,0-0.1-0.1-0.2-0.1c-0.1,0,0.2,0.1,0,0c0,0,0,0-0.1-0.1c-0.1-0.1,0.1,0.2,0,0c0,0,0-0.1-0.1-0.1c0,0,0-0.1-0.1-0.1
	c-0.1-0.1,0.1,0.2,0,0c0-0.1,0-0.2-0.1-0.2c0,0,0,0.2,0,0.1c0,0,0-0.1,0-0.1s0-0.1,0-0.1c0-0.1,0,0.1,0,0.1c0-0.1,0-0.2,0.1-0.3
	c0,0,0.1-0.2,0,0c-0.1,0.1,0,0,0,0c0-0.1,0.1-0.1,0.1-0.2c0,0,0,0,0.1-0.1c-0.1,0.2-0.1,0.1,0,0c0.1-0.1,0.1-0.1,0.2-0.2
	c0,0,0.1,0,0.1-0.1c0.1-0.1-0.2,0.1,0,0c0.1,0,0.1-0.1,0.2-0.1c0.1,0,0.1-0.1,0.2-0.1c0,0,0.1-0.1,0,0c0,0,0.1,0,0.2-0.1
	c0,0,0.2-0.1,0.2,0c0,0-0.2,0-0.1,0C17,7,17,7,17,7c0.1,0,0.1,0.1-0.1,0c0.1,0,0.1,0,0.2,0c0.1,0,0.1,0.1-0.1,0c0,0,0.1,0,0.1,0.1
	c0,0,0.1,0,0.1,0.1c0.1,0.1-0.1-0.1,0,0c0.1,0.1,0.1,0.1,0.2,0.2c0,0,0,0.1,0-0.1c0,0,0,0.1,0.1,0.1c0,0.1,0.1,0.2,0.1,0.2
	c-0.1-0.1-0.1-0.1,0-0.1c0,0,0,0.1,0,0.1c0,0,0,0.1,0,0.1c0,0,0,0.1,0,0.1l0-0.1c0,0.1,0,0.2,0,0.2c0,0,0,0.1,0,0.1
	c0-0.2,0-0.2,0-0.1c0,0,0,0.1,0,0.1c-0.1,0.4,0.1,0.9,0.6,1C18.6,9.1,19.1,8.9,19.2,8.4L19.2,8.4z"/>
<path class="st0" d="M23.9,10.5c0.6,0.1,1.3,0,1.9-0.2c0.5-0.3,0.9-0.7,1.1-1.3c0.3-0.8,0.3-1.8-0.3-2.5C26.4,6.2,26,6,25.6,5.9
	c-0.4-0.1-0.8-0.2-1.3-0.2c-0.5,0-1,0.2-1.4,0.6c-0.4,0.3-0.7,0.9-0.7,1.3c-0.1,0.6,0,1.4,0.3,1.9C22.8,10,23.3,10.4,23.9,10.5
	c0.4,0.1,0.9-0.1,1-0.6c0.1-0.4-0.1-0.9-0.6-1c-0.1,0-0.2,0-0.2-0.1c0,0-0.1,0-0.1,0c0.2,0,0.1,0.1,0.1,0c0,0-0.1,0-0.1-0.1
	c-0.1,0-0.1-0.1,0,0c0-0.1-0.1-0.1-0.2-0.2c-0.1-0.1,0.1,0.2,0,0c0,0,0-0.1-0.1-0.1c-0.1-0.1,0,0,0,0.1c0,0,0-0.1,0-0.1
	c0-0.1,0-0.2-0.1-0.3c0.1,0.1,0,0.2,0,0.1c0-0.1,0-0.1,0-0.2c0,0,0-0.1,0-0.1l0,0.1c0,0,0-0.1,0-0.1c0-0.1,0-0.2,0.1-0.2
	c0-0.2-0.1,0.1,0,0c0,0,0-0.1,0.1-0.1c0,0,0-0.1,0.1-0.1c0.1-0.2-0.1,0.1,0,0c0,0,0,0,0.1-0.1c0-0.1,0.1-0.1-0.1,0
	c0.1,0,0.1-0.1,0.2-0.1c0.1,0,0.2,0-0.1,0c0,0,0,0,0.1,0c0.1,0,0.2,0,0.2-0.1c-0.2,0.1-0.1,0-0.1,0c0,0,0.1,0,0.1,0
	c0.1,0,0.1,0,0.2,0c0,0,0.1,0,0.1,0c0,0,0.2,0,0,0c-0.2,0,0,0,0,0c0,0,0.1,0,0.1,0c0.1,0,0.3,0.1,0.4,0.1c0.1,0,0.1,0.1-0.1,0
	c0,0,0.1,0,0.1,0c0,0,0.1,0.1,0.2,0.1c0,0-0.2-0.1-0.1-0.1c0,0,0,0,0.1,0.1c0,0,0,0,0,0c0.1,0.1-0.1-0.2-0.1-0.1c0,0,0,0.1,0.1,0.1
	c-0.1-0.2-0.1-0.2,0-0.1c0,0,0,0.1,0,0.1c0,0,0,0,0,0.1c0,0.1,0-0.2,0-0.1c0,0.1,0,0.1,0,0.2c0,0.1,0,0.1,0,0.2c0-0.3,0,0,0,0.1
	c0,0.1,0,0.2-0.1,0.3c0,0-0.1,0.2,0,0c0.1-0.1,0,0.1,0,0.1c0,0,0,0.1,0,0.1c0.1-0.1,0.1-0.1,0-0.1c0,0,0,0-0.1,0.1c0,0,0,0-0.1,0.1
	c-0.1,0.1,0,0,0.1,0c0,0,0,0-0.1,0c0,0-0.1,0-0.1,0c0,0-0.1,0-0.1,0c0.1,0,0.1-0.1,0.1,0c-0.1,0-0.2,0.1-0.3,0.1c0,0-0.1,0-0.1,0
	c0.1,0,0.1,0,0,0c0,0-0.1,0-0.1,0c0,0-0.1,0-0.1,0c-0.1,0-0.3,0-0.1,0c-0.2,0-0.4,0-0.6,0.1c-0.2,0.1-0.3,0.3-0.4,0.5
	C23.3,9.9,23.5,10.4,23.9,10.5L23.9,10.5z"/>
<path class="st0" d="M1.8,15c9.2,0.8,18.4,0,27.5-0.3c9.2-0.3,18.4,0.2,27.6,0.5c5.2,0.2,10.4,0.2,15.6,0c1.1,0,1.1-1.7,0-1.7
	C63.3,14,54.1,13.5,45,13.2c-4.6-0.2-9.2-0.2-13.8-0.1c-4.6,0.1-9.1,0.4-13.7,0.5C12.2,13.8,7,13.8,1.8,13.4
	C0.7,13.3,0.7,14.9,1.8,15L1.8,15z"/>
<path class="st0" d="M54.9,48.4l0,0.2l1.6,0.2c-0.1-1,0-1.9,0-2.9s-0.1-2-0.1-2.9c0-1.9,0-3.9,0.1-5.8c0.1-1.5,0.2-3.2-0.7-4.5
	c-0.9-1.3-2.5-2.1-4-2.1c-1.5-0.1-2.9,0.9-3.7,2.2c-0.8,1.4-0.9,3-0.8,4.6c0.1,3.8,0.1,7.5,0,11.3c-0.1,4.5-0.2,9-0.4,13.5
	c0,1.1,1.6,1.1,1.7,0c0.3-7.1,0.4-14.3,0.4-21.4c0-1.4-0.1-2.9-0.1-4.3c0-1.3,0.3-2.9,1.4-3.7c1.1-0.8,2.9-0.3,3.8,0.6
	c1,1,0.8,2.6,0.7,3.9c-0.1,1.9-0.1,3.9-0.1,5.8c0,1,0.1,2,0.1,2.9c0,1-0.1,1.9,0,2.9c0.1,0.9,1.4,1.2,1.6,0.2l0-0.2
	C56.8,47.8,55.2,47.4,54.9,48.4L54.9,48.4z"/>
<path class="st0" d="M56.6,48.8c-0.3-1.9,2.2-2.9,3.8-2.5c1.8,0.4,2.8,2.2,2.6,4c0,0.4,0.4,0.8,0.8,0.8c0.5,0,0.8-0.4,0.8-0.8
	c0.2-2.5-1.5-5.2-4.1-5.6c-1.3-0.2-2.6,0-3.7,0.7c-1.2,0.7-2.2,2.1-2,3.5c0.1,0.4,0.3,0.8,0.8,0.8C56.2,49.6,56.7,49.2,56.6,48.8
	L56.6,48.8z"/>
<path class="st0" d="M64.6,50c-0.1-0.6,0.2-1.5,0.8-1.9c0.4-0.3,1-0.4,1.5-0.5c0.4-0.1,0.9-0.1,1.4,0.1c0.8,0.3,1.3,1.3,1.6,2
	c0.4,1,0.5,2,0.4,3.1c0,0.4,0.4,0.8,0.8,0.8c0.5,0,0.8-0.4,0.8-0.8c0.1-1.1,0-2.2-0.4-3.2c-0.3-1-0.8-2-1.6-2.7
	c-0.8-0.8-1.9-1-3-0.9c-1.1,0.1-2.2,0.4-3,1.2c-0.8,0.9-1.1,2-0.9,3.2c0.1,0.4,0.6,0.7,1,0.6C64.5,50.9,64.7,50.5,64.6,50L64.6,50z"
	/>
<path class="st0" d="M48.7,49.7c-1.2-3-4.5-5.7-7.9-4.8c-1.8,0.4-2.6,1.9-2.8,3.7c-0.2,2.1-0.1,4.2,0,6.2c0.1,4.2-0.2,8.5,0.6,12.6
	c0.8,3.9,2.8,7.2,5.4,10.2c1.1,1.2,2.4,2.5,4.1,2.7c1,0.1,2.1,0,3.1,0.1c1.2,0,2.4,0,3.6,0c2.2,0,4.4,0,6.6,0.1c2.2,0,4.4,0.2,6.6,0
	c3.3-0.2,5.6-2.2,7.4-4.9c2.2-3.3,4.2-6.8,4.4-10.9c0.1-2.4,0.1-4.9,0-7.3c0-1,0-2,0-3c0-0.8,0-1.7-0.3-2.5
	c-0.7-1.9-2.6-2.8-4.5-2.5c-1.9,0.2-3.6,1.4-4.4,3.2c-0.4,1,1,1.8,1.4,0.8c0.6-1.3,1.9-2.3,3.3-2.4s2.5,0.7,2.7,2.1
	c0.1,0.6,0,1.3,0,2c0,0.8,0,1.7,0,2.5c0,1.9,0,3.9,0,5.8c0,1.8-0.2,3.5-0.8,5.3c-0.6,1.6-1.4,3-2.3,4.5c-1.4,2.3-3,4.8-5.8,5.5
	c-1.7,0.4-3.5,0.2-5.2,0.2c-1.9,0-3.8,0-5.7-0.1c-1.9,0-4,0-6-0.1c-0.9,0-1.8,0-2.7,0c-0.8,0-1.5,0-2.2-0.5
	c-1.3-0.8-2.3-2.1-3.2-3.2c-1.1-1.3-1.9-2.8-2.6-4.4c-1.5-3.3-1.6-6.9-1.6-10.5c0-2.1-0.1-4.2-0.1-6.3c0-1.1,0-2.2,0-3.2
	c0-0.9,0-1.9,0.3-2.7c0.6-1.6,2.6-1.5,3.9-1c1.5,0.6,2.8,1.9,3.4,3.4c0.2,0.4,0.5,0.7,1,0.6C48.5,50.6,48.8,50.1,48.7,49.7
	L48.7,49.7z"/>
<path class="st0" d="M47.9,33.7c-2.4,0.3-4.5-2.1-3.2-4.4c0.7-1.2,1.8-1.6,3.1-1.6c1.6,0,3.3,0,5-0.1c1.6,0,3.3,0,5,0
	c1.3,0,2.6-0.1,3.8,0.1c1.1,0.2,2,0.7,2.4,1.7c0.3,0.8,0.3,1.8,0,2.6c-0.5,1.3-1.6,1.4-2.8,1.4c-1.7,0.1-3.5,0-5.2,0.1
	c-1.1,0-1.1,1.7,0,1.7c1.9,0,3.8,0,5.7-0.1c1.5-0.1,2.8-0.5,3.6-1.8c1.4-2.3,0.7-5.7-1.8-6.8C62,25.9,60.5,26,59.1,26
	c-2.1,0-4.1,0-6.2,0c-2.1,0-4.1-0.1-6.1,0.1c-1.5,0.2-2.9,1.1-3.6,2.5c-0.8,1.5-0.7,3.3,0.3,4.7c1,1.4,2.7,2.2,4.4,2
	C49,35.2,49,33.6,47.9,33.7L47.9,33.7z"/>
<path class="st0" d="M45.7,33.3c0.5-0.9,1.1-1.9,1.8-2.7c0.3-0.4,0.6-0.9,0.9-1.3c0.2-0.2,0.3-0.5,0.5-0.7c0.1-0.1,0.2-0.2,0.3-0.4
	c0-0.1,0.1-0.1,0.1-0.2c0.1-0.1,0.1-0.1,0,0L49,28.2l0,0L48.2,28l0,0L48,27.4v0c0.2-0.3,0.4-0.5,0.6-0.8h0c-0.4,0.2-0.7,0.6-0.6,1
	c0.1,0.4,0.6,0.7,1,0.6h0c0.4-0.1,0.6-0.4,0.6-0.8c0-0.2-0.1-0.5-0.3-0.6c-0.2-0.2-0.5-0.3-0.8-0.2c-0.4,0.1-0.6,0.4-0.8,0.7
	c-0.2,0.2-0.4,0.5-0.5,0.7c-0.3,0.5-0.7,1-1,1.4c-0.7,1-1.3,1.9-1.9,3c-0.2,0.4-0.1,0.9,0.3,1.1S45.5,33.7,45.7,33.3L45.7,33.3z"/>
<path class="st0" d="M50.7,31.9c0,0,0.1-0.1,0.1-0.1c0,0,0.1-0.1,0,0c0.1-0.1,0.1-0.2,0.2-0.3c0.1-0.2,0.3-0.3,0.4-0.5
	c0.3-0.4,0.6-0.7,0.9-1.1c0.6-0.7,1.1-1.4,1.7-2.1c0.3-0.3,0.4-0.9,0-1.2c-0.3-0.3-0.9-0.4-1.2,0c-1.2,1.5-2.4,2.9-3.6,4.4
	c-0.3,0.3-0.1,0.9,0.3,1.1C50,32.4,50.4,32.2,50.7,31.9L50.7,31.9z"/>
<path class="st0" d="M54.8,32.2c0.8-0.7,1.5-1.6,2.1-2.5c0.3-0.4,0.6-0.8,0.9-1.2c0,0,0.1-0.1,0.1-0.1c0.2-0.2,0,0.1,0-0.1
	c0.1-0.1,0.2-0.2,0.2-0.3c0.2-0.2,0.3-0.4,0.5-0.6l-0.4,0.2l0.1,0l-0.8-0.2l0,0l-0.2-0.6v0c0.1-0.2,0.3-0.5,0.4-0.7l0,0
	c-0.4,0.2-0.5,0.8-0.3,1.1c0.3,0.4,0.7,0.5,1.1,0.3l0,0c0.3-0.1,0.4-0.4,0.4-0.7c0-0.7-0.8-1.1-1.3-0.8c-0.3,0.2-0.5,0.5-0.7,0.7
	c-0.4,0.5-0.8,1-1.2,1.5c-0.2,0.2-0.3,0.5-0.5,0.7c0,0-0.2,0.2-0.1,0.1c0,0.1-0.1,0.1-0.1,0.2c-0.1,0.1-0.2,0.2-0.3,0.4
	c-0.4,0.5-0.8,0.9-1.2,1.3c-0.3,0.3-0.3,0.9,0,1.2C53.9,32.5,54.4,32.5,54.8,32.2L54.8,32.2z"/>
<path class="st0" d="M57.6,34.3c1.7-2.1,3.3-4.3,4.9-6.6c0.3-0.4,0.1-0.9-0.3-1.1c-0.4-0.2-0.9-0.1-1.1,0.3c-1.5,2.1-3,4.2-4.6,6.2
	c-0.3,0.4-0.3,0.8,0,1.2C56.7,34.6,57.4,34.7,57.6,34.3L57.6,34.3z"/>
<path class="st0" d="M62,33.9C62,33.8,62,33.8,62,33.9C61.9,34,61.9,34,62,33.9c0,0,0.1-0.1,0.1-0.2c0.1-0.2,0.3-0.3,0.4-0.5
	c0,0,0.1-0.1,0.1-0.1c-0.1,0.1,0,0,0,0c0.1-0.1,0.1-0.2,0.2-0.2c0.1-0.2,0.3-0.4,0.4-0.5c0.5-0.7,1.1-1.3,1.7-2
	c0.3-0.3,0.3-0.9,0-1.2c-0.3-0.3-0.9-0.3-1.2,0c-0.6,0.7-1.2,1.4-1.8,2.1c-0.3,0.4-0.6,0.8-0.9,1.2c-0.3,0.4-0.7,0.9-0.7,1.4
	c0,0.4,0.4,0.9,0.8,0.8C61.6,34.7,62,34.3,62,33.9L62,33.9z"/>
<path class="st0" d="M11.1,30.7l0.2,4c0,0.4,0.4,0.9,0.8,0.8c0.5,0,1,0,1.5,0c0.2,0,0.5,0,0.7,0.1c0.1,0,0.2,0,0.4,0c-0.1,0,0,0,0,0
	c0.1,0,0.2,0,0.2,0c0.4,0.1,0.9-0.1,1-0.6c0.1-0.4-0.1-0.9-0.6-1c-1.1-0.2-2.2-0.3-3.3-0.2l0.8,0.8l-0.2-4c0-0.4-0.4-0.9-0.8-0.8
	C11.5,29.9,11.1,30.2,11.1,30.7z"/>
<path class="st0" d="M18.1,35.7C18.1,35.7,18.1,35.7,18.1,35.7L18.1,35.7c0,0,0.1,0,0.3-0.1L18.1,35.7c0.2-0.1,0.4-0.1,0.5,0l-0.2,0
	c0.1,0,0.3,0.1,0.4,0.1l-0.2-0.1l0,0c0.1,0.1,0.2,0.1,0.3,0.1c0.1,0,0.2,0,0.3,0c0.2-0.1,0.4-0.2,0.5-0.4c0.1-0.2,0.2-0.4,0.1-0.6
	l-0.1-0.2c-0.1-0.1-0.2-0.2-0.3-0.3c-0.2-0.1-0.3-0.1-0.5-0.2c-0.2,0-0.4-0.1-0.6-0.1c-0.4,0-0.7,0.1-1.1,0.3
	c-0.2,0.1-0.3,0.3-0.4,0.5c-0.1,0.2,0,0.5,0.1,0.6c0.1,0.2,0.3,0.3,0.5,0.4l0.2,0C17.8,35.9,17.9,35.8,18.1,35.7L18.1,35.7z"/>
<path class="st0" d="M21.1,36h0.3c0.1,0,0.2,0,0.3-0.1c0.1,0,0.2-0.1,0.3-0.2c0.1-0.1,0.1-0.2,0.2-0.3c0-0.1,0.1-0.2,0.1-0.3l0-0.2
	c0-0.1-0.1-0.3-0.2-0.4l-0.2-0.1c-0.1-0.1-0.3-0.1-0.4-0.1h-0.3c-0.1,0-0.2,0-0.3,0.1c-0.1,0-0.2,0.1-0.3,0.2
	c-0.1,0.1-0.1,0.2-0.2,0.3c0,0.1-0.1,0.2-0.1,0.3l0,0.2c0,0.1,0.1,0.3,0.2,0.4l0.2,0.1C20.8,36,21,36,21.1,36z"/>
<path class="st0" d="M27.6,24.5h1c0.2,0,0.4-0.1,0.6-0.2c0.1-0.1,0.1-0.2,0.2-0.3c0-0.1,0.1-0.2,0.1-0.3c0-0.2-0.1-0.4-0.2-0.6
	c-0.2-0.1-0.4-0.2-0.6-0.2h-1c-0.2,0-0.4,0.1-0.6,0.2c-0.1,0.1-0.1,0.2-0.2,0.3c0,0.1-0.1,0.2-0.1,0.3c0,0.2,0.1,0.4,0.2,0.6
	C27.2,24.5,27.4,24.5,27.6,24.5z"/>
<path class="st0" d="M30.9,24.7c0.8,0.1,1.7,0,2.5-0.1l-1-0.6c0.2,0.5,0.3,0.9,0.4,1.4l0-0.2v0c0,0.2,0.1,0.4,0.2,0.6
	c0.1,0.1,0.4,0.3,0.6,0.2c0.2,0,0.4-0.1,0.6-0.2c0.1-0.1,0.3-0.4,0.2-0.6c-0.1-0.6-0.2-1.1-0.4-1.7c-0.1-0.2-0.2-0.4-0.4-0.5
	c-0.2-0.1-0.4-0.1-0.6-0.1c-0.1,0-0.3,0-0.4,0.1l0.2,0c-0.6,0.1-1.3,0.1-1.9,0.1c-0.4,0-0.8,0.4-0.8,0.8
	C30.1,24.4,30.4,24.7,30.9,24.7L30.9,24.7z"/>
<path class="st0" d="M4.3,48.3c0,1.1,0,2.2,0.1,3.3c0.1,1.1,0.2,2.1,1.2,2.7c0.8,0.5,2,0.6,2.9,0.8c1.1,0.1,2.2,0.1,3.3-0.1
	c0.4-0.1,0.7-0.6,0.6-1c-0.1-0.5-0.6-0.6-1-0.6c-0.9,0.1-1.7,0.1-2.6,0c-0.4,0-0.8-0.1-1.2-0.2c-0.3-0.1-0.8-0.2-1-0.3
	c-0.1,0-0.1-0.1-0.2-0.1c0.1,0.1-0.1-0.1,0,0c-0.1-0.1-0.1-0.2-0.2-0.4c-0.1-0.4-0.1-0.8-0.1-1.2C6,50.2,6,49.2,6,48.3
	C6,47.2,4.4,47.2,4.3,48.3L4.3,48.3z"/>
<path class="st0" d="M65.6,17.8c0.7,0,1.4,0,2.1,0c0.2,0,0.3,0,0.5,0c-0.1,0-0.1,0,0,0c0.1,0,0.1,0,0.2,0c0.1,0,0.1,0,0.2,0.1
	c-0.2,0,0,0,0,0c0.1,0.1-0.1,0,0,0c0,0,0,0,0.1,0.1c-0.1-0.1-0.1-0.1,0,0c0,0,0,0,0,0l0,0.1c0.1,0.2,0-0.1,0,0.1c0,0.2,0,0.3,0,0.5
	c0,0.4,0,0.7,0,1.1c0,0.7,0,1.5,0,2.2c0,0.4,0.4,0.9,0.8,0.8c0.4,0,0.8-0.4,0.8-0.8c0-0.8,0-1.6,0-2.4s0.1-1.8-0.4-2.5
	c-0.5-0.6-1.2-0.8-2-0.9c-0.8-0.1-1.6-0.1-2.4,0c-0.4,0-0.9,0.4-0.8,0.8C64.8,17.3,65.1,17.8,65.6,17.8L65.6,17.8z"/>
</svg>
