<?xml version="1.0" encoding="utf-8"?>
<!-- Generator: Adobe Illustrator 27.3.1, SVG Export Plug-In . SVG Version: 6.00 Build 0)  -->
<svg version="1.1" id="Layer_1" xmlns="http://www.w3.org/2000/svg" xmlns:xlink="http://www.w3.org/1999/xlink" x="0px" y="0px"
	 viewBox="0 0 1920 742" style="enable-background:new 0 0 1920 742;" xml:space="preserve">
<style type="text/css">
	.st0{fill:#0220A5;stroke:#000000;stroke-miterlimit:10;}
	.st1{fill:#2D4FC9;}
</style>
<rect class="st0" width="1920" height="742"/>
<g>
	<circle class="st1" cx="1686.3" cy="127.3" r="2.5"/>
	<circle class="st1" cx="1787.3" cy="127.3" r="2.5"/>
	<circle class="st1" cx="1711.5" cy="127.3" r="2.5"/>
	<circle class="st1" cx="1812.5" cy="127.3" r="2.5"/>
	<circle class="st1" cx="1736.8" cy="127.3" r="2.5"/>
	<circle class="st1" cx="1837.7" cy="127.3" r="2.5"/>
	<circle class="st1" cx="1762" cy="127.3" r="2.5"/>
	<circle class="st1" cx="1863" cy="127.3" r="2.5"/>
	<circle class="st1" cx="1686.3" cy="152.5" r="2.5"/>
	<circle class="st1" cx="1787.3" cy="152.5" r="2.5"/>
	<circle class="st1" cx="1711.5" cy="152.5" r="2.5"/>
	<circle class="st1" cx="1812.5" cy="152.5" r="2.5"/>
	<circle class="st1" cx="1736.8" cy="152.5" r="2.5"/>
	<circle class="st1" cx="1837.7" cy="152.5" r="2.5"/>
	<circle class="st1" cx="1762" cy="152.5" r="2.5"/>
	<circle class="st1" cx="1863" cy="152.5" r="2.5"/>
	<circle class="st1" cx="1686.3" cy="177.8" r="2.5"/>
	<circle class="st1" cx="1787.3" cy="177.8" r="2.5"/>
	<circle class="st1" cx="1711.5" cy="177.8" r="2.5"/>
	<circle class="st1" cx="1812.5" cy="177.8" r="2.5"/>
	<circle class="st1" cx="1736.8" cy="177.8" r="2.5"/>
	<circle class="st1" cx="1837.7" cy="177.8" r="2.5"/>
	<circle class="st1" cx="1762" cy="177.8" r="2.5"/>
	<circle class="st1" cx="1863" cy="177.8" r="2.5"/>
	<circle class="st1" cx="1686.3" cy="203" r="2.5"/>
	<circle class="st1" cx="1787.3" cy="203" r="2.5"/>
	<circle class="st1" cx="1711.5" cy="203" r="2.5"/>
	<circle class="st1" cx="1812.5" cy="203" r="2.5"/>
	<circle class="st1" cx="1736.8" cy="203" r="2.5"/>
	<circle class="st1" cx="1837.7" cy="203" r="2.5"/>
	<circle class="st1" cx="1762" cy="203" r="2.5"/>
	<circle class="st1" cx="1863" cy="203" r="2.5"/>
	<circle class="st1" cx="1686.3" cy="228.3" r="2.5"/>
	<circle class="st1" cx="1787.3" cy="228.3" r="2.5"/>
	<circle class="st1" cx="1711.5" cy="228.3" r="2.5"/>
	<circle class="st1" cx="1812.5" cy="228.3" r="2.5"/>
	<circle class="st1" cx="1736.8" cy="228.3" r="2.5"/>
	<circle class="st1" cx="1837.7" cy="228.3" r="2.5"/>
	<circle class="st1" cx="1762" cy="228.3" r="2.5"/>
	<circle class="st1" cx="1863" cy="228.3" r="2.5"/>
	<circle class="st1" cx="1686.3" cy="253.5" r="2.5"/>
	<circle class="st1" cx="1787.3" cy="253.5" r="2.5"/>
	<circle class="st1" cx="1711.5" cy="253.5" r="2.5"/>
	<circle class="st1" cx="1812.5" cy="253.5" r="2.5"/>
	<circle class="st1" cx="1736.8" cy="253.5" r="2.5"/>
	<circle class="st1" cx="1837.7" cy="253.5" r="2.5"/>
	<circle class="st1" cx="1762" cy="253.5" r="2.5"/>
	<circle class="st1" cx="1863" cy="253.5" r="2.5"/>
	<circle class="st1" cx="1686.3" cy="278.8" r="2.5"/>
	<circle class="st1" cx="1787.3" cy="278.8" r="2.5"/>
	<circle class="st1" cx="1711.5" cy="278.8" r="2.5"/>
	<circle class="st1" cx="1812.5" cy="278.8" r="2.5"/>
	<circle class="st1" cx="1736.8" cy="278.8" r="2.5"/>
	<circle class="st1" cx="1837.7" cy="278.8" r="2.5"/>
	<circle class="st1" cx="1762" cy="278.8" r="2.5"/>
	<circle class="st1" cx="1863" cy="278.8" r="2.5"/>
	<circle class="st1" cx="1686.3" cy="304" r="2.5"/>
	<circle class="st1" cx="1787.3" cy="304" r="2.5"/>
	<circle class="st1" cx="1711.5" cy="304" r="2.5"/>
	<circle class="st1" cx="1812.5" cy="304" r="2.5"/>
	<circle class="st1" cx="1736.8" cy="304" r="2.5"/>
	<circle class="st1" cx="1837.7" cy="304" r="2.5"/>
	<circle class="st1" cx="1762" cy="304" r="2.5"/>
	<circle class="st1" cx="1863" cy="304" r="2.5"/>
</g>
<g>
	<circle class="st1" cx="129.2" cy="482.1" r="2.5"/>
	<circle class="st1" cx="230.1" cy="482.1" r="2.5"/>
	<circle class="st1" cx="154.4" cy="482.1" r="2.5"/>
	<circle class="st1" cx="255.4" cy="482.1" r="2.5"/>
	<circle class="st1" cx="179.7" cy="482.1" r="2.5"/>
	<circle class="st1" cx="280.6" cy="482.1" r="2.5"/>
	<circle class="st1" cx="204.9" cy="482.1" r="2.5"/>
	<circle class="st1" cx="305.9" cy="482.1" r="2.5"/>
	<circle class="st1" cx="129.2" cy="507.4" r="2.5"/>
	<circle class="st1" cx="230.1" cy="507.4" r="2.5"/>
	<circle class="st1" cx="154.4" cy="507.4" r="2.5"/>
	<circle class="st1" cx="255.4" cy="507.4" r="2.5"/>
	<circle class="st1" cx="179.7" cy="507.4" r="2.5"/>
	<circle class="st1" cx="280.6" cy="507.4" r="2.5"/>
	<circle class="st1" cx="204.9" cy="507.4" r="2.5"/>
	<circle class="st1" cx="305.9" cy="507.4" r="2.5"/>
	<circle class="st1" cx="129.2" cy="532.6" r="2.5"/>
	<circle class="st1" cx="230.1" cy="532.6" r="2.5"/>
	<circle class="st1" cx="154.4" cy="532.6" r="2.5"/>
	<circle class="st1" cx="255.4" cy="532.6" r="2.5"/>
	<circle class="st1" cx="179.7" cy="532.6" r="2.5"/>
	<circle class="st1" cx="280.6" cy="532.6" r="2.5"/>
	<circle class="st1" cx="204.9" cy="532.6" r="2.5"/>
	<circle class="st1" cx="305.9" cy="532.6" r="2.5"/>
	<circle class="st1" cx="129.2" cy="557.8" r="2.5"/>
	<circle class="st1" cx="230.1" cy="557.8" r="2.5"/>
	<circle class="st1" cx="154.4" cy="557.8" r="2.5"/>
	<circle class="st1" cx="255.4" cy="557.8" r="2.5"/>
	<circle class="st1" cx="179.7" cy="557.8" r="2.5"/>
	<circle class="st1" cx="280.6" cy="557.8" r="2.5"/>
	<circle class="st1" cx="204.9" cy="557.8" r="2.5"/>
	<circle class="st1" cx="305.9" cy="557.8" r="2.5"/>
	<circle class="st1" cx="129.2" cy="583.1" r="2.5"/>
	<circle class="st1" cx="230.1" cy="583.1" r="2.5"/>
	<circle class="st1" cx="154.4" cy="583.1" r="2.5"/>
	<circle class="st1" cx="255.4" cy="583.1" r="2.5"/>
	<circle class="st1" cx="179.7" cy="583.1" r="2.5"/>
	<circle class="st1" cx="280.6" cy="583.1" r="2.5"/>
	<circle class="st1" cx="204.9" cy="583.1" r="2.5"/>
	<circle class="st1" cx="305.9" cy="583.1" r="2.5"/>
	<circle class="st1" cx="129.2" cy="608.3" r="2.5"/>
	<circle class="st1" cx="230.1" cy="608.3" r="2.5"/>
	<circle class="st1" cx="154.4" cy="608.3" r="2.5"/>
	<circle class="st1" cx="255.4" cy="608.3" r="2.5"/>
	<circle class="st1" cx="179.7" cy="608.3" r="2.5"/>
	<circle class="st1" cx="280.6" cy="608.3" r="2.5"/>
	<circle class="st1" cx="204.9" cy="608.3" r="2.5"/>
	<circle class="st1" cx="305.9" cy="608.3" r="2.5"/>
	<circle class="st1" cx="129.2" cy="633.6" r="2.5"/>
	<circle class="st1" cx="230.1" cy="633.6" r="2.5"/>
	<circle class="st1" cx="154.4" cy="633.6" r="2.5"/>
	<circle class="st1" cx="255.4" cy="633.6" r="2.5"/>
	<circle class="st1" cx="179.7" cy="633.6" r="2.5"/>
	<circle class="st1" cx="280.6" cy="633.6" r="2.5"/>
	<circle class="st1" cx="204.9" cy="633.6" r="2.5"/>
	<circle class="st1" cx="305.9" cy="633.6" r="2.5"/>
	<circle class="st1" cx="129.2" cy="658.8" r="2.5"/>
	<circle class="st1" cx="230.1" cy="658.8" r="2.5"/>
	<circle class="st1" cx="154.4" cy="658.8" r="2.5"/>
	<circle class="st1" cx="255.4" cy="658.8" r="2.5"/>
	<circle class="st1" cx="179.7" cy="658.8" r="2.5"/>
	<circle class="st1" cx="280.6" cy="658.8" r="2.5"/>
	<circle class="st1" cx="204.9" cy="658.8" r="2.5"/>
	<circle class="st1" cx="305.9" cy="658.8" r="2.5"/>
</g>
</svg>
