<svg width="48" height="49" viewBox="0 0 48 49" fill="none" xmlns="http://www.w3.org/2000/svg">
<g opacity="0.3">
<rect x="2.13281" y="7.69531" width="37.3333" height="37.3333" rx="18.6667" fill="#E9F3FC"/>
</g>
<path d="M18.6651 5.02344C16.3198 5.02344 14.3984 6.94482 14.3984 9.2901V30.6234C14.3984 32.9687 16.3198 34.8901 18.6651 34.8901H29.3318C29.6147 34.8901 29.886 34.7777 30.086 34.5777C30.2861 34.3776 30.3984 34.1063 30.3984 33.8234C30.3984 33.5405 30.2861 33.2692 30.086 33.0692C29.886 32.8692 29.6147 32.7568 29.3318 32.7568H18.6651C17.4648 32.7568 16.5318 31.8238 16.5318 30.6234V9.2901C16.5318 8.08979 17.4648 7.15677 18.6651 7.15677H33.5984C34.7987 7.15677 35.7318 8.08979 35.7318 9.2901V11.4234C35.7318 11.7063 35.8441 11.9776 36.0442 12.1777C36.2442 12.3777 36.5155 12.4901 36.7984 12.4901C37.0813 12.4901 37.3526 12.3777 37.5527 12.1777C37.7527 11.9776 37.8651 11.7063 37.8651 11.4234V9.2901C37.8651 6.94482 35.9437 5.02344 33.5984 5.02344H18.6651Z" fill="white"/>
<path d="M36.7948 13.5547C32.6837 13.5547 29.3281 16.9103 29.3281 21.0214C29.3281 23.5524 30.6035 25.7927 32.5406 27.1443V33.8214C32.5408 34.0146 32.5934 34.2041 32.6929 34.3697C32.7924 34.5353 32.935 34.6708 33.1054 34.7617C33.2759 34.8526 33.4679 34.8956 33.6609 34.8859C33.8538 34.8762 34.0405 34.8143 34.201 34.7068L36.7948 32.9713L39.3885 34.7068C39.5491 34.8143 39.7358 34.8762 39.9287 34.8859C40.1217 34.8956 40.3137 34.8526 40.4841 34.7617C40.6546 34.6708 40.7972 34.5353 40.8967 34.3697C40.9962 34.2041 41.0488 34.0146 41.049 33.8214V27.1443C42.9861 25.7927 44.2615 23.5524 44.2615 21.0214C44.2615 16.9103 40.9059 13.5547 36.7948 13.5547ZM36.7948 15.688C39.7529 15.688 42.1281 18.0632 42.1281 21.0214C42.1281 23.9795 39.7529 26.3547 36.7948 26.3547C33.8366 26.3547 31.4615 23.9795 31.4615 21.0214C31.4615 18.0632 33.8366 15.688 36.7948 15.688ZM34.674 28.1755C35.3469 28.3759 36.0584 28.488 36.7948 28.488C37.5312 28.488 38.2427 28.3759 38.9156 28.1755V31.8255L37.3885 30.8026C37.2129 30.6849 37.0062 30.6221 36.7948 30.6221C36.5834 30.6221 36.3767 30.6849 36.201 30.8026L34.674 31.8255V28.1755Z" fill="white"/>
<path d="M20.801 10.3594C20.5181 10.3594 20.2468 10.4718 20.0468 10.6718C19.8468 10.8718 19.7344 11.1431 19.7344 11.426C19.7344 11.7089 19.8468 11.9803 20.0468 12.1803C20.2468 12.3803 20.5181 12.4927 20.801 12.4927H24.001C24.2839 12.4927 24.5552 12.3803 24.7553 12.1803C24.9553 11.9803 25.0677 11.7089 25.0677 11.426C25.0677 11.1431 24.9553 10.8718 24.7553 10.6718C24.5552 10.4718 24.2839 10.3594 24.001 10.3594H20.801ZM20.801 14.626C20.5181 14.626 20.2468 14.7384 20.0468 14.9385C19.8468 15.1385 19.7344 15.4098 19.7344 15.6927C19.7344 15.9756 19.8468 16.2469 20.0468 16.447C20.2468 16.647 20.5181 16.7594 20.801 16.7594H27.201C27.4839 16.7594 27.7552 16.647 27.9553 16.447C28.1553 16.2469 28.2677 15.9756 28.2677 15.6927C28.2677 15.4098 28.1553 15.1385 27.9553 14.9385C27.7552 14.7384 27.4839 14.626 27.201 14.626H20.801ZM20.801 18.8927C20.5181 18.8927 20.2468 19.0051 20.0468 19.2051C19.8468 19.4052 19.7344 19.6765 19.7344 19.9594C19.7344 20.2423 19.8468 20.5136 20.0468 20.7136C20.2468 20.9137 20.5181 21.026 20.801 21.026H24.001C24.2839 21.026 24.5552 20.9137 24.7553 20.7136C24.9553 20.5136 25.0677 20.2423 25.0677 19.9594C25.0677 19.6765 24.9553 19.4052 24.7553 19.2051C24.5552 19.0051 24.2839 18.8927 24.001 18.8927H20.801Z" fill="white"/>
</svg>
