<?xml version="1.0" encoding="utf-8"?>
<!-- Generator: Adobe Illustrator 27.3.1, SVG Export Plug-In . SVG Version: 6.00 Build 0)  -->
<svg version="1.1" id="Layer_1" xmlns="http://www.w3.org/2000/svg" xmlns:xlink="http://www.w3.org/1999/xlink" x="0px" y="0px"
	 viewBox="0 0 115 115" style="enable-background:new 0 0 115 115;" xml:space="preserve">
<style type="text/css">
	.st0{fill:#2D4FC9;}
</style>
<circle class="st0" cx="1.6" cy="1.6" r="1.6"/>
<circle class="st0" cx="65.5" cy="1.6" r="1.6"/>
<circle class="st0" cx="17.6" cy="1.6" r="1.6"/>
<circle class="st0" cx="81.5" cy="1.6" r="1.6"/>
<circle class="st0" cx="33.5" cy="1.6" r="1.6"/>
<circle class="st0" cx="97.4" cy="1.6" r="1.6"/>
<circle class="st0" cx="49.5" cy="1.6" r="1.6"/>
<circle class="st0" cx="113.4" cy="1.6" r="1.6"/>
<circle class="st0" cx="1.6" cy="17.6" r="1.6"/>
<circle class="st0" cx="65.5" cy="17.6" r="1.6"/>
<circle class="st0" cx="17.6" cy="17.6" r="1.6"/>
<circle class="st0" cx="81.5" cy="17.6" r="1.6"/>
<circle class="st0" cx="33.5" cy="17.6" r="1.6"/>
<circle class="st0" cx="97.4" cy="17.6" r="1.6"/>
<circle class="st0" cx="49.5" cy="17.6" r="1.6"/>
<circle class="st0" cx="113.4" cy="17.6" r="1.6"/>
<circle class="st0" cx="1.6" cy="33.5" r="1.6"/>
<circle class="st0" cx="65.5" cy="33.5" r="1.6"/>
<circle class="st0" cx="17.6" cy="33.5" r="1.6"/>
<circle class="st0" cx="81.5" cy="33.5" r="1.6"/>
<circle class="st0" cx="33.5" cy="33.5" r="1.6"/>
<circle class="st0" cx="97.4" cy="33.5" r="1.6"/>
<circle class="st0" cx="49.5" cy="33.5" r="1.6"/>
<circle class="st0" cx="113.4" cy="33.5" r="1.6"/>
<circle class="st0" cx="1.6" cy="49.5" r="1.6"/>
<circle class="st0" cx="65.5" cy="49.5" r="1.6"/>
<circle class="st0" cx="17.6" cy="49.5" r="1.6"/>
<circle class="st0" cx="81.5" cy="49.5" r="1.6"/>
<circle class="st0" cx="33.5" cy="49.5" r="1.6"/>
<circle class="st0" cx="97.4" cy="49.5" r="1.6"/>
<circle class="st0" cx="49.5" cy="49.5" r="1.6"/>
<circle class="st0" cx="113.4" cy="49.5" r="1.6"/>
<circle class="st0" cx="1.6" cy="65.5" r="1.6"/>
<circle class="st0" cx="65.5" cy="65.5" r="1.6"/>
<circle class="st0" cx="17.6" cy="65.5" r="1.6"/>
<circle class="st0" cx="81.5" cy="65.5" r="1.6"/>
<circle class="st0" cx="33.5" cy="65.5" r="1.6"/>
<circle class="st0" cx="97.4" cy="65.5" r="1.6"/>
<circle class="st0" cx="49.5" cy="65.5" r="1.6"/>
<circle class="st0" cx="113.4" cy="65.5" r="1.6"/>
<circle class="st0" cx="1.6" cy="81.5" r="1.6"/>
<circle class="st0" cx="65.5" cy="81.5" r="1.6"/>
<circle class="st0" cx="17.6" cy="81.5" r="1.6"/>
<circle class="st0" cx="81.5" cy="81.5" r="1.6"/>
<circle class="st0" cx="33.5" cy="81.5" r="1.6"/>
<circle class="st0" cx="97.4" cy="81.5" r="1.6"/>
<circle class="st0" cx="49.5" cy="81.5" r="1.6"/>
<circle class="st0" cx="113.4" cy="81.5" r="1.6"/>
<circle class="st0" cx="1.6" cy="97.4" r="1.6"/>
<circle class="st0" cx="65.5" cy="97.4" r="1.6"/>
<circle class="st0" cx="17.6" cy="97.4" r="1.6"/>
<circle class="st0" cx="81.5" cy="97.4" r="1.6"/>
<circle class="st0" cx="33.5" cy="97.4" r="1.6"/>
<circle class="st0" cx="97.4" cy="97.4" r="1.6"/>
<circle class="st0" cx="49.5" cy="97.4" r="1.6"/>
<circle class="st0" cx="113.4" cy="97.4" r="1.6"/>
<circle class="st0" cx="1.6" cy="113.4" r="1.6"/>
<circle class="st0" cx="65.5" cy="113.4" r="1.6"/>
<circle class="st0" cx="17.6" cy="113.4" r="1.6"/>
<circle class="st0" cx="81.5" cy="113.4" r="1.6"/>
<circle class="st0" cx="33.5" cy="113.4" r="1.6"/>
<circle class="st0" cx="97.4" cy="113.4" r="1.6"/>
<circle class="st0" cx="49.5" cy="113.4" r="1.6"/>
<circle class="st0" cx="113.4" cy="113.4" r="1.6"/>
</svg>
