<?xml version="1.0" encoding="utf-8"?>
<!-- Generator: Adobe Illustrator 27.3.1, SVG Export Plug-In . SVG Version: 6.00 Build 0)  -->
<svg version="1.1" id="Layer_1" xmlns="http://www.w3.org/2000/svg" xmlns:xlink="http://www.w3.org/1999/xlink" x="0px" y="0px"
	 viewBox="0 0 90 30" style="enable-background:new 0 0 90 30;" xml:space="preserve">
<style type="text/css">
	.st0{fill:#817DA8;}
	.st1{fill:#F68220;}
	.st2{fill:#F4AA40;}
</style>
<g>
	<path class="st0" d="M19.2,9.4c0.2,0.1,0.4,0.1,0.5,0C19.9,9.4,20,9.2,20.1,9c0.2-0.5,0.3-1.1,0.2-1.7c0-0.2-0.1-0.4-0.2-0.5
		c-0.1-0.2-0.3-0.3-0.5-0.4c0,0-0.7-0.5-1.3,0c-0.5,0.5-0.4,1.2-0.4,1.8C18,8.6,18.2,8.8,18.4,9C18.6,9.2,18.9,9.4,19.2,9.4z"/>
	<path class="st0" d="M53.4,13.3c0.8,0,1.4-0.8,1.4-1.8s-0.6-1.8-1.4-1.8c-0.8,0-1.4,0.8-1.4,1.8S52.6,13.3,53.4,13.3z"/>
	<path class="st1" d="M16,22.2c1.2-1.6,2.2-3.3,3.1-5c0,0,0.3-0.6,0.4,0c0,0.9-0.1,1.8-0.4,2.6c-0.3,0.9-0.7,2.5-0.7,2.5
		s-0.3,0.5,0.2,0.8c0.5,0.3,0.7-0.4,0.7-0.4s2.4-4.9,3.4-13.3c0,0-0.1-7.4-0.1-7.9c0-0.4-0.1-0.8-0.5-0.8c-0.4,0-0.5,0.4-0.5,0.9
		c0,2.1-0.1,4.2-0.3,6.3c-0.2,0.9-0.5,1.8-0.9,2c-0.2,0.1-0.4,0.2-0.6,0.3c-0.2,0.3-0.5,0.6-0.8,0.8c-0.2,0.3-0.6,0.4-0.9,0.5
		c-0.3,0.1-0.7,0-1-0.1c-0.7-0.3-0.5-1.2-0.5-1.4V9.7c0,0,0.1-0.5-0.3-0.5c-0.4,0-0.5,0.2-0.5,0.6c0,0.4-0.3,2.8,0.7,3.2
		c0.7,0.3,1.5,0.4,2.2,0.5l-0.7,2c0,0-1,2.2-1.6,3.3c-0.8,1.4-1.8,2.7-2.8,4L13,23.3c0.6,0.1,1.2,0.2,1.7,0.3
		C15.2,23.1,15.6,22.7,16,22.2z"/>
	<path class="st2" d="M11.9,24.4L11.2,25c0,0-0.5,0.6-0.1,0.9c0.4,0.3,1-0.1,1-0.1s0.5-0.4,1.2-0.9C12.8,24.7,12.4,24.5,11.9,24.4z"
		/>
	<path class="st0" d="M23.1,27.1c-2.3-1.3-4.7-2.4-7.2-3.3c-0.3-0.1-0.7-0.2-1.2-0.3c-0.5,0.5-1.1,1-1.6,1.4
		c1.4,0.9,2.1,1.8,3.2,2.5c1.2,0.7,2.9,1.6,3.6,1.7c0.7,0.1,2.7,0.4,3.7,0C24.6,28.8,24.2,27.8,23.1,27.1z"/>
	<path class="st0" d="M13,23.3c-1.3-0.2-2.8-0.4-3.9-0.5c-2-0.2-4.1-0.2-4.8,0c-0.7,0.2-0.9,0.6-0.4,0.9c0.4,0.1,0.8,0.2,1.2,0.2
		c0.7,0,1.4,0.1,1.7,0.4s1.5,0.3,2.3,0.1c1-0.3,1.9-0.3,2.9,0C12.2,24,12.6,23.6,13,23.3z"/>
	<path class="st0" d="M13,23.3c-0.4,0.4-0.8,0.8-1.1,1.1c0.5,0.1,0.9,0.3,1.3,0.6c0.5-0.4,1-0.9,1.6-1.4
		C14.2,23.5,13.6,23.4,13,23.3z"/>
	<path class="st0" d="M27.5,14.4c0,0-1.5-0.2-1.9,1h-0.3v-0.8H23v8.7h2.6v-5.5c0,0-0.2-0.8,0.9-0.8c1.1,0,0.9,0.9,0.9,0.9v5.4H30V16
		C30,16,29.9,14.4,27.5,14.4z"/>
	<path class="st0" d="M34.2,12.1h-2.4l0.1,2.6l-0.8,0v2.6l0.7-0.1v6.1h2.7l0-5.8h1v-2.8h-1.3V12.1z"/>
	<path class="st0" d="M39.7,21.2c-0.9,0-1.3-0.6-1.2-1.7h4.6c0,0,0.3-3.5-1.5-4.5c-0.6-0.3-1.3-0.5-2-0.5s-1.4,0.2-2,0.5
		c-0.4,0.2-2.2,1.4-2,4.4c0.2,3,2.1,4.1,4.1,4.1c1.9-0.1,3.1-1,3.5-2.9h-2.6C40.5,20.5,40.6,21.2,39.7,21.2z M39.7,16.2
		c1,0,1.2,1.4,1.2,1.4h-2.4C38.5,17.6,38.7,16.2,39.7,16.2z"/>
	<path class="st0" d="M47,9.5h-2.8v14H47V9.5z"/>
	<path class="st0" d="M50.9,9.5h-2.8v14h2.8V9.5z"/>
	<path class="st0" d="M54.8,14.4h-2.8v9h2.8V14.4z"/>
	<path class="st1" d="M61,10.8h-5v12.8h2.9v-4.4h2.5c0,0,2.1-0.6,2.2-2.6C63.7,14.7,64.2,11.2,61,10.8z M58.6,16.4v-3.2
		c2.2-0.3,2.4,1.4,2.4,1.4C61.1,17.3,58.7,16.4,58.6,16.4L58.6,16.4z"/>
	<path class="st1" d="M69.8,15.4c0,0.3-0.3,0-0.3,0c-0.2-1-1.6-1-1.6-1c-2.4-0.2-3.5,2.5-3.6,3.6c0,1.1,0,4.6,2.2,5.3
		c2.2,0.7,2.8-0.3,2.9-0.5c0.1-0.2,0.3,0,0.3,0v0.5h2.6v-8.7h-2.6C69.8,14.8,69.8,15.1,69.8,15.4z M68.4,20.6c-0.3,0.1-0.7,0-1-0.1
		c-0.3-0.1-0.6-0.4-0.8-0.7c-0.2-0.3-0.3-0.7-0.2-1c0-0.4,0.2-0.7,0.4-1c0.2-0.3,0.5-0.5,0.9-0.6c0.3-0.1,0.7-0.1,1,0
		c0.3,0.1,0.6,0.3,0.8,0.6c0.2,0.3,0.3,0.6,0.3,1c0,0.2,0,0.4-0.1,0.6c-0.1,0.2-0.2,0.4-0.3,0.5c-0.1,0.2-0.3,0.3-0.5,0.4
		C68.7,20.5,68.5,20.6,68.4,20.6L68.4,20.6z"/>
	<path class="st1" d="M78.5,15.5c0,0.3-0.3,0-0.3,0c-0.2-1-1.6-1-1.6-1c-2.4-0.2-3.5,2.5-3.5,3.6c0,1.1,0,4.6,2.2,5.3
		c2.2,0.7,2.8-0.3,2.9-0.5c0.1-0.2,0.3,0,0.3,0v0.5h2.6v-8.7h-2.6C78.6,15,78.6,15.2,78.5,15.5z M77.2,20.7c-0.3,0.1-0.7,0-1-0.1
		c-0.3-0.1-0.6-0.4-0.8-0.7c-0.2-0.3-0.3-0.7-0.2-1c0-0.4,0.2-0.7,0.4-1c0.2-0.3,0.5-0.5,0.9-0.6c0.3-0.1,0.7-0.1,1,0
		c0.3,0.1,0.6,0.3,0.8,0.6s0.3,0.6,0.3,1c0,0.4-0.1,0.8-0.4,1.1C77.9,20.5,77.6,20.7,77.2,20.7z"/>
	<path class="st1" d="M86.4,14.7h-1.3v-2.6h-2.4l0.1,2.6l-0.8,0v2.6l0.7-0.1v6.1h2.7l0-5.7h1V14.7z"/>
</g>
</svg>
