<svg width="36" height="37" viewBox="0 0 36 37" fill="none" xmlns="http://www.w3.org/2000/svg">
<g clip-path="url(#clip0_13462_16369)">
<path d="M22.1328 10.0186H35.9984V18.3998H22.1328V10.0186Z" fill="#21A365"/>
<path d="M22.1328 18.3999H35.9984V26.7812H22.1328V18.3999Z" fill="#107C41"/>
<path d="M8.29688 10.0186H22.1344V18.3998H8.29688V10.0186Z" fill="#107C41"/>
<path d="M22.1375 26.7812V18.3999H8.32812V26.7812V27.9905V33.503C8.32812 34.403 9.05938 35.1343 9.95938 35.1343H34.3438C35.2437 35.1343 35.975 34.403 35.975 33.503V26.7812H22.1375Z" fill="#185B37"/>
<path d="M34.3438 1.66553H22.1094V10.0468H36.0031V3.29678C35.975 2.39678 35.2437 1.66553 34.3438 1.66553Z" fill="#33C481"/>
<path d="M22.1328 1.66553H9.98281C9.08281 1.66553 8.35156 2.39678 8.35156 3.29678V10.0187H22.1609V1.66553H22.1328Z" fill="#21A365"/>
<path d="M16.7375 27.5405H1.83125C0.846875 27.5405 0.03125 26.7249 0.03125 25.7405V11.0593C0.03125 10.0749 0.846875 9.25928 1.83125 9.25928H16.7375C17.7219 9.25928 18.5375 10.0749 18.5375 11.0593V25.7405C18.5375 26.7249 17.75 27.5405 16.7375 27.5405Z" fill="#17864C"/>
<path d="M11.3875 23.5749L10.2906 21.578C9.84062 20.7905 9.55938 20.2562 9.25 19.6655H9.22187C8.96875 20.2562 8.71563 20.7905 8.29375 21.578L7.30938 23.5749H5.17188L8.20938 18.4843L5.25625 13.478H7.42188L8.51875 15.5593C8.85625 16.178 9.10938 16.6843 9.3625 17.2468H9.41875C9.7 16.628 9.89688 16.178 10.2344 15.5593L11.3312 13.478H13.4688L10.4594 18.3999L13.5813 23.5749H11.3875Z" fill="white"/>
<path opacity="0.2" d="M18.7562 10.8906V11.0594V25.7406C18.7562 26.725 17.9406 27.5406 16.9563 27.5406H8.54688V29.1437H18.4469C19.4312 29.1437 20.2469 28.3281 20.2469 27.3438V12.6625C20.275 11.7625 19.6 11.0031 18.7562 10.8906Z" fill="black"/>
</g>
<defs>
<clipPath id="clip0_13462_16369">
<rect width="36" height="36" fill="white" transform="translate(0 0.399902)"/>
</clipPath>
</defs>
</svg>
