<?xml version="1.0" encoding="utf-8"?>
<!-- Generator: Adobe Illustrator 27.3.1, SVG Export Plug-In . SVG Version: 6.00 Build 0)  -->
<svg version="1.1" id="Layer_1" xmlns="http://www.w3.org/2000/svg" xmlns:xlink="http://www.w3.org/1999/xlink" x="0px" y="0px"
	 viewBox="0 0 32 32" style="enable-background:new 0 0 32 32;" xml:space="preserve">
<style type="text/css">
	.st0{fill:none;}
	.st1{fill:#231F20;}
</style>
<path class="st0" d="M-8.6,22.3c-0.6,0.2-1.3,0.3-1.9,0.3c-3.4,0-6.2-2.8-6.2-6.2s2.8-6.2,6.2-6.2c0,0,0.1,0,0.1,0
	c-0.2,0.4-0.4,0.8-0.6,1.3c-2.5,0.2-4.5,2.3-4.5,4.9c0,2.7,2.2,4.9,4.9,4.9c0.4,0,0.7,0,1-0.1C-9.3,21.7-9,22-8.6,22.3z"/>
<path class="st1" d="M28.7,27.3c-0.4,0.4-0.9,0.8-1.4,1.2c-2.5,1.8-5.5,2.8-8.8,2.8c-8.4,0-15.2-6.8-15.2-15.2
	c0-8.4,6.8-15.2,15.2-15.2c1.6,0,3.2,0.3,4.6,0.7c0.6,0.2,1.2,0.4,1.7,0.7c-0.5,0.3-1,0.6-1.4,1c-0.6-0.2-1.1-0.4-1.7-0.5
	c-1-0.2-2.1-0.4-3.2-0.4C10.9,2.3,4.8,8.4,4.8,16s6.2,13.7,13.7,13.7c2.6,0,5-0.7,7.1-2c-1.1-0.5-2.2-1.2-3.1-1.9
	c-1.3,0.6-2.7,0.9-4.2,0.9c-5.9,0-10.7-4.8-10.7-10.7S12.4,5.3,18.3,5.3c0.3,0,0.7,0,1,0.1c0.6,0,1.1,0.2,1.6,0.3
	c-0.3,0.4-0.6,0.9-0.9,1.3c-0.3,0.6-0.6,1.2-0.9,1.8c-0.2,0.5-0.4,1-0.5,1.4c-0.1,0-0.3,0-0.4,0c-0.4,0-0.8,0-1.2,0.1
	c-2.7,0.5-4.7,2.9-4.7,5.7c0,3.2,2.6,5.8,5.9,5.8c0.2,0,0.4,0,0.6-0.1c0.5,0,1.1-0.2,1.5-0.3c0.3,0.4,0.6,0.8,0.9,1.2
	c-0.5,0.2-1,0.4-1.5,0.5c-0.5,0.1-1,0.2-1.6,0.2c-4,0-7.3-3.3-7.3-7.3c0-3.8,2.9-6.9,6.7-7.3c0.2-0.7,0.5-1.3,0.9-1.9
	c-0.1,0-0.1,0-0.2,0c-5.1,0-9.2,4.1-9.2,9.2s4.1,9.2,9.2,9.2c1,0,2-0.2,2.9-0.5c0.5-0.2,1-0.4,1.5-0.6c0.4,0.3,0.8,0.7,1.2,1
	c0.9,0.7,2,1.2,3.1,1.7C27.6,26.9,28.2,27.1,28.7,27.3z"/>
</svg>
