<?xml version="1.0" encoding="utf-8"?>
<!-- Generator: Adobe Illustrator 27.3.1, SVG Export Plug-In . SVG Version: 6.00 Build 0)  -->
<svg version="1.1" id="Layer_1" xmlns="http://www.w3.org/2000/svg" xmlns:xlink="http://www.w3.org/1999/xlink" x="0px" y="0px"
	 viewBox="0 0 32 32" style="enable-background:new 0 0 32 32;" xml:space="preserve">
<style type="text/css">
	.st0{fill:none;}
	.st1{fill:#231F20;}
</style>
<path class="st0" d="M-8.6,22.3c-0.6,0.2-1.3,0.3-1.9,0.3c-3.4,0-6.2-2.8-6.2-6.2s2.8-6.2,6.2-6.2c0,0,0.1,0,0.1,0
	c-0.2,0.4-0.4,0.8-0.6,1.3c-2.5,0.2-4.5,2.3-4.5,4.9c0,2.7,2.2,4.9,4.9,4.9c0.4,0,0.7,0,1-0.1C-9.3,21.7-9,22-8.6,22.3z"/>
<g>
	<path class="st1" d="M16,30.3L1.7,16L16,1.7L30.3,16L16,30.3z M3.1,16L16,28.9L28.9,16L16,3.1L3.1,16z"/>
</g>
<g>
	<path class="st1" d="M16,25.1l-9.3-9.2L16,6.7l9.3,9.2L16,25.1z M7.6,15.9l8.4,8.3l8.4-8.3L16,7.6L7.6,15.9z"/>
</g>
<g>
	<path class="st1" d="M16,21l-5-5l5-5l5,5L16,21z M11.5,16l4.5,4.5l4.5-4.5L16,11.5L11.5,16z"/>
</g>
</svg>
