<?xml version="1.0" encoding="utf-8"?>
<!-- Generator: Adobe Illustrator 27.3.1, SVG Export Plug-In . SVG Version: 6.00 Build 0)  -->
<svg version="1.1" id="Layer_1" xmlns="http://www.w3.org/2000/svg" xmlns:xlink="http://www.w3.org/1999/xlink" x="0px" y="0px"
	 viewBox="0 0 1920 900" style="enable-background:new 0 0 1920 900;" xml:space="preserve">
<style type="text/css">
	.st0{fill:url(#SVGID_1_);stroke:url(#SVGID_00000176755242240207093340000008339254964128933293_);stroke-miterlimit:10;}
	.st1{fill:url(#SVGID_00000022540919562902896100000015090721490462568112_);}
	.st2{fill:none;stroke:#D1D3D3;stroke-width:3;stroke-miterlimit:10;}
	.st3{fill:url(#SVGID_00000060032356099963454860000007084694423788741294_);}
</style>
<linearGradient id="SVGID_1_" gradientUnits="userSpaceOnUse" x1="1535.7537" y1="733.8635" x2="65.2536" y2="8.8636" gradientTransform="matrix(1 0 0 -1 0 900)">
	<stop  offset="1.675978e-02" style="stop-color:#ACE5ED"/>
	<stop  offset="5.158807e-02" style="stop-color:#A0E1EB"/>
	<stop  offset="0.2151" style="stop-color:#6ED2E0"/>
	<stop  offset="0.369" style="stop-color:#46C7D8"/>
	<stop  offset="0.5092" style="stop-color:#2ABED2"/>
	<stop  offset="0.631" style="stop-color:#18B9CE"/>
	<stop  offset="0.7207" style="stop-color:#12B7CD"/>
</linearGradient>
<linearGradient id="SVGID_00000146474792077319064720000017249362344911807166_" gradientUnits="userSpaceOnUse" x1="-0.5" y1="450" x2="1920.5" y2="450">
	<stop  offset="5.586592e-03" style="stop-color:#ACE5ED;stop-opacity:0"/>
	<stop  offset="0.9888" style="stop-color:#12B7CD"/>
</linearGradient>
<rect style="fill:url(#SVGID_1_);stroke:url(#SVGID_00000146474792077319064720000017249362344911807166_);stroke-miterlimit:10;" width="1920" height="900"/>
<linearGradient id="SVGID_00000147937885826939082140000005446179804746732730_" gradientUnits="userSpaceOnUse" x1="960" y1="874.8904" x2="960" y2="726.808" gradientTransform="matrix(1 0 0 -1 0 900)">
	<stop  offset="0" style="stop-color:#12B7CD"/>
	<stop  offset="1" style="stop-color:#ACE5ED;stop-opacity:0"/>
</linearGradient>
<rect style="fill:url(#SVGID_00000147937885826939082140000005446179804746732730_);" width="1920" height="188"/>
<g>
	<path class="st2" d="M144.4,119.8h178c0,0,1.1,0,2.2,0c0,0,0-178,0-178"/>
	<path class="st2" d="M324.7,119.8h178c0,0,1.1,0,2.2,0c0,0,0-178,0-178"/>
	<path class="st2" d="M504.9,119.8h178c0,0,1.1,0,2.2,0c0,0,0-178,0-178"/>
	<path class="st2" d="M685.2,119.8h178c0,0,1.1,0,2.2,0c0,0,0-178,0-178"/>
	<path class="st2" d="M865.5,119.8h178c0,0,1.1,0,2.2,0c0,0,0-178,0-178"/>
	<path class="st2" d="M1045.7,119.8h178c0,0,1.1,0,2.2,0c0,0,0-178,0-178"/>
	<path class="st2" d="M1227.1-59.4v178c0,0,0,1.1,0,2.2c0,0,178,0,178,0"/>
	<path class="st2" d="M144.4,297.8h178c0,0,1.1,0,2.2,0c0,0,0-178,0-178"/>
	<path class="st2" d="M324.7,297.8h178c0,0,1.1,0,2.2,0c0,0,0-178,0-178"/>
	<path class="st2" d="M504.9,297.8h178c0,0,1.1,0,2.2,0c0,0,0-178,0-178"/>
	<path class="st2" d="M685.2,297.8h178c0,0,1.1,0,2.2,0c0,0,0-178,0-178"/>
	<path class="st2" d="M865.5,297.8h178c0,0,1.1,0,2.2,0c0,0,0-178,0-178"/>
	<path class="st2" d="M1045.7,297.8h178c0,0,1.1,0,2.2,0c0,0,0-178,0-178"/>
	<path class="st2" d="M1406.3,297.8h-178c0,0-1.1,0-2.2,0c0,0,0-178,0-178"/>
	<path class="st2" d="M144.4,475.9h178c0,0,1.1,0,2.2,0c0,0,0-178,0-178"/>
	<path class="st2" d="M324.7,475.9h178c0,0,1.1,0,2.2,0c0,0,0-178,0-178"/>
	<path class="st2" d="M504.9,475.9h178c0,0,1.1,0,2.2,0c0,0,0-178,0-178"/>
	<path class="st2" d="M685.2,475.9h178c0,0,1.1,0,2.2,0c0,0,0-178,0-178"/>
	<path class="st2" d="M865.5,475.9h178c0,0,1.1,0,2.2,0c0,0,0-178,0-178"/>
	<path class="st2" d="M1045.7,475.9h178c0,0,1.1,0,2.2,0c0,0,0-178,0-178"/>
	<path class="st2" d="M1406.3,475.9h-178c0,0-1.1,0-2.2,0c0,0,0-178,0-178"/>
	<path class="st2" d="M1406.3,476h-178c0,0-1.1,0-2.2,0c0,0,0,178,0,178"/>
	<path class="st2" d="M1226,476h-178c0,0-1.1,0-2.2,0c0,0,0,178,0,178"/>
	<path class="st2" d="M1045.7,476h-178c0,0-1.1,0-2.2,0c0,0,0,178,0,178"/>
	<path class="st2" d="M865.5,476h-178c0,0-1.1,0-2.2,0c0,0,0,178,0,178"/>
	<path class="st2" d="M685.2,476h-178c0,0-1.1,0-2.2,0c0,0,0,178,0,178"/>
	<path class="st2" d="M504.9,476h-178c0,0-1.1,0-2.2,0c0,0,0,178,0,178"/>
</g>
<linearGradient id="SVGID_00000125597725300282302650000015214971209082502828_" gradientUnits="userSpaceOnUse" x1="960" y1="900" x2="960" y2="0" gradientTransform="matrix(1 0 0 -1 0 900)">
	<stop  offset="0" style="stop-color:#12B7CD"/>
	<stop  offset="1" style="stop-color:#ACE5ED;stop-opacity:0"/>
</linearGradient>
<rect y="0" style="fill:url(#SVGID_00000125597725300282302650000015214971209082502828_);" width="1920" height="900"/>
</svg>
