<?xml version="1.0" encoding="utf-8"?>
<!-- Generator: Adobe Illustrator 27.3.1, SVG Export Plug-In . SVG Version: 6.00 Build 0)  -->
<svg version="1.1" id="Layer_1" xmlns="http://www.w3.org/2000/svg" xmlns:xlink="http://www.w3.org/1999/xlink" x="0px" y="0px"
	 viewBox="0 0 1920 900" style="enable-background:new 0 0 1920 900;" xml:space="preserve">
<style type="text/css">
	.st0{fill:url(#SVGID_1_);}
	.st1{opacity:0.1;}
	.st2{fill:none;stroke:#D1D3D3;stroke-width:3;stroke-miterlimit:10;}
	.st3{fill:url(#SVGID_00000167367987771038454140000002009023566934457508_);}
</style>
<linearGradient id="SVGID_1_" gradientUnits="userSpaceOnUse" x1="1535.7537" y1="-653.8636" x2="65.2537" y2="71.1364" gradientTransform="matrix(1 0 0 1 0 820)">
	<stop  offset="1.647480e-02" style="stop-color:#025AF6"/>
	<stop  offset="0.9665" style="stop-color:#0220A5"/>
</linearGradient>
<rect class="st0" width="1920" height="900"/>
<g class="st1">
	<path class="st2" d="M144.4,119.8h178c0,0,1.1,0,2.2,0v-178"/>
	<path class="st2" d="M324.7,119.8h178c0,0,1.1,0,2.2,0v-178"/>
	<path class="st2" d="M504.9,119.8h178c0,0,1.1,0,2.2,0v-178"/>
	<path class="st2" d="M685.2,119.8h178c0,0,1.1,0,2.2,0v-178"/>
	<path class="st2" d="M865.5,119.8h178c0,0,1.1,0,2.2,0v-178"/>
	<path class="st2" d="M1045.7,119.8h178c0,0,1.1,0,2.2,0v-178"/>
	<path class="st2" d="M1227.1-59.4v178c0,0,0,1.1,0,2.2h178"/>
	<path class="st2" d="M144.4,297.8h178c0,0,1.1,0,2.2,0v-178"/>
	<path class="st2" d="M324.7,297.8h178c0,0,1.1,0,2.2,0v-178"/>
	<path class="st2" d="M504.9,297.8h178c0,0,1.1,0,2.2,0v-178"/>
	<path class="st2" d="M685.2,297.8h178c0,0,1.1,0,2.2,0v-178"/>
	<path class="st2" d="M865.5,297.8h178c0,0,1.1,0,2.2,0v-178"/>
	<path class="st2" d="M1045.7,297.8h178c0,0,1.1,0,2.2,0v-178"/>
	<path class="st2" d="M1406.3,297.8h-178c0,0-1.1,0-2.2,0v-178"/>
	<path class="st2" d="M144.4,475.9h178c0,0,1.1,0,2.2,0v-178"/>
	<path class="st2" d="M324.7,475.9h178c0,0,1.1,0,2.2,0v-178"/>
	<path class="st2" d="M504.9,475.9h178c0,0,1.1,0,2.2,0v-178"/>
	<path class="st2" d="M685.2,475.9h178c0,0,1.1,0,2.2,0v-178"/>
	<path class="st2" d="M865.5,475.9h178c0,0,1.1,0,2.2,0v-178"/>
	<path class="st2" d="M1045.7,475.9h178c0,0,1.1,0,2.2,0v-178"/>
	<path class="st2" d="M1406.3,475.9h-178c0,0-1.1,0-2.2,0v-178"/>
	<path class="st2" d="M1406.3,476h-178c0,0-1.1,0-2.2,0v178"/>
	<path class="st2" d="M1226,476h-178c0,0-1.1,0-2.2,0v178"/>
	<path class="st2" d="M1045.7,476h-178c0,0-1.1,0-2.2,0v178"/>
	<path class="st2" d="M865.5,476h-178c0,0-1.1,0-2.2,0v178"/>
	<path class="st2" d="M685.2,476h-178c0,0-1.1,0-2.2,0v178"/>
	<path class="st2" d="M504.9,476h-178c0,0-1.1,0-2.2,0v178"/>
</g>
<linearGradient id="SVGID_00000133516457219537127470000017478346569598530708_" gradientUnits="userSpaceOnUse" x1="967.6595" y1="-820" x2="967.6595" y2="80" gradientTransform="matrix(1 0 0 1 0 820)">
	<stop  offset="0" style="stop-color:#0220A5"/>
	<stop  offset="1" style="stop-color:#ACE5ED;stop-opacity:0"/>
</linearGradient>
<rect x="7.7" style="fill:url(#SVGID_00000133516457219537127470000017478346569598530708_);" width="1920" height="900"/>
</svg>
