<svg width="100" height="76" viewBox="0 0 100 76" fill="none" xmlns="http://www.w3.org/2000/svg">
<g clip-path="url(#clip0_13504_15921)">
<path fill-rule="evenodd" clip-rule="evenodd" d="M5.05114 0C2.2613 0 0 2.26849 0 5.066V70.9334C0 73.7315 2.2613 76 5.05114 76H94.9485C97.7382 76 100 73.7315 100 70.9334V5.066C100 2.26849 97.7382 0 94.9485 0H5.05114Z" fill="#D52B1E"/>
<path fill-rule="evenodd" clip-rule="evenodd" d="M42.2838 34.2927C43.6445 24.2012 48.13 6.00024 56.6846 6.00024C66.6716 6.00024 78.406 39.6474 78.4032 67.5039H69.1934C69.1934 38.2867 62.0582 11.9611 56.9242 11.9599C51.5686 11.9594 46.8751 29.867 46.8751 63.9848H37.6777C37.6777 29.867 33.0127 11.9599 27.6285 11.9599C22.5038 11.9599 15.3738 38.2916 15.3738 67.5039H6.16406C6.17271 39.6233 17.8774 5.99681 27.8824 6.00024C36.4251 6.00308 40.9122 24.1989 42.2838 34.2927Z" fill="#FDC82F"/>
<path fill-rule="evenodd" clip-rule="evenodd" d="M36.2656 56.3091H78.6881V45.5567H36.2656V56.3091Z" fill="#D52B1E"/>
<path fill-rule="evenodd" clip-rule="evenodd" d="M74.4062 55.23H77.0756V46.4218H74.4062V55.23Z" fill="white"/>
<path fill-rule="evenodd" clip-rule="evenodd" d="M86.8946 46.4218H88.7126L88.0952 48.8223H86.7734L86.8946 46.4218Z" fill="white"/>
<path fill-rule="evenodd" clip-rule="evenodd" d="M91.8451 47.7267C93.6209 47.7267 95.2892 48.1762 95.2971 49.9246H92.7623C92.7623 49.3222 92.4118 49.0485 91.82 49.0485C91.4689 49.0485 90.9944 49.1947 90.9944 49.7467C90.995 50.6626 92.4391 50.4795 93.6653 50.8446C94.7668 51.1723 95.5304 51.8315 95.5304 52.8959C95.5304 54.5266 94.2547 55.4288 91.8451 55.4384C89.3181 55.4485 88.3673 54.5349 88.3594 52.8959H90.9278C90.9278 53.5145 91.3113 53.8828 91.853 53.8828C92.5017 53.8828 92.7958 53.6358 92.7958 53.176C92.7958 52.2185 91.0251 52.2432 89.981 51.9006C89.2709 51.6672 88.6257 51.1393 88.6257 50.0184C88.6257 49.0819 89.3261 47.7267 91.8451 47.7267Z" fill="white"/>
<path fill-rule="evenodd" clip-rule="evenodd" d="M37.1758 52.5606C36.7329 54.3117 35.2846 55.4468 33.4782 55.4473C31.2974 55.4473 29.6384 53.792 29.6406 51.3968C29.6423 49.0045 31.1169 47.3491 33.4782 47.3469C35.4361 47.3452 36.7842 48.486 37.1889 50.2395L34.6909 50.2397C34.4993 49.7128 34.1313 49.3017 33.4782 49.3012C32.376 49.301 32.0853 50.4727 32.0858 51.3968C32.086 52.3214 32.376 53.4924 33.4782 53.4924C34.1286 53.4924 34.496 53.085 34.6883 52.5608L37.1758 52.5606Z" fill="white"/>
<path fill-rule="evenodd" clip-rule="evenodd" d="M18.7581 46.4226H21.9474L23.3357 51.6261L24.7239 46.4226H27.9154L29.3099 55.4473H26.6785L25.9835 50.1731L24.5454 55.4473H22.1259L20.688 50.1731L19.9926 55.4473H17.3594L18.7581 46.4226Z" fill="white"/>
<path fill-rule="evenodd" clip-rule="evenodd" d="M59.6703 50.9154C59.6703 51.2233 59.6703 55.2319 59.6703 55.2319H57.0312V47.5365H59.6703V48.1378C60.3383 47.6157 60.942 47.3473 62.3115 47.3473C63.7989 47.3473 64.9972 48.3442 64.9978 49.3908V55.2319H62.34V50.9961C62.3411 50.2926 61.713 49.719 61.029 49.719C60.1494 49.719 59.7118 50.4997 59.6703 50.9154Z" fill="white"/>
<path fill-rule="evenodd" clip-rule="evenodd" d="M83.2117 48.2994V46.4217H85.8809V55.2299H83.2117V54.8025C82.8612 55.12 82.4015 55.4443 81.251 55.4443C79.9565 55.4443 77.9001 54.723 77.8984 51.6241C77.8968 48.5297 79.9542 47.7265 81.4177 47.7265C82.4806 47.7265 82.9824 48.0945 83.2117 48.2994ZM80.4418 51.6241C80.4418 52.8285 81.0006 53.5981 81.9184 53.5981C82.4686 53.5981 82.9289 53.3576 83.2129 52.8558V50.5452C83.0706 50.0351 82.5767 49.659 81.9184 49.6588C80.9989 49.6583 80.4418 50.4198 80.4418 51.6241Z" fill="white"/>
<path fill-rule="evenodd" clip-rule="evenodd" d="M48.1719 51.3979C48.1741 49.0057 49.7209 47.3498 52.1979 47.3476C54.6758 47.3454 56.2224 49.0057 56.2241 51.3979C56.2263 53.7928 54.6753 55.4478 52.1979 55.4478C49.7233 55.448 48.1699 53.7928 48.1719 51.3979ZM53.7273 51.3979C53.7279 50.4734 53.4087 49.3022 52.1979 49.3022C50.9873 49.3016 50.6681 50.4734 50.6684 51.3979C50.6689 52.3222 50.9873 53.4934 52.1979 53.4934C53.4087 53.4934 53.7273 52.3222 53.7273 51.3979Z" fill="white"/>
<path fill-rule="evenodd" clip-rule="evenodd" d="M38.1016 46.4226H42.6876C45.5568 46.4226 47.5122 48.21 47.5122 50.9348C47.5122 53.6594 45.5572 55.4473 42.6876 55.4473H38.1016V46.4226ZM41.1353 53.3139H42.5218C43.4201 53.3139 44.5137 52.7644 44.5137 50.9348C44.5137 49.1075 43.4201 48.556 42.5218 48.556H41.1353V53.3139Z" fill="white"/>
<path fill-rule="evenodd" clip-rule="evenodd" d="M69.7547 47.3481C71.6489 47.3464 73.2103 48.0452 73.332 49.5791V55.2305H70.6606V54.4686C70.0119 55.0261 69.3656 55.4443 68.198 55.4443C66.8381 55.4443 65.7422 54.366 65.7422 53.1021C65.7422 51.8378 66.5183 50.4334 69.6256 50.4341C70.4267 50.4343 70.66 50.1182 70.6606 49.7417C70.6617 49.2793 70.1303 49.0214 69.6853 49.0214C69.2404 49.0214 68.7357 49.2073 68.7357 49.6906H66.2332C66.2332 48.5566 66.9934 47.3508 69.7547 47.3481ZM69.6068 51.6845C68.9906 51.6845 68.4205 52.0144 68.4205 52.6464C68.4205 53.0557 68.6617 53.409 69.2916 53.4088C69.8942 53.4088 70.5371 53.0503 70.6606 52.3071V51.6031C70.4569 51.7148 69.996 51.6845 69.6068 51.6845Z" fill="white"/>
<path fill-rule="evenodd" clip-rule="evenodd" d="M82.4862 61.4978H84.126C84.938 61.4978 85.4785 61.9352 85.4785 62.513C85.4785 63.0466 85.0689 63.3969 84.5625 63.4406V63.4582C85.3391 63.7206 85.4524 64.2632 85.4615 64.9983H84.7286C84.7024 64.1145 84.5101 63.7295 83.734 63.7295H83.1314V64.9983H82.4862V61.4978ZM83.1314 63.1693H83.8996C84.5016 63.1693 84.7457 62.9593 84.7457 62.5654C84.7457 62.2678 84.5625 62.0578 84.0043 62.0578H83.1314V63.1693ZM83.8296 60.2813C85.4876 60.2813 86.831 61.6202 86.831 63.2919C86.831 64.9634 85.4876 66.3022 83.8296 66.3022C82.1715 66.3022 80.8281 64.9634 80.8281 63.2919C80.8281 61.6202 82.1715 60.2813 83.8296 60.2813ZM83.8296 65.9786C85.3044 65.9786 86.5084 64.7797 86.5084 63.2919C86.5084 61.8041 85.3044 60.6052 83.8296 60.6052C82.3553 60.6052 81.1507 61.8041 81.1507 63.2919C81.1507 64.7797 82.3553 65.9786 83.8296 65.9786Z" fill="#FDC82F"/>
</g>
<defs>
<clipPath id="clip0_13504_15921">
<rect width="100" height="76" fill="white"/>
</clipPath>
</defs>
</svg>
