<?xml version="1.0" encoding="utf-8"?>
<!-- Generator: Adobe Illustrator 27.3.1, SVG Export Plug-In . SVG Version: 6.00 Build 0)  -->
<svg version="1.1" id="Layer_1" xmlns="http://www.w3.org/2000/svg" xmlns:xlink="http://www.w3.org/1999/xlink" x="0px" y="0px"
	 viewBox="0 0 49.1 49.1" style="enable-background:new 0 0 49.1 49.1;" xml:space="preserve">
<style type="text/css">
	.st0{fill:#FFFFFF;}
	.st1{fill:#0C1E5E;}
	.st2{fill:#FFB500;}
</style>
<g>
	<path class="st0" d="M4.3,30c0.2-0.1,0.3-0.2,0.5-0.3c0.1-0.2,0.2-0.3,0.3-0.5c0.1-0.2,0.1-0.4,0.1-0.6c0-0.2,0-0.4-0.1-0.6
		c0-0.1,0-0.1-0.1-0.2c-0.1-0.2-0.2-0.4-0.4-0.5c-0.2-0.1-0.3-0.1-0.5-0.1c-0.2,0.1-0.3,0.2-0.3,0.3c-0.1,0.2-0.1,0.3,0,0.4
		c0.1,0.3,0.1,0.5-0.1,0.5c-0.1,0-0.3,0-0.4-0.2c-0.1,0.3,0,0.7,0.1,1.2c0,0,0,0.1,0,0.1c0,0.1,0.1,0.2,0.2,0.3
		C3.7,29.9,3.8,30,3.9,30C4,30.1,4.2,30.1,4.3,30z M4.5,30.6c-0.2,0.1-0.4,0.1-0.6,0.1c-0.2,0-0.4-0.1-0.5-0.2
		C3.2,30.4,3.1,30.2,3,30c-0.1-0.1-0.1-0.2-0.2-0.4c0-0.1,0-0.1-0.1-0.2c-0.1-0.2-0.1-0.4-0.1-0.6c0-0.2,0-0.4,0-0.6
		c0-0.2,0-0.4,0.1-0.6c0-0.2,0.1-0.3,0.2-0.5c0.1-0.1,0.2-0.2,0.3-0.3c0.1,0,0.2,0,0.3,0c0.1-0.2,0.3-0.3,0.5-0.3
		c0.1-0.1,0.3-0.1,0.5-0.1c0.2,0,0.4,0,0.6,0.1c0.2,0.1,0.3,0.2,0.4,0.4c0.1,0.1,0.1,0.2,0.2,0.4c0,0.1,0,0.1,0.1,0.2
		c0.1,0.4,0.1,0.9,0.1,1.3c0,0.2-0.1,0.5-0.2,0.7C5.3,30.1,4.9,30.4,4.5,30.6z M9,28.8c-0.2,0.1-0.3-0.1-0.5-0.6
		c-0.1-0.2-0.1-0.3-0.2-0.5c0-0.1-0.1-0.2-0.1-0.2c0,1.1-0.2,1.7-0.7,1.9c-0.2,0.1-0.4,0.1-0.6,0c-0.2-0.1-0.3-0.2-0.4-0.4
		c-0.1-0.1-0.1-0.2-0.1-0.3c0-0.1-0.1-0.2-0.1-0.3c-0.1-0.4-0.2-0.9-0.2-1.4c0-0.3,0.1-0.5,0.2-0.5c0.1-0.1,0.2,0,0.3,0.2
		c0,0,0,0,0,0.1c0,0,0,0.1,0,0.2c0,0.5,0.1,1,0.2,1.4c0,0.1,0.1,0.2,0.1,0.3c0.1,0.3,0.3,0.5,0.4,0.4c0.2-0.1,0.3-0.4,0.3-1
		c0-0.5,0-1.1,0-1.8c0-0.3,0-0.4,0.2-0.5c0.2-0.1,0.3,0,0.3,0.2c0,0,0,0,0,0.1c0.2,0.7,0.4,1.3,0.6,1.8C8.9,27.8,9,28,9.1,28.2l0,0
		c0,0,0,0.1,0,0.1C9.2,28.6,9.2,28.8,9,28.8z M10.6,25.1c0,0.1-0.1,0.1-0.1,0.2c-0.4,0.6-0.6,1.1-0.5,1.4c0.1,0.4,0.2,0.6,0.2,0.7
		c0.1,0.2,0.1,0.4,0.1,0.4c0.1,0.3,0,0.5-0.2,0.6C10,28.4,9.8,28.3,9.7,28l0,0c-0.1-0.2-0.2-0.5-0.3-0.8C9.2,26.6,9.1,26.2,9,26
		c-0.1-0.4-0.1-0.7,0.1-0.7c0.1-0.1,0.3,0.1,0.4,0.4c0,0.1,0,0.1,0.1,0.2c0.2-0.7,0.5-1.1,0.8-1.2c0.1,0,0.1,0,0.2,0
		c0,0,0.1,0.1,0.1,0.1l0,0C10.6,24.9,10.6,25,10.6,25.1z M13.3,27.1c-0.1,0-0.2,0-0.3-0.1c0-0.1-0.1-0.2-0.2-0.4
		c-0.1-0.3-0.2-0.7-0.4-1.2c-0.1-0.4-0.2-0.8-0.3-1.1c-0.1-0.3,0-0.4,0.2-0.5c0.2-0.1,0.3,0,0.3,0.2c0,0,0,0,0,0.1l0.4,1.3
		c0-0.3,0.1-0.5,0.1-0.7c0.1-0.7,0.3-1.1,0.6-1.2c0.1,0,0.2,0,0.3,0c0.2,0,0.4,0.1,0.5,0.3c0-0.3,0.1-0.5,0.3-0.7
		c0.1-0.2,0.3-0.3,0.4-0.4c0,0,0.1,0,0.1,0c0.2,0,0.4,0,0.6,0.2c0.2,0.2,0.3,0.4,0.4,0.6c0,0.1,0.1,0.2,0.1,0.2
		c0.1,0.1,0.1,0.3,0.1,0.4c0.1,0.3,0.2,0.7,0.2,1c0,0.5,0,0.7-0.2,0.8c-0.1,0-0.1,0-0.2,0c0,0-0.1-0.1-0.1-0.2c0,0,0,0,0,0
		c0-0.1,0-0.1,0-0.2c0-0.3-0.1-0.7-0.2-1c0-0.2-0.1-0.3-0.2-0.5c-0.1-0.2-0.1-0.3-0.2-0.5c-0.1-0.1-0.2-0.2-0.2-0.2
		c-0.1,0-0.2,0.2-0.3,0.4C15,23.8,15,24,15,24.3c0,0.2,0,0.5,0,0.7c0,0.3,0.1,0.5,0.1,0.7c0,0.1,0,0.2,0,0.3c0,0.1-0.1,0.2-0.2,0.2
		c-0.1,0.1-0.2,0-0.3,0c0,0-0.1-0.1-0.1-0.2c0,0,0,0,0-0.1c0-0.1-0.1-0.3-0.1-0.4c0-0.3,0-0.5-0.1-0.6c0-0.1-0.1-0.2-0.1-0.3
		c0-0.1-0.1-0.2-0.2-0.4c-0.1-0.1-0.2-0.2-0.2-0.2c-0.2,0.1-0.3,0.5-0.3,1.2c0,0.3,0,0.5,0,0.7l0,0.6C13.5,26.9,13.4,27.1,13.3,27.1
		z M17.5,23.7c0.8-0.4,1.1-0.8,1-1.3l0,0c0-0.1-0.1-0.2-0.2-0.2c-0.1,0-0.1,0-0.2,0c-0.1,0-0.2,0.1-0.2,0.1
		c-0.2,0.1-0.3,0.3-0.3,0.5C17.4,23.1,17.4,23.4,17.5,23.7z M18.6,25c-0.6,0.2-1,0.1-1.4-0.4c-0.1-0.1-0.2-0.3-0.3-0.5
		c0-0.1-0.1-0.2-0.1-0.3c-0.1-0.3-0.1-0.6-0.1-0.9c0.1-0.4,0.2-0.6,0.4-0.8c0.2-0.2,0.4-0.3,0.6-0.4c0,0,0.1,0,0.1,0
		c0.3-0.1,0.5-0.1,0.7,0c0.2,0.1,0.3,0.2,0.3,0.4c0,0,0,0,0,0.1c0.2,0.8-0.2,1.4-1.3,2c0.1,0.1,0.1,0.2,0.2,0.3
		c0.2,0.2,0.4,0.2,0.6,0.1c0.2-0.1,0.3-0.2,0.4-0.5c0.1-0.3,0.2-0.5,0.3-0.5c0.1,0,0.1,0,0.2,0.1c0,0,0,0,0,0c0,0.1,0,0.3-0.1,0.5
		c-0.1,0.2-0.1,0.3-0.2,0.5C19.1,24.8,18.9,24.9,18.6,25z M22.7,23.7c-0.1,0.1-0.2,0-0.3-0.2c0,0,0,0,0-0.1c0-0.1-0.1-0.2-0.1-0.4
		c0-0.2-0.1-0.5-0.2-0.8c0-0.1-0.1-0.2-0.1-0.3c-0.1-0.2-0.2-0.4-0.3-0.6c-0.2-0.2-0.3-0.2-0.4-0.2c-0.1,0-0.1,0.1-0.2,0.2
		c-0.1,0.3-0.2,0.7-0.2,1.1c0,0.3,0,0.5,0,0.6c0,0.5,0,0.8,0,0.9c0,0.2-0.1,0.3-0.2,0.3c-0.2,0.1-0.3-0.1-0.4-0.4
		c-0.1-0.1-0.1-0.3-0.2-0.4c-0.1-0.2-0.2-0.6-0.3-1c-0.1-0.4-0.2-0.6-0.2-0.6c-0.1-0.3,0-0.5,0.1-0.5c0.2-0.1,0.3,0,0.4,0.3l0,0
		c0.1,0.2,0.2,0.5,0.3,1c0-0.1,0-0.3,0-0.6c0-0.2,0.1-0.5,0.2-0.8c0.1-0.4,0.3-0.6,0.6-0.7c0.3-0.1,0.6,0,0.9,0.3
		c0.2,0.2,0.3,0.4,0.4,0.5c0,0.1,0.1,0.2,0.1,0.2c0,0.1,0.1,0.2,0.1,0.3c0.1,0.4,0.2,0.8,0.3,1.2C22.9,23.4,22.9,23.6,22.7,23.7z
		 M24.6,22.8c-0.2,0.1-0.3,0.1-0.5,0c-0.2-0.1-0.3-0.2-0.4-0.4c-0.1-0.1-0.1-0.2-0.2-0.4c0-0.1-0.1-0.2-0.1-0.3
		c0-0.1-0.1-0.2-0.1-0.4c-0.1,0-0.1,0.1-0.2,0.1c-0.1,0-0.2,0.1-0.3,0c-0.1,0-0.1,0-0.1-0.1l0,0c0-0.1,0.1-0.3,0.3-0.4l0.1-0.1
		c0-0.3-0.1-0.6-0.1-0.9c0-0.2,0-0.3-0.1-0.4c0-0.2,0-0.4,0.2-0.4c0.2-0.1,0.3,0,0.3,0.2c0,0,0,0,0,0.1c0,0.1,0,0.2,0.1,0.4
		c0,0.3,0.1,0.6,0.1,0.8c0.3-0.2,0.5-0.3,0.6-0.3c0.1,0,0.2-0.1,0.3,0c0.1,0,0.1,0,0.1,0.1l0,0c0,0,0,0.1,0,0.1
		c0,0.1-0.1,0.2-0.3,0.4l-0.6,0.3c0,0.2,0.1,0.4,0.1,0.5c0,0.1,0.1,0.2,0.1,0.3c0,0.1,0,0.1,0.1,0.2c0.1,0.2,0.2,0.3,0.3,0.2
		c0.1,0,0.2-0.1,0.3-0.3c0.1-0.2,0.2-0.3,0.3-0.3c0.1-0.1,0.2,0,0.3,0.1c0,0,0,0,0,0c0,0.1,0,0.2-0.1,0.3
		C25.1,22.5,24.9,22.7,24.6,22.8z M26.8,21.3c0.2-0.1,0.3-0.2,0.4-0.4c0.1-0.2,0.1-0.4,0.1-0.6c0-0.2-0.1-0.3-0.1-0.4
		c0-0.1,0-0.1-0.1-0.2c0-0.1-0.1-0.2-0.1-0.2c-0.1-0.2-0.2-0.3-0.4-0.4c-0.1-0.1-0.2-0.1-0.3,0c-0.1,0.1-0.2,0.2-0.1,0.3
		c0,0,0,0.1,0,0.1c0,0,0,0.1,0,0.1c0,0,0,0.1,0,0.1c0,0,0,0,0,0c0,0.1,0,0.2-0.2,0.3c-0.2,0-0.3,0-0.3-0.2l0,0
		c-0.1,0.2-0.1,0.5,0,0.9c0,0,0,0.1,0,0.1c0.1,0.2,0.1,0.3,0.3,0.4C26.3,21.4,26.6,21.4,26.8,21.3z M27,21.9c-0.4,0.1-0.7,0.1-1,0
		c-0.2-0.1-0.4-0.3-0.5-0.5c-0.1-0.1-0.1-0.2-0.1-0.3c0-0.1,0-0.1,0-0.1c0-0.2-0.1-0.3-0.1-0.5c0-0.2,0-0.4,0.1-0.6
		c0.1-0.2,0.2-0.3,0.3-0.4c0-0.3,0.2-0.6,0.6-0.8c0.1,0,0.2-0.1,0.4-0.1c0.2,0,0.4,0.1,0.6,0.2c0.2,0.1,0.3,0.3,0.4,0.5
		c0.1,0.1,0.1,0.2,0.2,0.4c0,0.1,0,0.1,0.1,0.2c0.1,0.3,0.1,0.6,0.1,0.9C27.8,21.2,27.5,21.7,27,21.9z M29.6,17.8
		c0,0.1-0.1,0.1-0.1,0.2c-0.4,0.6-0.6,1.1-0.5,1.4c0.1,0.4,0.2,0.6,0.2,0.7c0.1,0.2,0.1,0.4,0.1,0.4c0.1,0.3,0,0.5-0.2,0.6
		c-0.2,0.1-0.3-0.1-0.4-0.4l0,0c-0.1-0.2-0.2-0.5-0.3-0.8c-0.2-0.6-0.3-0.9-0.4-1.1c-0.1-0.4-0.1-0.7,0.1-0.7
		c0.1-0.1,0.3,0.1,0.4,0.4c0,0.1,0,0.1,0.1,0.2c0.2-0.7,0.5-1.1,0.8-1.2c0.1,0,0.1,0,0.2,0c0,0,0.1,0.1,0.1,0.1l0,0
		C29.7,17.6,29.6,17.7,29.6,17.8z"/>
	<path class="st1" d="M34.9,26.7c1.2,2,1.7,4.4,0,4.7C33.4,31.7,33.4,28.9,34.9,26.7z"/>
	<path class="st2" d="M32.1,23.6c-0.2,0-0.4,0.1-0.4,0.3c0,0.2,0.1,0.4,0.3,0.4L32.1,23.6z M34.9,31.4l0.1,0.4l0,0L34.9,31.4z
		 M46.2,28.3c0.2,0,0.4-0.2,0.4-0.4l-0.2-3.5c0-0.2-0.2-0.4-0.4-0.4c-0.2,0-0.4,0.2-0.4,0.4l0.2,3.1l-3.1,0.2
		c-0.2,0-0.4,0.2-0.4,0.4c0,0.2,0.2,0.4,0.4,0.4L46.2,28.3z M32,24.4c0.3,0,0.7,0.3,1.2,0.8c0.5,0.5,0.9,1.1,1.4,1.8l0.7-0.4
		c-0.4-0.7-0.9-1.4-1.5-1.9c-0.5-0.5-1.1-0.9-1.7-1L32,24.4z M34.5,26.9c0.6,1,1,2,1,2.8c0,0.4,0,0.7-0.1,0.9
		c-0.1,0.2-0.3,0.3-0.6,0.4l0.1,0.8c0.5-0.1,0.9-0.4,1.2-0.8c0.2-0.4,0.3-0.9,0.2-1.4c-0.1-1-0.5-2.1-1.1-3.1L34.5,26.9z M34.8,31
		c-0.1,0-0.2,0-0.3,0c-0.1,0-0.1-0.1-0.2-0.1c-0.1-0.2-0.2-0.5-0.2-0.9c0-0.8,0.3-2,1-3l-0.6-0.4c-0.8,1.1-1.2,2.4-1.2,3.5
		c0,0.5,0.1,1,0.3,1.3c0.1,0.2,0.3,0.3,0.5,0.4c0.2,0.1,0.5,0.1,0.7,0.1L34.8,31z M35.2,26.9c0.8-1.2,2.1-2.1,3.8-2.1
		c1.7,0,4,0.8,6.9,3.4l0.5-0.6C43.5,24.9,41,24,39,24c-2,0.1-3.5,1.2-4.4,2.5L35.2,26.9z"/>
</g>
</svg>
