<?xml version="1.0" encoding="utf-8"?>
<!-- Generator: Adobe Illustrator 27.3.1, SVG Export Plug-In . SVG Version: 6.00 Build 0)  -->
<svg version="1.1" id="Layer_1" xmlns="http://www.w3.org/2000/svg" xmlns:xlink="http://www.w3.org/1999/xlink" x="0px" y="0px"
	 viewBox="0 0 21.2 21.2" style="enable-background:new 0 0 21.2 21.2;" xml:space="preserve">
<style type="text/css">
	.st0{fill:#FFB500;}
</style>
<g>
	<path class="st0" d="M2.2,12.9c0.1,0,0.1-0.1,0.2-0.1c0-0.1,0.1-0.1,0.1-0.2c0-0.1,0-0.2,0-0.3c0-0.1,0-0.2,0-0.2c0,0,0,0,0-0.1
		c0-0.1-0.1-0.2-0.2-0.2c-0.1,0-0.1-0.1-0.2,0C2,11.7,2,11.7,2,11.8c0,0.1,0,0.1,0,0.2c0,0.1,0,0.2,0,0.2c0,0-0.1,0-0.2-0.1
		c0,0.1,0,0.3,0,0.5c0,0,0,0,0,0c0,0,0,0.1,0.1,0.1c0,0,0.1,0.1,0.1,0.1C2.1,12.9,2.2,12.9,2.2,12.9z M2.3,13.1c-0.1,0-0.2,0-0.3,0
		c-0.1,0-0.2,0-0.2-0.1c-0.1,0-0.1-0.1-0.2-0.2c0,0-0.1-0.1-0.1-0.2c0,0,0-0.1,0-0.1c0-0.1,0-0.2,0-0.2c0-0.1,0-0.2,0-0.3
		c0-0.1,0-0.2,0-0.2c0-0.1,0-0.1,0.1-0.2c0-0.1,0.1-0.1,0.1-0.1c0,0,0.1,0,0.1,0C1.9,11.5,2,11.5,2,11.5c0.1,0,0.1,0,0.2,0
		c0.1,0,0.2,0,0.2,0.1c0.1,0,0.1,0.1,0.2,0.2c0,0,0.1,0.1,0.1,0.2c0,0,0,0,0,0.1c0.1,0.2,0.1,0.4,0,0.6c0,0.1,0,0.2-0.1,0.3
		C2.6,12.9,2.5,13,2.3,13.1z M4.2,12.4c-0.1,0-0.1-0.1-0.2-0.2c0-0.1-0.1-0.1-0.1-0.2c0,0,0-0.1,0-0.1c0,0.4-0.1,0.7-0.3,0.8
		c-0.1,0-0.2,0-0.2,0c-0.1,0-0.1-0.1-0.2-0.2c0,0,0-0.1-0.1-0.1c0,0,0-0.1,0-0.1C3,12,2.9,11.8,2.9,11.6c0-0.1,0-0.2,0.1-0.2
		c0.1,0,0.1,0,0.1,0.1c0,0,0,0,0,0c0,0,0,0,0,0.1c0,0.2,0,0.4,0.1,0.6c0,0,0,0.1,0,0.1c0.1,0.1,0.1,0.2,0.2,0.2
		c0.1,0,0.1-0.2,0.1-0.4c0-0.2,0-0.5,0-0.7c0-0.1,0-0.2,0.1-0.2c0.1,0,0.1,0,0.1,0.1c0,0,0,0,0,0c0.1,0.3,0.2,0.5,0.2,0.7
		c0,0.1,0.1,0.2,0.1,0.3l0,0c0,0,0,0,0,0C4.2,12.3,4.2,12.4,4.2,12.4z M4.8,10.8C4.8,10.9,4.8,10.9,4.8,10.8
		c-0.2,0.3-0.3,0.5-0.3,0.7c0,0.2,0.1,0.3,0.1,0.3c0,0.1,0.1,0.1,0.1,0.2c0,0.1,0,0.2-0.1,0.2c-0.1,0-0.1,0-0.2-0.2l0,0
		c0-0.1-0.1-0.2-0.1-0.3c-0.1-0.2-0.1-0.4-0.2-0.5c-0.1-0.2,0-0.3,0-0.3c0.1,0,0.1,0,0.2,0.2c0,0,0,0.1,0,0.1
		c0.1-0.3,0.2-0.5,0.3-0.5c0,0,0,0,0.1,0c0,0,0,0,0,0l0,0C4.8,10.7,4.8,10.8,4.8,10.8z M5.9,11.7c0,0-0.1,0-0.1,0c0,0,0-0.1-0.1-0.2
		c0-0.1-0.1-0.3-0.2-0.5c-0.1-0.2-0.1-0.3-0.1-0.4c0-0.1,0-0.2,0.1-0.2c0.1,0,0.1,0,0.1,0.1c0,0,0,0,0,0L5.8,11c0-0.1,0-0.2,0-0.3
		c0-0.3,0.1-0.4,0.2-0.5c0,0,0.1,0,0.1,0c0.1,0,0.2,0.1,0.2,0.1c0-0.1,0.1-0.2,0.1-0.3c0-0.1,0.1-0.1,0.2-0.2c0,0,0,0,0.1,0
		c0.1,0,0.2,0,0.2,0.1c0.1,0.1,0.1,0.1,0.2,0.2c0,0,0,0.1,0,0.1c0,0.1,0,0.1,0.1,0.2c0,0.1,0.1,0.3,0.1,0.4c0,0.2,0,0.3-0.1,0.3
		c0,0,0,0-0.1,0c0,0,0,0,0-0.1c0,0,0,0,0,0c0,0,0-0.1,0-0.1c0-0.1,0-0.3-0.1-0.4c0-0.1,0-0.1-0.1-0.2c0-0.1-0.1-0.1-0.1-0.2
		c0-0.1-0.1-0.1-0.1-0.1c0,0-0.1,0.1-0.1,0.2c0,0.1,0,0.2,0,0.3c0,0.1,0,0.2,0,0.3c0,0.1,0,0.2,0,0.3c0,0,0,0.1,0,0.1
		c0,0,0,0.1-0.1,0.1c-0.1,0-0.1,0-0.1,0c0,0,0,0,0-0.1c0,0,0,0,0,0c0,0,0-0.1,0-0.2c0-0.1,0-0.2,0-0.3c0,0,0-0.1,0-0.1
		c0,0,0-0.1-0.1-0.2c0-0.1-0.1-0.1-0.1-0.1c-0.1,0-0.1,0.2-0.1,0.5c0,0.1,0,0.2,0,0.3l0,0.2C6,11.6,6,11.7,5.9,11.7z M7.7,10.3
		C8,10.1,8.1,9.9,8.1,9.7l0,0c0,0,0-0.1-0.1-0.1c0,0-0.1,0-0.1,0c0,0-0.1,0-0.1,0.1C7.7,9.8,7.7,9.8,7.7,9.9
		C7.6,10,7.6,10.1,7.7,10.3z M8.1,10.8c-0.2,0.1-0.4,0-0.6-0.2c0-0.1-0.1-0.1-0.1-0.2c0,0,0-0.1,0-0.1c0-0.1-0.1-0.3,0-0.4
		c0-0.1,0.1-0.3,0.2-0.3c0.1-0.1,0.2-0.1,0.3-0.2c0,0,0,0,0.1,0c0.1,0,0.2,0,0.3,0c0.1,0,0.1,0.1,0.1,0.2c0,0,0,0,0,0
		c0.1,0.3-0.1,0.6-0.6,0.8c0,0,0.1,0.1,0.1,0.1c0.1,0.1,0.2,0.1,0.3,0.1c0.1,0,0.1-0.1,0.2-0.2c0.1-0.1,0.1-0.2,0.1-0.2
		c0,0,0.1,0,0.1,0c0,0,0,0,0,0c0,0,0,0.1,0,0.2c0,0.1,0,0.1-0.1,0.2C8.3,10.7,8.3,10.8,8.1,10.8z M9.8,10.2c-0.1,0-0.1,0-0.1-0.1
		c0,0,0,0,0,0c0,0,0-0.1,0-0.2c0-0.1,0-0.2-0.1-0.3c0,0,0-0.1,0-0.1c0-0.1-0.1-0.2-0.1-0.2C9.3,9.2,9.3,9.2,9.2,9.2
		c0,0-0.1,0-0.1,0.1c0,0.1-0.1,0.3-0.1,0.5c0,0.1,0,0.2,0,0.3c0,0.2,0,0.3,0,0.4c0,0.1,0,0.1-0.1,0.1c-0.1,0-0.1,0-0.2-0.1
		c0,0,0-0.1-0.1-0.2c0-0.1-0.1-0.2-0.1-0.4C8.5,9.6,8.5,9.5,8.5,9.5c0-0.1,0-0.2,0.1-0.2c0.1,0,0.1,0,0.2,0.1l0,0
		c0,0.1,0.1,0.2,0.1,0.4c0-0.1,0-0.1,0-0.2c0-0.1,0-0.2,0.1-0.3C9,9.1,9.1,9,9.2,9c0.1-0.1,0.3,0,0.4,0.1c0.1,0.1,0.1,0.1,0.2,0.2
		c0,0,0,0.1,0,0.1c0,0,0,0.1,0,0.1C9.9,9.7,9.9,9.9,9.9,10C9.9,10.1,9.9,10.2,9.8,10.2z M10.6,9.9c-0.1,0-0.1,0-0.2,0
		c-0.1,0-0.1-0.1-0.2-0.2c0,0,0-0.1-0.1-0.1c0,0,0-0.1,0-0.1c0,0,0-0.1,0-0.2c0,0-0.1,0-0.1,0c0,0-0.1,0-0.1,0c0,0,0,0,0,0l0,0
		c0-0.1,0-0.1,0.1-0.2l0.1,0C10,9,10,8.9,10,8.7c0-0.1,0-0.1,0-0.2c0-0.1,0-0.2,0.1-0.2c0.1,0,0.1,0,0.1,0.1c0,0,0,0,0,0
		c0,0,0,0.1,0,0.2c0,0.1,0,0.2,0,0.4c0.1-0.1,0.2-0.1,0.3-0.1c0,0,0.1,0,0.1,0c0,0,0,0,0,0l0,0c0,0,0,0,0,0.1c0,0-0.1,0.1-0.1,0.1
		l-0.2,0.1c0,0.1,0,0.2,0.1,0.2c0,0,0,0.1,0,0.1c0,0,0,0.1,0,0.1c0,0.1,0.1,0.1,0.1,0.1c0,0,0.1-0.1,0.1-0.1c0-0.1,0.1-0.1,0.1-0.1
		c0.1,0,0.1,0,0.1,0c0,0,0,0,0,0c0,0,0,0.1,0,0.1C10.8,9.8,10.7,9.8,10.6,9.9z M11.6,9.3c0.1,0,0.1-0.1,0.2-0.2c0-0.1,0-0.2,0-0.2
		c0-0.1,0-0.1,0-0.2c0,0,0,0,0-0.1c0,0,0-0.1,0-0.1c0-0.1-0.1-0.1-0.1-0.2c-0.1,0-0.1,0-0.1,0c-0.1,0-0.1,0.1-0.1,0.1c0,0,0,0,0,0
		c0,0,0,0,0,0c0,0,0,0,0,0c0,0,0,0,0,0c0,0.1,0,0.1-0.1,0.1c-0.1,0-0.1,0-0.1-0.1l0,0c0,0.1,0,0.2,0,0.4c0,0,0,0,0,0.1
		c0,0.1,0.1,0.1,0.1,0.2C11.3,9.3,11.4,9.3,11.6,9.3z M11.6,9.5c-0.2,0.1-0.3,0.1-0.4,0C11.1,9.4,11,9.4,11,9.3c0-0.1,0-0.1-0.1-0.1
		c0,0,0,0,0-0.1c0-0.1,0-0.1,0-0.2c0-0.1,0-0.2,0-0.3c0-0.1,0.1-0.1,0.1-0.2c0-0.1,0.1-0.2,0.3-0.3c0.1,0,0.1,0,0.1,0
		c0.1,0,0.2,0,0.2,0.1c0.1,0.1,0.1,0.1,0.2,0.2c0,0.1,0.1,0.1,0.1,0.2c0,0,0,0,0,0.1c0,0.1,0,0.2,0,0.4C12,9.2,11.8,9.4,11.6,9.5z
		 M12.7,7.8C12.7,7.8,12.6,7.9,12.7,7.8c-0.2,0.3-0.3,0.5-0.3,0.7c0,0.2,0.1,0.3,0.1,0.3c0,0.1,0.1,0.1,0.1,0.2c0,0.1,0,0.2-0.1,0.2
		c-0.1,0-0.1,0-0.2-0.2l0,0c0-0.1-0.1-0.2-0.1-0.3c-0.1-0.2-0.1-0.4-0.2-0.5c-0.1-0.2,0-0.3,0-0.3c0.1,0,0.1,0,0.2,0.2
		c0,0,0,0.1,0,0.1c0.1-0.3,0.2-0.5,0.3-0.5c0,0,0,0,0.1,0c0,0,0,0,0,0l0,0C12.7,7.7,12.7,7.8,12.7,7.8z"/>
	<path d="M13.7,10.2c-0.1,0-0.2,0.1-0.2,0.1c0,0.1,0.1,0.2,0.1,0.2L13.7,10.2z M14.9,13.4l0,0.2l0,0L14.9,13.4z M19.6,12.2
		c0.1,0,0.2-0.1,0.2-0.2l-0.1-1.5c0-0.1-0.1-0.2-0.2-0.2c-0.1,0-0.2,0.1-0.2,0.2l0.1,1.3l-1.3,0.1C18,11.9,18,12,18,12.1
		c0,0.1,0.1,0.2,0.2,0.2L19.6,12.2z M13.7,10.5c0.1,0,0.3,0.1,0.5,0.3c0.2,0.2,0.4,0.5,0.6,0.7l0.3-0.2c-0.2-0.3-0.4-0.6-0.6-0.8
		c-0.2-0.2-0.5-0.4-0.7-0.4L13.7,10.5z M14.8,11.6c0.2,0.4,0.4,0.8,0.4,1.2c0,0.2,0,0.3-0.1,0.4c0,0.1-0.1,0.1-0.3,0.2l0.1,0.3
		c0.2,0,0.4-0.2,0.5-0.3c0.1-0.2,0.1-0.4,0.1-0.6c0-0.4-0.2-0.9-0.5-1.3L14.8,11.6z M14.9,13.3c0,0-0.1,0-0.1,0c0,0,0,0-0.1-0.1
		c0-0.1-0.1-0.2-0.1-0.4c0-0.4,0.1-0.8,0.4-1.3l-0.3-0.2c-0.3,0.5-0.5,1-0.5,1.4c0,0.2,0,0.4,0.1,0.6c0.1,0.1,0.1,0.1,0.2,0.2
		c0.1,0,0.2,0,0.3,0L14.9,13.3z M15,11.6c0.3-0.5,0.9-0.9,1.6-0.9c0.7,0,1.7,0.3,2.9,1.4l0.2-0.2c-1.2-1.1-2.3-1.5-3.1-1.5
		c-0.8,0-1.5,0.5-1.8,1L15,11.6z"/>
</g>
</svg>
