<svg width="121" height="45" viewBox="0 0 121 45" fill="none" xmlns="http://www.w3.org/2000/svg">
<g clip-path="url(#clip0_6197_45746)">
<path d="M29 35.9774H31.1084V27.7168L34.3725 34.9207C34.7575 35.7891 35.285 36.1011 36.3188 36.1011C37.3525 36.1011 37.8594 35.7925 38.245 34.9207L41.5094 27.7168V35.9805H43.6181V27.7305C43.6181 26.9256 43.2931 26.5364 42.6244 26.3354C41.0228 25.8392 39.9481 26.2684 39.4619 27.3415L36.2588 34.4511L33.1563 27.3384C32.69 26.2653 31.5953 25.8361 29.9938 26.3323C29.3244 26.5336 29 26.9228 29 27.7274V35.9774ZM45.3706 29.2514H47.4784V33.8044C47.4588 34.0519 47.5584 34.6325 48.7134 34.6502C49.3028 34.6595 53.2616 34.6502 53.2984 34.6502V29.2288H55.4109C55.4203 29.2288 55.4088 36.6209 55.4091 36.6526C55.4206 38.4756 53.1297 38.8717 52.0741 38.9024H45.4166V37.4943L52.0859 37.494C53.4428 37.3513 53.2828 36.6823 53.2828 36.4569V35.9079H48.8016C46.7166 35.8893 45.3891 34.9858 45.3725 33.9468C45.3709 33.8538 45.4175 29.2961 45.3713 29.2511L45.3706 29.2514Z" fill="#00618A"/>
<path d="M57.0352 35.9759H63.097C63.8064 35.9759 64.4961 35.8286 65.0439 35.5734C65.9564 35.1578 66.4023 34.5942 66.4023 33.8564V32.3273C66.4023 31.7235 65.8955 31.1602 64.9023 30.7847C64.3752 30.5831 63.7264 30.4761 63.098 30.4761H60.5433C59.692 30.4761 59.2864 30.2211 59.1852 29.6579C59.1648 29.5909 59.1648 29.5338 59.1648 29.4699V28.5178C59.1648 28.4641 59.1648 28.4101 59.1852 28.3431C59.2864 27.9139 59.5095 27.7929 60.2595 27.7228C60.3205 27.7228 60.4014 27.7092 60.4627 27.7092H66.4839V26.3145H60.5639C59.7123 26.3145 59.2664 26.3681 58.8608 26.4888C57.6027 26.878 57.0552 27.4983 57.0552 28.5714V29.7922C57.0552 30.7313 58.1302 31.5361 59.9339 31.7238C60.137 31.7371 60.3395 31.7505 60.542 31.7505H62.7317C62.813 31.7505 62.8942 31.7505 62.9548 31.7641C63.6236 31.8178 63.908 31.9384 64.1105 32.1797C64.2355 32.3038 64.273 32.4216 64.273 32.5519V33.7726C64.273 33.9203 64.1717 34.1082 63.9689 34.2689C63.7864 34.4302 63.4823 34.5372 63.0767 34.5641C62.9955 34.5641 62.9348 34.5775 62.8539 34.5775H57.0352V35.9725V35.9759ZM79.5552 33.5481C79.5552 34.9835 80.6295 35.7883 82.7989 35.9493C83.0013 35.9648 83.2041 35.9737 83.407 35.9759H88.9014V34.5809H83.3664C82.1298 34.5809 81.6633 34.2723 81.6633 33.5344V26.3172H79.5548V33.5475L79.5552 33.5481ZM67.7473 33.6207V28.6474C67.7473 27.3839 68.6411 26.6175 70.4086 26.3756C70.5971 26.3488 70.7872 26.3354 70.9777 26.3352H74.9798C75.177 26.3354 75.3739 26.3488 75.5692 26.3756C77.3367 26.6175 78.2305 27.3835 78.2305 28.6474V33.6207C78.2305 34.6457 77.8508 35.1944 76.9758 35.552L79.0527 37.4129H76.6045L74.9242 35.9074L73.2327 36.0138H70.9777C70.5917 36.0138 70.1855 35.9598 69.7383 35.8389C68.3945 35.476 67.7473 34.7769 67.7473 33.6207ZM70.0233 33.4966C70.0233 33.5639 70.0436 33.6309 70.0639 33.7118C70.1889 34.29 70.7342 34.6125 71.5639 34.6125H73.4795L71.7202 33.036H74.1683L75.6995 34.4109C75.9823 34.2614 76.1683 34.0325 76.2308 33.7388C76.2511 33.6718 76.2511 33.6045 76.2511 33.5372V28.7687C76.2511 28.715 76.2511 28.6446 76.2308 28.5804C76.1058 28.0429 75.5602 27.7337 74.7477 27.7337H71.5677C70.6302 27.7337 70.0239 28.1369 70.0239 28.7687V33.5003L70.0233 33.4966Z" fill="#E48E00"/>
<path d="M90.7591 24.0036C89.4632 23.9689 88.4728 24.0883 87.6266 24.4425C87.386 24.5433 87.0025 24.5458 86.9632 24.8451C87.0953 24.9825 87.1163 25.1878 87.221 25.3568C87.4232 25.6815 87.7647 26.1167 88.0688 26.3443C88.4013 26.5934 88.7438 26.8601 89.101 27.0763C89.7353 27.4602 90.4435 27.6795 91.0541 28.0638C91.4141 28.2902 91.7716 28.5755 92.1228 28.8317C92.2963 28.9583 92.4135 29.1549 92.6385 29.234V29.1974C92.5197 29.0476 92.4894 28.8417 92.3807 28.6857L91.9016 28.2102C91.4328 27.5899 90.8385 27.0512 90.2063 26.6005C89.7022 26.2414 88.5738 25.7563 88.3635 25.1738L88.3266 25.1372C88.6841 25.0969 89.1025 24.9688 89.4328 24.8813C89.9869 24.734 90.4822 24.7719 91.0547 24.6255L91.8288 24.4059V24.2595C91.5394 23.9649 91.3332 23.575 91.0178 23.3086C90.1928 22.6107 89.2919 21.9144 88.3647 21.3329C87.8503 21.0104 87.2147 20.8013 86.6694 20.5281C86.486 20.4363 86.1638 20.3885 86.0428 20.2353C85.7566 19.873 85.6007 19.4134 85.3797 18.9947C84.9172 18.1108 84.4628 17.145 84.0528 16.2148C83.7732 15.5806 83.5903 14.955 83.2422 14.3859C81.5688 11.6553 79.7672 10.0072 76.9772 8.38755C76.3835 8.04328 75.6688 7.90682 74.9132 7.7291L73.6969 7.65591C73.4494 7.55356 73.1919 7.25271 72.9594 7.10694C72.035 6.52696 69.6641 5.26682 68.9794 6.92085C68.5472 7.96699 69.6253 8.98769 70.0113 9.51805C70.2819 9.89023 70.6288 10.3068 70.8219 10.7252C70.9491 10.9999 70.9713 11.2757 71.08 11.5666C71.3478 12.2799 71.581 13.0624 71.9275 13.7246C72.1025 14.0596 72.2957 14.4125 72.5172 14.7121C72.6532 14.8961 72.886 14.977 72.9225 15.2611C72.695 15.5775 72.6819 16.0675 72.5538 16.4682C71.9778 18.2708 72.195 20.511 73.0328 21.8453C73.29 22.2547 73.8953 23.133 74.7282 22.7962C75.4563 22.5016 75.2907 21.5897 75.5022 20.7846C75.5491 20.6016 75.5203 20.4682 75.6128 20.3457V20.3823L76.2763 21.6989C76.7669 22.4836 77.6388 23.3039 78.3769 23.8575C78.7597 24.1444 79.0644 24.6407 79.5563 24.8085V24.7719H79.5194C79.4235 24.623 79.2735 24.5619 79.1507 24.4431C78.8622 24.1624 78.5413 23.8135 78.3028 23.4922C77.631 22.5872 77.0378 21.5972 76.4972 20.5659C76.2391 20.0737 76.0144 19.5306 75.7972 19.0297C75.7135 18.8365 75.7144 18.5447 75.5394 18.4445C75.301 18.8117 74.9497 19.1082 74.7653 19.5418C74.4703 20.2347 74.4322 21.0795 74.3232 21.956C74.2585 21.979 74.2872 21.9631 74.2494 21.9926C73.7363 21.8698 73.5557 21.3453 73.365 20.8953C72.8825 19.757 72.7932 17.9253 73.2175 16.6158C73.3269 16.2772 73.8238 15.2096 73.6228 14.8967C73.5269 14.5844 73.2103 14.4004 73.0332 14.1647C72.8144 13.8701 72.595 13.4811 72.4435 13.1406C72.0485 12.2536 71.8641 11.258 71.4485 10.3607C71.2497 9.9321 70.9141 9.49851 70.6378 9.12013C70.3322 8.69832 69.99 8.38693 69.7535 7.87952C69.6691 7.69809 69.5547 7.4081 69.6797 7.22107C69.6916 7.16734 69.7188 7.11812 69.758 7.07921C69.7972 7.0403 69.8468 7.01333 69.901 7.00149C70.1147 6.83804 70.7103 7.05576 70.9328 7.14788C71.5235 7.39166 72.0172 7.62365 72.5178 7.95272C72.7585 8.10779 73.0013 8.4167 73.2916 8.50169H73.6228C74.1416 8.62016 74.7228 8.5389 75.2072 8.68467C76.0641 8.94303 76.8316 9.34529 77.5291 9.78199C79.6535 11.1132 81.39 13.0082 82.5782 15.2716C82.7694 15.6355 82.8519 15.9831 83.0203 16.369C83.36 17.1443 83.7878 17.9486 84.126 18.7097C84.4635 19.4695 84.7916 20.2356 85.2685 20.8677C85.5191 21.1996 86.4872 21.3782 86.9269 21.5624C87.2353 21.6918 87.7403 21.8267 88.0325 22.0013C88.5903 22.3353 89.131 22.7332 89.6544 23.0992C89.916 23.2822 90.72 23.6832 90.76 24.0135L90.7591 24.0036Z" fill="#00618A"/>
<path fill-rule="evenodd" clip-rule="evenodd" d="M74.2845 10.067C74.0142 10.0621 73.8233 10.0962 73.6211 10.1402V10.1768H73.658C73.7867 10.4398 74.0142 10.6089 74.1736 10.8353L74.5423 11.6032L74.5792 11.5666C74.8073 11.4069 74.912 11.1516 74.9105 10.7618C74.8189 10.6662 74.8055 10.5465 74.7261 10.4324C74.6208 10.2804 74.4136 10.1942 74.2839 10.0664L74.2845 10.067Z" fill="#00618A"/>
<path fill-rule="evenodd" clip-rule="evenodd" d="M89.8906 34.5421C89.8906 35.4632 90.6241 36.0841 91.4444 36.0841C92.2647 36.0841 92.9981 35.4632 92.9981 34.5421C92.9981 33.6209 92.2647 33 91.4444 33C90.6241 33 89.8906 33.6209 89.8906 34.5421ZM92.65 34.5421C92.65 35.2411 92.1116 35.7634 91.4438 35.7634C90.7688 35.7634 90.2375 35.2411 90.2375 34.5421C90.2375 33.843 90.7681 33.3207 91.4438 33.3207C92.1109 33.3207 92.65 33.843 92.65 34.5421ZM91.8625 35.4223H92.2103L91.7009 34.6494C91.9744 34.6205 92.1813 34.4887 92.1813 34.168C92.1813 33.8101 91.9531 33.6625 91.5144 33.6625H90.8222V35.4226H91.1206V34.6618H91.3981L91.8622 35.4226L91.8625 35.4223ZM91.1206 34.4143V33.9087H91.4644C91.6425 33.9087 91.8581 33.9416 91.8581 34.1476C91.8581 34.3941 91.6634 34.4149 91.4394 34.4149H91.1206V34.4143Z" fill="#E48E00"/>
</g>
<defs>
<clipPath id="clip0_6197_45746">
<rect width="64" height="33" fill="white" transform="translate(29 6)"/>
</clipPath>
</defs>
</svg>
