<svg width="90" height="112" viewBox="0 0 90 112" fill="none" xmlns="http://www.w3.org/2000/svg">
<g clip-path="url(#clip0_2698_17767)">
<path d="M61.5732 56.9598L30.9141 202.688L31.2811 202.769L61.9402 57.041L61.5732 56.9598Z" fill="#103050"/>
<path d="M40.9369 56.957L10.5703 202.688L10.9375 202.768L41.304 57.0375L40.9369 56.957Z" fill="#103050"/>
<path d="M53.0028 98.7266H32.5469V99.1116H53.0028V98.7266Z" fill="#103050"/>
<path d="M55.918 85.0938H35.5156V85.4788H55.918V85.0938Z" fill="#103050"/>
<path d="M58.5273 71.4609H38.125V71.846H58.5273V71.4609Z" fill="#103050"/>
<path d="M80.6409 56.827H28.2812V52.9062H80.6409V56.827ZM28.6567 56.4419H80.2655V53.2913H28.6567V56.4419Z" fill="#103050"/>
<path d="M40.5395 49.5914H40.1641V45.4844H42.5394V45.8695H40.5395V49.5914Z" fill="#A0A9AF"/>
<path d="M37.4223 53.5292H37.0469V49.4219H71.4315V52.0979H71.056V49.807H37.4223V53.5292Z" fill="#A0A9AF"/>
<path d="M74.5519 49.8028H71.243V49.4177H74.1764V46.2054H69.6328V45.8203H74.5519V49.8028Z" fill="#A0A9AF"/>
<path d="M60.9204 17.2031L66.0474 24.1237L74.4655 23.6783L69.6868 30.8606L72.6976 39.0042L64.6173 36.5226L58.06 42.001L57.8447 33.285L50.7812 28.5272L58.7286 25.622L60.9204 17.2031Z" fill="url(#paint0_linear_2698_17767)"/>
<path d="M78.4469 46.7271L78.2749 46.524C78.3633 46.4469 78.4512 46.3691 78.5386 46.2907L78.7135 46.4912C78.6252 46.5705 78.5364 46.6491 78.4469 46.7271ZM49.0327 46.6282C48.9437 46.5497 48.8552 46.4705 48.7674 46.3904L48.9437 46.1912C49.0305 46.2704 49.1179 46.3487 49.2059 46.4263L49.0327 46.6282ZM79.4914 45.7583L79.3074 45.5664C79.391 45.484 79.4739 45.4009 79.5562 45.317L79.7432 45.506C79.66 45.5907 79.5761 45.6749 79.4914 45.7583ZM47.9941 45.6524C47.9101 45.5684 47.8268 45.4836 47.7441 45.3982L47.9325 45.2107C48.0141 45.2951 48.0964 45.3788 48.1796 45.4619L47.9941 45.6524ZM80.4745 44.7253L80.279 44.5455C80.3574 44.4578 80.4351 44.3695 80.512 44.2806L80.7103 44.4574C80.6325 44.5473 80.5539 44.6366 80.4745 44.7253ZM47.0178 44.6127C46.9392 44.5236 46.8613 44.4338 46.784 44.3432L46.9834 44.1681C47.0598 44.2575 47.1369 44.3462 47.2146 44.4343L47.0178 44.6127ZM81.392 43.6317L81.1858 43.4647C81.2586 43.3723 81.3307 43.2792 81.4021 43.1855L81.6108 43.3493C81.5386 43.4441 81.4657 43.5382 81.392 43.6317ZM46.1076 43.5133C46.0348 43.4194 45.9626 43.3249 45.891 43.2299L46.1008 43.0674C46.1715 43.1614 46.2429 43.2548 46.315 43.3478L46.1076 43.5133ZM82.2404 42.4819L82.0243 42.3284C82.0912 42.2314 82.1574 42.1339 82.2228 42.036L82.4414 42.1861C82.3751 42.2853 82.3082 42.3839 82.2404 42.4819ZM45.267 42.3583C45.2 42.26 45.1338 42.1611 45.0683 42.0616L45.2877 41.9128C45.3525 42.0111 45.4179 42.1089 45.4842 42.2061L45.267 42.3583ZM83.0161 41.2804L82.7908 41.1408C82.8516 41.0399 82.9117 40.9384 82.971 40.8363L83.1983 40.9723C83.1383 41.0756 83.0776 41.1783 83.0161 41.2804ZM44.4997 41.1523C44.4389 41.0499 44.379 40.947 44.3198 40.8436L44.5479 40.7092C44.6065 40.8114 44.6658 40.9131 44.7258 41.0143L44.4997 41.1523ZM83.7157 40.0316L83.4822 39.9068C83.5367 39.8021 83.5903 39.697 83.6431 39.5913L83.8785 39.7124C83.825 39.8193 83.7708 39.9257 83.7157 40.0316ZM43.8086 39.8997C43.7543 39.7936 43.7008 39.687 43.6482 39.58L43.8844 39.4606C43.9363 39.5664 43.9891 39.6717 44.0428 39.7764L43.8086 39.8997ZM84.3364 38.7405L84.0957 38.6307C84.1435 38.5228 84.1905 38.4144 84.2366 38.3055L84.4791 38.4113C84.4324 38.5215 84.3848 38.6312 84.3364 38.7405ZM43.1967 38.6058C43.1492 38.4966 43.1024 38.3869 43.0565 38.2768L43.2996 38.1724C43.345 38.2813 43.3911 38.3898 43.4381 38.4977L43.1967 38.6058ZM84.8754 37.4117L84.6283 37.3178C84.6693 37.2069 84.7094 37.0956 84.7487 36.984L84.9973 37.0739C84.9575 37.1869 84.9169 37.2995 84.8754 37.4117ZM42.6669 37.2753C42.6263 37.1633 42.5866 37.0509 42.5476 36.938L42.7968 36.8497C42.8352 36.961 42.8745 37.0721 42.9146 37.1829L42.6669 37.2753ZM85.3305 36.0507L85.0779 35.9729C85.1119 35.8596 85.145 35.7459 85.1773 35.6319L85.4309 35.7058C85.3983 35.8211 85.3648 35.936 85.3305 36.0507ZM42.2211 35.9136C42.1875 35.7993 42.1549 35.6845 42.1232 35.5693L42.3773 35.4972C42.4087 35.6109 42.4409 35.7243 42.4741 35.8373L42.2211 35.9136ZM85.6995 34.6633L85.4426 34.6017C85.4694 34.4865 85.4954 34.3709 85.5205 34.2549L85.7783 34.3123C85.7529 34.4296 85.7267 34.5467 85.6995 34.6633ZM41.8613 34.5263C41.835 34.4102 41.8096 34.2937 41.7851 34.1768L42.0432 34.121C42.0675 34.2365 42.0926 34.3517 42.1186 34.4665L41.8613 34.5263ZM85.9812 33.2544L85.7211 33.2096C85.7406 33.0928 85.7593 32.9757 85.7772 32.8582L86.038 32.899C86.02 33.0178 86.001 33.1362 85.9812 33.2544ZM41.5888 33.1191C41.5698 33.0015 41.5517 32.8836 41.5345 32.7654L41.7957 32.7265C41.8125 32.8432 41.8304 32.9596 41.8493 33.0757L41.5888 33.1191ZM86.1748 31.8301L85.9123 31.802C85.9245 31.6846 85.9359 31.5668 85.9463 31.4489L86.2092 31.4729C86.1986 31.5923 86.1871 31.7114 86.1748 31.8301ZM41.4041 31.6969C41.3923 31.578 41.3815 31.4589 41.3715 31.3394L41.6346 31.3169C41.6444 31.435 41.6551 31.5528 41.6666 31.6702L41.4041 31.6969ZM86.2796 30.3985L86.0159 30.3869C86.0209 30.2689 86.0251 30.1506 86.0283 30.0323L86.2921 30.0398C86.2888 30.1596 86.2847 30.2792 86.2796 30.3985ZM41.3074 30.2646C41.303 30.1455 41.2995 30.0261 41.2969 29.9066L41.5608 29.9007C41.5633 30.0188 41.5667 30.1368 41.5711 30.2545L41.3074 30.2646ZM86.0329 28.968C86.0307 28.8498 86.0276 28.7318 86.0237 28.614L86.2874 28.6048C86.2915 28.7239 86.2946 28.8433 86.2969 28.9629L86.0329 28.968ZM41.5622 28.8364L41.2983 28.8298C41.3013 28.71 41.3052 28.5904 41.3098 28.471L41.5736 28.4818C41.5689 28.5998 41.5651 28.718 41.5622 28.8364ZM85.9633 27.5517C85.9539 27.4336 85.9436 27.3158 85.9323 27.1982L86.1951 27.1724C86.2064 27.2914 86.2169 27.4105 86.2264 27.5299L85.9633 27.5517ZM41.6398 27.4198L41.377 27.3967C41.3871 27.2773 41.3982 27.1581 41.4103 27.0393L41.6728 27.0666C41.661 27.1841 41.65 27.3018 41.6398 27.4198ZM85.8067 26.1419C85.79 26.0247 85.7724 25.9078 85.7539 25.7912L86.0146 25.7488C86.0332 25.8667 86.051 25.985 86.0679 26.1036L85.8067 26.1419ZM41.8046 26.0111L41.5436 25.9712C41.5612 25.8527 41.5797 25.7345 41.5991 25.6167L41.8594 25.6606C41.8403 25.7772 41.822 25.894 41.8046 26.0111ZM85.5629 24.745C85.5389 24.6291 85.5141 24.5136 85.4884 24.3984L85.7458 24.3393C85.7719 24.4559 85.797 24.5728 85.8212 24.6901L85.5629 24.745ZM42.0565 24.6155L41.7986 24.5591C41.8234 24.4419 41.8493 24.3251 41.876 24.2087L42.1331 24.2693C42.1067 24.3844 42.0812 24.4998 42.0565 24.6155ZM85.2326 23.3664C85.2016 23.2524 85.1696 23.1387 85.1367 23.0254L85.3899 22.9498C85.4231 23.0645 85.4555 23.1796 85.4869 23.2951L85.2326 23.3664ZM42.3949 23.239L42.1409 23.1662C42.173 23.0509 42.2061 22.936 42.24 22.8214L42.4928 22.8986C42.4592 23.0117 42.4265 23.1251 42.3949 23.239ZM84.8169 22.0121C84.7786 21.9002 84.7395 21.7888 84.6997 21.6778L84.9477 21.5861C84.9881 21.6985 85.0276 21.8112 85.0662 21.9243L84.8169 22.0121ZM42.8194 21.8844L42.5706 21.7952C42.6101 21.6819 42.6504 21.569 42.6916 21.4564L42.939 21.5495C42.8984 21.6608 42.8585 21.7724 42.8194 21.8844ZM84.3183 20.6894C84.2735 20.5807 84.2278 20.4724 84.1812 20.3645L84.423 20.2572C84.4701 20.3663 84.5163 20.4759 84.5618 20.5859L84.3183 20.6894ZM43.3282 20.5591L43.0854 20.4541C43.1318 20.3436 43.1791 20.2336 43.2273 20.1239L43.4684 20.2329C43.4209 20.3412 43.3741 20.4499 43.3282 20.5591ZM83.7389 19.4019C83.6874 19.2962 83.635 19.191 83.5818 19.0863L83.8164 18.9636C83.8702 19.0697 83.9233 19.1763 83.9755 19.2834L83.7389 19.4019ZM43.9185 19.2698L43.6827 19.1494C43.736 19.0422 43.79 18.9355 43.8447 18.8294L44.0786 18.9535C44.0245 19.0584 43.9711 19.1638 43.9185 19.2698ZM83.0802 18.1535C83.0222 18.0513 82.9633 17.9495 82.9037 17.8481L83.1303 17.711C83.1906 17.8134 83.2502 17.9163 83.3089 18.0198L83.0802 18.1535ZM44.5876 18.0214L44.3598 17.8861C44.4195 17.7826 44.48 17.6796 44.5413 17.5772L44.767 17.7161C44.7064 17.8173 44.6466 17.919 44.5876 18.0214ZM82.3453 16.9487C82.281 16.8504 82.2159 16.7525 82.1501 16.6552L82.3677 16.5037C82.4343 16.6022 82.5002 16.7012 82.5653 16.8008L82.3453 16.9487ZM45.3327 16.8186L45.1138 16.6692C45.1797 16.5698 45.2464 16.4709 45.314 16.3726L45.5305 16.5256C45.4638 16.6227 45.3979 16.7203 45.3327 16.8186ZM81.537 15.7927C81.4667 15.6986 81.3957 15.605 81.3239 15.5119L81.5318 15.3471C81.6044 15.4412 81.6763 15.5359 81.7475 15.6312L81.537 15.7927ZM46.1505 15.6661L45.9413 15.503C46.0132 15.408 46.0859 15.3136 46.1593 15.2198L46.366 15.3863C46.2935 15.479 46.2216 15.5723 46.1505 15.6661ZM80.6586 14.6899C80.5825 14.6003 80.5059 14.5113 80.4285 14.4229L80.6258 14.2452C80.7041 14.3346 80.7817 14.4245 80.8586 14.515L80.6586 14.6899ZM47.0376 14.5683L46.8388 14.3923C46.9164 14.3021 46.9947 14.2125 47.0737 14.1236L47.2698 14.3028C47.1916 14.3907 47.1142 14.4792 47.0376 14.5683ZM79.7134 13.6443C79.6321 13.5596 79.55 13.4756 79.4673 13.3923L79.6534 13.2025C79.737 13.2868 79.82 13.3717 79.9024 13.4573L79.7134 13.6443ZM47.9904 13.5291L47.8027 13.3408C47.8857 13.2558 47.9694 13.1715 48.0538 13.0877L48.2383 13.2791C48.155 13.3618 48.0723 13.4451 47.9904 13.5291ZM78.7058 12.6604C78.6191 12.5811 78.532 12.5024 78.4443 12.4244L78.6182 12.2231C78.7069 12.302 78.7951 12.3815 78.8826 12.4617L78.7058 12.6604ZM49.0048 12.5526L48.8292 12.3529C48.9172 12.2732 49.0059 12.1943 49.0952 12.1162L49.2676 12.3189C49.1794 12.3961 49.0918 12.474 49.0048 12.5526ZM77.6387 11.742C77.5475 11.6683 77.4556 11.5953 77.3632 11.523L77.5243 11.3109C77.6178 11.384 77.7108 11.4579 77.8031 11.5325L77.6387 11.742ZM50.0772 11.6428L49.9142 11.4323C50.0069 11.3585 50.1001 11.2854 50.194 11.2131L50.3536 11.4263C50.2609 11.4977 50.1688 11.5699 50.0772 11.6428ZM76.5171 10.8929C76.4214 10.8252 76.3251 10.7582 76.2283 10.6918L76.3761 10.47C76.4739 10.537 76.5713 10.6048 76.6681 10.6735L76.5171 10.8929ZM51.2031 10.8031L51.0535 10.5826C51.1505 10.5149 51.248 10.4479 51.3461 10.3817L51.4923 10.6046C51.3953 10.67 51.2989 10.7361 51.2031 10.8031ZM75.3444 10.1165C75.2447 10.055 75.1444 9.99421 75.0437 9.93415L75.1773 9.70339C75.2793 9.76414 75.3807 9.82563 75.4816 9.88787L75.3444 10.1165ZM52.3782 10.0368L52.2424 9.8071C52.3434 9.74574 52.4448 9.68517 52.5467 9.6254L52.6789 9.85719C52.5782 9.91628 52.478 9.97615 52.3782 10.0368ZM74.1254 9.41643C74.0221 9.36136 73.9183 9.30707 73.8139 9.25356L73.9329 9.01463C74.0385 9.06874 74.1437 9.12367 74.2483 9.17941L74.1254 9.41643ZM53.5978 9.34715L53.4765 9.10943C53.581 9.05463 53.6859 9.00066 53.7914 8.94753L53.9087 9.18733C53.8046 9.2398 53.701 9.29307 53.5978 9.34715ZM72.865 8.79554C72.7582 8.74718 72.6511 8.69963 72.5436 8.65289L72.6476 8.40681C72.7564 8.45403 72.8648 8.50216 72.9728 8.5512L72.865 8.79554ZM54.857 8.73726L54.7508 8.4922C54.8583 8.44429 54.9662 8.39717 55.0746 8.35086L55.177 8.59764C55.0699 8.64331 54.9632 8.68985 54.857 8.73726ZM71.5678 8.25657C71.4581 8.21519 71.3481 8.17458 71.2378 8.13475L71.3261 7.88256C71.4377 7.92273 71.549 7.9638 71.6599 8.00577L71.5678 8.25657ZM56.1509 8.20917L56.0602 7.95785C56.1709 7.91672 56.282 7.87646 56.3935 7.83707L56.4804 8.08978C56.3702 8.12883 56.2604 8.16862 56.1509 8.20917ZM70.2385 7.80195C70.127 7.76779 70.0152 7.73447 69.903 7.702L69.9752 7.44458C70.0887 7.47735 70.2019 7.51101 70.3148 7.54558L70.2385 7.80195ZM57.479 7.76395L57.4041 7.50724C57.5171 7.47333 57.6306 7.44031 57.7445 7.40816L57.8151 7.6661C57.7026 7.69781 57.5906 7.73043 57.479 7.76395ZM68.8875 7.435C68.774 7.40798 68.6602 7.38189 68.5462 7.35674L68.6024 7.09514C68.7178 7.12068 68.8329 7.14706 68.9476 7.17426L68.8875 7.435ZM58.8321 7.4052L58.7735 7.14412C58.8884 7.11763 59.0037 7.09198 59.1193 7.06716L59.1737 7.32912C59.0595 7.35351 58.9456 7.37887 58.8321 7.4052ZM67.5162 7.15527C67.4013 7.13566 67.2862 7.11692 67.1707 7.09907L67.2106 6.83449C67.3273 6.85254 67.4437 6.87145 67.56 6.89123L67.5162 7.15527ZM60.2049 7.13357L60.1626 6.86935C60.2789 6.85027 60.3955 6.83203 60.5123 6.81463L60.5506 7.07955C60.435 7.09672 60.3198 7.11472 60.2049 7.13357ZM66.1305 6.9639C66.0147 6.95171 65.8986 6.94035 65.7822 6.92983L65.8055 6.66318C65.9232 6.6738 66.0407 6.68527 66.1578 6.69759L66.1305 6.9639ZM61.5919 6.95048L61.5661 6.68401C61.6834 6.67241 61.8009 6.66163 61.9185 6.65167L61.9404 6.9185C61.824 6.92826 61.7079 6.93892 61.5919 6.95048ZM64.7354 6.861C64.6191 6.85602 64.5025 6.85198 64.3858 6.84888L64.3927 6.58135C64.5108 6.5845 64.6287 6.58853 64.7464 6.59346L64.7354 6.861ZM62.9876 6.85577L62.9781 6.58824C63.0955 6.58396 63.2132 6.58059 63.331 6.57812L63.3365 6.84583C63.22 6.84827 63.1036 6.85158 62.9876 6.85577Z" fill="#103050"/>
<path d="M55.6875 47.3648C55.7035 47.2856 56.3074 44.3039 56.3074 44.3039L57.1346 43.9297L56.8579 47.2839L55.6875 47.3648Z" fill="#FFD3B7"/>
<path d="M56.5651 44.6093L56.3125 44.3005L57.4896 42.1641L57.8498 42.2408L57.1397 43.9262L56.5651 44.6093Z" fill="#FFD3B7"/>
<path d="M56.8214 45.94L57.3753 45.1906L57.5464 44.3462C57.5464 44.3462 58.0726 44.2656 58.0094 44.4448C57.9463 44.6241 57.7957 45.5003 57.7957 45.5003L57.4974 46.9782L56.7109 47.2786L56.8214 45.94Z" fill="#FFD3B7"/>
<path d="M57.4869 46.9813C57.4869 46.9813 56.9386 47.1639 56.7942 48.629C56.6497 50.0942 55.6746 49.1787 55.6746 49.1787C55.5943 48.5762 55.5982 47.9651 55.6865 47.3637C55.8429 46.5912 57.4869 46.9813 57.4869 46.9813Z" fill="#FFD3B7"/>
<path d="M39.9846 72.6073L38.3906 69.1996C38.3906 69.1996 45.5926 63.3509 49.8958 62.5884C50.8809 58.2424 54.98 48.5078 54.98 48.5078L59.5195 49.0537C59.5195 49.0537 59.1255 64.4548 57.7135 67.5066C56.3016 70.5584 42.7573 82.0481 42.7573 82.0481L39.9846 72.6073Z" fill="url(#paint1_linear_2698_17767)"/>
<path d="M43.2427 98.8516C43.2427 98.8516 53.1709 110.03 56.5149 117.001C52.3939 127.494 39.8215 137.474 39.8215 137.474L38.4501 137.021C38.4501 137.021 42.2807 125.171 48.0474 117.996C40.3319 114.837 26.1484 101.396 26.1484 101.396L43.2427 98.8516Z" fill="url(#paint2_linear_2698_17767)"/>
<path d="M33.7527 104.562L31.4589 128.315L26.837 149.852L25.036 149.861C25.036 149.861 21.5942 136.032 24.3965 128.345C20.6234 114.014 20.8786 105.27 20.8786 105.27L33.7527 104.562Z" fill="url(#paint3_linear_2698_17767)"/>
<path d="M7.68173 103.984C7.67915 104.065 7.60156 106.49 7.60156 106.49L8.3196 107.053L8.82042 103.727L7.68173 103.984Z" fill="#FFD3B7"/>
<path d="M7.9675 106.148L7.60156 106.487L8.3049 108.748L8.67258 108.761L8.31941 107.05L7.9675 106.148Z" fill="#FFD3B7"/>
<path d="M8.47656 105.039L8.84294 105.901L8.81536 106.763C8.81536 106.763 9.30827 106.968 9.28804 106.778C9.26782 106.589 9.32253 105.701 9.32253 105.701L9.37181 104.193L8.67642 103.711L8.47656 105.039Z" fill="#FFD3B7"/>
<path d="M9.36991 104.196C9.36991 104.196 8.89037 103.917 9.08625 102.459C9.28213 101 8.12431 101.654 8.12431 101.654C7.91245 102.418 7.7638 103.199 7.67996 103.988C7.65473 104.777 9.36991 104.196 9.36991 104.196Z" fill="#FFD3B7"/>
<path d="M41.7533 66.6653C43.3505 67.6278 49.1077 99.1035 49.3349 100.292C49.5622 101.48 42.6341 106.499 31.9694 106.65C21.3047 106.802 16.9375 104.047 16.9375 104.047C16.9375 104.047 21.34 75.92 22.7898 68.5177C22.8797 68.0535 23.1096 67.63 23.4471 67.3071C23.7845 66.9842 24.2123 66.7783 24.6701 66.7185C30.3418 65.9975 36.0775 65.9796 41.7533 66.6653Z" fill="url(#paint4_linear_2698_17767)"/>
<path d="M25.4049 70.8007L23.4039 67.3438C23.4039 67.3438 11.6444 82.1808 10.5869 83.9005C9.52938 85.6202 6.50781 101.326 6.50781 101.326L10.2719 103.945C10.2719 103.945 15.9142 93.1501 16.7338 91.3835C19.1728 90.9759 24.7002 85.3232 24.7002 85.3232L25.4049 70.8007Z" fill="url(#paint5_linear_2698_17767)"/>
<path d="M35.4601 69.2356L30.5469 67.7591C30.8382 64.7533 31.287 61.7659 31.8915 58.8096L34.4398 58.7734C34.3735 60.4955 34.3431 64.9274 35.4601 69.2356Z" fill="url(#paint6_linear_2698_17767)"/>
<path d="M34.7759 62.1199C36.1908 61.4215 36.4784 59.0238 35.4182 56.7646C34.3581 54.5053 32.3517 53.24 30.9368 53.9385C29.522 54.6369 29.2344 57.0346 30.2945 59.2939C31.3547 61.5531 33.3611 62.8184 34.7759 62.1199Z" fill="url(#paint7_linear_2698_17767)"/>
<path d="M36.2642 46.577C37.2208 49.9596 36.4972 55.2103 33.333 56.1516C30.1687 57.093 31.4855 58.9852 31.4855 58.9852C31.4855 58.9852 30.7842 59.2671 30.4499 58.2776C30.1155 57.288 29.7182 57.7079 29.7182 57.7079L30.0454 58.8653C30.0454 58.8653 28.0354 59.2183 26.8438 55.0048C25.6523 50.7913 28.5829 50.5445 29.3612 50.313C30.1396 50.0814 31.5222 48.5882 31.0958 47.0802C30.6693 45.5722 31.3813 44.1943 32.884 43.7473C34.3867 43.3002 35.7373 44.7136 36.2642 46.577Z" fill="url(#paint8_linear_2698_17767)"/>
<path d="M35.9565 58.4219C35.9565 58.4219 34.9323 59.8108 33.2901 59.5666C32.9257 62.0932 34.2482 62.9547 34.2482 62.9547C34.2482 62.9547 37.1789 62.718 37.766 61.6319C37.4585 59.7626 35.9565 58.4219 35.9565 58.4219Z" fill="url(#paint9_linear_2698_17767)"/>
<path d="M29.1814 58.1672C29.3187 58.6528 29.7053 58.9647 30.0449 58.8636C30.3844 58.7626 30.5484 58.287 30.411 57.8014C30.2737 57.3157 29.8871 57.0039 29.5475 57.1049C29.208 57.206 29.044 57.6816 29.1814 58.1672Z" fill="url(#paint10_linear_2698_17767)"/>
<path d="M28.5469 66.3391C31.3686 66.1481 34.1986 66.1207 37.0233 66.257C37.1515 67.864 37.1453 71.592 34.3314 71.6319C31.5729 71.671 29.4031 68.0268 28.5469 66.3391Z" fill="url(#paint11_linear_2698_17767)"/>
<path d="M19.083 90.6367L18.8672 90.3216C20.9195 88.8003 22.8274 87.0839 24.5657 85.1953L24.8429 85.455C23.086 87.3641 21.1575 89.099 19.083 90.6367Z" fill="white"/>
</g>
<defs>
<linearGradient id="paint0_linear_2698_17767" x1="66.0039" y1="36.501" x2="58.0272" y2="17.198" gradientUnits="userSpaceOnUse">
<stop stop-color="#194CFF"/>
<stop offset="1" stop-color="#7594FF"/>
</linearGradient>
<linearGradient id="paint1_linear_2698_17767" x1="51.6653" y1="66.8842" x2="58.069" y2="82.5904" gradientUnits="userSpaceOnUse">
<stop stop-color="#F22003"/>
<stop offset="1" stop-color="#FF6130"/>
</linearGradient>
<linearGradient id="paint2_linear_2698_17767" x1="41.4525" y1="108.301" x2="38.0609" y2="132.234" gradientUnits="userSpaceOnUse">
<stop stop-color="#226CC8"/>
<stop offset="1" stop-color="#5EA8FF"/>
</linearGradient>
<linearGradient id="paint3_linear_2698_17767" x1="26.4012" y1="115.067" x2="22.3655" y2="143.544" gradientUnits="userSpaceOnUse">
<stop stop-color="#226CC8"/>
<stop offset="1" stop-color="#5EA8FF"/>
</linearGradient>
<linearGradient id="paint4_linear_2698_17767" x1="28.2021" y1="75.2227" x2="32.6407" y2="97.8572" gradientUnits="userSpaceOnUse">
<stop stop-color="#F22003"/>
<stop offset="1" stop-color="#FF6130"/>
</linearGradient>
<linearGradient id="paint5_linear_2698_17767" x1="14.6629" y1="78.648" x2="19.2888" y2="102.237" gradientUnits="userSpaceOnUse">
<stop stop-color="#F22003"/>
<stop offset="1" stop-color="#FF6130"/>
</linearGradient>
<linearGradient id="paint6_linear_2698_17767" x1="33.4886" y1="64.7216" x2="33.9934" y2="60.9005" gradientUnits="userSpaceOnUse">
<stop stop-color="#FFD3B7"/>
<stop offset="1" stop-color="#FFA277"/>
</linearGradient>
<linearGradient id="paint7_linear_2698_17767" x1="33.0456" y1="58.4068" x2="31.7191" y2="55.8619" gradientUnits="userSpaceOnUse">
<stop stop-color="#FFD3B7"/>
<stop offset="1" stop-color="#FFA277"/>
</linearGradient>
<linearGradient id="paint8_linear_2698_17767" x1="31.4195" y1="50.3045" x2="29.068" y2="42.4013" gradientUnits="userSpaceOnUse">
<stop stop-color="#09111D"/>
<stop offset="1" stop-color="#313945"/>
</linearGradient>
<linearGradient id="paint9_linear_2698_17767" x1="35.0469" y1="60.2539" x2="36.6233" y2="63.7057" gradientUnits="userSpaceOnUse">
<stop stop-color="#09111D"/>
<stop offset="1" stop-color="#313945"/>
</linearGradient>
<linearGradient id="paint10_linear_2698_17767" x1="30.6301" y1="59.6652" x2="29.3034" y2="57.1201" gradientUnits="userSpaceOnUse">
<stop stop-color="#FFD3B7"/>
<stop offset="1" stop-color="#FFA277"/>
</linearGradient>
<linearGradient id="paint11_linear_2698_17767" x1="32.8487" y1="67.7069" x2="32.91" y2="72.0324" gradientUnits="userSpaceOnUse">
<stop stop-color="#FFD3B7"/>
<stop offset="1" stop-color="#FFA277"/>
</linearGradient>
<clipPath id="clip0_2698_17767">
<rect width="90" height="111" fill="white" transform="translate(0 0.5)"/>
</clipPath>
</defs>
</svg>
