<svg width="121" height="45" viewBox="0 0 121 45" fill="none" xmlns="http://www.w3.org/2000/svg">
<path d="M34.4148 23.503C34.4148 25.602 34.4201 27.6992 34.4131 29.7981C34.4078 31.101 33.5995 32.2056 32.3492 32.6476C31.2638 33.0315 29.3858 32.6248 28.7756 31.8093C28.6161 31.5954 28.5266 31.1237 28.6528 30.9536C28.8142 30.7362 29.2367 30.5942 29.5279 30.6222C29.9487 30.6626 30.3415 30.9414 30.7641 31.0203C31.8898 31.2342 32.7964 30.4872 32.8017 29.3404C32.8192 25.4651 32.8104 21.5882 32.8349 17.7129C32.8402 16.8186 32.458 16.3294 31.6023 16.0699C25.8279 14.3111 20.0642 12.526 14.2969 10.7515C13.0712 10.3745 12.382 10.8918 12.3786 12.1858C12.3733 14.7495 12.3558 17.3149 12.3786 19.8785C12.3856 20.5904 12.1243 21.0358 11.4106 21.0498C10.6374 21.0639 10.4988 20.5413 10.504 19.8627C10.5286 17.1816 10.5058 14.5005 10.5164 11.8194C10.5251 9.75546 12.1471 8.56663 14.1285 9.147C20.1975 10.9286 26.2681 12.7084 32.3387 14.4864C33.8151 14.9196 34.4237 15.7209 34.4289 17.2955C34.4359 19.3647 34.4289 21.4339 34.4289 23.503C34.4237 23.503 34.4184 23.503 34.4131 23.503H34.4148Z" fill="#F2C91A"/>
<path d="M23.8618 26.0932C23.8618 23.6471 23.8582 21.2027 23.8618 18.7566C23.8635 17.4677 24.1686 17.1994 25.589 17.2012C26.9462 17.2012 27.2285 17.4607 27.2285 18.7408C27.232 23.6611 27.232 28.5797 27.2285 33.5001C27.2285 34.7555 26.9515 34.9958 25.5557 35.001C24.1704 35.0045 23.8653 34.745 23.8618 33.5176C23.8565 31.0434 23.8618 28.5691 23.86 26.0949L23.8618 26.0932Z" fill="#F1C917"/>
<path d="M22.3245 26.6441C22.3245 28.4502 22.3333 30.2563 22.321 32.0606C22.3139 33.1496 21.9896 33.4232 20.7796 33.4266C19.5084 33.4302 19.156 33.1531 19.1524 32.0519C19.1419 28.4116 19.1419 24.7696 19.1524 21.1293C19.156 20.0316 19.5101 19.7563 20.7885 19.7598C21.9843 19.7633 22.3122 20.0438 22.321 21.1381C22.335 22.9722 22.3245 24.8082 22.3245 26.6424V26.6441Z" fill="#F1C918"/>
<path d="M17.7155 26.5735C17.7155 27.9412 17.726 29.3107 17.7121 30.6785C17.7015 31.6815 17.3648 31.948 16.1777 31.9497C15.0011 31.9514 14.6661 31.6832 14.6609 30.6627C14.6504 27.8956 14.6486 25.1303 14.6609 22.3633C14.6661 21.3445 14.9748 21.1113 16.1935 21.1113C17.3981 21.1113 17.6997 21.3515 17.7102 22.3791C17.7243 23.7767 17.7138 25.1742 17.7138 26.5717L17.7155 26.5735Z" fill="#F1C814"/>
<path d="M10.0072 26.4998C10.0072 25.6266 9.9914 24.7516 10.0107 23.8783C10.0317 22.9384 10.3772 22.6755 11.517 22.6719C12.7357 22.6684 13.1021 22.9227 13.1144 23.8801C13.1354 25.6564 13.139 27.4344 13.1126 29.2107C13.0986 30.1366 12.7146 30.3839 11.4749 30.3768C10.4035 30.3715 10.037 30.0945 10.0125 29.209C9.98794 28.3059 10.0072 27.4029 10.0072 26.4998Z" fill="#F2C919"/>
<path d="M98.365 29.4729V15.7395C100.06 15.7395 101.721 15.636 103.362 15.7693C104.854 15.8903 105.866 16.8967 106.145 18.1698C106.455 19.5884 105.887 20.9193 104.607 21.7821C104.469 21.875 104.335 21.9749 104.114 22.131C105.545 22.5465 106.546 23.29 106.825 24.7612C107.269 27.0969 105.773 29.1976 103.286 29.4431C101.677 29.6027 100.04 29.4729 98.3633 29.4729H98.365ZM100.026 27.9333C101.104 27.9333 102.126 28.0228 103.123 27.9105C104.357 27.772 105.139 26.7883 105.177 25.5696C105.214 24.3632 104.539 23.4602 103.255 23.2497C102.212 23.0797 101.139 23.0901 100.026 23.0183V27.9333ZM100.048 17.1072V21.7382C101.137 21.5874 102.161 21.5593 103.113 21.2806C104.109 20.9894 104.611 19.9374 104.476 18.9046C104.349 17.9419 103.783 17.3807 102.645 17.2387C101.816 17.1353 100.97 17.1493 100.048 17.1072Z" fill="#F1C918"/>
<path d="M73.6869 19.7017C72.7378 22.8686 71.8017 25.9582 70.8899 29.0568C70.6862 29.7441 70.1584 29.4565 69.7415 29.5179C69.2787 29.5863 68.9978 29.4495 68.8591 28.9358C68.3486 27.0525 67.7965 25.1797 67.2479 23.307C67.1421 22.9492 66.9878 22.6073 66.7868 22.0725C66.0674 24.3783 65.3887 26.4966 64.756 28.6306C64.5809 29.2215 64.3945 29.5617 63.6578 29.553C62.9569 29.546 62.7183 29.2812 62.5395 28.664C61.7609 25.9776 60.9315 23.307 60.1231 20.6294C60.0338 20.3312 59.9531 20.0314 59.8672 19.7263C61.4611 19.416 61.4857 19.4282 61.8749 20.8327C62.3887 22.6845 62.8972 24.5397 63.4108 26.3932C63.4862 26.665 63.5833 26.9315 63.8407 27.2208C64.0946 26.416 64.3529 25.6128 64.6017 24.8062C65.0749 23.2754 65.582 21.7534 65.9972 20.2068C66.1714 19.5598 66.5761 19.6246 67.0494 19.593C67.5599 19.5598 67.7653 19.7684 67.8893 20.2436C68.4544 22.3847 69.0524 24.5169 69.6409 26.6509C69.7077 26.8911 69.7935 27.1261 69.9356 27.561C70.5883 25.1587 71.1846 22.9703 71.7749 20.7801C72.0106 19.9081 72.6477 19.5492 73.6869 19.7036V19.7017Z" fill="#F2CA1D"/>
<path d="M39.5234 15.7569C41.2471 15.7569 42.9446 15.6097 44.6033 15.7938C46.6813 16.0253 47.8754 17.4561 47.9719 19.413C48.0841 21.6891 46.9425 23.4356 44.8945 24.0247C44.3158 24.1913 43.6933 24.2316 43.0866 24.272C42.4816 24.3123 41.8732 24.2808 41.177 24.2808V29.4431H39.5234V15.7569ZM41.1665 22.9551C42.3975 22.792 43.539 22.7657 44.6033 22.4623C45.7203 22.145 46.2079 21.2016 46.2429 20.0407C46.2762 18.9431 45.9939 17.9997 44.9155 17.5175C43.7109 16.9791 42.4431 17.1265 41.1665 17.1896V22.9551Z" fill="#F1C917"/>
<path d="M82.7302 27.4326C82.8758 28.9073 82.777 29.1686 81.424 29.4526C80.4151 29.6631 79.3438 29.7245 78.3168 29.6491C77.0834 29.5579 76.0979 28.8389 75.5406 27.7482C74.497 25.7002 74.4485 23.5854 75.5917 21.5566C76.5685 19.8224 78.4676 19.0491 80.3822 19.4664C82.1131 19.8434 83.1705 21.1129 83.4175 23.1768C83.4826 23.7187 83.4279 24.2745 83.4279 24.9637H76.5911C76.4073 28.1199 78.9339 29.1054 82.7302 27.4343V27.4326ZM76.5685 23.5328H81.7239C81.8045 21.9932 81.0149 20.9236 79.7347 20.771C78.1391 20.5817 76.917 21.618 76.5685 23.5328Z" fill="#F2CA1B"/>
<path d="M54.0414 19.3807C56.9943 19.393 58.7531 21.3482 58.718 24.5869C58.6847 27.7678 56.7173 29.8176 53.7328 29.779C50.7974 29.7422 48.9036 27.7099 48.93 24.622C48.958 21.3447 50.8869 19.3667 54.0414 19.379V19.3807ZM57.103 24.6658C57.0294 24.1485 56.9943 23.6225 56.8769 23.1157C56.5559 21.7322 55.6021 20.887 54.2834 20.7713C52.7596 20.638 51.5602 21.2622 51.0043 22.5704C50.431 23.9171 50.4152 25.3006 51.0218 26.6438C51.4427 27.5749 52.188 28.1483 53.219 28.3219C55.5459 28.7129 57.0365 27.2978 57.1048 24.6658H57.103Z" fill="#F2C91A"/>
<path d="M109.691 15.6934H111.282V29.4601H109.691V15.6934Z" fill="#F2CB23"/>
<path d="M87.4637 29.4835H85.875V19.6621H87.3935C87.4343 20.125 87.4724 20.5687 87.5114 21.0018C88.0211 20.5459 88.444 19.969 89.01 19.72C89.5474 19.485 90.2677 19.471 90.8363 19.6235C91.0252 19.6744 90.9957 20.5423 91.0729 21.0825C88.8211 20.5581 87.5652 21.6068 87.4759 24.2738C87.4187 25.9835 87.4655 27.6984 87.4655 29.4835H87.4637Z" fill="#F2CA1D"/>
</svg>
