<svg width="36" height="37" viewBox="0 0 36 37" fill="none" xmlns="http://www.w3.org/2000/svg">
<g clip-path="url(#clip0_13462_16486)">
<path d="M30.0833 0.399902H20.5404C19.7199 0.399902 19.0547 1.06508 19.0547 1.88562V34.9142C19.0547 35.7347 19.7199 36.3999 20.5404 36.3999H30.0833C30.9038 36.3999 31.569 35.7347 31.569 34.9142V1.88562C31.569 1.06508 30.9038 0.399902 30.0833 0.399902Z" fill="url(#paint0_linear_13462_16486)"/>
<g filter="url(#filter0_d_13462_16486)">
<path d="M24.2018 34.914V36.3997H22.7161H13.1732C12.3527 36.3997 11.6875 35.7345 11.6875 34.914V10.8568C11.6875 10.0363 12.3527 9.37109 13.1732 9.37109H22.7161C23.5366 9.37109 24.2018 10.0363 24.2018 10.8568V34.914Z" fill="black"/>
</g>
<path d="M24.2018 34.914V36.3997H22.7161H13.1732C12.3527 36.3997 11.6875 35.7345 11.6875 34.914V10.8568C11.6875 10.0363 12.3527 9.37109 13.1732 9.37109H22.7161C23.5366 9.37109 24.2018 10.0363 24.2018 10.8568V34.914Z" fill="url(#paint1_linear_13462_16486)"/>
<g filter="url(#filter1_d_13462_16486)">
<path fill-rule="evenodd" clip-rule="evenodd" d="M16.944 34.9142V36.3999H15.4583H5.9154C5.09486 36.3999 4.42969 35.7347 4.42969 34.9142V19.8856C4.42969 19.0651 5.09486 18.3999 5.9154 18.3999H15.4583C16.2788 18.3999 16.944 19.0651 16.944 19.8856V34.9142Z" fill="black"/>
</g>
<path fill-rule="evenodd" clip-rule="evenodd" d="M16.944 34.9142V36.3999H15.4583H5.9154C5.09486 36.3999 4.42969 35.7347 4.42969 34.9142V19.8856C4.42969 19.0651 5.09486 18.3999 5.9154 18.3999H15.4583C16.2788 18.3999 16.944 19.0651 16.944 19.8856V34.9142Z" fill="url(#paint2_linear_13462_16486)"/>
</g>
<defs>
<filter id="filter0_d_13462_16486" x="11.6875" y="-0.628906" width="52.5156" height="67.0288" filterUnits="userSpaceOnUse" color-interpolation-filters="sRGB">
<feFlood flood-opacity="0" result="BackgroundImageFix"/>
<feColorMatrix in="SourceAlpha" type="matrix" values="0 0 0 0 0 0 0 0 0 0 0 0 0 0 0 0 0 0 127 0" result="hardAlpha"/>
<feOffset dx="20" dy="10"/>
<feGaussianBlur stdDeviation="10"/>
<feColorMatrix type="matrix" values="0 0 0 0 0 0 0 0 0 0 0 0 0 0 0 0 0 0 0.0530212 0"/>
<feBlend mode="normal" in2="BackgroundImageFix" result="effect1_dropShadow_13462_16486"/>
<feBlend mode="normal" in="SourceGraphic" in2="effect1_dropShadow_13462_16486" result="shape"/>
</filter>
<filter id="filter1_d_13462_16486" x="4.42969" y="8.3999" width="52.5156" height="58" filterUnits="userSpaceOnUse" color-interpolation-filters="sRGB">
<feFlood flood-opacity="0" result="BackgroundImageFix"/>
<feColorMatrix in="SourceAlpha" type="matrix" values="0 0 0 0 0 0 0 0 0 0 0 0 0 0 0 0 0 0 127 0" result="hardAlpha"/>
<feOffset dx="20" dy="10"/>
<feGaussianBlur stdDeviation="10"/>
<feColorMatrix type="matrix" values="0 0 0 0 0 0 0 0 0 0 0 0 0 0 0 0 0 0 0.0530212 0"/>
<feBlend mode="normal" in2="BackgroundImageFix" result="effect1_dropShadow_13462_16486"/>
<feBlend mode="normal" in="SourceGraphic" in2="effect1_dropShadow_13462_16486" result="shape"/>
</filter>
<linearGradient id="paint0_linear_13462_16486" x1="25.3118" y1="0.399902" x2="25.3118" y2="36.3999" gradientUnits="userSpaceOnUse">
<stop stop-color="#EBBB14"/>
<stop offset="1" stop-color="#B25500"/>
</linearGradient>
<linearGradient id="paint1_linear_13462_16486" x1="17.9446" y1="9.37109" x2="17.9446" y2="36.3997" gradientUnits="userSpaceOnUse">
<stop stop-color="#F9E481"/>
<stop offset="1" stop-color="#DE9902"/>
</linearGradient>
<linearGradient id="paint2_linear_13462_16486" x1="10.6868" y1="18.3999" x2="10.6868" y2="36.3999" gradientUnits="userSpaceOnUse">
<stop stop-color="#F9E588"/>
<stop offset="1" stop-color="#F3CD34"/>
</linearGradient>
<clipPath id="clip0_13462_16486">
<rect width="36" height="36" fill="white" transform="translate(0 0.399902)"/>
</clipPath>
</defs>
</svg>
