<svg width="98" height="30" viewBox="0 0 98 30" fill="none" xmlns="http://www.w3.org/2000/svg">
<path d="M38.6733 15.6239C38.6733 12.855 36.8495 10.7354 34.3643 10.7354C33.0769 10.7354 31.9506 11.2892 31.3069 12.263V10.9454H29.5547V23.7587H31.432V19.1757C32.1293 20.035 33.1663 20.5315 34.3643 20.5315C36.8495 20.5315 38.6733 18.431 38.6733 15.6239ZM36.7423 15.643C36.7423 17.438 35.5622 18.6983 34.0603 18.6983C32.6836 18.6983 31.4142 17.6862 31.4142 15.6239C31.4142 13.5806 32.6836 12.5686 34.0603 12.5686C35.5801 12.5686 36.7423 13.848 36.7423 15.643Z" fill="#013B93"/>
<path d="M45.7194 10.9451C45.5048 10.8878 45.2724 10.8496 45.0042 10.8496C44.0029 10.8496 43.0732 11.327 42.4474 12.1672V10.9451H40.6953V20.3211H42.5726V15.318C42.5726 13.6567 43.6633 12.721 45.1473 12.721H45.7194V10.9451Z" fill="#013B93"/>
<path d="M46.5322 15.6239C46.4786 18.2783 48.642 20.5889 51.163 20.5316C53.7198 20.5889 55.8832 18.2783 55.8295 15.6239C55.8832 12.9697 53.7198 10.6781 51.163 10.7354C48.642 10.6973 46.4786 12.9314 46.5322 15.6239ZM53.8986 15.6431C53.8986 17.3426 52.7185 18.6793 51.163 18.6793C49.6254 18.6793 48.4453 17.3808 48.4453 15.6431C48.4453 13.9054 49.6254 12.5687 51.1809 12.5687C52.7007 12.5687 53.8986 13.9054 53.8986 15.6431Z" fill="#013B93"/>
<path d="M66.9545 15.6248C66.9545 12.856 65.1308 10.7363 62.6455 10.7363C61.3582 10.7363 60.2318 11.2901 59.5881 12.264V10.9464H57.8359V23.7596H59.7132V19.1767C60.4106 20.036 61.4476 20.5325 62.6455 20.5325C65.1308 20.5325 66.9545 18.4319 66.9545 15.6248ZM65.0235 15.644C65.0235 17.4389 63.8434 18.6993 62.3415 18.6993C60.9648 18.6993 59.6954 17.6872 59.6954 15.6248C59.6954 13.5816 60.9648 12.5696 62.3415 12.5696C63.8613 12.5696 65.0235 13.849 65.0235 15.644Z" fill="#013B93"/>
<path d="M76.8801 16.2923C76.9694 15.8531 77.0226 15.433 77.0226 15.032C77.0226 12.5877 75.2886 10.7354 72.9643 10.7354C70.479 10.6781 68.3692 12.9506 68.4229 15.6431C68.4229 18.4119 70.4612 20.5316 73.1431 20.5316C74.484 20.5316 75.6464 20.0351 76.6476 19.023L75.7536 17.6481C74.9668 18.3929 74.1086 18.7556 73.1967 18.7556C71.6949 18.7556 70.5684 17.82 70.336 16.2923H76.8801ZM70.3718 14.7265C70.6578 13.3325 71.6591 12.435 72.8928 12.435C74.1264 12.435 75.1277 13.2943 75.1456 14.7265H70.3718Z" fill="#013B93"/>
<path d="M79.0312 20.3218H80.9085V6H79.0312V20.3218Z" fill="#013B93"/>
<path d="M83.4844 20.3218H85.3616V6H83.4844V20.3218Z" fill="#013B93"/>
<path d="M94.6072 6V12.0916C93.9457 11.2322 92.8912 10.7357 91.6754 10.7357C89.2439 10.6784 87.3307 12.9127 87.3839 15.6433C87.3839 18.4122 89.2079 20.5318 91.6754 20.5318C92.9804 20.5318 94.1069 19.959 94.7504 18.9851V20.3218H96.5024V6H94.6072ZM94.6432 15.6433C94.6432 17.6866 93.3734 18.6987 91.9972 18.6987C90.4417 18.6987 89.2972 17.4193 89.2972 15.6242C89.2972 13.8293 90.4949 12.569 91.9972 12.569C93.3562 12.569 94.6432 13.6192 94.6432 15.6433Z" fill="#013B93"/>
<path fill-rule="evenodd" clip-rule="evenodd" d="M0.5 20.2493L4.7503 15.999L8.99907 20.2493" fill="#6DCEF4"/>
<path fill-rule="evenodd" clip-rule="evenodd" d="M4.75 15.9988L8.99874 11.75L13.2491 15.9988" fill="#2B7EE0"/>
<path fill-rule="evenodd" clip-rule="evenodd" d="M9 11.7487L13.2503 7.5L17.5007 11.7487" fill="#013C93"/>
<path fill-rule="evenodd" clip-rule="evenodd" d="M13.2507 15.999L9.00028 20.2493L4.75 15.999" fill="#2BA8E0"/>
<path fill-rule="evenodd" clip-rule="evenodd" d="M17.5007 11.749L13.2503 15.9993L9 11.749" fill="#0A53BF"/>
<path fill-rule="evenodd" clip-rule="evenodd" d="M17.5003 11.749L13.25 15.9993L17.5003 20.2481H25.9994L17.5003 11.749Z" fill="#013C93"/>
</svg>
