<svg width="36" height="37" viewBox="0 0 36 37" fill="none" xmlns="http://www.w3.org/2000/svg">
<path d="M17.921 1.58447C9.31909 1.58447 9.85592 5.31471 9.85592 5.31471L9.8665 9.17941H18.0745V10.3388H6.60427C6.60427 10.3388 1.10156 9.71412 1.10156 18.3944C1.10156 27.0725 5.90545 26.7654 5.90545 26.7654H8.77274V22.7377C8.77274 22.7377 8.61815 17.9338 13.5004 17.9338H21.6406C21.6406 17.9338 26.2147 18.0079 26.2147 13.5132V6.0813C26.2147 6.0813 26.9093 1.58447 17.921 1.58447ZM13.3945 4.18283C14.2109 4.18283 14.8716 4.84353 14.8716 5.65989C14.8716 6.47624 14.2109 7.13694 13.3945 7.13694C13.2005 7.13722 13.0083 7.09921 12.8289 7.02508C12.6496 6.95095 12.4867 6.84216 12.3494 6.70494C12.2122 6.56773 12.1034 6.40479 12.0293 6.22546C11.9552 6.04613 11.9172 5.85393 11.9174 5.65989C11.9174 4.84353 12.5782 4.18283 13.3945 4.18283Z" fill="url(#paint0_linear_13462_16563)"/>
<path d="M18.1656 35.2911C26.7675 35.2911 26.2306 31.5609 26.2306 31.5609L26.2201 27.6962H18.0121V26.5367H29.4812C29.4812 26.5367 34.985 27.1615 34.985 18.4823C34.985 9.8031 30.1811 10.1112 30.1811 10.1112H27.3138V14.1379C27.3138 14.1379 27.4684 18.9418 22.5862 18.9418H14.4459C14.4459 18.9418 9.87182 18.8677 9.87182 23.3624V30.7943C9.87182 30.7943 9.17724 35.2911 18.1656 35.2911ZM22.6921 32.6928C22.498 32.693 22.3058 32.655 22.1265 32.5809C21.9472 32.5068 21.7842 32.398 21.647 32.2607C21.5098 32.1235 21.401 31.9606 21.3269 31.7813C21.2527 31.6019 21.2147 31.4097 21.215 31.2157C21.215 30.4004 21.8757 29.7397 22.6921 29.7397C23.5084 29.7397 24.1691 30.3993 24.1691 31.2157C24.1691 32.0331 23.5084 32.6928 22.6921 32.6928Z" fill="url(#paint1_linear_13462_16563)"/>
<defs>
<linearGradient id="paint0_linear_13462_16563" x1="4.35745" y1="4.53012" x2="21.1112" y2="21.34" gradientUnits="userSpaceOnUse">
<stop stop-color="#387EB8"/>
<stop offset="1" stop-color="#366994"/>
</linearGradient>
<linearGradient id="paint1_linear_13462_16563" x1="14.6651" y1="15.2253" x2="32.6588" y2="32.464" gradientUnits="userSpaceOnUse">
<stop stop-color="#FFE052"/>
<stop offset="1" stop-color="#FFC331"/>
</linearGradient>
</defs>
</svg>
