<?xml version="1.0" encoding="UTF-8"?>
<svg version="1.1" xmlns="http://www.w3.org/2000/svg" width="310" height="310">
<path d="M0 0 C102.3 0 204.6 0 310 0 C310 102.3 310 204.6 310 310 C207.7 310 105.4 310 0 310 C0 207.7 0 105.4 0 0 Z " fill="#FFFFFF" transform="translate(0,0)"/>
<path d="M0 0 C3.3 0 6.6 0 10 0 C10 3.3 10 6.6 10 10 C13.3 10 16.6 10 20 10 C20 13.3 20 16.6 20 20 C23.3 20 26.6 20 30 20 C30 16.7 30 13.4 30 10 C33.3 10 36.6 10 40 10 C40 16.6 40 23.2 40 30 C36.7 30 33.4 30 30 30 C30 33.3 30 36.6 30 40 C33.3 40 36.6 40 40 40 C40 46.6 40 53.2 40 60 C43.3 60 46.6 60 50 60 C50 63.3 50 66.6 50 70 C53.3 70 56.6 70 60 70 C60 63.4 60 56.8 60 50 C56.7 50 53.4 50 50 50 C50 46.7 50 43.4 50 40 C53.3 40 56.6 40 60 40 C60 36.7 60 33.4 60 30 C63.3 30 66.6 30 70 30 C70 33.3 70 36.6 70 40 C76.6 40 83.2 40 90 40 C90 43.3 90 46.6 90 50 C86.7 50 83.4 50 80 50 C80 53.3 80 56.6 80 60 C83.3 60 86.6 60 90 60 C90 63.3 90 66.6 90 70 C86.7 70 83.4 70 80 70 C80 73.3 80 76.6 80 80 C73.4 80 66.8 80 60 80 C60 83.3 60 86.6 60 90 C56.7 90 53.4 90 50 90 C50 93.3 50 96.6 50 100 C46.7 100 43.4 100 40 100 C40 96.7 40 93.4 40 90 C36.7 90 33.4 90 30 90 C30 86.7 30 83.4 30 80 C23.4 80 16.8 80 10 80 C10 83.3 10 86.6 10 90 C13.3 90 16.6 90 20 90 C20 96.6 20 103.2 20 110 C39.8 110 59.6 110 80 110 C80 103.4 80 96.8 80 90 C83.3 90 86.6 90 90 90 C90 86.7 90 83.4 90 80 C96.6 80 103.2 80 110 80 C110 83.3 110 86.6 110 90 C113.3 90 116.6 90 120 90 C120 93.3 120 96.6 120 100 C113.4 100 106.8 100 100 100 C100 103.3 100 106.6 100 110 C103.3 110 106.6 110 110 110 C110 113.3 110 116.6 110 120 C113.3 120 116.6 120 120 120 C120 123.3 120 126.6 120 130 C116.7 130 113.4 130 110 130 C110 133.3 110 136.6 110 140 C116.6 140 123.2 140 130 140 C130 133.4 130 126.8 130 120 C133.3 120 136.6 120 140 120 C140 136.5 140 153 140 170 C143.3 170 146.6 170 150 170 C150 160.1 150 150.2 150 140 C153.3 140 156.6 140 160 140 C160 136.7 160 133.4 160 130 C156.7 130 153.4 130 150 130 C150 123.4 150 116.8 150 110 C146.7 110 143.4 110 140 110 C140 106.7 140 103.4 140 100 C146.6 100 153.2 100 160 100 C160 96.7 160 93.4 160 90 C163.3 90 166.6 90 170 90 C170 96.6 170 103.2 170 110 C166.7 110 163.4 110 160 110 C160 113.3 160 116.6 160 120 C163.3 120 166.6 120 170 120 C170 129.9 170 139.8 170 150 C166.7 150 163.4 150 160 150 C160 153.3 160 156.6 160 160 C163.3 160 166.6 160 170 160 C170 169.9 170 179.8 170 190 C166.7 190 163.4 190 160 190 C160 193.3 160 196.6 160 200 C156.7 200 153.4 200 150 200 C150 193.4 150 186.8 150 180 C143.4 180 136.8 180 130 180 C130 183.3 130 186.6 130 190 C133.3 190 136.6 190 140 190 C140 193.3 140 196.6 140 200 C136.7 200 133.4 200 130 200 C130 206.6 130 213.2 130 220 C133.3 220 136.6 220 140 220 C140 226.6 140 233.2 140 240 C136.7 240 133.4 240 130 240 C130 246.6 130 253.2 130 260 C133.3 260 136.6 260 140 260 C140 263.3 140 266.6 140 270 C136.7 270 133.4 270 130 270 C130 276.6 130 283.2 130 290 C126.7 290 123.4 290 120 290 C120 283.4 120 276.8 120 270 C116.7 270 113.4 270 110 270 C110 263.4 110 256.8 110 250 C100.1 250 90.2 250 80 250 C80 253.3 80 256.6 80 260 C83.3 260 86.6 260 90 260 C90 263.3 90 266.6 90 270 C93.3 270 96.6 270 100 270 C100 273.3 100 276.6 100 280 C103.3 280 106.6 280 110 280 C110 283.3 110 286.6 110 290 C96.8 290 83.6 290 70 290 C70 286.7 70 283.4 70 280 C73.3 280 76.6 280 80 280 C80 276.7 80 273.4 80 270 C76.7 270 73.4 270 70 270 C70 266.7 70 263.4 70 260 C63.4 260 56.8 260 50 260 C50 263.3 50 266.6 50 270 C53.3 270 56.6 270 60 270 C60 273.3 60 276.6 60 280 C53.4 280 46.8 280 40 280 C40 273.4 40 266.8 40 260 C36.7 260 33.4 260 30 260 C30 256.7 30 253.4 30 250 C33.3 250 36.6 250 40 250 C40 246.7 40 243.4 40 240 C43.3 240 46.6 240 50 240 C50 233.4 50 226.8 50 220 C43.4 220 36.8 220 30 220 C30 213.4 30 206.8 30 200 C23.4 200 16.8 200 10 200 C10 196.7 10 193.4 10 190 C19.9 190 29.8 190 40 190 C40 183.4 40 176.8 40 170 C36.7 170 33.4 170 30 170 C30 173.3 30 176.6 30 180 C16.8 180 3.6 180 -10 180 C-10 183.3 -10 186.6 -10 190 C-6.7 190 -3.4 190 0 190 C0 193.3 0 196.6 0 200 C-3.3 200 -6.6 200 -10 200 C-10 209.9 -10 219.8 -10 230 C-16.6 230 -23.2 230 -30 230 C-30 236.6 -30 243.2 -30 250 C-33.3 250 -36.6 250 -40 250 C-40 236.8 -40 223.6 -40 210 C-49.9 210 -59.8 210 -70 210 C-70 200.1 -70 190.2 -70 180 C-73.3 180 -76.6 180 -80 180 C-80 186.6 -80 193.2 -80 200 C-83.3 200 -86.6 200 -90 200 C-90 203.3 -90 206.6 -90 210 C-93.3 210 -96.6 210 -100 210 C-100 206.7 -100 203.4 -100 200 C-103.3 200 -106.6 200 -110 200 C-110 196.7 -110 193.4 -110 190 C-106.7 190 -103.4 190 -100 190 C-100 186.7 -100 183.4 -100 180 C-103.3 180 -106.6 180 -110 180 C-110 176.7 -110 173.4 -110 170 C-113.3 170 -116.6 170 -120 170 C-120 163.4 -120 156.8 -120 150 C-116.7 150 -113.4 150 -110 150 C-110 143.4 -110 136.8 -110 130 C-106.7 130 -103.4 130 -100 130 C-100 120.1 -100 110.2 -100 100 C-106.6 100 -113.2 100 -120 100 C-120 93.4 -120 86.8 -120 80 C-110.1 80 -100.2 80 -90 80 C-90 86.6 -90 93.2 -90 100 C-86.7 100 -83.4 100 -80 100 C-80 93.4 -80 86.8 -80 80 C-66.8 80 -53.6 80 -40 80 C-40 73.4 -40 66.8 -40 60 C-36.7 60 -33.4 60 -30 60 C-30 63.3 -30 66.6 -30 70 C-26.7 70 -23.4 70 -20 70 C-20 66.7 -20 63.4 -20 60 C-16.7 60 -13.4 60 -10 60 C-10 66.6 -10 73.2 -10 80 C-6.7 80 -3.4 80 0 80 C0 73.4 0 66.8 0 60 C3.3 60 6.6 60 10 60 C10 50.1 10 40.2 10 30 C6.7 30 3.4 30 0 30 C0 33.3 0 36.6 0 40 C-3.3 40 -6.6 40 -10 40 C-10 43.3 -10 46.6 -10 50 C-13.3 50 -16.6 50 -20 50 C-20 46.7 -20 43.4 -20 40 C-23.3 40 -26.6 40 -30 40 C-30 36.7 -30 33.4 -30 30 C-33.3 30 -36.6 30 -40 30 C-40 26.7 -40 23.4 -40 20 C-33.4 20 -26.8 20 -20 20 C-20 16.7 -20 13.4 -20 10 C-13.4 10 -6.8 10 0 10 C0 6.7 0 3.4 0 0 Z " fill="#000000" transform="translate(130,10)"/>
<path d="M0 0 C3.3 0 6.6 0 10 0 C10 3.3 10 6.6 10 10 C13.3 10 16.6 10 20 10 C20 13.3 20 16.6 20 20 C23.3 20 26.6 20 30 20 C30 16.7 30 13.4 30 10 C33.3 10 36.6 10 40 10 C40 16.6 40 23.2 40 30 C36.7 30 33.4 30 30 30 C30 33.3 30 36.6 30 40 C33.3 40 36.6 40 40 40 C40 46.6 40 53.2 40 60 C43.3 60 46.6 60 50 60 C50 63.3 50 66.6 50 70 C53.3 70 56.6 70 60 70 C60 63.4 60 56.8 60 50 C56.7 50 53.4 50 50 50 C50 46.7 50 43.4 50 40 C53.3 40 56.6 40 60 40 C60 36.7 60 33.4 60 30 C63.3 30 66.6 30 70 30 C70 33.3 70 36.6 70 40 C76.6 40 83.2 40 90 40 C90 43.3 90 46.6 90 50 C86.7 50 83.4 50 80 50 C80 53.3 80 56.6 80 60 C83.3 60 86.6 60 90 60 C90 63.3 90 66.6 90 70 C86.7 70 83.4 70 80 70 C80 73.3 80 76.6 80 80 C73.4 80 66.8 80 60 80 C60 83.3 60 86.6 60 90 C56.7 90 53.4 90 50 90 C50 93.3 50 96.6 50 100 C46.7 100 43.4 100 40 100 C40 96.7 40 93.4 40 90 C36.7 90 33.4 90 30 90 C30 86.7 30 83.4 30 80 C23.4 80 16.8 80 10 80 C10 83.3 10 86.6 10 90 C6.7 90 3.4 90 0 90 C0 93.3 0 96.6 0 100 C-6.6 100 -13.2 100 -20 100 C-20 103.3 -20 106.6 -20 110 C-23.3 110 -26.6 110 -30 110 C-30 113.3 -30 116.6 -30 120 C-36.6 120 -43.2 120 -50 120 C-50 116.7 -50 113.4 -50 110 C-63.2 110 -76.4 110 -90 110 C-90 116.6 -90 123.2 -90 130 C-93.3 130 -96.6 130 -100 130 C-100 120.1 -100 110.2 -100 100 C-106.6 100 -113.2 100 -120 100 C-120 93.4 -120 86.8 -120 80 C-110.1 80 -100.2 80 -90 80 C-90 86.6 -90 93.2 -90 100 C-86.7 100 -83.4 100 -80 100 C-80 93.4 -80 86.8 -80 80 C-66.8 80 -53.6 80 -40 80 C-40 73.4 -40 66.8 -40 60 C-36.7 60 -33.4 60 -30 60 C-30 63.3 -30 66.6 -30 70 C-26.7 70 -23.4 70 -20 70 C-20 66.7 -20 63.4 -20 60 C-16.7 60 -13.4 60 -10 60 C-10 66.6 -10 73.2 -10 80 C-6.7 80 -3.4 80 0 80 C0 73.4 0 66.8 0 60 C3.3 60 6.6 60 10 60 C10 50.1 10 40.2 10 30 C6.7 30 3.4 30 0 30 C0 33.3 0 36.6 0 40 C-3.3 40 -6.6 40 -10 40 C-10 43.3 -10 46.6 -10 50 C-13.3 50 -16.6 50 -20 50 C-20 46.7 -20 43.4 -20 40 C-23.3 40 -26.6 40 -30 40 C-30 36.7 -30 33.4 -30 30 C-33.3 30 -36.6 30 -40 30 C-40 26.7 -40 23.4 -40 20 C-33.4 20 -26.8 20 -20 20 C-20 16.7 -20 13.4 -20 10 C-13.4 10 -6.8 10 0 10 C0 6.7 0 3.4 0 0 Z " fill="#000000" transform="translate(130,10)"/>
<path d="M0 0 C6.6 0 13.2 0 20 0 C20 3.3 20 6.6 20 10 C23.3 10 26.6 10 30 10 C30 13.3 30 16.6 30 20 C23.4 20 16.8 20 10 20 C10 23.3 10 26.6 10 30 C13.3 30 16.6 30 20 30 C20 33.3 20 36.6 20 40 C23.3 40 26.6 40 30 40 C30 43.3 30 46.6 30 50 C26.7 50 23.4 50 20 50 C20 53.3 20 56.6 20 60 C26.6 60 33.2 60 40 60 C40 53.4 40 46.8 40 40 C43.3 40 46.6 40 50 40 C50 56.5 50 73 50 90 C53.3 90 56.6 90 60 90 C60 80.1 60 70.2 60 60 C63.3 60 66.6 60 70 60 C70 56.7 70 53.4 70 50 C66.7 50 63.4 50 60 50 C60 43.4 60 36.8 60 30 C56.7 30 53.4 30 50 30 C50 26.7 50 23.4 50 20 C56.6 20 63.2 20 70 20 C70 16.7 70 13.4 70 10 C73.3 10 76.6 10 80 10 C80 16.6 80 23.2 80 30 C76.7 30 73.4 30 70 30 C70 33.3 70 36.6 70 40 C73.3 40 76.6 40 80 40 C80 49.9 80 59.8 80 70 C76.7 70 73.4 70 70 70 C70 73.3 70 76.6 70 80 C73.3 80 76.6 80 80 80 C80 89.9 80 99.8 80 110 C76.7 110 73.4 110 70 110 C70 113.3 70 116.6 70 120 C66.7 120 63.4 120 60 120 C60 113.4 60 106.8 60 100 C53.4 100 46.8 100 40 100 C40 90.1 40 80.2 40 70 C36.7 70 33.4 70 30 70 C30 73.3 30 76.6 30 80 C26.7 80 23.4 80 20 80 C20 86.6 20 93.2 20 100 C10.1 100 0.2 100 -10 100 C-10 93.4 -10 86.8 -10 80 C-3.4 80 3.2 80 10 80 C10 76.7 10 73.4 10 70 C6.7 70 3.4 70 0 70 C0 66.7 0 63.4 0 60 C3.3 60 6.6 60 10 60 C10 56.7 10 53.4 10 50 C6.7 50 3.4 50 0 50 C0 43.4 0 36.8 0 30 C-3.3 30 -6.6 30 -10 30 C-10 23.4 -10 16.8 -10 10 C-6.7 10 -3.4 10 0 10 C0 6.7 0 3.4 0 0 Z " fill="#000000" transform="translate(220,90)"/>
<path d="M0 0 C23.1 0 46.2 0 70 0 C70 23.1 70 46.2 70 70 C46.9 70 23.8 70 0 70 C0 46.9 0 23.8 0 0 Z " fill="#FFFFFF" transform="translate(10,230)"/>
<path d="M0 0 C23.1 0 46.2 0 70 0 C70 23.1 70 46.2 70 70 C46.9 70 23.8 70 0 70 C0 46.9 0 23.8 0 0 Z " fill="#FFFFFF" transform="translate(230,10)"/>
<path d="M0 0 C23.1 0 46.2 0 70 0 C70 23.1 70 46.2 70 70 C46.9 70 23.8 70 0 70 C0 46.9 0 23.8 0 0 Z " fill="#FFFFFF" transform="translate(10,10)"/>
<path d="M0 0 C3.3 0 6.6 0 10 0 C10 9.9 10 19.8 10 30 C16.6 30 23.2 30 30 30 C30 33.3 30 36.6 30 40 C26.7 40 23.4 40 20 40 C20 46.6 20 53.2 20 60 C16.7 60 13.4 60 10 60 C10 66.6 10 73.2 10 80 C3.4 80 -3.2 80 -10 80 C-10 76.7 -10 73.4 -10 70 C-6.7 70 -3.4 70 0 70 C0 66.7 0 63.4 0 60 C-6.6 60 -13.2 60 -20 60 C-20 63.3 -20 66.6 -20 70 C-26.6 70 -33.2 70 -40 70 C-40 66.7 -40 63.4 -40 60 C-36.7 60 -33.4 60 -30 60 C-30 56.7 -30 53.4 -30 50 C-26.7 50 -23.4 50 -20 50 C-20 46.7 -20 43.4 -20 40 C-26.6 40 -33.2 40 -40 40 C-40 43.3 -40 46.6 -40 50 C-49.9 50 -59.8 50 -70 50 C-70 43.4 -70 36.8 -70 30 C-73.3 30 -76.6 30 -80 30 C-80 36.6 -80 43.2 -80 50 C-83.3 50 -86.6 50 -90 50 C-90 53.3 -90 56.6 -90 60 C-86.7 60 -83.4 60 -80 60 C-80 63.3 -80 66.6 -80 70 C-86.6 70 -93.2 70 -100 70 C-100 60.1 -100 50.2 -100 40 C-96.7 40 -93.4 40 -90 40 C-90 33.4 -90 26.8 -90 20 C-76.8 20 -63.6 20 -50 20 C-50 23.3 -50 26.6 -50 30 C-43.4 30 -36.8 30 -30 30 C-30 26.7 -30 23.4 -30 20 C-26.7 20 -23.4 20 -20 20 C-20 16.7 -20 13.4 -20 10 C-13.4 10 -6.8 10 0 10 C0 6.7 0 3.4 0 0 Z " fill="#FFFFFF" transform="translate(130,100)"/>
<path d="M0 0 C3.3 0 6.6 0 10 0 C10 3.3 10 6.6 10 10 C13.3 10 16.6 10 20 10 C20 6.7 20 3.4 20 0 C23.3 0 26.6 0 30 0 C30 6.6 30 13.2 30 20 C33.3 20 36.6 20 40 20 C40 13.4 40 6.8 40 0 C43.3 0 46.6 0 50 0 C50 3.3 50 6.6 50 10 C53.3 10 56.6 10 60 10 C60 6.7 60 3.4 60 0 C63.3 0 66.6 0 70 0 C70 6.6 70 13.2 70 20 C63.4 20 56.8 20 50 20 C50 23.3 50 26.6 50 30 C46.7 30 43.4 30 40 30 C40 33.3 40 36.6 40 40 C33.4 40 26.8 40 20 40 C20 43.3 20 46.6 20 50 C16.7 50 13.4 50 10 50 C10 53.3 10 56.6 10 60 C3.4 60 -3.2 60 -10 60 C-10 56.7 -10 53.4 -10 50 C-23.2 50 -36.4 50 -50 50 C-50 56.6 -50 63.2 -50 70 C-53.3 70 -56.6 70 -60 70 C-60 60.1 -60 50.2 -60 40 C-66.6 40 -73.2 40 -80 40 C-80 33.4 -80 26.8 -80 20 C-70.1 20 -60.2 20 -50 20 C-50 26.6 -50 33.2 -50 40 C-46.7 40 -43.4 40 -40 40 C-40 33.4 -40 26.8 -40 20 C-26.8 20 -13.6 20 0 20 C0 13.4 0 6.8 0 0 Z " fill="#000000" transform="translate(90,70)"/>
<path d="M0 0 C23.1 0 46.2 0 70 0 C70 23.1 70 46.2 70 70 C46.9 70 23.8 70 0 70 C0 46.9 0 23.8 0 0 Z M10 10 C10 26.5 10 43 10 60 C26.5 60 43 60 60 60 C60 43.5 60 27 60 10 C43.5 10 27 10 10 10 Z " fill="#000000" transform="translate(10,230)"/>
<path d="M0 0 C3.3 0 6.6 0 10 0 C10 9.9 10 19.8 10 30 C6.7 30 3.4 30 0 30 C0 33.3 0 36.6 0 40 C-3.3 40 -6.6 40 -10 40 C-10 43.3 -10 46.6 -10 50 C-13.3 50 -16.6 50 -20 50 C-20 46.7 -20 43.4 -20 40 C-23.3 40 -26.6 40 -30 40 C-30 43.3 -30 46.6 -30 50 C-33.3 50 -36.6 50 -40 50 C-40 56.6 -40 63.2 -40 70 C-46.6 70 -53.2 70 -60 70 C-60 60.1 -60 50.2 -60 40 C-56.7 40 -53.4 40 -50 40 C-50 36.7 -50 33.4 -50 30 C-56.6 30 -63.2 30 -70 30 C-70 23.4 -70 16.8 -70 10 C-60.1 10 -50.2 10 -40 10 C-40 16.6 -40 23.2 -40 30 C-30.1 30 -20.2 30 -10 30 C-10 23.4 -10 16.8 -10 10 C-6.7 10 -3.4 10 0 10 C0 6.7 0 3.4 0 0 Z " fill="#FFFFFF" transform="translate(250,160)"/>
<path d="M0 0 C23.1 0 46.2 0 70 0 C70 23.1 70 46.2 70 70 C46.9 70 23.8 70 0 70 C0 46.9 0 23.8 0 0 Z M10 10 C10 26.5 10 43 10 60 C26.5 60 43 60 60 60 C60 43.5 60 27 60 10 C43.5 10 27 10 10 10 Z " fill="#000000" transform="translate(230,10)"/>
<path d="M0 0 C23.1 0 46.2 0 70 0 C70 23.1 70 46.2 70 70 C46.9 70 23.8 70 0 70 C0 46.9 0 23.8 0 0 Z M10 10 C10 26.5 10 43 10 60 C26.5 60 43 60 60 60 C60 43.5 60 27 60 10 C43.5 10 27 10 10 10 Z " fill="#000000" transform="translate(10,10)"/>
<path d="M0 0 C3.3 0 6.6 0 10 0 C10 6.6 10 13.2 10 20 C19.9 20 29.8 20 40 20 C40 16.7 40 13.4 40 10 C46.6 10 53.2 10 60 10 C60 13.3 60 16.6 60 20 C56.7 20 53.4 20 50 20 C50 23.3 50 26.6 50 30 C46.7 30 43.4 30 40 30 C40 36.6 40 43.2 40 50 C43.3 50 46.6 50 50 50 C50 53.3 50 56.6 50 60 C46.7 60 43.4 60 40 60 C40 63.3 40 66.6 40 70 C36.7 70 33.4 70 30 70 C30 66.7 30 63.4 30 60 C26.7 60 23.4 60 20 60 C20 56.7 20 53.4 20 50 C23.3 50 26.6 50 30 50 C30 46.7 30 43.4 30 40 C23.4 40 16.8 40 10 40 C10 43.3 10 46.6 10 50 C6.7 50 3.4 50 0 50 C0 43.4 0 36.8 0 30 C-3.3 30 -6.6 30 -10 30 C-10 26.7 -10 23.4 -10 20 C-6.7 20 -3.4 20 0 20 C0 13.4 0 6.8 0 0 Z " fill="#000000" transform="translate(50,130)"/>
<path d="M0 0 C3.3 0 6.6 0 10 0 C10 3.3 10 6.6 10 10 C16.6 10 23.2 10 30 10 C30 13.3 30 16.6 30 20 C26.7 20 23.4 20 20 20 C20 23.3 20 26.6 20 30 C23.3 30 26.6 30 30 30 C30 33.3 30 36.6 30 40 C26.7 40 23.4 40 20 40 C20 43.3 20 46.6 20 50 C13.4 50 6.8 50 0 50 C0 53.3 0 56.6 0 60 C-3.3 60 -6.6 60 -10 60 C-10 63.3 -10 66.6 -10 70 C-13.3 70 -16.6 70 -20 70 C-20 66.7 -20 63.4 -20 60 C-23.3 60 -26.6 60 -30 60 C-30 56.7 -30 53.4 -30 50 C-26.7 50 -23.4 50 -20 50 C-20 43.4 -20 36.8 -20 30 C-16.7 30 -13.4 30 -10 30 C-10 33.3 -10 36.6 -10 40 C-6.7 40 -3.4 40 0 40 C0 33.4 0 26.8 0 20 C-3.3 20 -6.6 20 -10 20 C-10 16.7 -10 13.4 -10 10 C-6.7 10 -3.4 10 0 10 C0 6.7 0 3.4 0 0 Z " fill="#000000" transform="translate(190,40)"/>
<path d="M0 0 C3.3 0 6.6 0 10 0 C10 6.6 10 13.2 10 20 C6.7 20 3.4 20 0 20 C0 23.3 0 26.6 0 30 C3.3 30 6.6 30 10 30 C10 39.9 10 49.8 10 60 C6.7 60 3.4 60 0 60 C0 63.3 0 66.6 0 70 C3.3 70 6.6 70 10 70 C10 79.9 10 89.8 10 100 C6.7 100 3.4 100 0 100 C0 103.3 0 106.6 0 110 C-3.3 110 -6.6 110 -10 110 C-10 103.4 -10 96.8 -10 90 C-6.7 90 -3.4 90 0 90 C0 86.7 0 83.4 0 80 C-3.3 80 -6.6 80 -10 80 C-10 70.1 -10 60.2 -10 50 C-6.7 50 -3.4 50 0 50 C0 46.7 0 43.4 0 40 C-3.3 40 -6.6 40 -10 40 C-10 33.4 -10 26.8 -10 20 C-13.3 20 -16.6 20 -20 20 C-20 16.7 -20 13.4 -20 10 C-13.4 10 -6.8 10 0 10 C0 6.7 0 3.4 0 0 Z " fill="#000000" transform="translate(290,100)"/>
<path d="M0 0 C6.6 0 13.2 0 20 0 C20 3.3 20 6.6 20 10 C23.3 10 26.6 10 30 10 C30 6.7 30 3.4 30 0 C33.3 0 36.6 0 40 0 C40 3.3 40 6.6 40 10 C43.3 10 46.6 10 50 10 C50 16.6 50 23.2 50 30 C53.3 30 56.6 30 60 30 C60 33.3 60 36.6 60 40 C56.7 40 53.4 40 50 40 C50 49.9 50 59.8 50 70 C46.7 70 43.4 70 40 70 C40 53.5 40 37 40 20 C36.7 20 33.4 20 30 20 C30 26.6 30 33.2 30 40 C23.4 40 16.8 40 10 40 C10 36.7 10 33.4 10 30 C13.3 30 16.6 30 20 30 C20 26.7 20 23.4 20 20 C16.7 20 13.4 20 10 20 C10 16.7 10 13.4 10 10 C6.7 10 3.4 10 0 10 C0 6.7 0 3.4 0 0 Z " fill="#FFFFFF" transform="translate(230,110)"/>
<path d="M0 0 C3.3 0 6.6 0 10 0 C10 6.6 10 13.2 10 20 C29.8 20 49.6 20 70 20 C70 23.3 70 26.6 70 30 C66.7 30 63.4 30 60 30 C60 33.3 60 36.6 60 40 C53.4 40 46.8 40 40 40 C40 43.3 40 46.6 40 50 C36.7 50 33.4 50 30 50 C30 46.7 30 43.4 30 40 C26.7 40 23.4 40 20 40 C20 36.7 20 33.4 20 30 C13.4 30 6.8 30 0 30 C0 20.1 0 10.2 0 0 Z " fill="#000000" transform="translate(140,100)"/>
<path d="M0 0 C3.3 0 6.6 0 10 0 C10 6.6 10 13.2 10 20 C6.7 20 3.4 20 0 20 C0 23.3 0 26.6 0 30 C3.3 30 6.6 30 10 30 C10 43.2 10 56.4 10 70 C6.7 70 3.4 70 0 70 C0 63.4 0 56.8 0 50 C-3.3 50 -6.6 50 -10 50 C-10 53.3 -10 56.6 -10 60 C-13.3 60 -16.6 60 -20 60 C-20 46.8 -20 33.6 -20 20 C-16.7 20 -13.4 20 -10 20 C-10 16.7 -10 13.4 -10 10 C-6.7 10 -3.4 10 0 10 C0 6.7 0 3.4 0 0 Z " fill="#000000" transform="translate(160,20)"/>
<path d="M0 0 C3.3 0 6.6 0 10 0 C10 6.6 10 13.2 10 20 C13.3 20 16.6 20 20 20 C20 23.3 20 26.6 20 30 C16.7 30 13.4 30 10 30 C10 33.3 10 36.6 10 40 C13.3 40 16.6 40 20 40 C20 43.3 20 46.6 20 50 C13.4 50 6.8 50 0 50 C0 46.7 0 43.4 0 40 C-6.6 40 -13.2 40 -20 40 C-20 36.7 -20 33.4 -20 30 C-23.3 30 -26.6 30 -30 30 C-30 26.7 -30 23.4 -30 20 C-23.4 20 -16.8 20 -10 20 C-10 16.7 -10 13.4 -10 10 C-6.7 10 -3.4 10 0 10 C0 6.7 0 3.4 0 0 Z " fill="#FFFFFF" transform="translate(210,120)"/>
<path d="M0 0 C9.9 0 19.8 0 30 0 C30 9.9 30 19.8 30 30 C20.1 30 10.2 30 0 30 C0 20.1 0 10.2 0 0 Z " fill="#000000" transform="translate(30,250)"/>
<path d="M0 0 C9.9 0 19.8 0 30 0 C30 9.9 30 19.8 30 30 C20.1 30 10.2 30 0 30 C0 20.1 0 10.2 0 0 Z " fill="#FFFFFF" transform="translate(220,220)"/>
<path d="M0 0 C9.9 0 19.8 0 30 0 C30 9.9 30 19.8 30 30 C20.1 30 10.2 30 0 30 C0 20.1 0 10.2 0 0 Z " fill="#000000" transform="translate(250,30)"/>
<path d="M0 0 C9.9 0 19.8 0 30 0 C30 9.9 30 19.8 30 30 C20.1 30 10.2 30 0 30 C0 20.1 0 10.2 0 0 Z " fill="#000000" transform="translate(30,30)"/>
<path d="M0 0 C3.3 0 6.6 0 10 0 C10 6.6 10 13.2 10 20 C6.7 20 3.4 20 0 20 C0 23.3 0 26.6 0 30 C-13.2 30 -26.4 30 -40 30 C-40 26.7 -40 23.4 -40 20 C-36.7 20 -33.4 20 -30 20 C-30 16.7 -30 13.4 -30 10 C-26.7 10 -23.4 10 -20 10 C-20 13.3 -20 16.6 -20 20 C-16.7 20 -13.4 20 -10 20 C-10 16.7 -10 13.4 -10 10 C-6.7 10 -3.4 10 0 10 C0 6.7 0 3.4 0 0 Z " fill="#000000" transform="translate(150,270)"/>
<path d="M0 0 C3.3 0 6.6 0 10 0 C10 3.3 10 6.6 10 10 C16.6 10 23.2 10 30 10 C30 13.3 30 16.6 30 20 C23.4 20 16.8 20 10 20 C10 26.6 10 33.2 10 40 C3.4 40 -3.2 40 -10 40 C-10 36.7 -10 33.4 -10 30 C-6.7 30 -3.4 30 0 30 C0 26.7 0 23.4 0 20 C-3.3 20 -6.6 20 -10 20 C-10 16.7 -10 13.4 -10 10 C-6.7 10 -3.4 10 0 10 C0 6.7 0 3.4 0 0 Z " fill="#000000" transform="translate(130,230)"/>
<path d="M0 0 C3.3 0 6.6 0 10 0 C10 9.9 10 19.8 10 30 C6.7 30 3.4 30 0 30 C0 36.6 0 43.2 0 50 C-3.3 50 -6.6 50 -10 50 C-10 43.4 -10 36.8 -10 30 C-13.3 30 -16.6 30 -20 30 C-20 26.7 -20 23.4 -20 20 C-16.7 20 -13.4 20 -10 20 C-10 16.7 -10 13.4 -10 10 C-6.7 10 -3.4 10 0 10 C0 6.7 0 3.4 0 0 Z " fill="#FFFFFF" transform="translate(130,40)"/>
<path d="M0 0 C9.9 0 19.8 0 30 0 C30 6.6 30 13.2 30 20 C26.7 20 23.4 20 20 20 C20 23.3 20 26.6 20 30 C16.7 30 13.4 30 10 30 C10 23.4 10 16.8 10 10 C6.7 10 3.4 10 0 10 C0 6.7 0 3.4 0 0 Z " fill="#000000" transform="translate(270,220)"/>
<path d="M0 0 C6.6 0 13.2 0 20 0 C20 6.6 20 13.2 20 20 C16.7 20 13.4 20 10 20 C10 23.3 10 26.6 10 30 C6.7 30 3.4 30 0 30 C0 26.7 0 23.4 0 20 C-3.3 20 -6.6 20 -10 20 C-10 16.7 -10 13.4 -10 10 C-6.7 10 -3.4 10 0 10 C0 6.7 0 3.4 0 0 Z " fill="#000000" transform="translate(30,190)"/>
<path d="M0 0 C3.3 0 6.6 0 10 0 C10 6.6 10 13.2 10 20 C6.7 20 3.4 20 0 20 C0 26.6 0 33.2 0 40 C-3.3 40 -6.6 40 -10 40 C-10 30.1 -10 20.2 -10 10 C-6.7 10 -3.4 10 0 10 C0 6.7 0 3.4 0 0 Z " fill="#000000" transform="translate(100,260)"/>
<path d="M0 0 C3.3 0 6.6 0 10 0 C10 3.3 10 6.6 10 10 C13.3 10 16.6 10 20 10 C20 13.3 20 16.6 20 20 C16.7 20 13.4 20 10 20 C10 23.3 10 26.6 10 30 C6.7 30 3.4 30 0 30 C0 26.7 0 23.4 0 20 C-3.3 20 -6.6 20 -10 20 C-10 16.7 -10 13.4 -10 10 C-6.7 10 -3.4 10 0 10 C0 6.7 0 3.4 0 0 Z " fill="#FFFFFF" transform="translate(80,170)"/>
<path d="M0 0 C3.3 0 6.6 0 10 0 C10 3.3 10 6.6 10 10 C13.3 10 16.6 10 20 10 C20 16.6 20 23.2 20 30 C16.7 30 13.4 30 10 30 C10 26.7 10 23.4 10 20 C6.7 20 3.4 20 0 20 C0 13.4 0 6.8 0 0 Z " fill="#000000" transform="translate(120,120)"/>
<path d="M0 0 C6.6 0 13.2 0 20 0 C20 9.9 20 19.8 20 30 C16.7 30 13.4 30 10 30 C10 23.4 10 16.8 10 10 C6.7 10 3.4 10 0 10 C0 6.7 0 3.4 0 0 Z " fill="#000000" transform="translate(190,10)"/>
<path d="M0 0 C3.3 0 6.6 0 10 0 C10 3.3 10 6.6 10 10 C13.3 10 16.6 10 20 10 C20 13.3 20 16.6 20 20 C13.4 20 6.8 20 0 20 C0 13.4 0 6.8 0 0 Z " fill="#000000" transform="translate(280,280)"/>
<path d="M0 0 C3.3 0 6.6 0 10 0 C10 9.9 10 19.8 10 30 C6.7 30 3.4 30 0 30 C0 20.1 0 10.2 0 0 Z " fill="#000000" transform="translate(290,250)"/>
<path d="M0 0 C3.3 0 6.6 0 10 0 C10 6.6 10 13.2 10 20 C3.4 20 -3.2 20 -10 20 C-10 16.7 -10 13.4 -10 10 C-6.7 10 -3.4 10 0 10 C0 6.7 0 3.4 0 0 Z " fill="#FFFFFF" transform="translate(200,240)"/>
<path d="M0 0 C3.3 0 6.6 0 10 0 C10 3.3 10 6.6 10 10 C13.3 10 16.6 10 20 10 C20 13.3 20 16.6 20 20 C13.4 20 6.8 20 0 20 C0 13.4 0 6.8 0 0 Z " fill="#FFFFFF" transform="translate(160,140)"/>
<path d="M0 0 C6.6 0 13.2 0 20 0 C20 3.3 20 6.6 20 10 C13.4 10 6.8 10 0 10 C0 6.7 0 3.4 0 0 Z " fill="#FFFFFF" transform="translate(30,180)"/>
<path d="M0 0 C6.6 0 13.2 0 20 0 C20 3.3 20 6.6 20 10 C13.4 10 6.8 10 0 10 C0 6.7 0 3.4 0 0 Z " fill="#000000" transform="translate(30,170)"/>
<path d="M0 0 C6.6 0 13.2 0 20 0 C20 3.3 20 6.6 20 10 C13.4 10 6.8 10 0 10 C0 6.7 0 3.4 0 0 Z " fill="#FFFFFF" transform="translate(60,160)"/>
<path d="M0 0 C3.3 0 6.6 0 10 0 C10 6.6 10 13.2 10 20 C6.7 20 3.4 20 0 20 C0 13.4 0 6.8 0 0 Z " fill="#000000" transform="translate(10,120)"/>
<path d="M0 0 C3.3 0 6.6 0 10 0 C10 6.6 10 13.2 10 20 C6.7 20 3.4 20 0 20 C0 13.4 0 6.8 0 0 Z " fill="#FFFFFF" transform="translate(100,90)"/>
<path d="M0 0 C3.3 0 6.6 0 10 0 C10 6.6 10 13.2 10 20 C6.7 20 3.4 20 0 20 C0 13.4 0 6.8 0 0 Z " fill="#FFFFFF" transform="translate(160,70)"/>
<path d="M0 0 C3.3 0 6.6 0 10 0 C10 3.3 10 6.6 10 10 C6.7 10 3.4 10 0 10 C0 6.7 0 3.4 0 0 Z " fill="#000000" transform="translate(270,260)"/>
<path d="M0 0 C3.3 0 6.6 0 10 0 C10 3.3 10 6.6 10 10 C6.7 10 3.4 10 0 10 C0 6.7 0 3.4 0 0 Z " fill="#000000" transform="translate(230,230)"/>
<path d="M0 0 C3.3 0 6.6 0 10 0 C10 3.3 10 6.6 10 10 C6.7 10 3.4 10 0 10 C0 6.7 0 3.4 0 0 Z " fill="#000000" transform="translate(140,220)"/>
<path d="M0 0 C3.3 0 6.6 0 10 0 C10 3.3 10 6.6 10 10 C6.7 10 3.4 10 0 10 C0 6.7 0 3.4 0 0 Z " fill="#000000" transform="translate(10,210)"/>
<path d="M0 0 C3.3 0 6.6 0 10 0 C10 3.3 10 6.6 10 10 C6.7 10 3.4 10 0 10 C0 6.7 0 3.4 0 0 Z " fill="#FFFFFF" transform="translate(170,200)"/>
<path d="M0 0 C3.3 0 6.6 0 10 0 C10 3.3 10 6.6 10 10 C6.7 10 3.4 10 0 10 C0 6.7 0 3.4 0 0 Z " fill="#FFFFFF" transform="translate(70,200)"/>
<path d="M0 0 C3.3 0 6.6 0 10 0 C10 3.3 10 6.6 10 10 C6.7 10 3.4 10 0 10 C0 6.7 0 3.4 0 0 Z " fill="#000000" transform="translate(10,190)"/>
<path d="M0 0 C3.3 0 6.6 0 10 0 C10 3.3 10 6.6 10 10 C6.7 10 3.4 10 0 10 C0 6.7 0 3.4 0 0 Z " fill="#FFFFFF" transform="translate(280,180)"/>
<path d="M0 0 C3.3 0 6.6 0 10 0 C10 3.3 10 6.6 10 10 C6.7 10 3.4 10 0 10 C0 6.7 0 3.4 0 0 Z " fill="#000000" transform="translate(20,180)"/>
<path d="M0 0 C3.3 0 6.6 0 10 0 C10 3.3 10 6.6 10 10 C6.7 10 3.4 10 0 10 C0 6.7 0 3.4 0 0 Z " fill="#FFFFFF" transform="translate(150,170)"/>
<path d="M0 0 C3.3 0 6.6 0 10 0 C10 3.3 10 6.6 10 10 C6.7 10 3.4 10 0 10 C0 6.7 0 3.4 0 0 Z " fill="#FFFFFF" transform="translate(50,170)"/>
<path d="M0 0 C3.3 0 6.6 0 10 0 C10 3.3 10 6.6 10 10 C6.7 10 3.4 10 0 10 C0 6.7 0 3.4 0 0 Z " fill="#FFFFFF" transform="translate(20,170)"/>
<path d="M0 0 C3.3 0 6.6 0 10 0 C10 3.3 10 6.6 10 10 C6.7 10 3.4 10 0 10 C0 6.7 0 3.4 0 0 Z " fill="#FFFFFF" transform="translate(220,140)"/>
<path d="M0 0 C3.3 0 6.6 0 10 0 C10 3.3 10 6.6 10 10 C6.7 10 3.4 10 0 10 C0 6.7 0 3.4 0 0 Z " fill="#000000" transform="translate(210,140)"/>
<path d="M0 0 C3.3 0 6.6 0 10 0 C10 3.3 10 6.6 10 10 C6.7 10 3.4 10 0 10 C0 6.7 0 3.4 0 0 Z " fill="#000000" transform="translate(70,130)"/>
<path d="M0 0 C3.3 0 6.6 0 10 0 C10 3.3 10 6.6 10 10 C6.7 10 3.4 10 0 10 C0 6.7 0 3.4 0 0 Z " fill="#000000" transform="translate(250,110)"/>
<path d="M0 0 C3.3 0 6.6 0 10 0 C10 3.3 10 6.6 10 10 C6.7 10 3.4 10 0 10 C0 6.7 0 3.4 0 0 Z " fill="#000000" transform="translate(100,110)"/>
<path d="M0 0 C3.3 0 6.6 0 10 0 C10 3.3 10 6.6 10 10 C6.7 10 3.4 10 0 10 C0 6.7 0 3.4 0 0 Z " fill="#FFFFFF" transform="translate(90,110)"/>
<path d="M0 0 C3.3 0 6.6 0 10 0 C10 3.3 10 6.6 10 10 C6.7 10 3.4 10 0 10 C0 6.7 0 3.4 0 0 Z " fill="#000000" transform="translate(260,100)"/>
<path d="M0 0 C3.3 0 6.6 0 10 0 C10 3.3 10 6.6 10 10 C6.7 10 3.4 10 0 10 C0 6.7 0 3.4 0 0 Z " fill="#FFFFFF" transform="translate(70,100)"/>
<path d="M0 0 C3.3 0 6.6 0 10 0 C10 3.3 10 6.6 10 10 C6.7 10 3.4 10 0 10 C0 6.7 0 3.4 0 0 Z " fill="#000000" transform="translate(270,90)"/>
<path d="M0 0 C3.3 0 6.6 0 10 0 C10 3.3 10 6.6 10 10 C6.7 10 3.4 10 0 10 C0 6.7 0 3.4 0 0 Z " fill="#000000" transform="translate(210,70)"/>
<path d="M0 0 C3.3 0 6.6 0 10 0 C10 3.3 10 6.6 10 10 C6.7 10 3.4 10 0 10 C0 6.7 0 3.4 0 0 Z " fill="#FFFFFF" transform="translate(200,70)"/>
<path d="M0 0 C3.3 0 6.6 0 10 0 C10 3.3 10 6.6 10 10 C6.7 10 3.4 10 0 10 C0 6.7 0 3.4 0 0 Z " fill="#FFFFFF" transform="translate(140,70)"/>
<path d="M0 0 C3.3 0 6.6 0 10 0 C10 3.3 10 6.6 10 10 C6.7 10 3.4 10 0 10 C0 6.7 0 3.4 0 0 Z " fill="#FFFFFF" transform="translate(150,60)"/>
<path d="M0 0 C3.3 0 6.6 0 10 0 C10 3.3 10 6.6 10 10 C6.7 10 3.4 10 0 10 C0 6.7 0 3.4 0 0 Z " fill="#000000" transform="translate(100,60)"/>
<path d="M0 0 C3.3 0 6.6 0 10 0 C10 3.3 10 6.6 10 10 C6.7 10 3.4 10 0 10 C0 6.7 0 3.4 0 0 Z " fill="#FFFFFF" transform="translate(140,30)"/>
<path d="M0 0 C3.3 0 6.6 0 10 0 C10 3.3 10 6.6 10 10 C6.7 10 3.4 10 0 10 C0 6.7 0 3.4 0 0 Z " fill="#FFFFFF" transform="translate(120,30)"/>
<path d="M0 0 C3.3 0 6.6 0 10 0 C10 3.3 10 6.6 10 10 C6.7 10 3.4 10 0 10 C0 6.7 0 3.4 0 0 Z " fill="#000000" transform="translate(100,10)"/>
</svg>
