<svg width="36" height="37" viewBox="0 0 36 37" fill="none" xmlns="http://www.w3.org/2000/svg">
<g clip-path="url(#clip0_13462_16455)">
<path d="M33.1524 28.074C31.1888 28.021 29.6883 28.2033 28.4061 28.744C28.0415 28.8979 27.4605 28.9017 27.4009 29.3586C27.6012 29.5684 27.6329 29.8818 27.7915 30.1399C28.0979 30.6356 28.6154 31.2999 29.0761 31.6475C29.5799 32.0277 30.0988 32.4349 30.64 32.7649C31.6012 33.3511 32.6742 33.6859 33.5994 34.2725C34.1448 34.6182 34.6865 35.0538 35.2187 35.4449C35.4815 35.6381 35.6591 35.9383 36 36.059V36.0032C35.8201 35.7745 35.7741 35.4601 35.6094 35.2219L34.8835 34.496C34.1733 33.549 33.2727 32.7266 32.3148 32.0386C31.5511 31.4903 29.8413 30.7497 29.5226 29.8605L29.4667 29.8047C30.0084 29.7431 30.6424 29.5475 31.1429 29.414C31.9824 29.1891 32.7329 29.2469 33.6003 29.0234L34.7732 28.6882V28.4647C34.3347 28.0148 34.0222 27.4197 33.5445 27.0129C32.2944 25.9476 30.9294 24.8846 29.5245 23.9968C28.7451 23.5043 27.782 23.1852 26.9558 22.7681C26.6779 22.6279 26.1897 22.555 26.0064 22.3211C25.5727 21.768 25.3365 21.0663 25.0017 20.4271C24.3009 19.0777 23.6125 17.6032 22.9912 16.1832C22.5675 15.2149 22.2905 14.2599 21.763 13.391C19.2274 9.22236 16.4977 6.70621 12.2704 4.23363C11.3708 3.70805 10.2879 3.49971 9.14297 3.2284L7.30013 3.11665C6.92512 2.9604 6.53496 2.50111 6.18268 2.27857C4.78209 1.39314 1.1897 -0.530667 0.152272 1.99447C-0.50257 3.59157 1.13098 5.14984 1.71575 5.95951C2.12579 6.5277 2.65137 7.1636 2.94399 7.80235C3.1367 8.22186 3.17032 8.6428 3.3351 9.08694C3.74088 10.176 4.09411 11.3706 4.61921 12.3815C4.88437 12.8929 5.17699 13.4317 5.51269 13.8891C5.71866 14.1699 6.07141 14.2935 6.12681 14.7272C5.78211 15.2102 5.76223 15.9583 5.56809 16.57C4.69544 19.322 5.02452 22.742 6.29395 24.779C6.68364 25.404 7.6008 26.7449 8.86266 26.2307C9.9659 25.7809 9.71495 24.3888 10.0355 23.1596C10.1065 22.8803 10.063 22.6767 10.2031 22.4896V22.5455L11.2084 24.5555C11.9517 25.7534 13.2728 27.0058 14.3912 27.851C14.9712 28.289 15.4329 29.0466 16.1781 29.3027V29.2469H16.1223C15.9769 29.0196 15.7496 28.9263 15.5635 28.745C15.1265 28.3165 14.6402 27.7838 14.279 27.2932C13.2609 25.9116 12.3622 24.4002 11.5431 22.8258C11.152 22.0744 10.8116 21.2453 10.4825 20.4806C10.3556 20.1856 10.357 19.7401 10.0919 19.5871C9.73058 20.1477 9.19837 20.6004 8.91901 21.2624C8.47203 22.3201 8.41426 23.6099 8.24902 24.948C8.151 24.9831 8.19456 24.9589 8.13727 25.0039C7.35979 24.8164 7.08611 24.0157 6.79728 23.3287C6.06621 21.591 5.93079 18.7945 6.57379 16.7954C6.73951 16.2784 7.49237 14.6486 7.18791 14.1708C7.04255 13.694 6.5629 13.4132 6.29443 13.0534C5.96299 12.6036 5.6306 12.0098 5.40095 11.4899C4.80246 10.1357 4.52309 8.61581 3.89334 7.24599C3.5922 6.59162 3.08367 5.92968 2.6651 5.35202C2.20202 4.70807 1.68355 4.23268 1.32512 3.45804C1.19727 3.18105 1.02397 2.73833 1.21337 2.45282C1.23145 2.37078 1.27263 2.29563 1.33202 2.23623C1.39142 2.17684 1.46657 2.13567 1.54861 2.11758C1.87248 1.86805 2.77495 2.20044 3.11208 2.34107C4.00698 2.71324 4.7551 3.06741 5.51364 3.56979C5.87823 3.80654 6.24613 4.27813 6.68601 4.40787H7.18791C7.97391 4.58875 8.85461 4.46469 9.58853 4.68723C10.8868 5.08165 12.0497 5.69577 13.1066 6.36245C16.3254 8.39469 18.9566 11.2877 20.7568 14.7433C21.0466 15.2987 21.1716 15.8295 21.4268 16.4185C21.9415 17.6022 22.5897 18.83 23.102 19.992C23.6134 21.152 24.1106 22.3216 24.8331 23.2865C25.2129 23.7932 26.6797 24.0659 27.346 24.3472C27.8133 24.5446 28.5785 24.7506 29.0212 25.0172C29.8664 25.5271 30.6855 26.1346 31.4786 26.6933C31.8749 26.9727 33.0932 27.5849 33.1538 28.0892L33.1524 28.074Z" fill="#00618A"/>
<path fill-rule="evenodd" clip-rule="evenodd" d="M8.19273 6.79929C7.78316 6.79171 7.49385 6.8438 7.1875 6.91103V6.9669H7.24337C7.43845 7.36843 7.78315 7.62648 8.02463 7.97213L8.58336 9.1445L8.63923 9.08863C8.98488 8.84478 9.1435 8.45509 9.14113 7.85991C9.0024 7.71408 8.98204 7.53131 8.86177 7.35706C8.7022 7.12505 8.38828 6.99342 8.19178 6.79834L8.19273 6.79929Z" fill="#00618A"/>
</g>
<defs>
<clipPath id="clip0_13462_16455">
<rect width="36" height="36" fill="white" transform="translate(0 0.399902)"/>
</clipPath>
</defs>
</svg>
