<svg version="1.1" xmlns="http://www.w3.org/2000/svg" width="100px" height="100px" viewBox="0 0 100 100" xml:space="preserve">
<style type="text/css">
	.st0{fill:#12B5CB;}.st1{fill:#048DCA;}.st2{fill:#BBBDBF;}.st3{fill:#FFC61A;}.st4{opacity:0.4;fill:#606060;}.st5{fill:#BCBEC0;}.st6{fill:#1D5280;}
	.st7{fill:#2478BD;}.st8{fill:#606060;}.st9{fill:#231F20;}.st10{fill:url(#SVGID_1_);}</style>
<g>
	<circle class="st0" cx="5.1" cy="31.3" r="1.4"/>
	<circle class="st1" cx="6" cy="23.4" r="0.7"/>
	<g>
		<circle class="st2" cx="93.8" cy="10.3" r="1.7"/>
		<circle class="st0" cx="95.5" cy="19.2" r="2.5"/>
		<circle class="st1" cx="99.1" cy="8.3" r="0.9"/>
		<circle class="st3" cx="80.2" cy="5.5" r="1.5"/>
		<circle class="st4" cx="91.7" cy="28.9" r="1.2"/>
		<circle class="st5" cx="94.3" cy="3.2" r="0.7"/>
		<circle class="st1" cx="87.4" cy="7.5" r="0.9"/>
		<circle class="st3" cx="90.5" cy="23.5" r="0.7"/>
	</g>
	<g>
		<circle class="st0" cx="20" cy="92" r="2.6"/>
		<circle class="st2" cx="8.9" cy="90.8" r="1.7"/>
		<circle class="st6" cx="5.3" cy="99.1" r="0.9"/>
		<circle class="st7" cx="12" cy="98.1" r="1.6"/>
		<circle class="st3" cx="4.6" cy="82.9" r="0.7"/>
		<circle class="st3" cx="24.8" cy="80.1" r="0.7"/>
		<circle class="st8" cx="0.7" cy="90.5" r="0.7"/>
	</g>
	<g>
		<g>
			<path class="st9" d="M28.8,45.7c-1.2,0-2,0.5-2,1.3c0,2.7,6.6,1.2,6.6,5.7c0,2.2-1.9,3.5-4.6,3.5c-1.9,0-3.8-0.8-5-1.9l0.9-1.8
				c1.3,1.2,2.8,1.8,4.2,1.8c1.4,0,2.3-0.5,2.3-1.5c0-2.7-6.6-1.2-6.6-5.6c0-2.1,1.8-3.4,4.5-3.4c1.6,0,3.2,0.5,4.3,1.3l-0.9,1.8
				C31.1,46,29.7,45.7,28.8,45.7z"/>
			<path class="st9" d="M45.3,43.9v1.9h-3.9v10.4h-2.1V45.7h-3.9v-1.9H45.3z"/>
			<path class="st9" d="M50.2,43.9v12.3h-2.1V43.9H50.2z"/>
			<path class="st9" d="M59.9,45.6c-2.5,0-4.4,1.9-4.4,4.3c0,2.4,1.9,4.3,4.4,4.3c1.2,0,2.5-0.6,3.4-1.5l1.2,1.4c-1.2,1.2-3,2-4.8,2
				c-3.6,0-6.4-2.7-6.4-6.3c0-3.5,2.8-6.2,6.5-6.2c1.7,0,3.5,0.7,4.7,1.9l-1.2,1.5C62.5,46.2,61.2,45.6,59.9,45.6z"/>
			<path class="st9" d="M71.6,45.7c-1.2,0-2,0.5-2,1.3c0,2.7,6.6,1.2,6.6,5.7c0,2.2-1.9,3.5-4.6,3.5c-1.9,0-3.8-0.8-5-1.9l0.9-1.8
				c1.3,1.2,2.8,1.8,4.2,1.8c1.4,0,2.3-0.5,2.3-1.5c0-2.7-6.6-1.2-6.6-5.6c0-2.1,1.8-3.4,4.5-3.4c1.6,0,3.2,0.5,4.3,1.3l-0.9,1.8
				C73.9,46,72.6,45.7,71.6,45.7z"/>
		</g>
		<linearGradient id="SVGID_1_" gradientUnits="userSpaceOnUse" x1="67.0681" y1="21.8341" x2="26.1218" y2="89.1791">
			<stop  offset="0" style="stop-color:#12B7CD"/>
			<stop  offset="0.2156" style="stop-color:#159BB7"/>
			<stop  offset="0.5587" style="stop-color:#197399"/>
			<stop  offset="0.8323" style="stop-color:#1C5B87"/>
			<stop  offset="1" style="stop-color:#1D5280"/>
		</linearGradient>
		<path class="st10" d="M97.6,47c0,0-0.1,0-0.1,0c-0.2-0.6-0.5-1.2-0.8-1.8c-0.8-1.4-2-2.8-3.6-4.1c-1.6-1.3-3.6-2.6-6-3.7
			c-0.8-0.4-1.7-0.8-2.5-1.2c0.6-1.4,1.2-2.8,1.7-4.2c0.3-0.9,0.6-1.8,0.9-2.7c0.6-2.4,1.1-4.9,0.9-7.5c-0.1-2.6-1-5.5-3.1-7.7
			c0,0,0,0,0,0c-0.9-0.9-2.4-0.9-3.4,0c0,0-0.1,0.1-0.1,0.1c-0.6-0.3-1.2-0.5-1.9-0.7c-1.6-0.4-3.4-0.5-5.4-0.3
			c-2.1,0.2-4.4,0.8-6.9,1.6c-0.9,0.3-1.7,0.6-2.6,1c-0.5-1.4-1.1-2.8-1.8-4.2c-0.4-0.8-0.8-1.7-1.3-2.5C60.4,7.1,59,5,57,3.2
			C55.1,1.5,52.4,0,49.4,0c0,0,0,0,0,0C48.1,0,47,1.1,47,2.4c0,0,0,0.1,0,0.1c-0.6,0.2-1.2,0.5-1.8,0.8c-1.4,0.8-2.8,2-4.1,3.6
			c-1.3,1.6-2.6,3.6-3.7,6c-0.4,0.8-0.8,1.7-1.2,2.5c-1.4-0.6-2.8-1.2-4.2-1.7c-0.9-0.3-1.8-0.6-2.7-0.9c-2.4-0.6-4.9-1.1-7.5-0.9
			c-2.6,0.1-5.5,1-7.7,3.1c0,0,0,0,0,0c-0.9,0.9-0.9,2.4,0,3.4c0,0,0.1,0.1,0.1,0.1c-0.3,0.6-0.5,1.2-0.7,1.9
			c-0.4,1.6-0.5,3.4-0.3,5.4c0.2,2.1,0.8,4.4,1.6,6.9c0.3,0.7,0.5,1.5,0.9,2.3c-2.5,0.9-4.9,1.9-7.2,3.2c-2,1.2-4,2.6-5.7,4.4
			c-1.6,1.8-2.9,4.2-3,6.8c0,2.6,1.2,5.1,2.8,6.9c1.6,1.9,3.6,3.3,5.6,4.6c2.1,1.2,4.2,2.3,6.4,3.2c-1,2.2-1.9,4.5-2.5,6.8
			c-0.6,2.3-1,4.7-0.9,7.1c0.1,2.4,0.9,5,2.7,6.9c1.9,1.9,4.5,2.7,6.9,2.9c2.5,0.2,4.9-0.2,7.2-0.7c2.3-0.6,4.6-1.4,6.8-2.3
			c0.8,2.3,1.8,4.5,3.1,6.6c1.2,2,2.6,4,4.4,5.7c1.8,1.6,4.2,2.9,6.8,3c2.6,0,5.1-1.2,6.9-2.8c1.9-1.6,3.3-3.6,4.6-5.6
			c1.2-2.1,2.3-4.2,3.2-6.4c2.2,1,4.5,1.9,6.8,2.5c2.3,0.6,4.7,1,7.1,0.9c2.4-0.1,5-0.9,6.9-2.7c1.9-1.9,2.7-4.5,2.9-6.9
			c0.2-2.5-0.2-4.9-0.7-7.2c-0.6-2.5-1.5-4.8-2.5-7.1c1.2-0.5,2.5-1,3.7-1.6c0.8-0.4,1.7-0.8,2.5-1.3c2.1-1.2,4.2-2.7,6-4.7
			c1.8-1.9,3.2-4.6,3.2-7.6c0,0,0,0,0,0C100,48.1,98.9,47,97.6,47z M65.7,16c0.2-0.1,0.4-0.1,0.5-0.2c3.6-1.4,6.9-2.1,9.8-2.1
			c1.2,0,2.2,0.1,3.2,0.4c0.7,0.2,1.4,0.4,2,0.7c-0.5,0.9-0.4,2.1,0.3,2.9c-0.1-0.1-0.1-0.2-0.2-0.3c0,0,0,0,0,0
			c1.5,2,2.2,4.5,2.1,6.9c0,0.2,0,0.4,0,0.6c-0.1,1.2-0.3,2.4-0.6,3.6c-0.2,0.9-0.5,1.8-0.8,2.8c-0.4,1.2-0.9,2.4-1.4,3.6
			c-1.2-0.4-2.4-0.8-3.6-1.1c-2.7-0.8-5.4-1.4-8.2-1.9c-0.5-3.1-1.1-6.1-1.8-9.2c-0.6-2.1-1.2-4.2-2-6.3
			C65.1,16.2,65.4,16.1,65.7,16z M62.9,23.7c0.7,2.4,1.2,4.9,1.7,7.4c-2.1-0.3-4.1-0.5-6.2-0.7c-2.4-2.1-4.8-4.2-7.4-6.1
			c2.2-1.6,4.4-3.1,6.7-4.4c1.1-0.6,2.2-1.2,3.3-1.8C61.7,20,62.4,21.8,62.9,23.7z M52.1,30.1c-0.9,0-1.8-0.1-2.7-0.1
			c-1.9,0-3.7,0-5.6,0.1c1.3-1.1,2.6-2.2,3.9-3.2C49.2,27.9,50.6,29,52.1,30.1z M37,14.9c0.1-0.2,0.2-0.3,0.2-0.5
			c1.6-3.5,3.4-6.4,5.4-8.4c0.8-0.8,1.7-1.5,2.5-2c0.6-0.4,1.3-0.7,1.9-0.9c0.3,1,1.2,1.8,2.3,1.8c-0.1,0-0.2,0-0.3-0.1c0,0,0,0,0,0
			c2.5,0.3,4.8,1.6,6.4,3.4c0.1,0.1,0.2,0.3,0.4,0.4c0.8,0.9,1.5,1.9,2.1,2.9c0.5,0.8,0.9,1.7,1.4,2.5c0.6,1.2,1.1,2.4,1.6,3.6
			c-1.1,0.6-2.3,1.1-3.4,1.8c-2.4,1.4-4.8,2.9-7.1,4.5c-2.5-1.8-5.1-3.6-7.8-5.2c-1.9-1.1-3.8-2.1-5.8-3.1
			C36.8,15.4,36.9,15.1,37,14.9z M40.5,22.3c2.2,1.2,4.3,2.6,6.4,4c-1.6,1.2-3.2,2.5-4.8,3.8c-3.2,0.1-6.4,0.4-9.6,0.9
			c0.4-2.6,1-5.2,1.6-7.7c0.3-1.2,0.7-2.4,1-3.6C37.1,20.5,38.8,21.3,40.5,22.3z M16,34.3c-0.1-0.2-0.1-0.4-0.2-0.5
			c-1.4-3.6-2.1-6.9-2.1-9.8c0-1.2,0.1-2.2,0.4-3.2c0.2-0.7,0.4-1.4,0.7-2c0.9,0.5,2.1,0.4,2.9-0.3c-0.1,0.1-0.2,0.1-0.3,0.2
			c0,0,0,0,0,0c2-1.5,4.5-2.2,6.9-2.1c0.2,0,0.4,0,0.6,0c1.2,0.1,2.4,0.3,3.6,0.6c0.9,0.2,1.8,0.5,2.8,0.8c1.2,0.4,2.4,0.9,3.6,1.4
			c-0.4,1.2-0.8,2.4-1.1,3.6c-0.7,2.6-1.3,5.3-1.8,8c-3.4,0.5-6.8,1.1-10.1,2c-1.9,0.5-3.7,1.1-5.5,1.7C16.1,34.6,16.1,34.5,16,34.3
			z M27.7,84.5c-2.1,0.6-4.3,0.9-6.4,0.8c-2.1-0.1-4-0.7-5.4-2.1c-1.4-1.3-2.1-3.3-2.2-5.4c-0.2-2.1,0.2-4.3,0.7-6.5
			c0.6-2.3,1.4-4.5,2.3-6.6c1.6,0.6,3.2,1.1,4.8,1.6c3.2,0.9,6.4,1.6,9.6,2.1c0.5,3.3,1.1,6.6,1.9,9.9c0.3,1.3,0.7,2.6,1.1,3.8
			C32.1,83.1,29.9,83.9,27.7,84.5z M34.8,77.8c-0.8-3-1.5-6-2-9.1c2.9,0.4,5.9,0.8,8.9,1c1.8,1.6,3.5,3.2,5.4,4.7
			c-2.3,1.7-4.7,3.3-7.1,4.7c-1.3,0.8-2.7,1.5-4.1,2.2C35.5,80.1,35.1,79,34.8,77.8z M43.8,69.8c1.9,0.1,3.7,0.2,5.6,0.2
			c1.1,0,2.2,0,3.3,0c-1.4,1.2-2.8,2.3-4.3,3.5C46.8,72.3,45.3,71,43.8,69.8z M58.6,90.1c-1.1,1.9-2.4,3.7-3.9,5.1
			c-1.5,1.4-3.4,2.3-5.3,2.4c-1.9,0-3.8-0.9-5.4-2.3c-1.6-1.4-2.9-3.2-4.1-5c-1.2-2-2.2-4.1-3.1-6.3c1.5-0.7,3.1-1.5,4.6-2.3
			c2.9-1.6,5.6-3.4,8.3-5.3c2.7,2,5.5,3.9,8.4,5.6c1.1,0.7,2.3,1.3,3.5,1.9C60.7,86,59.8,88.1,58.6,90.1z M63.5,77.6
			c-0.4,1.5-0.8,3-1.3,4.5C61,81.6,60,81,58.9,80.4c-2.7-1.5-5.3-3.2-7.9-5c2.4-1.8,4.7-3.7,7-5.6c2.4-0.1,4.8-0.3,7.2-0.6
			C64.7,72,64.2,74.8,63.5,77.6z M84.5,72.3c0.6,2.1,0.9,4.3,0.8,6.4c-0.1,2.1-0.7,4-2.1,5.4c-1.3,1.4-3.3,2.1-5.4,2.2
			c-2.1,0.2-4.3-0.2-6.5-0.7c-2.3-0.6-4.5-1.4-6.6-2.3c0.6-1.6,1.1-3.2,1.6-4.9c0.9-3.2,1.6-6.5,2.1-9.8c3-0.5,6-1.1,9-1.8
			c1.5-0.4,3-0.9,4.6-1.4C83,67.7,83.9,70,84.5,72.3z M95.2,49.4c0-0.1,0-0.2,0.1-0.3c0,0,0,0,0,0c-0.3,2.5-1.6,4.8-3.4,6.4
			c-0.1,0.1-0.3,0.2-0.4,0.4c-0.9,0.8-1.9,1.5-2.9,2.1c-0.8,0.5-1.7,0.9-2.5,1.4c-3,1.5-6.3,2.7-9.7,3.6c-8.6,2.4-17.8,3.4-26.9,3.6
			c-9.1,0.1-18.3-0.8-27-3c-4.4-1.1-8.7-2.6-12.5-4.8c-1.9-1.1-3.7-2.4-5.1-3.9c-1.4-1.5-2.3-3.4-2.4-5.3c0-1.9,0.9-3.8,2.3-5.4
			c1.4-1.6,3.2-2.9,5-4.1c3.8-2.3,8.1-3.9,12.5-5.1c8.8-2.5,18-3.5,27.2-3.6c9.2-0.1,18.4,0.8,27.4,3c2.1,0.6,4.2,1.2,6.3,2
			c0.4,0.2,0.8,0.3,1.2,0.5c0.3,0.1,0.6,0.3,0.9,0.4c0.2,0.1,0.3,0.2,0.5,0.2c3.5,1.6,6.4,3.4,8.4,5.4c0.8,0.8,1.5,1.7,2,2.5
			c0.4,0.6,0.7,1.3,0.9,1.9C95.9,47.4,95.2,48.3,95.2,49.4z"/>
	</g>
</g>
</svg>
