<svg width="37" height="37" viewBox="0 0 37 37" fill="none" xmlns="http://www.w3.org/2000/svg">
<g clip-path="url(#clip0_13462_16522)">
<path d="M17.7094 2.83676V4.51383H14.7344V5.60461H17.7094V8.94512H18.8724V5.60461H21.9218V4.51383H18.8724V1.1665H17.7094V2.83676Z" fill="#7099A6"/>
<path d="M7.98751 7.09103V9.52483H3.48438V11.0519H7.98751V15.9945H9.6576V11.0519H14.2284V9.52483H9.6576V4.65723H7.98751V7.09103Z" fill="#EB912C"/>
<path d="M26.8547 7.09103V9.52483H22.3516V11.1269H26.8547V15.9945H28.5924V11.1269H33.0955V9.52483H28.5924V4.65723H26.8547V7.09103Z" fill="#59879B"/>
<path d="M17.2759 15.3808V18.1077H12.2656V20.1393H17.2759V25.5932H19.3043V20.1393H24.3146V18.1077H19.3043V12.6538H17.2759V15.3808Z" fill="#E8762C"/>
<path d="M32.0104 16.7581V18.4692H28.9609V19.8531H32.0104V23.2686H33.5317V19.8531H36.5811V18.4692H33.5317V15.0537H32.0104V16.7581Z" fill="#5B6591"/>
<path d="M2.97505 16.9077V18.5438H0V19.7028H2.97505V22.9751H4.13802V19.7028L7.18744 19.5937V18.5438H4.13802V15.2715H2.97505V16.9077Z" fill="#7099A6"/>
<path d="M7.98751 24.6115V27.0453H3.48438V28.6474H7.98751V33.515H9.72521V28.6474H14.2284V27.0453H9.72521V22.1777H7.98751V24.6115Z" fill="#C72035"/>
<path d="M26.8547 24.6115V27.0453H22.3516V28.5724H26.8547V33.515H28.5924V28.5724H33.0955V27.0453H28.5924V22.1777H26.8547V24.6115Z" fill="#1F447E"/>
<path d="M17.565 30.7947V32.499H14.5156V33.8829H17.565V37.2984H19.0864V33.8829H22.1358V32.499H19.0864V29.0835H17.565V30.7947Z" fill="#5B6591"/>
</g>
<defs>
<clipPath id="clip0_13462_16522">
<rect width="37" height="36" fill="white" transform="translate(0 0.399902)"/>
</clipPath>
</defs>
</svg>
