<svg width="60" height="60" viewBox="0 0 60 60" fill="none" xmlns="http://www.w3.org/2000/svg">
<g clip-path="url(#clip0_391_4299)">
<path d="M30 60C46.5685 60 60 46.5685 60 30C60 13.4315 46.5685 0 30 0C13.4315 0 0 13.4315 0 30C0 46.5685 13.4315 60 30 60Z" fill="#27D045"/>
<path d="M30.25 44.25C38.2581 44.25 44.75 37.7581 44.75 29.75C44.75 21.7419 38.2581 15.25 30.25 15.25C22.2419 15.25 15.75 21.7419 15.75 29.75C15.75 37.7581 22.2419 44.25 30.25 44.25Z" stroke="white" stroke-width="4"/>
<path d="M16.9953 38.0031L14.6953 46.1531L23.1453 43.8031L23.5953 41.2031L18.0953 42.9531L19.5453 37.7031L16.9953 38.0031Z" fill="white"/>
<path d="M18 42.9984C18 42.9484 19.75 37.1484 19.75 37.1484L23.95 41.0984L18 42.9984Z" fill="#27D045"/>
<path d="M23.9843 22.5655C23.4738 22.9198 23.0385 23.3717 22.7038 23.8952C22.3691 24.4188 22.1415 25.0035 22.0343 25.6155C21.7843 27.5655 22.9843 29.5655 22.9843 29.5655C24.2015 31.3765 25.6467 33.0234 27.2843 34.4655C28.7167 35.599 30.3431 36.463 32.0843 37.0155C33.0999 37.421 34.2109 37.5252 35.2843 37.3155C36.2356 37.0544 37.0773 36.4932 37.6842 35.7155C37.8265 35.3617 37.9272 34.9926 37.9843 34.6155C38.0415 34.2846 38.0415 33.9464 37.9843 33.6155C37.9343 33.2655 34.3343 31.6155 33.9843 31.7155C33.6343 31.8155 33.3342 32.4655 32.9342 33.0155C32.5342 33.5655 32.3843 33.8155 31.9843 33.8155C31.5843 33.8155 29.8342 33.1155 28.1842 31.6155C27.2418 30.7983 26.5052 29.7706 26.0343 28.6155C26.0343 28.6155 26.3343 28.2655 26.7343 27.7155C27.0455 27.3745 27.2686 26.9625 27.3842 26.5155C27.3842 26.2655 25.9842 22.7155 25.6342 22.5655C25.0869 22.4886 24.5316 22.4886 23.9843 22.5655Z" fill="white"/>
</g>
<defs>
<clipPath id="clip0_391_4299">
<rect width="60" height="60" fill="white"/>
</clipPath>
</defs>
</svg>
