<svg width="151" height="56" viewBox="0 0 151 56" fill="none" xmlns="http://www.w3.org/2000/svg">
<path d="M29.2975 31.1895C29.2975 32.3393 29.5534 33.222 29.8878 33.756C30.3263 34.4555 30.9802 34.7518 31.647 34.7518C32.5069 34.7518 33.2936 34.5414 34.8096 32.4733C36.0242 30.8157 37.4553 28.489 38.4182 27.0304L40.0489 24.5592C41.1817 22.8429 42.4929 20.9351 43.9962 19.6419C45.2234 18.5864 46.5473 18 47.8797 18C50.1166 18 52.2474 19.2785 53.8781 21.6764C55.6627 24.3026 56.529 27.6105 56.529 31.0241C56.529 33.0534 56.1235 34.5445 55.4334 35.7225C54.7667 36.8618 53.4672 38 51.2813 38V34.7518C53.153 34.7518 53.6201 33.0555 53.6201 31.1141C53.6201 28.3476 52.9661 25.2775 51.5254 23.0838C50.5031 21.5277 49.1781 20.577 47.7205 20.577C46.1439 20.577 44.8752 21.7497 43.4494 23.8408C42.6914 24.9518 41.9132 26.3058 41.0394 27.8335L40.0776 29.5141C38.1454 32.8932 37.6559 33.6628 36.6898 34.933C34.9965 37.1571 33.5505 38 31.647 38C29.3888 38 27.9609 37.0356 27.0765 35.5822C26.3546 34.3979 26 32.844 26 31.0733L29.2975 31.1895Z" fill="white"/>
<path d="M28.6016 21.9058C30.1134 19.6073 32.2951 18 34.7974 18C36.2466 18 37.6872 18.423 39.1916 19.6346C40.8372 20.9592 42.591 23.1403 44.7791 26.7351L45.5637 28.0251C47.4577 31.1372 48.5352 32.7382 49.1659 33.4932C49.977 34.4628 50.545 34.7518 51.2828 34.7518C53.1545 34.7518 53.6217 33.0555 53.6217 31.1141L56.5306 31.0241C56.5306 33.0534 56.125 34.5445 55.435 35.7225C54.7682 36.8618 53.4688 38 51.2828 38C49.9239 38 48.72 37.7089 47.3887 36.4702C46.3652 35.5194 45.1687 33.8304 44.2483 32.312L41.5103 27.801C40.1365 25.5372 38.8763 23.8492 38.1469 23.0848C37.3624 22.2628 36.3538 21.2702 34.7443 21.2702C33.4417 21.2702 32.3354 22.1717 31.4096 23.5508L28.6016 21.9058Z" fill="white"/>
<path d="M34.7428 21.2702C33.4401 21.2702 32.3339 22.1717 31.4081 23.5508C30.0991 25.4995 29.2975 28.4021 29.2975 31.1895C29.2975 32.3393 29.5534 33.222 29.8878 33.756L27.0765 35.5822C26.3546 34.3979 26 32.844 26 31.0733C26 27.8534 26.896 24.4974 28.6 21.9058C30.1118 19.6073 32.2935 18 34.7958 18L34.7428 21.2702Z" fill="white"/>
<path d="M62.9375 18.6328H66.752L73.2377 30.2056L79.7244 18.6328H83.4562V37.6485H80.3444V23.0747L74.6561 33.1668H71.7365L66.0492 23.0747V37.6485H62.9375V18.6328ZM93.2064 25.7229C90.9748 25.7229 89.6308 27.3794 89.3091 29.4307H96.8829C96.7269 27.3176 95.4911 25.7229 93.2064 25.7229ZM86.2239 30.5993C86.2239 26.2831 89.0522 23.1417 93.2606 23.1417C97.4 23.1417 99.8715 26.2433 99.8715 30.8297V31.6726H89.3091C89.6838 33.904 91.185 35.4077 93.6056 35.4077C95.5368 35.4077 96.7439 34.8265 97.8883 33.7637L99.5413 35.7606C97.9839 37.1731 96.0028 37.9878 93.4952 37.9878C88.9396 37.9878 86.2239 34.7113 86.2239 30.5993ZM103.645 25.9951H100.78V23.482H103.645V19.326H106.647V23.482H110.999V25.9951H106.647V32.3647C106.647 34.5396 107.352 35.3124 109.085 35.3124C109.876 35.3124 110.329 35.2454 110.999 35.1354V37.6213C110.164 37.8538 109.368 37.9606 108.506 37.9606C105.265 37.9606 103.645 36.214 103.645 32.7176V25.9951ZM123.641 28.4391C123.038 26.9375 121.693 25.8318 119.716 25.8318C117.147 25.8318 115.502 27.6297 115.502 30.5585C115.502 33.414 117.016 35.2988 119.593 35.2988C121.619 35.2988 123.064 34.1365 123.641 32.6904V28.4391ZM126.643 37.6485H123.696V35.6653C122.872 36.8328 121.373 37.9878 118.945 37.9878C115.04 37.9878 112.431 34.7637 112.431 30.5585C112.431 26.3134 115.103 23.1417 119.111 23.1417C121.092 23.1417 122.646 23.9229 123.696 25.3019V23.482H126.643V37.6485Z" fill="white"/>
</svg>
