<svg width="151" height="56" viewBox="0 0 151 56" fill="none" xmlns="http://www.w3.org/2000/svg">
<path d="M29.6437 12.8828H16.75V43.6828L29.6437 12.8828Z" fill="white"/>
<path d="M38.7188 12.8828H51.5956V43.6828L38.7188 12.8828Z" fill="white"/>
<path d="M34.1831 24.2344L42.3897 43.6826H37.0055L34.5527 37.4907H28.5469L34.1831 24.2344Z" fill="white"/>
<path d="M72.6257 32.4714L74.1461 36.8259C74.1965 36.9349 74.2721 36.9853 74.4065 36.9853H77.3296C77.4892 36.9853 77.5144 36.9098 77.4892 36.7503L71.4498 19.9953C71.4246 19.8611 71.3994 19.8359 71.265 19.8359H67.6363C67.5355 19.8359 67.4767 19.9114 67.4767 20.0205C67.4263 20.9015 67.3507 21.17 67.2415 21.4301L61.8572 36.7252C61.832 36.9098 61.8908 36.9853 62.042 36.9853H64.6543C64.8139 36.9853 64.8895 36.9349 64.9483 36.7755L66.3847 32.4714H72.6257ZM67.2163 29.6272C68.0058 27.2444 69.0474 24.1904 69.4674 22.4453H69.4926C70.0134 24.2743 71.2398 27.8988 71.7942 29.6272H67.2163Z" fill="white"/>
<path d="M85.2565 37.2426C86.8273 37.2426 88.4989 36.9573 90.1956 36.2274C90.33 36.177 90.3552 36.1183 90.3552 35.9924C90.3048 35.5226 90.246 34.843 90.246 34.3228V18.5495C90.246 18.4488 90.246 18.3984 90.12 18.3984H87.2725C87.1633 18.3984 87.1129 18.4488 87.1129 18.583V23.9275C86.6677 23.8772 86.3569 23.852 85.9873 23.852C81.3926 23.852 78.5703 26.8808 78.5703 30.6647C78.5703 35.0528 81.4682 37.2426 85.2565 37.2426ZM87.1129 34.3228C86.6425 34.4738 86.1217 34.5326 85.5925 34.5326C83.5094 34.5326 81.8042 33.358 81.8042 30.5053C81.8042 27.9799 83.5598 26.4865 85.8865 26.4865C86.3569 26.4865 86.7685 26.5368 87.1129 26.6711V34.3228Z" fill="white"/>
<path d="M99.4362 23.8516C95.5135 23.8516 93.0859 26.8552 93.0859 30.5636C93.0859 33.8777 95.0179 37.2421 99.3774 37.2421C103.065 37.2421 105.652 34.5321 105.652 30.4797C105.652 26.9056 103.46 23.8516 99.4362 23.8516ZM99.2766 26.486C101.494 26.486 102.435 28.3906 102.435 30.5636C102.435 33.2485 101.049 34.5825 99.4362 34.5825C97.4454 34.5825 96.2695 32.9129 96.2695 30.5049C96.2695 28.0298 97.521 26.486 99.2766 26.486Z" fill="white"/>
<path d="M108.599 18.3984C108.49 18.3984 108.414 18.4488 108.414 18.583V36.4371C108.414 36.5126 108.49 36.6469 108.599 36.672C109.85 37.058 111.161 37.2426 112.513 37.2426C116.385 37.2426 120.149 34.843 120.149 30.0103C120.149 26.5116 117.746 23.852 113.983 23.852C113.118 23.852 112.312 23.9862 111.606 24.2212L111.572 18.6082C111.572 18.4236 111.522 18.3984 111.337 18.3984H108.599ZM116.931 30.3291C116.931 33.2237 114.949 34.5829 112.807 34.5829C112.362 34.5829 111.967 34.5577 111.606 34.4487V26.8305C112.018 26.6711 112.513 26.5368 113.429 26.5368C115.495 26.5368 116.931 27.8457 116.931 30.3291Z" fill="white"/>
<path d="M130.773 31.2684C132.05 31.2684 133.1 31.2432 133.461 31.1593C133.596 31.1342 133.646 31.0838 133.671 30.9747C133.747 30.6895 133.781 30.0938 133.781 29.3639C133.781 26.8804 132.285 23.8516 128.421 23.8516C124.474 23.8516 122.281 27.065 122.281 30.6895C122.281 33.9029 123.978 37.2421 128.732 37.2421C130.513 37.2421 131.664 36.9569 132.655 36.487C132.756 36.4367 132.806 36.3528 132.806 36.2018V34.0287C132.806 33.9029 132.731 33.8777 132.655 33.9281C131.664 34.3476 130.589 34.5573 129.413 34.5573C126.75 34.5573 125.54 33.089 125.465 31.2684H130.773ZM125.465 29.0199C125.675 27.7446 126.481 26.3602 128.287 26.3602C130.278 26.3602 130.799 28.0298 130.799 28.7849C130.799 28.8101 130.799 28.9192 130.799 28.9947C130.689 29.0199 130.353 29.0199 129.362 29.0199H125.465Z" fill="white"/>
</svg>
