<svg width="150" height="56" viewBox="0 0 150 56" fill="none" xmlns="http://www.w3.org/2000/svg">
<path d="M65.2342 30.9453C65.2349 31.0236 65.2521 31.1009 65.2847 31.1722C65.3174 31.2434 65.3647 31.307 65.4237 31.3588C65.477 31.4159 65.5411 31.4619 65.6123 31.4943C65.6835 31.5267 65.7605 31.5448 65.8387 31.5475H67.2461V34.3611H64.5396C64.2816 34.3486 64.0293 34.2812 63.7998 34.1633C63.2549 33.862 62.8311 33.3826 62.5999 32.806C62.4877 32.4921 62.4417 32.1586 62.4645 31.8262V22.9273C62.4645 22.8566 62.4501 22.7868 62.4222 22.7219C62.3943 22.657 62.3534 22.5984 62.3021 22.5497C62.2601 22.4932 62.2058 22.4469 62.1433 22.4143C62.0809 22.3816 62.0118 22.3634 61.9413 22.361H61.0391V19.9609H63.3667C63.6242 19.9606 63.8781 20.0222 64.1065 20.1407C64.3255 20.2571 64.5212 20.4125 64.6839 20.5991C64.8286 20.7827 64.9471 20.9854 65.0358 21.2014C65.1068 21.3946 65.1464 21.598 65.153 21.8037L65.2342 30.9453ZM77.3867 31.2329C77.1067 32.3468 76.4095 33.3117 75.438 33.9296C75.0167 34.1909 74.5571 34.385 74.0757 34.5049C73.6169 34.6109 73.1482 34.6682 72.6773 34.6757C71.9666 34.6724 71.2607 34.5602 70.5842 34.3431C69.9487 34.1663 69.3684 33.8323 68.8971 33.3723C68.3865 32.8665 67.9978 32.2518 67.7604 31.5745C67.4001 30.4121 67.2804 29.1889 67.4085 27.979C67.4471 27.5981 67.5226 27.2218 67.6341 26.8554C67.7665 26.4327 67.9449 26.0258 68.1663 25.6419C68.3982 25.2251 68.7038 24.8535 69.0685 24.5452C69.491 24.1973 69.9701 23.9237 70.485 23.7363C71.1293 23.5175 71.8073 23.4141 72.4878 23.4306C73.0515 23.434 73.6125 23.5095 74.1569 23.6554C74.7631 23.8199 75.3203 24.1283 75.7808 24.5542C76.3236 25.0549 76.7487 25.6688 77.0258 26.352C77.3812 27.2933 77.5467 28.2952 77.513 29.3003V29.7947H70.1692C70.1815 30.0423 70.2116 30.2886 70.2594 30.5318C70.3159 30.8489 70.429 31.1533 70.5932 31.4307C70.7751 31.7334 71.0292 31.9866 71.333 32.1678C71.7496 32.3751 72.212 32.474 72.6773 32.4554C73.0657 32.4548 73.4475 32.3558 73.787 32.1678C73.9603 32.0758 74.1119 31.948 74.2317 31.793C74.3515 31.638 74.4367 31.4593 74.4817 31.2689L77.3867 31.2329ZM74.617 27.961C74.5892 27.5895 74.4913 27.2266 74.3283 26.8913C74.2018 26.6282 74.0239 26.3929 73.805 26.1992C73.6144 26.0242 73.386 25.895 73.1374 25.8217C72.8975 25.7495 72.6482 25.7131 72.3976 25.7138C72.1138 25.6934 71.829 25.736 71.5638 25.8386C71.2986 25.9412 71.0595 26.1012 70.8639 26.3071C70.4733 26.7745 70.2426 27.3539 70.2053 27.961H74.617ZM78.9746 26.7026C78.9668 26.5508 78.9098 26.4057 78.8122 26.2891C78.7666 26.2314 78.7092 26.1839 78.6439 26.1499C78.5786 26.1158 78.5068 26.0958 78.4332 26.0913H77.8017V23.6913H80.4181C80.5814 23.6902 80.7415 23.7371 80.8782 23.8261C81.0326 23.9078 81.1703 24.0175 81.2842 24.1497C81.4016 24.2817 81.4988 24.4301 81.5729 24.5902C81.6425 24.7399 81.6823 24.9017 81.6901 25.0666V25.4262C81.7985 25.2243 81.919 25.0292 82.051 24.8419C82.2327 24.592 82.4449 24.3655 82.6826 24.1677C83.3277 23.6658 84.1289 23.405 84.947 23.4306C85.4501 23.4225 85.9508 23.5016 86.4266 23.6643C86.865 23.8055 87.268 24.0384 87.6085 24.3475C87.9419 24.6598 88.2089 25.0358 88.3934 25.4531C88.6007 25.9416 88.6992 26.4691 88.6821 26.9992V31.3768C88.6897 31.5231 88.747 31.6626 88.8445 31.7723C88.8865 31.8323 88.9416 31.882 89.0057 31.9178C89.0697 31.9536 89.1411 31.9746 89.2144 31.979H89.891V34.3611H87.6175C87.3842 34.3548 87.1568 34.2866 86.9589 34.1633C86.7523 34.0368 86.5691 33.8756 86.4176 33.6869C86.2516 33.4902 86.1177 33.2688 86.0206 33.0307C85.9206 32.7977 85.8685 32.5471 85.8673 32.2936V27.2149C85.8481 26.9779 85.7773 26.7478 85.6598 26.5408C85.5257 26.3139 85.3324 26.1275 85.1004 26.0014C84.7967 25.8456 84.4585 25.7684 84.117 25.7767C83.824 25.7676 83.5322 25.8179 83.2592 25.9245C82.9863 26.0311 82.7379 26.1918 82.5292 26.3969C82.0904 26.8906 81.8637 27.5362 81.8976 28.1947V32.3386C81.8962 32.5775 81.8439 32.8134 81.7443 33.0307C81.6415 33.2603 81.5079 33.475 81.3473 33.6689C81.1805 33.8588 80.9859 34.0225 80.7699 34.1543C80.5761 34.2707 80.3555 34.3356 80.1294 34.3431H77.8739V31.952H78.5325C78.605 31.9515 78.6765 31.9351 78.742 31.904C78.8074 31.873 78.8653 31.828 78.9114 31.7723C79.0149 31.6692 79.0761 31.5314 79.0828 31.3857L78.9746 26.7026Z" fill="white"/>
<path d="M96.8041 27.3419V26.6408C96.8075 26.485 96.7702 26.331 96.6959 26.1939C96.6215 26.0568 96.5127 25.9413 96.38 25.8588C95.9567 25.6061 95.4642 25.4929 94.9726 25.5352C94.6689 25.5302 94.3658 25.5634 94.0704 25.6341C93.8846 25.6848 93.7101 25.7702 93.5562 25.8858C93.4406 25.9651 93.3573 26.0831 93.3216 26.2183C93.3034 26.3375 93.3034 26.4587 93.3216 26.5779C93.325 26.7219 93.3739 26.8611 93.4614 26.9757C93.5488 27.0903 93.6704 27.1745 93.8088 27.2161C94.207 27.3853 94.621 27.5148 95.0448 27.6026L96.6687 27.9352C97.2309 28.0365 97.777 28.2118 98.2927 28.4566C98.7687 28.6619 99.1937 28.9687 99.5377 29.3554C99.8791 29.8038 100.052 30.3574 100.025 30.9195C100.052 31.5827 99.8821 32.2391 99.5377 32.8072C99.2252 33.2721 98.8041 33.6545 98.3107 33.9218C97.8324 34.1819 97.3142 34.3611 96.777 34.4521C96.3037 34.54 95.8239 34.5881 95.3425 34.5959C94.7655 34.5961 94.1893 34.551 93.6193 34.4611C93.0565 34.3888 92.5067 34.2375 91.9864 34.0117C91.5176 33.8074 91.1012 33.5001 90.7684 33.1128C90.443 32.719 90.2729 32.2204 90.2903 31.7105V30.7487H93.2855V31.7375C93.2855 32.0251 93.493 32.2229 93.899 32.3397C94.397 32.4669 94.9097 32.5274 95.4237 32.5195C95.7287 32.5264 96.0329 32.487 96.3259 32.4027C96.5216 32.3427 96.7049 32.2484 96.8672 32.124C96.982 32.0282 97.0743 31.9085 97.1379 31.7734C97.1913 31.6642 97.2191 31.5444 97.2191 31.4229C97.2146 31.2737 97.1648 31.1293 97.0762 31.0089C96.9876 30.8885 96.8644 30.7978 96.7229 30.7487C96.3293 30.5756 95.9178 30.4459 95.4959 30.3622L93.899 30.0296C93.3506 29.9134 92.8156 29.7417 92.3022 29.5172C91.829 29.3116 91.407 29.0047 91.0662 28.6184C90.6702 28.1569 90.4668 27.5618 90.4978 26.9554C90.5006 26.5402 90.5675 26.1279 90.6963 25.7329C90.84 25.3011 91.0807 24.9076 91.4 24.5824C91.7824 24.2105 92.2366 23.92 92.7352 23.7284C93.4001 23.4773 94.1087 23.3611 94.8193 23.3869C95.3534 23.387 95.8869 23.423 96.4161 23.4947C96.9517 23.5587 97.473 23.7106 97.9589 23.9442C98.4216 24.1664 98.8238 24.4963 99.1317 24.906C99.453 25.3933 99.6138 25.9683 99.5918 26.5509V27.288L96.8041 27.3419ZM107.576 27.8453L110.048 31.9982H111.275V34.4072H109.471C109.215 34.406 108.963 34.3508 108.731 34.2454C108.494 34.1507 108.274 34.017 108.081 33.8499C107.896 33.6608 107.727 33.4563 107.576 33.2386C107.419 33.0365 107.278 32.8232 107.152 32.6004L105.51 29.7689L104.355 30.9824V32.4566C104.347 32.6813 104.292 32.9018 104.193 33.1038C104.084 33.3233 103.944 33.5261 103.778 33.706C103.613 33.8847 103.422 34.0363 103.21 34.1555C103.017 34.2636 102.799 34.3194 102.578 34.3173H100.359V31.9532H101.017C101.16 31.9493 101.295 31.8915 101.396 31.7914C101.447 31.7458 101.487 31.6903 101.515 31.6285C101.543 31.5666 101.558 31.4997 101.559 31.4319V22.8745C101.558 22.808 101.543 22.7425 101.515 22.6821C101.487 22.6217 101.446 22.5678 101.396 22.5239C101.298 22.4312 101.17 22.3742 101.035 22.3621H100.359V19.9621H102.389C102.646 19.9641 102.899 20.0257 103.128 20.1419C103.359 20.2649 103.572 20.4192 103.76 20.6003C103.947 20.787 104.102 21.0025 104.22 21.2385C104.347 21.463 104.409 21.7181 104.4 21.9756V27.7644L106.367 25.4273L106.872 24.8431C107.036 24.6444 107.214 24.4581 107.405 24.2857C107.589 24.1179 107.796 23.9758 108.018 23.8633C108.236 23.7531 108.477 23.6946 108.722 23.6925H110.526V26.0925H109.317L107.576 27.8453ZM122.282 31.4409C122.282 31.5066 122.296 31.5716 122.322 31.6318C122.349 31.6921 122.387 31.7464 122.435 31.7914C122.472 31.8451 122.522 31.8888 122.581 31.9186C122.639 31.9484 122.704 31.9634 122.769 31.9622H123.509V34.3712H121.109C120.953 34.3621 120.801 34.3256 120.658 34.2634C120.487 34.1969 120.329 34.1028 120.189 33.9847C120.046 33.8659 119.929 33.719 119.846 33.5532C119.749 33.3869 119.699 33.1974 119.702 33.0049V32.7353C119.382 33.3246 118.904 33.8133 118.321 34.1465C117.718 34.4852 117.038 34.6618 116.345 34.6589C115.661 34.6656 114.98 34.553 114.334 34.3263C113.722 34.1102 113.167 33.76 112.71 33.3015C112.23 32.8008 111.864 32.203 111.636 31.5487C111.355 30.7428 111.221 29.8936 111.239 29.0408C111.221 28.1892 111.374 27.3425 111.69 26.5509C111.953 25.9026 112.354 25.3187 112.864 24.8393C113.375 24.3598 113.984 23.9962 114.649 23.7734C115.316 23.5394 116.018 23.4238 116.724 23.4318C117.01 23.4301 117.294 23.4603 117.572 23.5217C117.862 23.5959 118.146 23.6921 118.42 23.8093C118.681 23.9288 118.928 24.0733 119.16 24.2408C119.371 24.3938 119.562 24.5719 119.729 24.7711V23.8003H122.3L122.282 31.4409ZM119.305 29.0139C119.305 28.6546 119.269 28.2962 119.196 27.9442C119.142 27.5733 119.016 27.2164 118.826 26.8925C118.638 26.5609 118.368 26.2825 118.042 26.0835C117.632 25.8752 117.179 25.7666 116.72 25.7666C116.26 25.7666 115.807 25.8752 115.398 26.0835C115.073 26.2805 114.805 26.5595 114.622 26.8925C114.441 27.2199 114.316 27.5754 114.252 27.9442C114.189 28.2975 114.153 28.6551 114.144 29.0139C114.153 29.3816 114.189 29.7481 114.252 30.1105C114.317 30.4789 114.442 30.8342 114.622 31.1622C114.805 31.4901 115.073 31.7632 115.398 31.9532C115.809 32.1574 116.261 32.2637 116.72 32.2637C117.179 32.2637 117.631 32.1574 118.042 31.9532C118.369 31.7635 118.64 31.4905 118.826 31.1622C119.011 30.836 119.136 30.48 119.196 30.1105C119.269 29.7494 119.305 29.3821 119.305 29.0139ZM124.628 26.6408C124.622 26.4994 124.564 26.3649 124.465 26.2633C124.367 26.1627 124.235 26.1019 124.095 26.0925H123.41V23.6925H125.557C125.761 23.6949 125.963 23.7345 126.152 23.8093C126.355 23.8904 126.544 24.0027 126.712 24.1419C126.88 24.2754 127.021 24.4402 127.127 24.6273C127.234 24.7899 127.291 24.9808 127.289 25.1756V25.5352L127.758 24.7532C127.918 24.5004 128.116 24.2731 128.345 24.079C128.575 23.8692 128.84 23.7018 129.129 23.5846C129.483 23.4602 129.856 23.4023 130.23 23.4138H130.771V26.3262C130.642 26.3129 130.512 26.3129 130.383 26.3262H129.968C129.515 26.3062 129.063 26.3828 128.642 26.5509C128.335 26.6853 128.066 26.892 127.857 27.1532C127.67 27.3937 127.541 27.6734 127.478 27.9712C127.406 28.2654 127.37 28.5672 127.37 28.8701V34.3982H124.555L124.628 26.6408ZM135.255 23.6925H137.006V25.697H135.255V30.9105C135.276 31.0504 135.331 31.1829 135.416 31.296C135.501 31.4091 135.613 31.499 135.742 31.5577C135.949 31.6499 136.175 31.69 136.401 31.6746H136.942V34.4881H135.138C134.767 34.4965 134.399 34.4199 134.063 34.264C133.727 34.1081 133.431 33.8772 133.198 33.5892C132.649 32.8525 132.386 31.9424 132.459 31.0274V25.688H130.952V23.6835H132.431V19.9531H135.255V23.6925Z" fill="white"/>
<path d="M24.3507 34.7195C28.079 34.638 31.0617 32.1131 31.2274 28.2036C31.5588 29.8326 32.3044 31.2986 33.1329 32.5204C30.896 34.2308 28.7418 34.9638 26.5877 34.9638C25.7592 34.9638 25.0963 34.8824 24.3507 34.7195Z" fill="white"/>
<path d="M56 27.8778C56 28.2036 55.7514 28.5294 55.42 28.5294H54.5915V27.9593C54.7572 25.8416 54.2601 24.3756 53.3487 23.0724L55.42 23.6425C55.8343 23.8054 56 23.9683 56 24.5385V27.8778Z" fill="white"/>
<path d="M13 24.6199C13 24.0498 13.0829 23.8054 13.58 23.724L15.7341 23.0724C14.7399 24.457 14.2428 26.3303 14.3256 27.9593V28.5294H13.58C13.2486 28.5294 13 28.2851 13 27.8778V24.6199Z" fill="white"/>
<path d="M20.5395 22.9095C21.6994 21.5249 23.2736 20.7919 25.3449 20.7919C29.1561 20.7919 32.1387 23.0724 33.6301 26.819L34.3757 28.7738C36.2813 33.6606 38.684 36.1041 41.5838 37C37.1098 36.3484 33.6301 33.7421 32.1387 29.4253L31.4759 27.4706C30.0674 23.4796 27.8304 21.6063 24.3507 21.6063C22.9422 21.6063 21.5337 22.095 20.5395 22.9095Z" fill="white"/>
<path d="M46.4721 19.4887C50.9461 20.0588 54.0944 23.3982 54.0944 27.3077C54.0944 30.7285 51.4432 33.5792 47.8805 33.8235C50.2832 32.3575 51.1946 30.4027 51.1946 27.7964C51.1946 23.9683 49.3719 20.629 46.4721 19.4887Z" fill="white"/>
<path d="M39.0154 19.2443C37.2755 19.8959 35.8671 20.9548 34.5414 22.3394C32.8015 20.629 31.7245 19.9774 29.736 19.3258L39.0154 19.2443Z" fill="white"/>
<path d="M34.8728 22.7466C37.1927 20.3032 40.1753 19 42.7437 19C45.975 19 49.1233 21.0362 50.2004 24.7014C48.7091 22.2579 46.2235 21.5249 44.4836 21.5249C40.921 21.5249 37.7726 24.457 37.7726 28.1222C36.9441 25.4344 35.7842 23.5611 34.8728 22.7466Z" fill="white"/>
<path d="M14.9055 27.9593C14.9055 22.6652 19.048 19 25.0962 19C30.6473 19 34.9556 21.9321 36.8612 26.9819L37.4411 28.5294C39.0153 32.7647 41.5837 34.7195 45.312 34.7195C48.129 34.7195 51.3602 33.8235 53.0172 31.8688C51.6087 35.0452 48.4604 36.8371 44.6492 36.8371C40.2581 36.8371 37.1097 33.9864 35.2041 29.0995L34.3756 26.9005C32.5529 22.6652 29.4874 20.2217 25.4276 20.2217C20.8708 20.2217 17.7224 23.3982 17.7224 27.8778C17.7224 32.4389 21.1193 35.5339 26.2561 35.5339C27.9132 35.5339 29.4045 35.2081 30.813 34.5566C29.156 36.1041 26.8361 36.9186 24.2677 36.9186C18.8823 36.9186 14.9055 33.0905 14.9055 27.9593Z" fill="white"/>
</svg>
