<svg width="151" height="56" viewBox="0 0 151 56" fill="none" xmlns="http://www.w3.org/2000/svg">
<mask id="mask0_2858_1392" style="mask-type:luminance" maskUnits="userSpaceOnUse" x="12" y="9" width="128" height="37">
<path d="M12 46H139.351V9.99152H12V46Z" fill="white"/>
</mask>
<g mask="url(#mask0_2858_1392)">
<path d="M73.3147 38.1641H69.3651C69.3474 38.1641 69.3368 38.1605 69.3262 38.1481L65.9231 33.9916L62.5164 38.1481C62.5094 38.1605 62.497 38.1641 62.4793 38.1641H59.3167C59.2973 38.1641 59.2831 38.1552 59.269 38.134C59.2637 38.1216 59.2637 38.0986 59.2761 38.0845L64.2887 31.9274L59.3344 25.8287C59.3203 25.8075 59.3203 25.7898 59.3256 25.7703C59.3344 25.7597 59.3539 25.742 59.3698 25.742H63.3212C63.3336 25.742 63.3478 25.7491 63.3584 25.7668L66.344 29.4671L69.3828 25.765C69.3916 25.7491 69.4058 25.742 69.4199 25.742H72.6408C72.6603 25.742 72.6798 25.7597 72.6868 25.7703C72.6957 25.7898 72.6921 25.811 72.6798 25.8287L67.9766 31.4764L73.3483 38.0845C73.3625 38.0986 73.3678 38.1216 73.3572 38.134C73.3483 38.1552 73.3307 38.1641 73.3147 38.1641Z" fill="white"/>
<path d="M94.6908 27.9336C92.9415 27.9336 91.7476 28.9948 91.4062 30.8396H97.3563V30.7211C97.3563 29.2442 96.2685 27.9336 94.6908 27.9336ZM100.425 32.7322C100.416 32.7464 100.399 32.7552 100.383 32.7552H91.3425C91.53 34.86 92.8973 36.0593 95.11 36.0593C96.4719 36.0593 97.9188 35.5941 99.9635 34.5063C100.001 34.4851 100.038 34.5169 100.038 34.5558L100.034 37.3363C100.031 37.3593 100.02 37.3735 100.004 37.3788C98.1027 38.18 96.1925 38.7266 94.6908 38.7266C90.7977 38.7266 87.9766 35.8895 87.9766 31.9823C87.9766 28.0751 90.7977 25.238 94.6908 25.238C98.2425 25.238 100.524 27.6311 100.524 30.9228C100.524 31.4552 100.432 32.6933 100.425 32.7322Z" fill="white"/>
<path d="M118.792 23.1773C117.683 23.1773 116.781 22.2894 116.781 21.1963C116.781 20.0714 117.683 19.1605 118.792 19.1605C119.901 19.1605 120.805 20.0714 120.805 21.1963C120.805 22.2894 119.901 23.1773 118.792 23.1773ZM117.169 38.1641C117.137 38.1641 117.117 38.1446 117.117 38.1128V25.7933C117.117 25.7686 117.135 25.7491 117.156 25.7438H120.421C120.448 25.7491 120.462 25.7686 120.462 25.7933V38.1128C120.462 38.1446 120.441 38.1641 120.414 38.1641H117.169Z" fill="white"/>
<path d="M79.2902 36.3125C78.7012 36.3125 78.0981 36.2294 77.4047 36.0436L77.4118 28.1408C78.2237 27.8826 78.9294 27.7605 79.6281 27.7605C81.8921 27.7605 83.4114 29.4302 83.4114 31.91C83.4114 34.5844 81.793 36.3125 79.2902 36.3125ZM80.1781 25.2418C79.2566 25.2418 78.3262 25.4098 77.3499 25.7459H74.1007C74.0741 25.7459 74.0547 25.7689 74.0547 25.7972V46C75.0364 45.8656 76.2391 45.5154 77.4065 44.684L77.4047 38.5394C78.206 38.6526 78.8675 38.7286 79.506 38.7286C83.9562 38.7286 86.8358 36.0613 86.8358 31.9313C86.8358 27.994 84.096 25.2418 80.1781 25.2418Z" fill="white"/>
<path d="M111.218 35.2896C110.201 35.8237 109.291 36.0767 108.437 36.0767C106.422 36.0767 105.214 34.6528 105.214 32.2685C105.214 29.5093 106.757 27.7246 109.141 27.7246C109.799 27.7246 110.439 27.8855 111.218 28.2375V35.2896ZM111.218 19.2239V25.6728C110.264 25.4004 109.424 25.2748 108.577 25.2748C104.705 25.2748 101.781 28.1933 101.781 32.0704C101.781 35.9299 104.36 38.728 107.908 38.728C109.138 38.728 110.287 38.4203 111.64 37.7234L111.639 38.8359C112.532 38.6661 113.558 38.3088 114.569 37.5925V17.9044C113.575 18.0371 112.397 18.3696 111.218 19.2239Z" fill="white"/>
<path d="M131.771 35.2648C130.788 35.8326 129.944 36.105 129.191 36.105C127.033 36.105 125.74 34.6864 125.74 32.2933C125.74 29.5747 127.263 27.7511 129.527 27.7511C130.133 27.7511 130.869 27.9828 131.771 28.4604V35.2648ZM135.127 25.5967C135.127 25.5207 135.061 25.4606 134.987 25.4606L132.348 25.4641C132.27 25.4641 132.205 25.5313 132.205 25.6056V26.0549H132.137C130.919 25.5207 129.88 25.2748 128.856 25.2748C125.206 25.2748 122.344 28.3012 122.344 32.1801C122.344 36.1014 124.905 38.7298 128.717 38.7298C129.737 38.7298 131.044 38.6591 132.268 37.2511V38.8359C133.133 38.652 134.154 38.2841 135.123 37.5872L135.127 25.5967Z" fill="white"/>
<path d="M50.2806 35.0864L58.477 35.0829C58.3532 35.9991 58.0437 37.071 57.3327 38.1641H50.3001H48.8992H48.8055C47.7619 38.1641 46.904 37.3557 46.8014 36.3334C46.7961 36.3175 46.7908 36.3033 46.7891 36.2892V27.8946V20.1245C46.7908 20.1121 46.7961 20.0944 46.8014 20.0838C46.904 19.0597 47.7619 18.2478 48.8055 18.2478C48.8391 18.2478 48.8709 18.2513 48.8992 18.2513L58.4594 18.2496C58.3338 19.164 58.0242 20.2642 57.315 21.3537H50.2806V25.7544H57.2442C57.2725 25.7544 57.2937 25.7739 57.2937 25.8022V28.8551C57.2937 28.8798 57.2725 28.9028 57.2442 28.9028H50.2806V35.0829V35.0864Z" fill="white"/>
<path d="M40.0232 38.4164C39.2131 38.4164 38.7125 37.7832 38.7125 37.0085C38.7125 36.1789 39.2856 35.6006 40.0232 35.6006C40.7537 35.6006 41.325 36.1789 41.325 37.0085C41.325 37.8398 40.7537 38.4164 40.0232 38.4164ZM40.0232 35.4414C39.1936 35.4414 38.4844 36.0657 38.4844 37.0085C38.4844 37.9 39.1247 38.5703 40.0232 38.5703C40.8421 38.5703 41.5549 37.9495 41.5549 37.0085C41.5549 36.0657 40.8421 35.4414 40.0232 35.4414Z" fill="white"/>
<path d="M39.658 36.8851V36.3138H40.0436C40.2382 36.3138 40.4681 36.3438 40.4681 36.5809C40.4681 36.8621 40.2558 36.8851 40.0135 36.8851H39.658ZM40.7529 36.618C40.7529 36.2448 40.5229 36.0856 40.0772 36.0856H39.375V37.9375H39.681V37.1451H39.964L40.4433 37.9375H40.7882L40.2682 37.1239C40.5495 37.0903 40.7529 36.9541 40.7529 36.618Z" fill="white"/>
<path d="M137.82 27.7992C137.01 27.7992 136.506 27.166 136.506 26.3913C136.506 25.5618 137.081 24.9834 137.82 24.9834C138.549 24.9834 139.122 25.5618 139.122 26.3913C139.122 27.2226 138.549 27.7992 137.82 27.7992ZM137.82 24.8242C136.991 24.8242 136.281 25.4486 136.281 26.3913C136.281 27.2828 136.92 27.9531 137.82 27.9531C138.637 27.9531 139.348 27.3305 139.348 26.3913C139.348 25.4486 138.637 24.8242 137.82 24.8242Z" fill="white"/>
<path d="M137.455 26.2601V25.6905H137.84C138.035 25.6905 138.265 25.7188 138.265 25.9559C138.265 26.2389 138.051 26.2601 137.812 26.2601H137.455ZM138.55 25.993C138.55 25.6198 138.32 25.4606 137.874 25.4606H137.172V27.3125H137.474V26.5219H137.761L138.24 27.3125H138.583L138.065 26.4989C138.345 26.467 138.55 26.3291 138.55 25.993Z" fill="white"/>
<path d="M29.45 21.336L28.8557 19.6539L23.8147 12.9167L24.7203 12.692L33.412 20.2057L38.5273 18.743C39.1287 18.5873 39.8114 18.5537 40.3314 18.5573C38.7236 15.0905 35.7822 12.2445 31.898 10.8614C24.2198 8.12509 15.7775 12.1366 13.0465 19.8184C12.201 22.1938 11.9994 24.6453 12.3549 26.9766L24.6089 22.7192L29.45 21.336Z" fill="white"/>
<path d="M40.872 19.8838C40.4227 20.1757 39.763 20.5577 39.1085 20.7682L33.9827 22.231L30.5619 33.2114L29.674 33.4997L30.3956 25.114L29.9923 23.3718L25.1884 24.7426L12.4922 27.7318C13.4968 32.6189 16.9565 36.8745 21.9993 38.6716C29.6793 41.4079 38.118 37.3946 40.849 29.7181C42.027 26.4088 41.9509 22.9562 40.872 19.8838Z" fill="white"/>
<path d="M29.9939 23.3738L30.399 25.1143L29.6756 33.5L30.5635 33.2117L33.9843 22.233L39.1101 20.7702C39.7646 20.5597 40.4243 20.1741 40.8736 19.8858C40.7162 19.4348 40.5358 18.9908 40.3359 18.5575C39.8159 18.554 39.1331 18.5893 38.5318 18.7414L33.4165 20.2077L24.723 12.6905L23.8192 12.9169L28.8584 19.6541L29.4545 21.3344L24.6116 22.7212L12.3594 26.975C12.3983 27.2297 12.4425 27.4827 12.4938 27.7338L25.1917 24.7446L29.9939 23.3738Z" fill="#FBC108"/>
</g>
</svg>
