<svg width="151" height="56" viewBox="0 0 151 56" fill="none" xmlns="http://www.w3.org/2000/svg">
<path d="M78.3345 20.2913C78.3345 21.4805 77.3742 22.4384 76.1821 22.4384C74.99 22.4384 74.0297 21.4805 74.0297 20.2913C74.0297 19.1021 74.9569 18.1441 76.1821 18.1441C77.4073 18.1772 78.3345 19.1351 78.3345 20.2913ZM69.46 24.6186C69.46 24.8168 69.46 25.1471 69.46 25.1471C69.46 25.1471 68.4334 23.8258 66.2479 23.8258C62.6385 23.8258 59.8239 26.5676 59.8239 30.3664C59.8239 34.1321 62.6054 36.9069 66.2479 36.9069C68.4666 36.9069 69.46 35.5526 69.46 35.5526V36.1141C69.46 36.3784 69.6587 36.5766 69.9236 36.5766H72.6058V24.1562C72.6058 24.1562 70.1554 24.1562 69.9236 24.1562C69.6587 24.1562 69.46 24.3874 69.46 24.6186ZM69.46 32.5796C68.9633 33.3063 67.9699 33.9339 66.7778 33.9339C64.6585 33.9339 63.0359 32.6126 63.0359 30.3664C63.0359 28.1201 64.6585 26.7988 66.7778 26.7988C67.9367 26.7988 68.9964 27.4595 69.46 28.1532V32.5796ZM74.5926 24.1562H77.7715V36.5766H74.5926V24.1562ZM122.078 23.8258C119.892 23.8258 118.866 25.1471 118.866 25.1471V18.1772H115.687V36.5766C115.687 36.5766 118.137 36.5766 118.369 36.5766C118.634 36.5766 118.833 36.3453 118.833 36.1141V35.5526C118.833 35.5526 119.859 36.9069 122.045 36.9069C125.654 36.9069 128.469 34.1321 128.469 30.3664C128.469 26.6006 125.654 23.8258 122.078 23.8258ZM121.548 33.9009C120.323 33.9009 119.362 33.2733 118.866 32.5465V28.1201C119.362 27.4595 120.422 26.7658 121.548 26.7658C123.667 26.7658 125.29 28.0871 125.29 30.3333C125.29 32.5796 123.667 33.9009 121.548 33.9009ZM114.031 29.2102V36.6096H110.852V29.5736C110.852 27.5255 110.19 26.6997 108.402 26.6997C107.441 26.6997 106.448 27.1952 105.819 27.9219V36.5766H102.64V24.1562H105.157C105.422 24.1562 105.62 24.3874 105.62 24.6186V25.1471C106.547 24.1892 107.773 23.8258 108.998 23.8258C110.389 23.8258 111.548 24.2222 112.475 25.015C113.601 25.9399 114.031 27.1291 114.031 29.2102ZM94.9245 23.8258C92.739 23.8258 91.7124 25.1471 91.7124 25.1471V18.1772H88.5335V36.5766C88.5335 36.5766 90.9839 36.5766 91.2157 36.5766C91.4807 36.5766 91.6793 36.3453 91.6793 36.1141V35.5526C91.6793 35.5526 92.7059 36.9069 94.8914 36.9069C98.5008 36.9069 101.315 34.1321 101.315 30.3664C101.349 26.6006 98.5339 23.8258 94.9245 23.8258ZM94.3947 33.9009C93.1694 33.9009 92.2092 33.2733 91.7124 32.5465V28.1201C92.2092 27.4595 93.2688 26.7658 94.3947 26.7658C96.5139 26.7658 98.1365 28.0871 98.1365 30.3333C98.1365 32.5796 96.5139 33.9009 94.3947 33.9009ZM85.7851 23.8258C86.7454 23.8258 87.2421 23.991 87.2421 23.991V26.9309C87.2421 26.9309 84.593 26.039 82.9373 27.9219V36.6096H79.7584V24.1562C79.7584 24.1562 82.2088 24.1562 82.4406 24.1562C82.7055 24.1562 82.9042 24.3874 82.9042 24.6186V25.1471C83.5002 24.4535 84.7917 23.8258 85.7851 23.8258ZM52.7706 35.4535C52.6051 35.0571 52.4395 34.6276 52.2739 34.2643C52.009 33.6697 51.7441 33.1081 51.5123 32.5796L51.4792 32.5465C49.1943 27.5916 46.7439 22.5706 44.161 17.6156L44.0617 17.4174C43.7968 16.9219 43.5319 16.3934 43.267 15.8649C42.9358 15.2703 42.6047 14.6426 42.0749 14.048C41.0152 12.7267 39.492 12 37.8694 12C36.2137 12 34.7236 12.7267 33.6309 13.982C33.1342 14.5766 32.7699 15.2042 32.4388 15.7988C32.1739 16.3273 31.9089 16.8559 31.644 17.3514L31.5447 17.5495C28.9949 22.5045 26.5114 27.5255 24.2265 32.4805L24.1934 32.5465C23.9616 33.0751 23.6967 33.6366 23.4318 34.2312C23.2662 34.5946 23.1007 34.991 22.9351 35.4204C22.5046 36.6426 22.3722 37.7988 22.5377 38.988C22.902 41.4655 24.5577 43.5465 26.8425 44.4715C27.7035 44.8348 28.5976 45 29.5247 45C29.7897 45 30.1208 44.967 30.3857 44.9339C31.4785 44.8018 32.6043 44.4384 33.6971 43.8108C35.0548 43.0511 36.3462 41.961 37.8032 40.3754C39.2602 41.961 40.5848 43.0511 41.9093 43.8108C43.0021 44.4384 44.1279 44.8018 45.2207 44.9339C45.4856 44.967 45.8167 45 46.0816 45C47.0088 45 47.936 44.8348 48.7639 44.4715C51.0818 43.5465 52.7044 41.4324 53.0687 38.988C53.3336 37.8318 53.2011 36.6757 52.7706 35.4535ZM37.8363 37.1712C36.0482 34.9249 34.8892 32.8108 34.4918 31.027C34.3262 30.2673 34.2931 29.6066 34.3925 29.012C34.4587 28.4835 34.6574 28.021 34.9223 27.6246C35.5515 26.7327 36.6111 26.1712 37.8363 26.1712C39.0615 26.1712 40.1543 26.6997 40.7503 27.6246C41.0152 28.021 41.2139 28.4835 41.2801 29.012C41.3795 29.6066 41.3464 30.3003 41.1808 31.027C40.7834 32.7778 39.6245 34.8919 37.8363 37.1712ZM51.0487 38.7237C50.8169 40.4414 49.6579 41.9279 48.0354 42.5886C47.2406 42.9189 46.3797 43.018 45.5187 42.9189C44.6909 42.8198 43.863 42.5556 43.0021 42.0601C41.81 41.3994 40.6179 40.3754 39.2271 38.8559C41.4126 36.1802 42.7372 33.7357 43.2339 31.5556C43.4657 30.5315 43.4988 29.6066 43.3994 28.7477C43.267 27.9219 42.9689 27.1622 42.5054 26.5015C41.4788 25.015 39.7569 24.1562 37.8363 24.1562C35.9157 24.1562 34.1938 25.048 33.1673 26.5015C32.7037 27.1622 32.4056 27.9219 32.2732 28.7477C32.1407 29.6066 32.1739 30.5646 32.4388 31.5556C32.9355 33.7357 34.2931 36.2132 36.4455 38.8889C35.0879 40.4084 33.8627 41.4324 32.6706 42.0931C31.8096 42.5886 30.9818 42.8528 30.1539 42.952C29.2598 43.051 28.3989 42.9189 27.6373 42.6216C26.0147 41.961 24.8557 40.4745 24.6239 38.7568C24.5246 37.9309 24.5908 37.1051 24.9219 36.1802C25.0213 35.8498 25.1868 35.5195 25.3524 35.1231C25.5842 34.5946 25.8491 34.033 26.114 33.4715L26.1471 33.4054C28.432 28.4835 30.8824 23.4625 33.4322 18.5736L33.5315 18.3754C33.7964 17.8799 34.0613 17.3514 34.3262 16.8559C34.5912 16.3273 34.8892 15.8318 35.2534 15.4024C35.9488 14.6096 36.876 14.1802 37.9025 14.1802C38.9291 14.1802 39.8562 14.6096 40.5516 15.4024C40.9159 15.8318 41.2139 16.3273 41.4788 16.8559C41.7437 17.3514 42.0086 17.8799 42.2736 18.3754L42.3729 18.5736C44.8895 23.4955 47.34 28.5165 49.6248 33.4384V33.4715C49.8897 34 50.1215 34.5946 50.3864 35.1231C50.552 35.5195 50.7176 35.8498 50.8169 36.1802C51.0818 37.039 51.1812 37.8649 51.0487 38.7237Z" fill="white"/>
</svg>
