<svg width="78" height="50" viewBox="0 0 78 50" fill="none" xmlns="http://www.w3.org/2000/svg">
<rect x="-1.12136" y="18.3436" width="74.3144" height="34" rx="17" transform="rotate(-15 -1.12136 18.3436)" fill="#194CFF"/>
<rect x="-1.12136" y="18.3436" width="74.3144" height="34" rx="17" transform="rotate(-15 -1.12136 18.3436)" stroke="white" stroke-width="4"/>
<path d="M23.2595 35.9165C22.3515 36.1598 21.5539 36.0422 20.9425 35.4606C20.4514 36.2548 19.8015 36.8431 18.7969 37.1123C15.7832 37.9198 15.3007 35.1917 15.1227 31.823L15.0045 28.8316L17.0523 28.283L17.1397 30.3094C17.2873 33.0237 17.5676 35.8473 18.9006 35.4901C19.8472 35.2365 19.9447 33.8231 19.8248 31.5983C19.7668 30.4544 19.6569 29.1172 19.583 27.6048L21.6307 27.0561L21.712 29.2913C21.8554 31.7582 22.1706 34.6347 23.4263 34.2982C24.1797 34.0963 24.4995 33.2031 24.5539 32.4017C23.7597 31.9105 23.2828 30.6718 23.2234 29.4454C23.1456 27.9961 23.6399 26.5178 24.8376 26.1969C25.8035 25.9381 26.4401 27.1547 26.5587 29.2971C26.5994 29.9901 26.5695 30.8057 26.4919 31.6754C26.6813 31.6867 26.9042 31.6684 27.1167 31.6115C27.8508 31.4148 28.569 30.8497 28.5489 30.2339L29.3024 30.032L29.3348 30.2304C29.3811 31.2532 28.112 32.2351 26.9722 32.5406C26.7018 32.613 26.4596 32.6365 26.2316 32.6355C25.6256 34.3922 24.8629 35.4869 23.2595 35.9165ZM24.5407 31.0387L24.3489 28.005C24.3358 27.8014 24.3151 27.7241 24.2765 27.7345C24.1799 27.7604 24.0557 28.4562 24.0889 29.2756C24.1231 29.8668 24.236 30.5199 24.5407 31.0387ZM29.2958 24.319C29.0061 24.3967 28.7625 24.3377 28.551 24.1666C28.3589 23.9903 28.2477 23.7302 28.2177 23.3863C28.2122 23.0565 28.2749 22.7498 28.4691 22.47C28.644 22.1954 28.8834 22.007 29.1539 21.9345C29.4243 21.862 29.6679 21.921 29.8794 22.0921C30.0715 22.2684 30.202 22.5233 30.2075 22.8531C30.2376 23.197 30.1555 23.5089 29.9613 23.7887C29.7864 24.0633 29.5663 24.2465 29.2958 24.319ZM30.362 25.9797L30.3831 26.3674C30.5043 28.6746 30.6518 30.2295 30.8061 31.037C30.9848 31.8588 31.3833 32.1868 31.9822 32.0264C32.0598 32.3161 32.1323 32.5866 32.2293 32.8712C32.2655 33.0064 32.3069 33.161 32.3432 33.2962C32.0123 33.5298 31.6222 33.6964 31.1585 33.8207C30.4051 34.0226 29.8459 33.9446 29.4615 33.5921C29.0965 33.2344 28.8343 32.6421 28.6748 31.8152C28.5347 30.9831 28.4253 29.9564 28.371 28.7493L28.211 25.293L32.6156 24.1128L32.4179 20.4387L34.5237 19.8745L34.7213 23.5485L35.8804 23.238L35.945 24.4837L34.7859 24.7943L34.8509 26.3505C34.9535 28.1244 35.0761 29.3546 35.238 30.0359C35.4243 30.7313 35.7686 31.0118 36.3289 30.8617C36.6959 30.7633 36.9636 30.5259 37.0791 30.1844C37.214 29.8377 37.2947 29.4434 37.3019 29.0066C37.3143 28.5892 37.3036 28.2401 37.3032 27.9296L38.1339 27.707L38.1888 28.3756C38.1943 28.7054 38.1909 29.079 38.154 29.4823C38.103 29.9101 38.0082 30.3289 37.8502 30.7439C37.6729 31.1641 37.4028 31.5471 37.0541 31.8683C36.6912 32.214 36.1813 32.4748 35.5438 32.6456C34.8097 32.8423 34.2505 32.7644 33.8713 32.4312C33.4922 32.098 33.2351 31.525 33.1002 30.7122C32.9459 29.9046 32.8468 28.9166 32.7784 27.734L32.6609 25.3637L30.362 25.9797ZM43.8283 30.4051C41.993 30.8969 41.5265 29.6967 41.4567 28.4317C41.3855 27.0842 41.6766 25.9295 41.6161 24.9311C41.5712 23.9907 41.2793 23.365 40.4099 23.5979C39.4827 23.8464 39.2768 25.1646 39.2831 26.1153L39.5589 31.5491L37.4918 32.103L36.8245 19.258L38.8916 18.7041L39.1262 23.1344C39.476 22.5851 40.0359 22.1245 40.8472 21.9071C43.0882 21.3066 43.7714 22.6972 43.874 24.4711C43.9334 25.6975 43.6865 27.1716 43.7377 27.9033C43.7733 28.5771 43.9706 28.7727 44.5115 28.6277C45.6513 28.3223 45.8092 26.7478 45.7563 25.6232L46.587 25.4006L46.5963 25.6673C46.6596 26.8305 46.6874 29.639 43.8283 30.4051Z" fill="white"/>
<g clip-path="url(#clip0_2698_17814)">
<path d="M60.5749 15.9371C59.8633 16.1259 59.1281 15.6823 58.9329 14.9462C58.7376 14.2101 59.1561 13.4604 59.8677 13.2716C60.5793 13.0828 61.3146 13.5264 61.5099 14.2625C61.7051 14.9985 61.2865 15.7483 60.5749 15.9371Z" fill="white"/>
<path d="M52.4655 18.0855C51.7539 18.2743 51.0188 17.8307 50.8235 17.0946C50.6282 16.3586 51.0467 15.6088 51.7583 15.42C52.47 15.2312 53.2052 15.6748 53.4005 16.4109C53.5958 17.147 53.1772 17.8967 52.4655 18.0855Z" fill="white"/>
<path fill-rule="evenodd" clip-rule="evenodd" d="M52.8074 21.8073C54.136 23.5194 56.3545 24.3746 58.5192 23.8003C60.6839 23.226 62.1867 21.3834 62.4918 19.2379C62.5873 18.5634 63.1993 18.1042 63.8563 18.2153C64.5129 18.325 64.9674 18.962 64.8719 19.6365C64.4331 22.7235 62.2689 25.3736 59.1558 26.1996C56.0428 27.0255 52.8494 25.7969 50.938 23.3334C50.5206 22.795 50.5996 22.0164 51.1155 21.5956C51.631 21.1735 52.3901 21.2689 52.8074 21.8073Z" fill="white"/>
</g>
<defs>
<clipPath id="clip0_2698_17814">
<rect width="16.2731" height="16.8342" fill="white" transform="matrix(-0.966559 0.256444 0.256444 0.966559 63.2266 10.0078)"/>
</clipPath>
</defs>
</svg>
