<svg width="20" height="20" viewBox="0 0 20 20" fill="none" xmlns="http://www.w3.org/2000/svg">
<path d="M7.63021 9.05573C7.54687 9.0474 7.44687 9.0474 7.35521 9.05573C5.37187 8.98906 3.79688 7.36406 3.79688 5.36406C3.79687 3.3224 5.44687 1.66406 7.49687 1.66406C9.53854 1.66406 11.1969 3.3224 11.1969 5.36406C11.1885 7.36406 9.61354 8.98906 7.63021 9.05573Z" stroke="#9CA3AF" stroke-width="1.5" stroke-linecap="round" stroke-linejoin="round"/>
<path d="M13.6708 3.33594C15.2875 3.33594 16.5875 4.64427 16.5875 6.2526C16.5875 7.8276 15.3375 9.11094 13.7792 9.16927C13.7125 9.16094 13.6375 9.16094 13.5625 9.16927" stroke="#9CA3AF" stroke-width="1.5" stroke-linecap="round" stroke-linejoin="round"/>
<path d="M3.46563 12.1359C1.44896 13.4859 1.44896 15.6859 3.46563 17.0276C5.75729 18.5609 9.51563 18.5609 11.8073 17.0276C13.824 15.6776 13.824 13.4776 11.8073 12.1359C9.52396 10.6109 5.76562 10.6109 3.46563 12.1359Z" stroke="#9CA3AF" stroke-width="1.5" stroke-linecap="round" stroke-linejoin="round"/>
<path d="M15.2812 16.6641C15.8813 16.5391 16.4479 16.2974 16.9146 15.9391C18.2146 14.9641 18.2146 13.3557 16.9146 12.3807C16.4562 12.0307 15.8979 11.7974 15.3063 11.6641" stroke="#9CA3AF" stroke-width="1.5" stroke-linecap="round" stroke-linejoin="round"/>
</svg>
