<svg width="24" height="25" viewBox="0 0 24 25" fill="none" xmlns="http://www.w3.org/2000/svg">
<path d="M22.9999 6.43961V18.0155C22.9999 18.1782 22.9075 18.3322 22.7623 18.407C22.6963 18.4378 22.6303 18.4554 22.56 18.4554C22.472 18.4554 22.3796 18.4246 22.3048 18.3718L19.3789 16.2555V8.19952L22.3048 6.08322C22.4368 5.98643 22.6128 5.97323 22.7623 6.04803C22.9075 6.11842 22.9999 6.27681 22.9999 6.43961Z" fill="#FDB035"/>
<path d="M9.55319 9.86313H1V14.5929H9.55319V9.86313Z" fill="#FDB035"/>
<path d="M16.3993 6H3.0987C1.94155 6 1 6.94155 1 8.0943V8.97866H9.99317C10.2352 8.97866 10.4331 9.17665 10.4331 9.41864V15.0284C10.4331 15.2704 10.2352 15.4683 9.99317 15.4683H1V16.3527C1 17.5098 1.94155 18.4514 3.0987 18.4514H16.3993C17.5564 18.4514 18.498 17.5098 18.498 16.3527V8.0943C18.498 6.94155 17.5564 6 16.3993 6Z" fill="#FDB035"/>
</svg>
